<?xml version="1.0" encoding="utf-8"?>
<!-- Generator: Adobe Illustrator 17.1.0, SVG Export Plug-In . SVG Version: 6.00 Build 0)  -->
<!DOCTYPE svg PUBLIC "-//W3C//DTD SVG 1.1//EN" "http://www.w3.org/Graphics/SVG/1.1/DTD/svg11.dtd">
<svg version="1.1" id="Layer_1" xmlns="http://www.w3.org/2000/svg" xmlns:xlink="http://www.w3.org/1999/xlink" x="0px" y="0px"
	 viewBox="-110 -98 220 220" style="enable-background:new -110 -98 220 220;" xml:space="preserve">
<style type="text/css">
	.st0{fill:#00789A;}
	.st1{clip-path:url(#SVGID_2_);fill:#036784;}
	.st2{clip-path:url(#SVGID_4_);fill:#036784;}
	.st3{clip-path:url(#SVGID_6_);}
	.st4{fill:#3B4250;}
	.st5{fill:#242C3C;}
	.st6{fill:#F4B505;}
	.st7{fill:#6DBEC4;}
	.st8{fill:#EFEEEE;}
	.st9{opacity:0.3;}
	.st10{fill:#86EAEA;}
	.st11{clip-path:url(#SVGID_8_);}
	.st12{fill:#E36A5C;}
	.st13{fill:#FFFFFF;}
	.st14{opacity:0.3;clip-path:url(#SVGID_10_);}
	.st15{clip-path:url(#SVGID_12_);}
</style>
<g id="circle">
	<circle class="st0" cx="-0.4287645" cy="11.5712347" r="99.5712357"/>
</g>
<g>
	<g>
		<g>
			<defs>
				<circle id="SVGID_1_" cx="-0.4287645" cy="11.5712347" r="99.5712357"/>
			</defs>
			<clipPath id="SVGID_2_">
				<use xlink:href="#SVGID_1_"  style="overflow:visible;"/>
			</clipPath>
			<path class="st1" d="M233.7230225,142.8495026l-3.7449188-4.6313629
				c0.4409027-0.3573761,0.6893158-0.9282227,0.5945435-1.5291443c-0.0848694-0.5381012-0.4243317-0.9696808-0.8740845-1.2016144
				c-0.0347595-0.0667267-0.072525-0.1304779-0.1155853-0.1911011l2.0920715-5.438446l-1.0350647,0.1632385l0.3328857-0.8653717
				l-1.0350647,0.1632233l0.3329163-0.8654022l-1.0350342,0.1632385l0.3328857-0.865387l-1.0350647,0.1632385l0.3328857-0.865387
				l-1.0350342,0.1632385l0.3328857-0.8654175l-1.0350342,0.1632385l0.332901-0.8653793l-1.0350342,0.1632309l0.3328857-0.8653793
				l-1.0350647,0.1632385l0.3328857-0.865387l-1.0350647,0.1632385l0.3329163-0.8654099l-1.0350342,0.1632309l0.3328857-0.8653793
				l-1.0350647,0.1632385l0.3328857-0.865387l-1.0350647,0.1632385l0.3329163-0.8654175l-1.0350189,0.1632385l0.3328857-0.8653793
				l-1.0350647,0.1632385l0.3328857-0.865387l-1.0350647,0.1632385l0.3329163-0.8654175l-1.0350342,0.1632385l0.3328857-0.8653793
				l-1.0350647,0.1632309l0.3328857-0.8653793l-1.0350647,0.1632385l0.3329163-0.8654175l-1.0350342,0.1632385l0.332901-0.8653793
				l-1.0350647,0.1632309l0.3328857-0.8653793l-1.0350647,0.1632385l0.3329163-0.8654175l-1.0350342,0.1632385l0.3328857-0.865387
				l-1.0350647,0.1632385l0.3328857-0.8653793l-1.0350342,0.1632385l0.3328857-0.8654175l-1.0350342,0.1632385l0.3328857-0.865387
				l-1.0350189,0.1632385l0.3328857-0.8653793l-1.0350647,0.1632385l0.3328857-0.865387l-1.0350647,0.1632385l0.3329163-0.8654175
				l-1.0350342,0.1632385l0.3328857-0.8653793l-1.0350647,0.1632309l0.3328857-0.8653793l-1.0350647,0.1632385l0.3329163-0.8654175
				l-1.0350342,0.1632385l0.3328857-0.865387l-1.0350494,0.1632385l0.3328857-0.8653793l-1.0350647,0.1632385l0.3329163-0.8654175
				l-1.0350342,0.1632385l0.3328857-0.865387l-1.0350647,0.1632385l0.3328857-0.8653793l-1.0350647,0.1632385l0.3329163-0.8654175
				l-1.0350342,0.1632385l0.3328857-0.865387l-1.0350494,0.1632385l0.3328857-0.8653793l-1.0350342,0.1632309l0.3328857-0.8654099
				l-1.0350342,0.1632385l0.3328857-0.865387l-1.0350342,0.1632385l0.3328857-0.8653793l-1.0350952,0.1632309l0.3329163-0.8654099
				l-1.0350342,0.1632385l0.3328857-0.865387l-1.0350342,0.1632385l0.3328857-0.865387l-1.0350494,0.1632385l0.3328857-0.8653793
				l-1.0350647,0.1632385l0.3329163-0.8654175l-1.0350342,0.1632385l0.3328857-0.865387l-1.0350647,0.1632385l0.3328857-0.8653793
				l-1.0350647,0.1632385l0.3329163-0.8654175l-1.0350342,0.1632385l0.3328857-0.865387l-1.0350647,0.1632385l0.332901-0.8653793
				l-1.0350647,0.1632309l0.3329163-0.8654099l-1.0350342,0.1632385l0.3328857-0.865387l-1.0350647,0.1632385l0.3328857-0.865387
				l-1.0350647,0.1632385l0.3329163-0.8654099l-1.0350342,0.1632385l0.3328857-0.865387l-1.0350647,0.1632385l0.3328857-0.865387
				l-1.0350189,0.1632385l0.3328857-0.8654099l-1.0350342,0.1632385l0.3328857-0.865387l-1.0350342,0.1632385l0.3328857-0.865387
				l-1.0350647,0.1632385l0.3328857-0.8653793l-1.0350647,0.1632309l0.3329163-0.8654099l-1.0350342,0.1632385l0.3328857-0.865387
				l-1.0350647,0.1632385l0.332901-0.8653793l-1.0350647,0.1632309l0.3329163-0.8654099l-1.0350342,0.1632385l0.3328857-0.865387
				l-1.0350647,0.1632385l0.3328857-0.865387l-1.0350647,0.1632385l0.3329163-0.8654099l-1.0350342,0.1632385l0.3328857-0.865387
				l-1.0350647,0.1632385l0.3328857-0.865387l-1.0350494,0.1632385l0.3329163-0.8654099l-1.0350342,0.1632385l0.3328857-0.865387
				l-1.0350647,0.1632385l0.3328857-0.865387l-1.0350647,0.1632385l0.3329163-0.8654099l-1.0350342,0.1632309l0.3328857-0.8653793
				l-1.0350342,0.1632385l0.3328857-0.865387l-1.0350952,0.1632385l0.3329163-0.8654175l-1.0350189,0.1632385l0.3328857-0.8653793
				l-1.0350342,0.1632385l0.3328857-0.865387l-1.0350647,0.1632385l0.3328857-0.865387l-1.0350647,0.1632385l0.3329163-0.8654099
				l-1.0350342,0.1632385l0.3328857-0.865387l-1.0350647,0.1632385l0.3328857-0.865387l-1.0350647,0.1632385l0.3329315-0.8654099
				l-1.0350342,0.1632309l0.3328857-0.8653793l-1.0350647,0.1632385l0.3328857-0.865387l-1.0350647,0.1632385l0.3329163-0.8654175
				l-1.0350342,0.1632385l0.3328857-0.8653793l-1.0350647,0.1632385l0.3328857-0.865387l-1.0350647,0.1632385l0.3329163-0.8654175
				l-1.0350189,0.1632385l0.3328857-0.8653793l-1.0350647,0.1632385l0.3328857-0.865387l-1.0350342,0.1632385l0.3328857-0.8654137
				l-1.0350342,0.1632347l0.3328857-0.8653831l-1.0350342,0.1632385l0.3328857-0.8653831l-1.0350647,0.1632385l0.3328857-0.865387
				l-1.0350647,0.1632385l0.3329315-0.8654137l-1.0350342,0.1632385l0.3328857-0.8653831l-1.0350647,0.1632347l0.3328857-0.8653831
				l-1.0350647,0.1632385l0.3329163-0.8654137l-1.0350342,0.1632385l0.3328857-0.865387l-1.0350647,0.1632385l0.3328857-0.8653831
				l-1.0350647,0.1632385l0.3329163-0.8654137l-1.0350189,0.1632347l0.3328857-0.8653831l-1.0350647,0.1632385l0.3328857-0.8653831
				l-1.0350647,0.1632385l0.3329163-0.8654137l-1.0350342,0.1632347l0.3328857-0.8653831l-1.0350647,0.1632385l0.3328857-0.8653831
				l-1.0350647,0.1632347l0.3329163-0.8654137l-1.0350342,0.1632385l0.3328857-0.8653831l-1.0350494,0.1632385l0.3328857-0.8653831
				l-1.0350342,0.1632347l0.3328857-0.8654137l-1.0350342,0.1632385l0.3328857-0.8653831l-1.0350342,0.1632385l0.3328857-0.865387
				l-1.0350647,0.1632385l0.3328857-0.8653831l-1.0350647,0.1632385l0.3329163-0.8654137l-1.0350342,0.1632347l0.332901-0.8653831
				l-1.0350647,0.1632385l0.3328857-0.8653831l-1.0350647,0.1632385l0.3329163-0.8654175l-1.0350342,0.1632385l0.3328857-0.8653831
				l-1.0350647,0.1632385l0.3328857-0.8653831l-1.0350647,0.1632347l0.3329163-0.8654137l-1.0350342,0.1632385l0.3328857-0.8653831
				l-1.0350494,0.1632385l0.3328857-0.865387l-1.0350647,0.1632385l0.3329163-0.8654137l-1.0350342,0.1632385l0.3328857-0.8653831
				l-1.0350647,0.1632347l0.3328857-0.8653831l-1.0350647,0.1632385l0.3329163-0.8654137l-1.0350342,0.1632385l0.3328857-0.8653831
				l-1.0350342,0.1632347l0.332901-0.8653831l-1.0350952,0.1632385l0.3329163-0.8654137l-1.0350342,0.1632347l0.3328857-0.8653831
				l-1.0350342,0.1632385l0.3328857-0.8653831l-1.0350647,0.1632385l0.3328857-0.8653831l-1.0350647,0.1632347l0.3329163-0.8654137
				l-1.0350342,0.1632385l0.3328857-0.8653831l-1.0350494,0.1632347l0.3328857-0.8653831L133.7424774,33.1236l0.3329163-0.8654137
				l-1.0350342,0.1632385l0.3328857-0.8653851l-1.0350647,0.1632385l0.3328857-0.8653851l-1.0350647,0.1632385l0.3329163-0.8654137
				l-1.0350342,0.1632366l0.3328857-0.8653831l-1.0350647,0.1632366l0.332901-0.8653831l-1.0350647,0.1632366l0.3329163-0.8654137
				l-1.0350342,0.1632385l0.3328857-0.8653851l-1.0350647,0.1632385l0.3328857-0.8653831l-1.0350342,0.1632366l0.3328857-0.8654137
				l-1.0350342,0.1632366l0.3328934-0.8653831l-1.0350342,0.1632385l0.3328857-0.8653851l-1.0350647,0.1632385l0.3328857-0.8653851
				l-1.0350647,0.1632385l0.3329163-0.8654137l-1.0350266,0.1632366l0.3328857-0.8653831l-1.0350647,0.1632366l0.3328857-0.8653831
				l-1.0350647,0.1632385l0.3329163-0.8654156l-1.0350266,0.1632385l0.3328857-0.8653831l-1.0350647,0.1632366l0.3328857-0.8653831
				l-1.0350647,0.1632366l0.3329163-0.8654137l-1.0350342,0.1632385l0.3328934-0.8653851l-1.0350647,0.1632385l0.3328857-0.8653851
				l-1.0350647,0.1632385l0.3329163-0.8654137l-1.0350342,0.1632366l0.3328857-0.8653831l-1.0350571,0.1632366l0.3328857-0.8653831
				l-1.0350647,0.1632376l0.3329163-0.8654137l-1.0350342,0.1632376l0.3328857-0.8653841l-1.0350571,0.1632376l0.3328857-0.8653841
				l-1.0350342,0.1632376l0.3328857-0.8654137l-1.0350342,0.1632376l0.3328857-0.8653841l-1.0350342,0.1632376l0.3328934-0.8653831
				l-1.0350647,0.1632376l0.3328857-0.8653841l-1.0350647,0.1632376l0.3329163-0.8654137l-1.0350342,0.1632376l0.3328934-0.8653841
				l-1.0350647,0.1632376l0.3328857-0.8653841l-1.0350647,0.1632376l0.3329163-0.8654137l-1.0350342,0.1632376l0.3328857-0.8653836
				l-1.0350571,0.1632376l0.3328857-0.8653841l-1.0350647,0.1632376l0.3329163-0.8654137l-1.0350342,0.1632371l0.3328857-0.8653836
				l-1.0350571,0.1632376l0.3328857-0.8653836l-1.0350647,0.1632376l0.3329163-0.8654141l-1.0350342,0.1632376l0.3328857-0.8653836
				l-1.0350647,0.1632376l0.3328934-0.8653839l-1.0350647,0.1632376l0.3329163-0.865414l-1.0350342,0.1632375l0.3328857-0.8653836
				l-1.0350342,0.1632375l0.3328857-0.8653837l-1.0350876,0.1632375l0.3329163-0.8654141l-1.0350342,0.1632375l0.3328857-0.8653837
				l-1.0350342,0.1632376l0.3328857-0.8653836l-1.0350571,0.1632375l0.3328857-0.8653837l-1.0350647,0.1632376l0.3329163-0.8654141
				l-1.0350342,0.1632376l0.3328857-0.8653839L96.5282364-4.090663l0.3328934-0.8653836L95.8260651-4.792809l0.3329163-0.8654141
				l-1.0350342,0.1632376l0.3328857-0.8653836l-1.0350647,0.1632376l0.3328934-0.8653836l-1.0350647,0.1632376l0.3329163-0.8654141
				l-1.0350342,0.1632376l0.3328857-0.8653836L92.3153-8.3036003l0.3328857-0.8653841l-1.0350571,0.1632376l0.3329163-0.8654137
				l-1.0350342,0.1632376l0.3328857-0.8653841l-1.0350647,0.1632376l0.3328857-0.8653831L89.506691-11.112216l0.3328857-0.8654137
				l-1.0350342,0.1632376l0.3328857-0.8653841l-1.0350342,0.1632376l0.3328857-0.8653831l-1.0350647,0.1632376l0.3328934-0.8653841
				l-1.0350647,0.1632376l0.3329163-0.8654137l-1.0350342,0.1632376l0.3328857-0.8653841l-1.0350647,0.1632376l0.3328857-0.8653831
				l-1.0350571,0.1632366l0.3329163-0.8654137l-1.0350342,0.1632366l0.3328857-0.8653831l-1.0350647,0.1632385l0.3328857-0.8653851
				l-1.0350571,0.1632385l0.3329163-0.8654137l-1.0350342,0.1632366l0.3328857-0.8653831l-1.0350647,0.1632366l0.3328857-0.8653831
				l-1.0350647,0.1632385l0.3329239-0.8654156l-1.0350342,0.1632385l0.3328857-0.8653851l-1.0350647,0.1632385l0.3328857-0.8653831
				l-1.0350647,0.1632366l0.3329163-0.8654137l-1.0350266,0.1632366l0.3328857-0.8653831l-1.0350647,0.1632385l0.3328857-0.8653851
				l-1.0350342,0.1632385l0.3328857-0.8654137l-1.0350266,0.1632366l0.3328857-0.8653831l-1.0350342,0.1632366l0.3328857-0.8653831
				l-1.0350647,0.1632366l0.3328857-0.8653831l-1.0350571,0.1632385l0.3329163-0.8654156l-1.0350342,0.1632385l0.3328857-0.8653831
				l-1.0350647,0.1632366l0.3328857-0.8653831l-1.0350647,0.1632366l0.3329239-0.8654137l-1.0350342,0.1632385l0.3328857-0.8653851
				l-1.0350647,0.1632385l0.3328857-0.8653851l-1.0350647,0.1632385l0.3329163-0.8654137l-1.0350266,0.1632385l0.3328857-0.865387
				l-1.0350647,0.1632385l0.3328857-0.8653831l-1.0350647,0.1632385l0.3329163-0.8654137l-1.0350266,0.1632347l0.3328857-0.8653831
				l-1.0350647,0.1632385l0.3328857-0.8653831l-1.0350342,0.1632385l0.3328857-0.8654137l-1.0350342,0.1632347l0.3328934-0.8653831
				l-1.035038,0.1632385l0.3328896-0.8653831l-1.0350952,0.1632347l0.3329163-0.8654137l-1.0350304,0.1632385l0.3328857-0.8653831
				l-1.0350342,0.1632385l0.3328896-0.8653831l-1.0350647,0.1632347l0.3328857-0.8653831l-1.0350609,0.1632385l0.3329163-0.8654137
				l-1.0350342,0.1632347l0.3328857-0.8653831l-1.0350609,0.1632385l0.3328857-0.8653831l-1.0350647,0.1632385l0.3329201-0.8654137
				l-1.0350342,0.1632347l0.3328857-0.8653831l-1.0350609,0.1632385l0.3328857-0.8653831l-1.0350647,0.1632385l0.3329163-0.8654175
				l-1.0350304,0.1632385l0.3328857-0.8653831l-12.9915428,2.0487633l-1.3546104,3.5213966
				c-0.0041008-0.0040398-0.0081444-0.0081444-0.0122452-0.0121841c-0.2311821-0.2367439-0.4655533-0.4700508-0.7015991-0.7015991
				c-0.2315483-0.2371063-0.4663467-0.4708405-0.7027855-0.702755c-0.2311211-0.2366524-0.4654617-0.4699593-0.7014465-0.7014771
				c-0.2313652-0.2369537-0.4659805-0.4704781-0.7022362-0.7022362c-0.2313652-0.2368965-0.4659195-0.470417-0.7021484-0.7021484
				c-0.2313614-0.2368927-0.46595-0.4704437-0.7021751-0.7021751c-0.2313347-0.2368965-0.4659195-0.470417-0.7021446-0.7021446
				c-0.2313652-0.2368965-0.4659195-0.470417-0.7021484-0.7021484c-0.2313652-0.2368927-0.46595-0.4704475-0.7021751-0.7021751
				c-0.2315483-0.2370758-0.4662857-0.4707832-0.7026939-0.7026939c-0.2311821-0.2367439-0.4655533-0.4700508-0.7015991-0.7015991
				c-0.2313652-0.2368927-0.46595-0.4704475-0.7021751-0.7021751c-0.2315483-0.2370796-0.4662857-0.4707832-0.7026939-0.7026939
				c-0.2311821-0.2367439-0.4655552-0.4700508-0.7015991-0.7015991c-0.2313652-0.2368965-0.46595-0.4704475-0.702177-0.7021751
				c-0.2315464-0.2370796-0.4662838-0.4707832-0.702692-0.7026939c-0.231184-0.2367439-0.4655552-0.4700546-0.7015991-0.7015991
				c-0.2313652-0.2368965-0.4659214-0.470417-0.7021465-0.7021484c-0.2315178-0.2370758-0.4663162-0.4708099-0.7027245-0.7027206
				c-0.2311821-0.2367439-0.4655552-0.4700546-0.7015991-0.7015991c-0.2315464-0.2371101-0.4663448-0.4708443-0.7027836-0.702755
				c-0.2311211-0.2366524-0.4654636-0.4699631-0.7014484-0.7014771c-0.2313633-0.2369576-0.4659805-0.4704781-0.7022362-0.70224
				c-0.2313652-0.2368927-0.4659195-0.470417-0.7021465-0.7021446c-0.2313652-0.2368965-0.46595-0.4704475-0.702177-0.7021751
				c-0.2315464-0.2370796-0.4662838-0.4707832-0.702692-0.7026939c-0.2311821-0.2367439-0.4655552-0.4700546-0.7015991-0.7015991
				c-0.2313652-0.2368965-0.46595-0.4704475-0.702177-0.702179c-0.2315464-0.2370758-0.4662838-0.4707794-0.7026939-0.7026901
				C10.643734-71.4987335-4.1009097-76.93853-19.4205914-74.5226364
				c-25.1124439,3.9602127-42.2599487,27.5285835-38.299736,52.6409988
				c1.5997696,10.1444578,6.4004173,18.9879379,13.2088966,25.6665154c0.2313652,0.2368946,0.4659195,0.4703865,0.7021484,0.7021461
				c0.2315445,0.2371078,0.4662819,0.4708118,0.7027245,0.7027235c0.2311516,0.236743,0.4655533,0.4700522,0.7015991,0.7015991
				c0.2313614,0.2368951,0.4659195,0.4703865,0.7021446,0.7021461c0.2315178,0.2370772,0.4662857,0.4707818,0.7026939,0.7026935
				c0.2313652,0.2369251,0.4659195,0.4704471,0.7021751,0.7021766c0.2311821,0.2367125,0.4655571,0.4700222,0.7015991,0.7015991
				c0.2315178,0.2370768,0.4662857,0.4707813,0.7026939,0.702693c0.2313652,0.2369251,0.4659195,0.4704475,0.7021751,0.702177
				c0.2311821,0.2367125,0.4655571,0.4700212,0.7015991,0.7015991c0.2315178,0.2370768,0.4662857,0.4707813,0.7026939,0.702693
				c0.2313652,0.2369251,0.4659195,0.4704475,0.7021751,0.7021761c0.2311821,0.2367125,0.4655571,0.4700222,0.7015991,0.7015991
				c0.2313652,0.2368956,0.4659233,0.4703865,0.7021484,0.7021465c0.2317276,0.2373199,0.4666786,0.4712677,0.703331,0.7033615
				c0.230938,0.2364693,0.4650688,0.4695663,0.700901,0.7008696c0.2313957,0.2369566,0.4659805,0.4704475,0.7022362,0.7022381
				c0.2315483,0.2371073,0.4662857,0.4708118,0.7027245,0.7027225c0.2311516,0.2367439,0.4655552,0.4700527,0.7015991,0.7015991
				c0.2313633,0.2368965,0.4659195,0.4703865,0.7021446,0.7021465c0.2315178,0.2370777,0.4662857,0.4707813,0.7026939,0.7026939
				c0.2313652,0.2369251,0.4659195,0.4704475,0.702177,0.7021751c0.2311821,0.2367134,0.4655552,0.4700222,0.7015991,0.701601
				c0.2315159,0.2370758,0.4662838,0.4707813,0.702692,0.702692c0.2313652,0.2369251,0.4659214,0.4704475,0.702177,0.702177
				c0.2311821,0.2367115,0.4655552,0.4700222,0.7015991,0.7015991c0.2315159,0.2370777,0.4662838,0.4707813,0.7026939,0.702692
				c0.2313633,0.236927,0.4659195,0.4704475,0.7021751,0.702177c0.231184,0.2367134,0.4655552,0.4700222,0.701601,0.7015991
				c0.2315159,0.2370777,0.4662838,0.4707813,0.702692,0.7026939c0.2313652,0.2369251,0.4659195,0.4704475,0.702177,0.702177
				c0.2311821,0.2367115,0.4655552,0.4700203,0.7015991,0.7015991c0.2313652,0.2368946,0.4659195,0.4703865,0.7021465,0.7021446
				c0.2315464,0.2371082,0.4662838,0.4708118,0.7027225,0.7027245c0.2311516,0.236742,0.4655552,0.4700527,0.7015991,0.7015991
				c0.2313652,0.2368946,0.4659195,0.4703865,0.7021465,0.7021465c0.2315464,0.2371063,0.4662838,0.4708118,0.7027245,0.7027225
				c0.2311516,0.2367439,0.4655533,0.4700527,0.7015991,0.7015991c0.2313633,0.2368946,0.4659195,0.4703865,0.7021446,0.7021465
				c0.2315178,0.2370777,0.4662857,0.4707813,0.7026939,0.7026939c0.2313652,0.2369251,0.4659195,0.4704456,0.7021761,0.702177
				c0.2311831,0.2367096,0.4655552,0.4700203,0.7015991,0.7015991c0.2315168,0.2370758,0.4662848,0.4707794,0.7026939,0.7026901
				c0.2313643,0.236927,0.4659195,0.4704475,0.7021761,0.702179c0.2311821,0.2367134,0.4655552,0.4700203,0.7015991,0.7015991
				c0.2315168,0.2370758,0.4662848,0.4707794,0.702693,0.7026939c0.2313652,0.2369232,0.4659204,0.4704475,0.702177,0.7021751
				c0.2311821,0.2367134,0.4655552,0.4700203,0.7015991,0.7015991c0.2313643,0.2368965,0.4659195,0.4703865,0.7021456,0.7021446
				c0.2317295,0.2373238,0.4666796,0.4712677,0.7033319,0.7033615c0.2309389,0.2364731,0.4650688,0.4695663,0.7009001,0.7008705
				c0.2313948,0.2369576,0.4659805,0.4704475,0.7022371,0.70224c0.2315469,0.2371063,0.4662848,0.4708099,0.7027235,0.7027206
				c0.2311521,0.2367439,0.4655552,0.4700546,0.7015996,0.7015991c0.2313643,0.2368965,0.4659195,0.4703865,0.7021461,0.7021484
				c0.2315469,0.2371063,0.4662843,0.4708099,0.7027235,0.7027245c0.2311516,0.2367401,0.4655552,0.4700508,0.7015991,0.7015991
				c0.2313647,0.2368927,0.4659195,0.4703865,0.7021461,0.7021446c0.2315166,0.2370758,0.4662845,0.4707832,0.7026932,0.7026939
				c0.2313645,0.2369232,0.4659197,0.4704475,0.7021766,0.7021751c0.2311821,0.2367134,0.4655551,0.4700241,0.7015991,0.7015991
				c0.2315165,0.2370796,0.4662844,0.4707832,0.7026932,0.7026939c0.2313645,0.236927,0.4659197,0.4704475,0.7021766,0.7021751
				c0.2311822,0.2367134,0.4655551,0.4700241,0.7015992,0.7015991c0.2315165,0.2370796,0.4662843,0.4707832,0.7026931,0.7026939
				c0.2313646,0.236927,0.4659197,0.4704475,0.7021766,0.702179c0.2311822,0.2367096,0.4655551,0.4700203,0.7015992,0.7015991
				c0.2313645,0.2368927,0.4659197,0.4703865,0.7021461,0.7021446c0.2317293,0.2373199,0.4666793,0.4712677,0.7033312,0.7033615
				c0.2309394,0.2364693,0.4650688,0.4695663,0.7009006,0.7008705c0.2313948,0.2369537,0.4659805,0.4704475,0.7022371,0.7022362
				c0.2315469,0.2371063,0.4662843,0.4708138,0.7027235,0.7027245c0.2311521,0.2367439,0.4655552,0.4700508,0.7015991,0.7015991
				c0.2313647,0.2368927,0.46592,0.4703865,0.7021461,0.7021446c0.2315168,0.2370796,0.4662848,0.4707832,0.7026935,0.7026939
				c0.2313643,0.236927,0.4659195,0.4704475,0.7021761,0.7021751c0.2311821,0.2367134,0.4655552,0.4700241,0.7015991,0.7015991
				c0.2315168,0.2370796,0.4662848,0.4707832,0.7026939,0.7026939c0.2313643,0.236927,0.4659195,0.4704475,0.7021761,0.702179
				c0.2311821,0.2367096,0.4655552,0.4700203,0.7015991,0.7015991c0.2315168,0.2370758,0.4662848,0.4707794,0.702693,0.7026901
				c0.2313652,0.236927,0.4659204,0.4704475,0.702177,0.702179c0.2311821,0.2367134,0.4655552,0.4700203,0.7015991,0.7015991
				c0.2315159,0.2370758,0.4662838,0.4707794,0.702693,0.7026939c0.2313643,0.2369232,0.4659195,0.4704475,0.7021761,0.7021751
				c0.2311831,0.2367134,0.4655552,0.4700203,0.7016001,0.7015953c0.2313643,0.2369003,0.4659185,0.4703903,0.7021456,0.7021484
				c0.2315464,0.2371063,0.4662838,0.4708099,0.7027245,0.7027283c0.2311516,0.2367401,0.4655552,0.470047,0.7015991,0.7015991
				c0.2313633,0.2368927,0.4659195,0.4703827,0.7021446,0.7021408c0.2315483,0.2371063,0.4662857,0.4708176,0.7027245,0.7027283
				c0.2311516,0.2367401,0.4655552,0.470047,0.7015991,0.7015991c0.2313652,0.2368927,0.4659195,0.4703827,0.7021465,0.7021408
				c0.2315159,0.2370834,0.4662838,0.470787,0.702692,0.7026978c0.2313652,0.2369232,0.4659195,0.4704437,0.702177,0.7021713
				c0.2311821,0.2367172,0.4655552,0.4700241,0.7015991,0.7015991c0.2315159,0.2370834,0.4662838,0.470787,0.7026939,0.7026978
				c0.2313633,0.2369232,0.4659195,0.4704437,0.7021751,0.702179c0.231184,0.2367096,0.4655552,0.4700165,0.7015991,0.7015991
				c0.2315178,0.2370758,0.4662857,0.4707794,0.7026939,0.7026901c0.2313652,0.2369232,0.4659195,0.4704437,0.702177,0.702179
				c0.2311821,0.2367096,0.4655552,0.4700165,0.7015991,0.7015991c0.2313633,0.2368927,0.4659195,0.4703827,0.7021465,0.7021408
				c0.2317276,0.2373199,0.4666786,0.4712677,0.703331,0.7033615c0.230938,0.2364731,0.4650688,0.4695663,0.7008991,0.7008743
				c0.2313957,0.2369537,0.4659805,0.4704437,0.7022381,0.7022324c0.2315464,0.237114,0.4662838,0.4708176,0.7027225,0.7027283
				c0.2311535,0.2367401,0.4655552,0.470047,0.701601,0.7015991c0.2313633,0.2368927,0.4659195,0.4703827,0.7021446,0.7021484
				c0.2315483,0.2371063,0.4662857,0.4708099,0.7027245,0.7027206c0.2311516,0.2367401,0.4655533,0.4700546,0.7015991,0.7015991
				c0.2313652,0.2368927,0.4659195,0.4703827,0.7021446,0.7021484c0.2315178,0.2370758,0.4662857,0.4707794,0.7026939,0.7026901
				c0.2313652,0.2369232,0.4659195,0.4704437,0.7021751,0.702179c0.2311859,0.2367096,0.4655571,0.4700165,0.7016029,0.7015991
				c0.231514,0.2370758,0.4662819,0.4707794,0.7026901,0.7026901c0.2313652,0.2369232,0.4659195,0.4704514,0.702179,0.702179
				c0.2311821,0.2367096,0.4655533,0.4700165,0.7015991,0.7015991c0.231514,0.2370758,0.4662819,0.4707794,0.7026901,0.7026901
				c0.2313652,0.2369232,0.4659233,0.4704514,0.702179,0.702179c0.2311821,0.2367096,0.4655533,0.4700241,0.7015991,0.7015991
				c0.2313652,0.2368927,0.4659195,0.4703827,0.7021446,0.7021484c0.2317314,0.2373199,0.4666786,0.4712677,0.703331,0.7033615
				c0.2309418,0.2364655,0.4650688,0.4695663,0.700901,0.7008667c0.2313957,0.2369537,0.4659805,0.4704437,0.7022362,0.70224
				c0.2315483,0.2371063,0.4662857,0.4708099,0.7027245,0.7027206c0.2311516,0.2367401,0.4655571,0.4700546,0.7015991,0.7015991
				c0.2313652,0.2368927,0.4659195,0.4703903,0.7021484,0.7021484c0.231514,0.2370758,0.4662819,0.4707794,0.7026901,0.7026901
				c0.2313652,0.2369232,0.4659195,0.4704514,0.702179,0.702179c0.2311821,0.2367096,0.4655533,0.4700241,0.7015991,0.7015991
				c0.231514,0.2370758,0.4662819,0.4707794,0.7026939,0.7026901c0.2313614,0.2369232,0.4659195,0.4704514,0.7021751,0.702179
				c0.2311821,0.2367096,0.4655533,0.4700241,0.7015991,0.7015991c0.2315178,0.2370758,0.4662857,0.4707794,0.7026939,0.7026901
				c0.2313652,0.2369308,0.4659195,0.4704514,0.7021751,0.702179c0.2311821,0.2367096,0.4655571,0.4700241,0.7015991,0.7015991
				c0.2315178,0.2370758,0.4662857,0.4707794,0.7026939,0.7026901c0.2315483,0.2371445,0.4663467,0.4709091,0.7027855,0.7028198
				c0.230938,0.2364655,0.4650688,0.4695663,0.7008972,0.7008667c0.2313957,0.2369537,0.4659805,0.4704514,0.70224,0.70224
				c0.2315445,0.2371063,0.4662819,0.4708099,0.7027206,0.7027206c0.2311554,0.2367477,0.4655571,0.4700546,0.7016029,0.7015991
				c0.2313614,0.2368927,0.4659195,0.4703903,0.7021446,0.7021484c0.2315483,0.2371063,0.4662857,0.4708099,0.7027245,0.7027206
				c0.2311516,0.2367477,0.4655533,0.4700546,0.7015991,0.7015991c0.2313652,0.2369003,0.4659195,0.4703903,0.7021446,0.7021484
				c0.2315178,0.2370758,0.4662857,0.4707794,0.7026939,0.7026901c0.2313652,0.2369308,0.4659195,0.4704514,0.7021751,0.702179
				c0.2311821,0.2367096,0.4655571,0.4700241,0.7015991,0.7015991c0.2315178,0.2370758,0.4662857,0.4707794,0.7026939,0.7026901
				c0.2313652,0.2369308,0.4659195,0.4704514,0.7021751,0.702179c0.2311821,0.2367172,0.4655571,0.4700241,0.7015991,0.7015991
				c0.2315178,0.2370758,0.4662857,0.4707794,0.7026939,0.7026978c0.2313652,0.2369232,0.4659233,0.4704437,0.7021751,0.7021713
				c0.2311859,0.2367172,0.4655609,0.4700241,0.7015991,0.7015991c0.231369,0.2369003,0.4659195,0.4703903,0.7021484,0.7021484
				c0.2317276,0.2373199,0.4666824,0.4712677,0.703331,0.7033615c0.2309418,0.2364655,0.4650726,0.4695663,0.7008972,0.7008667
				c0.2313995,0.2369614,0.4659805,0.4704514,0.70224,0.70224c0.2315445,0.2371063,0.4662857,0.4708099,0.7027206,0.7027206
				c0.2311554,0.2367477,0.4655609,0.4700546,0.7015991,0.7015991c0.231369,0.2369003,0.4659271,0.4703903,0.7021484,0.7021484
				c0.2315216,0.2370758,0.4662857,0.4707794,0.7026978,0.7026901c0.2313614,0.2369308,0.4659195,0.4704514,0.7021713,0.702179
				c0.2311859,0.2367172,0.4655533,0.4700241,0.7015991,0.7015991c0.2315216,0.2370758,0.4662857,0.4707794,0.7026978,0.7026978
				c0.2313614,0.2369232,0.4659195,0.4704437,0.7021713,0.7021713c0.2311859,0.2367172,0.4655609,0.4700241,0.7015991,0.7015991
				c0.2315216,0.2370758,0.4662857,0.470787,0.7026978,0.7026978c0.2313614,0.2369232,0.4659195,0.4704437,0.7021713,0.7021713
				c0.2311859,0.2367172,0.4655609,0.4700241,0.7015991,0.7015991c0.2315216,0.2370834,0.4662857,0.470787,0.7026978,0.7026978
				c0.2313614,0.2369232,0.4659195,0.4704437,0.702179,0.7021713c0.2311783,0.2367172,0.4655533,0.4700241,0.7015991,0.7015991
				c0.2313614,0.2369003,0.4659195,0.4703903,0.7021408,0.7021484c0.2317276,0.2373199,0.4666824,0.4712677,0.703331,0.7033691
				c0.2309418,0.2364655,0.4650726,0.4695587,0.7009048,0.7008667c0.2313919,0.2369537,0.4659805,0.4704437,0.7022324,0.70224
				c0.2315521,0.2371063,0.4662857,0.4708099,0.7027283,0.702713c0.2311478,0.2367554,0.4655533,0.4700623,0.7015991,0.7015991
				c0.2313614,0.2368927,0.4659195,0.4703979,0.7021408,0.7021484c0.2315216,0.2370758,0.4662857,0.4707794,0.7026978,0.7026978
				c0.2313614,0.2369232,0.4659195,0.4704437,0.7021713,0.702179c0.2311859,0.2367096,0.4655609,0.4700165,0.7015991,0.7015991
				c0.2315216,0.2370758,0.4662857,0.4707794,0.7026978,0.7026825c0.2313614,0.2369385,0.4659195,0.470459,0.702179,0.702179
				c0.2311783,0.2367096,0.4655533,0.4700317,0.7015991,0.7015991c0.231514,0.2370758,0.4662781,0.4707794,0.7026901,0.7026978
				c0.2313614,0.2369232,0.4659195,0.4704437,0.702179,0.702179c0.2311783,0.2367096,0.4655533,0.4700165,0.7015991,0.7015991
				c0.231514,0.2370758,0.4662781,0.4707794,0.7026901,0.7026825c0.2315445,0.2371521,0.4663162,0.4709167,0.7027817,0.7028198
				c0.2309418,0.2364655,0.4650726,0.469574,0.7009048,0.7008667c0.2313919,0.2369537,0.4659805,0.470459,0.7022324,0.70224
				c0.2315521,0.2371063,0.4662857,0.4708099,0.7027283,0.7027283c0.2311478,0.2367401,0.4655533,0.470047,0.7015991,0.7015991
				c0.2313614,0.2368927,0.4659195,0.4703827,0.7021484,0.7021484c0.2315445,0.2371063,0.4662781,0.4708099,0.7027206,0.702713
				c0.2311478,0.2367554,0.4655533,0.4700623,0.7015991,0.7015991c0.2313614,0.236908,0.4659195,0.4703979,0.7021484,0.7021484
				c0.231514,0.2370758,0.4662781,0.4707794,0.7026901,0.7026978c0.2313614,0.2369232,0.4659195,0.4704437,0.702179,0.702179
				c0.2311783,0.2367096,0.4655533,0.4700165,0.7015991,0.7015991c0.231514,0.2370758,0.4662857,0.4707794,0.7026901,0.7026978
				c0.231369,0.2369232,0.4659195,0.4704437,0.702179,0.7021637c0.2311783,0.2367249,0.4655533,0.4700317,0.7015991,0.7015991
				c0.231514,0.2370758,0.4662857,0.4707947,0.7026901,0.7026978c0.231369,0.2369232,0.4659195,0.4704437,0.702179,0.702179
				c0.2311783,0.2367096,0.4655533,0.4700165,0.7015991,0.7015991c0.2313614,0.2368927,0.4659195,0.4703827,0.7021484,0.7021484
				c0.2317276,0.2373199,0.4666748,0.4712677,0.703331,0.7033539c0.2309341,0.2364807,0.465065,0.469574,0.7008972,0.7008667
				c0.2313919,0.236969,0.4659805,0.470459,0.70224,0.70224c0.2315445,0.2371063,0.4662857,0.4708099,0.7027206,0.7027283
				c0.2311554,0.2367401,0.4655533,0.470047,0.7015991,0.7015991c0.2313614,0.2368927,0.4659195,0.4703827,0.7021484,0.7021484
				c0.231514,0.2370758,0.4662857,0.4707794,0.7026901,0.7026978c0.231369,0.2369232,0.4659195,0.4704437,0.702179,0.7021637
				c0.2311783,0.2367249,0.4655533,0.4700317,0.7015991,0.7015991c0.231514,0.2370758,0.4662857,0.4707947,0.7026901,0.7026978
				c0.231369,0.2369232,0.4659195,0.4704437,0.702179,0.702179c0.2311783,0.2367096,0.4655533,0.4700165,0.7015991,0.7015991
				c0.231514,0.2370758,0.4662857,0.4707794,0.7026901,0.7026978c0.231369,0.2369232,0.4659195,0.4704437,0.702179,0.7021637
				c0.2311859,0.2367249,0.4655533,0.4700317,0.7015991,0.7015991c0.231514,0.2370911,0.4662857,0.4707947,0.7026901,0.7026978
				c0.231369,0.2369232,0.4659195,0.4704437,0.702179,0.702179c0.2311859,0.2367096,0.4655533,0.4700165,0.7015991,0.7015991
				c0.231369,0.2368927,0.4659195,0.4703827,0.7021484,0.7021484c0.2317276,0.2373199,0.4666748,0.4712677,0.703331,0.7033539
				c0.2309418,0.2364807,0.465065,0.469574,0.7008972,0.700882c0.2313995,0.2369537,0.4659805,0.4704437,0.70224,0.7022247
				c0.2315445,0.2371216,0.4662857,0.4708252,0.7027206,0.7027283c0.2311554,0.2367401,0.4655609,0.470047,0.7015991,0.7015991
				c0.231369,0.2368927,0.4659195,0.4703827,0.7021484,0.7021484c0.231514,0.2370758,0.4662857,0.4707794,0.7026901,0.7026978
				c0.231369,0.2369232,0.4659195,0.4704437,0.702179,0.702179c0.2311859,0.2367096,0.4655533,0.4700165,0.7015991,0.7015991
				c0.231514,0.2370758,0.4662857,0.4707794,0.7026901,0.7026825c0.231369,0.2369232,0.4659271,0.4704437,0.702179,0.702179
				c0.2311859,0.2367096,0.4655533,0.4700165,0.7015991,0.7015991c0.2315216,0.2370758,0.4662857,0.4707794,0.7026978,0.7026978
				c0.2313614,0.2369232,0.4659195,0.4704437,0.7021713,0.702179c0.2311859,0.2367096,0.4655533,0.4700165,0.7015991,0.7015991
				c0.2315216,0.2370758,0.4662857,0.4707794,0.7026901,0.7026825c0.2315521,0.2371368,0.4663239,0.4709015,0.7027893,0.7028198
				c0.2309418,0.2364655,0.4650726,0.4695587,0.7008972,0.7008667c0.2313995,0.2369537,0.4659882,0.4704437,0.70224,0.70224
				c0.2315521,0.2371063,0.4662781,0.4708099,0.7027283,0.7027283
				c10.0693054,10.3109436,24.8140106,15.7507477,40.1336975,13.3348541
				c11.9720306-1.8880005,22.1311951-8.2345123,29.05867-17.0782623l15.4445801,11.2368622
				c0.3668213,0.2672577,0.8077087,0.3602295,1.2231293,0.2947235c0.4155884-0.0655518,0.806488-0.2897034,1.0732574-0.6568451
				c0.5343781-0.7339935,0.3722076-1.7624207-0.3621216-2.2963562l-0.2375336-0.1728363
				c-0.1124878-0.2017365-0.2655487-0.3845367-0.4646454-0.5293121l-0.2375031-0.1728058
				c-0.1124878-0.201767-0.2655182-0.3845673-0.4646454-0.5293274l-0.2375031-0.172821
				c-0.1124878-0.201767-0.2655182-0.3845978-0.4646454-0.5293579l-0.2375336-0.1728516
				c-0.1124878-0.2017365-0.2655487-0.3845367-0.4646454-0.5292969l-0.2374878-0.1728058
				c-0.1125031-0.201767-0.2655334-0.3845825-0.4646454-0.5293427l-0.2375031-0.1728058
				c-0.1125031-0.201767-0.2655182-0.384613-0.4646454-0.5293732l-0.2375336-0.1728363
				c-0.1124878-0.2017365-0.2655487-0.384552-0.4646454-0.5293121l-0.2375031-0.1728058
				c-0.1124878-0.201767-0.2655182-0.3845673-0.4646454-0.5293427l-0.2375031-0.1728058
				c-0.1124878-0.201767-0.2655182-0.3845978-0.4646454-0.5293579l-0.2375336-0.1728516
				c-0.1124878-0.2017365-0.2655487-0.3845367-0.4646454-0.5292969l-0.2375031-0.1728058
				c-0.1124878-0.2017822-0.2655182-0.3845825-0.4646301-0.5293427l-0.2375031-0.1728058
				c-0.1125031-0.201767-0.2655182-0.384613-0.4646454-0.5293732l-0.2375336-0.1728058
				c-0.1125031-0.2017365-0.2655182-0.3845825-0.4646149-0.5293427l-0.2375336-0.1728363
				c-0.1124878-0.2017365-0.2655487-0.384552-0.4646454-0.5293121l-0.2375031-0.1728058
				c-0.1124878-0.201767-0.2655182-0.3845978-0.4646454-0.5293579l-0.2375336-0.172821
				c-0.1124878-0.2017365-0.2655182-0.3845673-0.4646149-0.5293274l-0.2375336-0.1728516
				c-0.1124878-0.2017365-0.2655487-0.3845367-0.4646454-0.5292969l-0.2375031-0.1728058
				c-0.1124878-0.201767-0.2655182-0.384613-0.4646301-0.5293732l-0.2375336-0.1728058
				c-0.1125031-0.2017365-0.2655182-0.3845825-0.4646149-0.5293427l-0.2375336-0.1728363
				c-0.0643005-0.1153564-0.1409607-0.2243195-0.2339478-0.3232269c4.8841705-8.390625,7.1551056-18.3683472,5.8986969-28.6751099
				l6.7500458-1.0644684l0.082962,0.1025848l0.1192017-0.0188141l0.5829468,0.7209625l0.1192017-0.0188141l0.5829773,0.7209625
				l0.1191711-0.0187836l0.582962,0.7209473l0.1192169-0.0187988l0.5829315,0.7209473l0.1192169-0.0187988l0.582962,0.7209473
				l0.1191711-0.0187836l0.5829773,0.7209625L233.7230225,142.8495026z"/>
		</g>
		<g>
			<defs>
				<circle id="SVGID_3_" cx="-0.4287645" cy="11.5712347" r="99.5712357"/>
			</defs>
			<clipPath id="SVGID_4_">
				<use xlink:href="#SVGID_3_"  style="overflow:visible;"/>
			</clipPath>
			<path class="st2" d="M183.1044159,205.7454834c-0.2173004-0.2504883-0.451767-0.4849548-0.70224-0.70224
				c-0.2173309-0.2504883-0.451767-0.4849396-0.70224-0.70224c-0.2172394-0.2503815-0.4516449-0.4847565-0.7019958-0.7019958
				c-0.2173004-0.250473-0.451767-0.4849396-0.70224-0.70224c-0.2172699-0.250412-0.4516907-0.484848-0.7021179-0.7021179
				c-0.2173157-0.2505341-0.4518738-0.4850616-0.7023926-0.7023926c-0.2171936-0.2503204-0.4515686-0.484726-0.7019196-0.7019196
				c-0.2172699-0.2504272-0.4517059-0.4848938-0.7021484-0.7021484c-0.2173309-0.2505493-0.451889-0.4850616-0.7023926-0.7023926
				c-0.2172089-0.2503204-0.4515533-0.4846649-0.7018738-0.7018738c-0.2173004-0.2504425-0.4517517-0.4849396-0.70224-0.70224
				c-0.2173462-0.2505035-0.4518433-0.4850311-0.7023621-0.7023621c-0.2171936-0.2503204-0.4515381-0.4846649-0.7018738-0.7018738
				c-0.2172852-0.2504425-0.4517517-0.4849396-0.7022247-0.7022247c-0.2173615-0.2505188-0.4518585-0.4850311-0.7023621-0.7023621
				c-0.2172089-0.2503204-0.4515533-0.4846649-0.7018738-0.7018738c-0.2173004-0.2504425-0.451767-0.4849396-0.70224-0.70224
				c-0.2173309-0.250473-0.4517517-0.4849396-0.70224-0.70224c-0.2172241-0.2503815-0.4516296-0.4847565-0.7019958-0.7019958
				c-0.2172852-0.250473-0.4517517-0.4849396-0.7022247-0.7022247c-0.2173309-0.2504883-0.451767-0.4849548-0.70224-0.70224
				c-0.2173004-0.2504578-0.4517059-0.4848785-0.7021484-0.7021484c-0.2172394-0.2503815-0.4516754-0.4848175-0.7020569-0.7020569
				c-0.2172699-0.250412-0.4517059-0.4848785-0.7021484-0.7021484c-0.2173309-0.2505341-0.4518738-0.4850616-0.7023926-0.7023926
				c-0.2171936-0.2503204-0.4515686-0.484726-0.7019348-0.7019348c-0.2172546-0.250412-0.4516907-0.4848785-0.7021332-0.7021332
				c-0.2173309-0.2505493-0.451889-0.4850616-0.7023926-0.7023926c-0.2172089-0.2503357-0.4515533-0.4846649-0.7018738-0.7018738
				c-0.2173004-0.2504425-0.451767-0.4849396-0.70224-0.70224c-0.2173615-0.2505035-0.4518433-0.4850311-0.7023621-0.7023621
				c-0.2171936-0.2503204-0.4515381-0.4846649-0.7018738-0.7018738c-0.2172852-0.2504425-0.4517517-0.4849396-0.7022247-0.7022247
				c-0.2173615-0.2505188-0.4518585-0.4850464-0.7023621-0.7023621c-0.2172089-0.2503357-0.4515533-0.4846649-0.7018738-0.7018738
				c-0.2173004-0.250473-0.451767-0.4849396-0.70224-0.70224c-0.2173309-0.250473-0.451767-0.4849396-0.70224-0.70224
				c-0.2172394-0.2503815-0.4516296-0.4847565-0.7019958-0.7019958c-0.2172852-0.250473-0.4517517-0.4849396-0.70224-0.70224
				c-0.2172546-0.250412-0.4516907-0.484848-0.7021027-0.7021027c-0.2173309-0.2505493-0.451889-0.4850769-0.7023926-0.7023926
				c-0.2172089-0.2503357-0.4515839-0.484726-0.7019348-0.7019348c-0.2172699-0.250412-0.4517059-0.4848785-0.7021484-0.7021484
				c-0.2173309-0.2505341-0.4518738-0.4850616-0.7023926-0.7023926c-0.2171936-0.2503204-0.4515686-0.484726-0.7019348-0.7019348
				c-0.2172546-0.250412-0.4516907-0.4848785-0.7021332-0.7021332c-0.2173309-0.2505493-0.451889-0.4850769-0.7023926-0.7023926
				c-0.2172089-0.2503357-0.4515533-0.4846649-0.7018738-0.7018738c-0.2173004-0.2504578-0.451767-0.4849396-0.70224-0.70224
				c-0.2173615-0.2505035-0.4518585-0.4850311-0.7023621-0.7023621c-0.2172089-0.2503204-0.4515381-0.4846649-0.7018738-0.7018738
				c-0.2172852-0.2504425-0.4517517-0.4849396-0.70224-0.70224c-0.2173462-0.2505035-0.4518433-0.4850311-0.7023468-0.7023468
				c-0.2172089-0.2503357-0.4515533-0.4846802-0.7018738-0.7018738c-0.2173004-0.2504883-0.451767-0.4849396-0.70224-0.70224
				c-0.2173309-0.250473-0.451767-0.4849396-0.70224-0.70224c-0.2172394-0.2503815-0.4516296-0.4847565-0.7019958-0.7019958
				c-0.2173004-0.250473-0.4517517-0.4849396-0.70224-0.70224c-0.2172546-0.250412-0.4516907-0.484848-0.7021179-0.7021179
				c-0.2173157-0.2505341-0.4518738-0.4850616-0.7023773-0.7023773c-0.2172089-0.2503357-0.4515839-0.4847412-0.7019348-0.7019348
				c-0.2172699-0.2504272-0.4517059-0.4848785-0.7021484-0.7021484c-0.2173309-0.2505341-0.451889-0.4850616-0.7023926-0.7023926
				c-0.2172089-0.2503204-0.4515381-0.4846649-0.7018738-0.7018738c-0.2172852-0.2504425-0.4517517-0.4849396-0.70224-0.70224
				c-0.2173462-0.2505035-0.4518433-0.4850311-0.7023468-0.7023468c-0.2172089-0.2503357-0.4515533-0.4846802-0.7018738-0.7018738
				c-0.2173004-0.2504578-0.451767-0.4849396-0.70224-0.70224c-0.2173615-0.2505035-0.4518585-0.4850311-0.7023621-0.7023621
				c-0.2172089-0.2503204-0.4515533-0.4846649-0.7018738-0.7018738c-0.2173004-0.2504425-0.4517517-0.4849396-0.70224-0.70224
				c-0.2173157-0.250473-0.4517517-0.4849396-0.70224-0.70224c-0.2172241-0.2503815-0.4516296-0.4847565-0.7019806-0.7019806
				c-0.2173004-0.2504883-0.451767-0.4849548-0.70224-0.70224c-0.2173309-0.2504883-0.451767-0.4849396-0.70224-0.70224
				c-0.2173004-0.2504425-0.4517059-0.4848785-0.7021484-0.7021484c-0.2172394-0.2503815-0.4516602-0.4848175-0.7020569-0.7020569
				c-0.2172546-0.250412-0.4516907-0.4848785-0.7021484-0.7021484c-0.2173157-0.2505341-0.4518738-0.4850616-0.7023849-0.7023773
				c-0.2172012-0.2503357-0.4515762-0.4847412-0.7019348-0.7019348c-0.2172623-0.2504272-0.4516983-0.4848785-0.7021408-0.7021484
				c-0.2173309-0.2505341-0.4518814-0.4850616-0.7023926-0.7023926c-0.2172012-0.2503204-0.4515457-0.4846649-0.7018738-0.7018738
				c-0.2172928-0.2504425-0.4517593-0.4849396-0.7022324-0.70224c-0.2173615-0.2505035-0.4518509-0.4850311-0.7023621-0.7023621
				c-0.2172012-0.2503204-0.4515457-0.4846649-0.7018738-0.7018585c-0.2172928-0.2504578-0.4517593-0.4849548-0.70224-0.70224
				c-0.2173538-0.2505188-0.4518433-0.4850311-0.7023544-0.7023621c-0.2172012-0.2503204-0.4515457-0.4846649-0.7018738-0.7018738
				c-0.2172928-0.250473-0.4517593-0.4849396-0.70224-0.70224c-0.2173233-0.250473-0.4517593-0.4849396-0.7022324-0.70224
				c-0.2172394-0.2503815-0.4516373-0.4847565-0.7019958-0.7019958c-0.2172928-0.250473-0.4517593-0.4849396-0.70224-0.7022247
				c-0.2172623-0.2504272-0.4516983-0.4848633-0.7021103-0.7021179c-0.2173309-0.2505341-0.4518814-0.4850616-0.7023926-0.7023926
				c-0.2172012-0.2503204-0.4515762-0.484726-0.7019348-0.7019348c-0.2172623-0.250412-0.4516983-0.4848785-0.7021408-0.7021484
				c-0.2173309-0.2505341-0.4518814-0.4850616-0.7023926-0.7023926c-0.2172012-0.2503204-0.4515762-0.484726-0.7019348-0.7019196
				c-0.2172623-0.2504272-0.4516983-0.4848938-0.7021484-0.7021484c-0.2173233-0.2505493-0.4518814-0.4850616-0.7023849-0.7023926
				c-0.2172089-0.2503204-0.4515457-0.4846649-0.7018738-0.7018738c-0.2172928-0.2504425-0.4517593-0.4849396-0.70224-0.70224
				c-0.2173538-0.2505035-0.4518509-0.4850311-0.7023544-0.7023621c-0.2172089-0.2503204-0.4515457-0.4846649-0.7018738-0.7018738
				c-0.2172928-0.2504425-0.4517593-0.4849396-0.70224-0.7022247c-0.2173538-0.2505188-0.4518509-0.4850311-0.7023544-0.7023621
				c-0.2172089-0.2503357-0.4515457-0.4846649-0.7018738-0.7018738c-0.2173004-0.250473-0.4517593-0.4849396-0.70224-0.70224
				c-0.2173233-0.250473-0.4517593-0.4849396-0.7022324-0.70224c-0.2172394-0.2503815-0.4516449-0.4847565-0.7019958-0.7019882
				c-0.2173004-0.2504807-0.4517593-0.4849472-0.70224-0.70224c-0.2172623-0.2504196-0.4516983-0.484848-0.7021179-0.7021179
				c-0.2173233-0.2505341-0.4518814-0.4850616-0.7023849-0.7023849c-0.2172089-0.2503281-0.4515762-0.4847336-0.7019348-0.7019348
				c-0.2172623-0.2504196-0.4516983-0.4848785-0.7021484-0.7021484c-0.2173233-0.2505341-0.4518814-0.4850616-0.7023849-0.7023849
				c-0.2172089-0.2503281-0.4515457-0.4846725-0.7018738-0.7018738c-0.2172928-0.2504501-0.4517593-0.4849396-0.70224-0.70224
				c-0.2173538-0.2505035-0.4518509-0.4850311-0.7023544-0.7023544c-0.2172089-0.2503281-0.4515533-0.4846725-0.7018738-0.7018738
				c-0.2173004-0.2504501-0.4517593-0.4849472-0.70224-0.70224c-0.2173538-0.2505035-0.4518509-0.4850311-0.7023544-0.7023544
				c-0.2172089-0.2503281-0.4515533-0.4846725-0.7018738-0.7018738c-0.2173004-0.2504807-0.4517593-0.4849472-0.70224-0.70224
				c-0.2173233-0.2504807-0.4517593-0.4849396-0.70224-0.70224c-0.2172318-0.2503815-0.4516373-0.4847565-0.7019882-0.7019882
				c-0.2173004-0.2504807-0.4517593-0.4849472-0.70224-0.70224c-0.2173233-0.2504807-0.4517593-0.4849396-0.70224-0.70224
				c-0.2172928-0.2504425-0.4516983-0.4848785-0.7021408-0.7021408c-0.2172394-0.2503891-0.4516678-0.4848251-0.7020569-0.7020569
				c-0.2172699-0.2504196-0.4516983-0.4848785-0.7021484-0.7021484c-0.2173233-0.2505341-0.4518814-0.4850616-0.7023849-0.7023849
				c-0.2172089-0.2503281-0.4515839-0.4847336-0.7019348-0.7019348c-0.2172699-0.2504196-0.4516983-0.4848862-0.7021484-0.7021484
				c-0.2173233-0.2505417-0.4518814-0.4850616-0.7023926-0.7023926c-0.2172012-0.2503204-0.4515457-0.4846649-0.7018661-0.7018661
				c-0.2173004-0.2504501-0.4517593-0.4849472-0.70224-0.70224c-0.2173538-0.2505112-0.4518509-0.4850311-0.7023621-0.7023621
				c-0.2172012-0.2503204-0.4515457-0.4846649-0.7018661-0.7018661c-0.2173004-0.2504501-0.4517593-0.4849472-0.70224-0.70224
				c-0.2173538-0.2505112-0.4518509-0.4850311-0.7023621-0.7023621c-0.2172012-0.2503204-0.4515457-0.4846649-0.7018738-0.7018738
				c-0.2172928-0.250473-0.4517593-0.4849396-0.7022324-0.7022324c-0.2173309-0.2504807-0.4517593-0.4849396-0.70224-0.70224
				c-0.2172318-0.2503891-0.4516373-0.4847565-0.7019958-0.7019958c-0.2172928-0.250473-0.4517593-0.4849396-0.7022324-0.7022324
				c-0.2172699-0.2504196-0.4516983-0.4848557-0.7021179-0.7021179c-0.2173233-0.2505417-0.4518814-0.4850616-0.7023926-0.7023926
				c-0.2172012-0.2503204-0.4515762-0.484726-0.7019272-0.7019272c-0.2172699-0.2504196-0.4516983-0.4848862-0.7021484-0.7021484
				c-0.2173233-0.2505417-0.4518814-0.4850616-0.7023926-0.7023926c-0.2172012-0.2503204-0.4515762-0.484726-0.7019272-0.7019272
				c-0.2172699-0.2504196-0.4517059-0.4848862-0.7021484-0.7021484c-0.2173538-0.2505417-0.4518814-0.4850616-0.7023926-0.7023926
				c-0.2172012-0.2503204-0.4515457-0.4846649-0.7018738-0.7018738c-0.2172928-0.2504425-0.4517593-0.4849396-0.7022324-0.7022324
				c-0.2173615-0.2505112-0.4518509-0.4850311-0.7023621-0.7023621c-0.2172012-0.2503281-0.4515457-0.4846649-0.7018738-0.7018738
				c-0.2172928-0.2504425-0.4517593-0.4849396-0.7022324-0.7022324c-0.2173615-0.2505112-0.4518509-0.4850388-0.7023621-0.7023621
				c-0.2172012-0.2503281-0.4515457-0.4846649-0.7018738-0.7018738c-0.2172928-0.250473-0.4517593-0.4849396-0.7022324-0.7022324
				c-0.2173309-0.2504807-0.4517593-0.4849472-0.70224-0.70224c-0.2172318-0.2503891-0.4516373-0.4847565-0.7019958-0.7019958
				c-0.2172928-0.250473-0.4517593-0.4849396-0.70224-0.70224c-0.2172623-0.250412-0.4516983-0.484848-0.7021103-0.7021103
				c-0.2173309-0.2505417-0.4518814-0.4850616-0.7023926-0.7023926c-0.2172012-0.2503281-0.4515762-0.484726-0.7019348-0.7019348
				c-0.2172623-0.250412-0.4516945-0.4848785-0.7021446-0.7021408c-0.2173233-0.2505417-0.4518814-0.4850693-0.7023888-0.7023926
				c-0.217205-0.2503281-0.4515457-0.4846649-0.70187-0.7018738c-0.2172966-0.2504425-0.4517632-0.4849396-0.70224-0.7022324
				c-0.2173538-0.2505112-0.4518509-0.4850388-0.7023582-0.7023621c-0.217205-0.2503281-0.4515457-0.4846649-0.7018738-0.7018738
				c-0.2172928-0.2504425-0.4517593-0.4849396-0.7022362-0.7022324c-0.2173576-0.2505112-0.4518509-0.4850388-0.7023582-0.7023621
				c-0.217205-0.2503281-0.4515457-0.4846725-0.7018738-0.7018738c-0.2172966-0.2504807-0.4517593-0.4849396-0.7022362-0.70224
				c-0.2173271-0.250473-0.4517593-0.4849396-0.7022362-0.7022324c-0.2172356-0.2503891-0.4516411-0.4847641-0.7019958-0.7019958
				c-0.2172966-0.2504807-0.4517593-0.4849396-0.7022362-0.70224c-0.2173271-0.250473-0.4517593-0.4849396-0.70224-0.7022324
				c-0.2172928-0.2504501-0.4516983-0.4848862-0.7021446-0.7021484c-0.2172356-0.2503891-0.4516678-0.4848175-0.7020569-0.7020569
				c-0.2172623-0.250412-0.4516983-0.4848785-0.7021446-0.7021408c-0.2173271-0.2505417-0.4518814-0.4850693-0.7023888-0.7023926
				c-0.217205-0.2503281-0.4515762-0.484726-0.7019348-0.7019348c-0.2172623-0.2504196-0.4516983-0.4848785-0.7021446-0.7021484
				c-0.2173271-0.2505341-0.4518814-0.4850616-0.7023888-0.7023849c-0.217205-0.2503281-0.4515495-0.4846725-0.7018738-0.7018738
				c-0.2172966-0.2504501-0.4517593-0.4849396-0.7022362-0.70224c-0.2173576-0.2505035-0.4518509-0.4850311-0.7023582-0.7023544
				c-0.217205-0.2503281-0.4515495-0.4846725-0.7018738-0.7018738c-0.2172966-0.2504501-0.4517593-0.4849396-0.7022362-0.70224
				c-0.2173576-0.2505035-0.4518509-0.4850311-0.7023621-0.7023544c-0.2172012-0.2503281-0.4515457-0.4846725-0.70187-0.7018738
				c-0.2172966-0.2504807-0.4517593-0.4849396-0.70224-0.70224c-0.2173233-0.250473-0.4517593-0.4849396-0.7022362-0.7022324
				c-0.2172356-0.2503891-0.4516373-0.4847641-0.701992-0.7019958c-0.2172966-0.2504807-0.4517632-0.4849472-0.70224-0.70224
				c-0.2172661-0.2504196-0.4516983-0.484848-0.7021141-0.7021141c-0.2173271-0.2505379-0.4518814-0.4850655-0.7023888-0.7023888
				c-0.217205-0.2503281-0.45158-0.4847298-0.7019348-0.7019348c-0.2172661-0.2504158-0.4516983-0.4848824-0.7021446-0.7021446
				c-0.2173271-0.2505417-0.4518814-0.4850655-0.7023926-0.7023926c-0.2172012-0.2503242-0.4515762-0.484726-0.701931-0.701931
				c-0.2172661-0.2504158-0.4516983-0.4848824-0.7021484-0.7021484c-0.2173538-0.2505379-0.4518776-0.4850616-0.7023888-0.7023888
				c-0.2172012-0.2503242-0.4515457-0.4846687-0.70187-0.70187c-0.2172966-0.2504501-0.4517593-0.4849434-0.70224-0.70224
				c-0.2173538-0.2505074-0.4518509-0.4850311-0.7023582-0.7023582c-0.217205-0.2503242-0.4515457-0.4846687-0.7018738-0.7018738
				c-0.2172928-0.2504463-0.4517593-0.4849396-0.7022362-0.7022362c-0.2173576-0.2505074-0.4518509-0.4850311-0.7023582-0.7023582
				c-0.217205-0.2503242-0.4515476-0.4846687-0.7018719-0.7018738c-0.2172966-0.2504768-0.4517612-0.4849396-0.7022381-0.7022362
				c-0.2173252-0.2504768-0.4517593-0.4849434-0.7022381-0.7022362c-0.2172337-0.2503891-0.4516373-0.4847603-0.7019939-0.7019958
				c-0.2172947-0.2504768-0.4517593-0.4849434-0.7022362-0.7022362c-0.2172661-0.2504196-0.4517002-0.4848518-0.702116-0.7021179
				c-0.2173271-0.2505379-0.4518814-0.4850616-0.7023907-0.7023888c-0.2172031-0.2503242-0.4515762-0.4847298-0.7019329-0.701931
				c-0.2172642-0.2504196-0.4516983-0.4848824-0.7021465-0.7021484c-0.2173252-0.2505379-0.4518795-0.4850616-0.7023888-0.7023888
				c-0.217205-0.2503242-0.4515457-0.4846687-0.7018719-0.7018738c-0.2172966-0.2504463-0.4517593-0.4849396-0.7022381-0.7022362
				c-0.2173557-0.2505074-0.4518509-0.4850311-0.7023582-0.7023582c-0.217205-0.2503281-0.4515476-0.4846687-0.7018738-0.7018738
				c-0.2172947-0.2504463-0.4517593-0.4849396-0.7022362-0.7022362c-0.2173576-0.2505074-0.4518509-0.4850349-0.7023602-0.7023582
				c-0.2172031-0.2503281-0.4515457-0.4846687-0.7018719-0.7018738c-0.2172947-0.2504768-0.4517593-0.4849434-0.7022381-0.7022362
				c-0.2173252-0.2504807-0.4517593-0.4849434-0.7022362-0.70224c-0.2172356-0.2503853-0.4516392-0.4847565-0.7019939-0.701992
				c-0.2172966-0.2504768-0.4517593-0.4849434-0.7022381-0.7022362c-0.2173252-0.2504807-0.4517593-0.4849434-0.7022381-0.70224
				c-0.2172947-0.2504463-0.4516983-0.4848785-0.7021456-0.7021446c-0.2172346-0.2503891-0.4516678-0.4848213-0.702055-0.7020569
				c-0.2172651-0.2504158-0.4516983-0.4848785-0.7021456-0.7021446c-0.2173262-0.2505379-0.4518814-0.4850655-0.7023897-0.7023888
				c-0.2172041-0.2503281-0.4515772-0.4847298-0.7019339-0.7019348c-0.2172651-0.2504158-0.4516983-0.4848824-0.7021456-0.7021446
				c-0.2173262-0.2505379-0.4518814-0.4850655-0.7023897-0.7023888c-0.2172041-0.2503281-0.4515467-0.4846687-0.7018728-0.7018738
				c-0.2172947-0.2504463-0.4517593-0.4849434-0.7022371-0.7022362c-0.2173557-0.2505112-0.4518499-0.4850349-0.7023582-0.7023621
				c-0.217205-0.2503242-0.4515476-0.4846668-0.7018728-0.7018719c-0.2172956-0.2504463-0.4517593-0.4849415-0.7022371-0.7022362
				c-0.2173567-0.2505093-0.4518509-0.485033-0.7023592-0.7023602c-1.2737813-1.4680119-3.1465459-2.4042587-5.2306499-2.4042587
				h-79.7305832c-3.8135605,0-6.9331284,3.1199894-6.9331284,6.9330978v13.308506c0,3.8131104,0,10.0530853,0,13.8661957v21.3570366
				c0,2.0844727,0.9362488,3.9573593,2.4044724,5.2311401c0.2172928,0.2504425,0.4517593,0.4849701,0.7022705,0.7022629
				c0.2172318,0.2503586,0.4516068,0.4848251,0.7020264,0.7020569c0.2172318,0.2503586,0.4516678,0.484787,0.7020493,0.7020264
				c0.2173309,0.2505035,0.4518509,0.4850616,0.7023926,0.7023849c0.2172318,0.2503586,0.4516068,0.4848251,0.7020264,0.7020569
				c0.2172318,0.2503586,0.4516678,0.4847946,0.7020493,0.7020264c0.2173309,0.2505112,0.4518509,0.4850616,0.7023926,0.7023849
				c0.2172318,0.2503586,0.4516068,0.4848251,0.7020264,0.7020569c0.2172318,0.2503586,0.4516678,0.4847946,0.7020493,0.7020264
				c0.2173309,0.2505112,0.4518509,0.4850616,0.7023926,0.7023926c0.2172318,0.250351,0.4516068,0.4848175,0.7020264,0.7020493
				c0.2172318,0.2503586,0.4516678,0.4847946,0.7020569,0.7020264c0.2173233,0.2505112,0.4518509,0.4850616,0.7023849,0.7023926
				c0.2172318,0.250351,0.4516068,0.4848175,0.7020264,0.7020493c0.2172318,0.2503586,0.4516678,0.4847946,0.7020569,0.7020264
				c0.2172928,0.2504807,0.4517899,0.4849396,0.7022629,0.7022705c0.2172699,0.250412,0.4516983,0.4849091,0.7021484,0.702179
				c0.2172318,0.250351,0.4516678,0.484787,0.7020569,0.7020187c0.2172623,0.2504501,0.4517288,0.4848862,0.7021408,0.7021484
				c0.2173309,0.2505112,0.4518509,0.4850616,0.7023926,0.7023926c0.2172318,0.250351,0.4516068,0.4848175,0.7020264,0.7020493
				c0.2172318,0.2503586,0.4516678,0.4847946,0.7020493,0.7020264c0.2173309,0.2505112,0.4518509,0.4850616,0.7023926,0.7023926
				c0.2172318,0.250351,0.4516068,0.4848175,0.7020264,0.7020493c0.2172318,0.2503586,0.4516678,0.4847946,0.7020569,0.7020264
				c0.2173233,0.2505112,0.4518471,0.4850616,0.7023849,0.7023926c0.2172356,0.250351,0.4516106,0.4848175,0.7020264,0.7020493
				c0.2172356,0.2503586,0.4516678,0.4847946,0.7020531,0.7020264c0.2173271,0.2505112,0.4518509,0.4850616,0.7023888,0.7023926
				c0.2172356,0.2503586,0.4516106,0.4848175,0.7020264,0.7020569c0.2172356,0.250351,0.4516678,0.484787,0.7020569,0.7020187
				c0.2173233,0.2505112,0.4518471,0.4850693,0.7023888,0.7023926c0.2172318,0.2503586,0.4516068,0.4848175,0.7020226,0.7020569
				c0.2172356,0.250351,0.4516678,0.484787,0.7020569,0.7020187c0.2172928,0.2504807,0.4517899,0.4849472,0.7022667,0.7022705
				c0.2172661,0.2504196,0.4516983,0.484848,0.7021141,0.7021179c0.2172966,0.2504425,0.4517288,0.4849396,0.7022095,0.7022324
				c0.2172356,0.2503586,0.4516373,0.4847641,0.7020226,0.7019958c0.2173271,0.2505112,0.4518509,0.4850616,0.7023888,0.7023926
				c0.2172356,0.250351,0.4516106,0.4848175,0.7020264,0.7020569c0.2172356,0.250351,0.4516678,0.484787,0.7020531,0.7020187
				c0.2173271,0.2505112,0.4518509,0.4850693,0.7023926,0.7023926c0.2172318,0.2503586,0.4516068,0.4848175,0.7020226,0.7020569
				c0.2172356,0.250351,0.4516678,0.484787,0.7020569,0.7020187c0.2173233,0.2505112,0.4518509,0.4850693,0.7023888,0.7023926
				c0.2172356,0.2503586,0.4516068,0.4848175,0.7020226,0.7020569c0.2172356,0.250351,0.4516678,0.484787,0.7020569,0.7020187
				c0.2173233,0.2505112,0.4518509,0.4850693,0.7023888,0.7023926c0.2172356,0.2503586,0.4516068,0.4848175,0.7020226,0.7020569
				c0.2172356,0.250351,0.4516716,0.484787,0.7020569,0.7020264c0.2172966,0.250473,0.4517899,0.4849396,0.7022667,0.7022629
				c0.2172661,0.2504196,0.4516983,0.4849167,0.7021484,0.702179c0.2172318,0.2503586,0.4516678,0.484787,0.7020531,0.7020264
				c0.2172966,0.250473,0.4517899,0.4849396,0.7022667,0.7022629c0.2172966,0.2504501,0.4517593,0.4849777,0.7022705,0.7022705
				c0.2172318,0.2503586,0.4516068,0.4848175,0.7020226,0.7020569c0.2172356,0.250351,0.4516678,0.484787,0.7020569,0.7020264
				c0.2173233,0.2505035,0.4518509,0.4850616,0.7023888,0.7023926c0.2172356,0.250351,0.4516068,0.4848175,0.7020226,0.7020416
				c0.2172356,0.2503662,0.4516716,0.4848022,0.7020569,0.7020264c0.2173271,0.2505188,0.4518509,0.4850616,0.7023888,0.7023926
				c0.2172356,0.250351,0.4516068,0.4848175,0.7020264,0.7020569c0.2172318,0.250351,0.4516678,0.484787,0.7020531,0.7020264
				c0.2173271,0.2505035,0.4518509,0.4850616,0.7023888,0.7023926c0.2172356,0.250351,0.4516068,0.4848175,0.7020264,0.7020416
				c0.2172356,0.2503662,0.4516678,0.4848022,0.7020531,0.7020264c0.2173271,0.2505188,0.4518509,0.4850616,0.7023888,0.7023926
				c0.2172356,0.250351,0.4516106,0.4848175,0.7020264,0.7020569c0.2172356,0.250351,0.4516678,0.484787,0.7020531,0.7020264
				c0.2172966,0.250473,0.4517899,0.4849396,0.7022705,0.7022705c0.2172623,0.250412,0.4516983,0.4849091,0.7021446,0.702179
				c0.2172356,0.250351,0.4516678,0.484787,0.702055,0.7020111c0.2172661,0.2504578,0.4517288,0.4848938,0.7021465,0.7021484
				c0.2173252,0.2505188,0.4518509,0.4850616,0.7023888,0.7023926c0.2172356,0.250351,0.4516087,0.4848175,0.7020245,0.7020569
				c0.2172356,0.250351,0.4516697,0.484787,0.702055,0.7020264c0.2173271,0.2505035,0.4518509,0.4850616,0.7023907,0.7023926
				c0.2172337,0.250351,0.4516068,0.4848175,0.7020245,0.7020416c0.2172337,0.2503662,0.4516678,0.4848022,0.702055,0.7020264
				c0.2173252,0.2505188,0.4518509,0.4850616,0.7023888,0.7023926c0.2172356,0.2503662,0.4516068,0.4848175,0.7020245,0.7020569
				c0.2172356,0.250351,0.4516678,0.484787,0.702055,0.7020264c0.2173252,0.2505035,0.4518509,0.4850616,0.7023888,0.7023926
				c0.2172356,0.250351,0.4516087,0.4848175,0.7020245,0.7020569c0.2172356,0.250351,0.4516697,0.484787,0.702055,0.7020111
				c0.2172966,0.2504883,0.4517899,0.4849548,0.7022686,0.7022705c0.2172642,0.2504272,0.4516983,0.4849091,0.7021465,0.702179
				c0.2172337,0.250351,0.4516678,0.484787,0.702055,0.7020264c0.2172947,0.250473,0.4517899,0.4849396,0.7022667,0.7022705
				c0.2172966,0.2504425,0.4517593,0.4849701,0.7022686,0.7022705c0.2172337,0.250351,0.4516068,0.4848175,0.7020245,0.7020569
				c0.2172337,0.250351,0.4516678,0.484787,0.702055,0.7020111c0.2173252,0.2505188,0.4518509,0.4850769,0.7023888,0.7023926
				c0.2172356,0.2503662,0.4516087,0.4848175,0.7020254,0.7020569c0.2172346,0.250351,0.4516678,0.484787,0.702055,0.7020264
				c0.2173252,0.2505035,0.4518499,0.4850616,0.7023888,0.7023926c0.2172346,0.250351,0.4516077,0.4848175,0.7020245,0.7020569
				c0.2172346,0.250351,0.4516687,0.484787,0.702055,0.7020111c0.2173262,0.2505188,0.4518509,0.4850769,0.7023897,0.7023926
				c0.2172346,0.2503662,0.4516077,0.4848175,0.7020245,0.7020569c0.2172346,0.250351,0.4516687,0.484787,0.702055,0.7020264
				c0.2173262,0.2505035,0.4518509,0.4850616,0.7023888,0.7023926c0.2172356,0.250351,0.4516077,0.4848175,0.7020254,0.7020569
				c0.2172346,0.250351,0.4516678,0.484787,0.702055,0.7020264c0.2172956,0.250473,0.4517899,0.4849396,0.7022676,0.7022552
				c0.2172647,0.2504272,0.4516983,0.4849243,0.7021461,0.702179c0.2172346,0.2503662,0.4516683,0.484787,0.702055,0.7020264
				c0.2172952,0.250473,0.4517899,0.4849396,0.7022676,0.7022705c0.2172956,0.2504425,0.4517593,0.4849701,0.7022676,0.7022705
				c0.2172346,0.250351,0.4516077,0.4848175,0.7020245,0.7020569c0.2172351,0.250351,0.4516687,0.484787,0.7020552,0.7020264
				c0.2173259,0.2505035,0.4518507,0.4850616,0.7023892,0.7023773c0.2172346,0.2503662,0.4516075,0.4848175,0.7020245,0.7020569
				c0.2172348,0.2503662,0.4516685,0.484787,0.7020551,0.7020264c0.2173259,0.2505035,0.4518507,0.4850616,0.7023892,0.7023926
				c0.2172348,0.250351,0.4516076,0.4848175,0.7020246,0.7020569c0.2172347,0.250351,0.4516684,0.484787,0.702055,0.7020264
				c0.2173259,0.2505035,0.4518507,0.4850616,0.7023892,0.7023773c0.2172347,0.2503662,0.4516076,0.4848328,0.7020246,0.7020569
				c0.2172347,0.2503662,0.4516683,0.484787,0.702055,0.7020264c0.2173259,0.2505035,0.4518507,0.4850616,0.7023892,0.7023926
				c0.2172348,0.250351,0.4516077,0.4848175,0.7020247,0.7020569c0.2172346,0.250351,0.4516683,0.484787,0.702055,0.7020264
				c0.2172956,0.250473,0.4517899,0.4849396,0.7022676,0.7022705c0.2172651,0.250412,0.4516988,0.484848,0.702116,0.7021027
				c0.2172952,0.2504578,0.4517288,0.4849548,0.7022066,0.70224c0.2172351,0.2503662,0.4516382,0.4847565,0.7020249,0.7019958
				c0.2173257,0.2505035,0.4518504,0.4850616,0.7023892,0.7023926c0.2172341,0.250351,0.4516072,0.4848175,0.702024,0.7020569
				c0.2172356,0.250351,0.4516687,0.484787,0.7020559,0.7020264c0.2173252,0.2505035,0.4518499,0.4850616,0.7023888,0.7023773
				c0.2172346,0.2503662,0.4516077,0.4848328,0.7020245,0.7020569c0.2172346,0.2503662,0.4516687,0.484787,0.702055,0.7020264
				c0.2173262,0.2505035,0.4518509,0.4850616,0.7023897,0.7023926c0.2172346,0.250351,0.4516077,0.4848175,0.7020245,0.7020569
				c0.2172346,0.250351,0.4516678,0.484787,0.702055,0.7020264c0.2173262,0.2505035,0.4518509,0.4850616,0.7023888,0.7023926
				c0.2172356,0.250351,0.4516077,0.4848175,0.7020254,0.7020416c0.2172346,0.2503662,0.4516678,0.4848022,0.702055,0.7020264
				c0.2172947,0.2504883,0.4517899,0.4849396,0.7022667,0.7022705c0.2172661,0.250412,0.4517002,0.4849091,0.7021465,0.702179
				c0.2172356,0.250351,0.4516678,0.484787,0.702055,0.7020264c0.2172966,0.250473,0.4517899,0.4849396,0.7022686,0.7022705
				c0.2172947,0.2504425,0.4517593,0.4849701,0.7022667,0.7022552c0.2172356,0.2503662,0.4516087,0.4848328,0.7020245,0.7020569
				c0.2172356,0.2503662,0.4516697,0.4848022,0.702055,0.7020264c0.2173271,0.2505188,0.4518509,0.4850616,0.7023907,0.7023926
				c0.2172337,0.250351,0.4516068,0.4848175,0.7020245,0.7020569c0.2172337,0.250351,0.4516678,0.484787,0.702055,0.7020264
				c0.2173252,0.2505035,0.4518509,0.4850616,0.7023888,0.7023926c0.2172337,0.250351,0.4516068,0.4848175,0.7020245,0.7020416
				c0.2172356,0.2503662,0.4516678,0.4848022,0.702055,0.7020264c0.2173252,0.2505188,0.4518509,0.4850616,0.7023888,0.7023926
				c0.2172356,0.250351,0.4516087,0.4848175,0.7020245,0.7020569c0.2172356,0.250351,0.4516697,0.484787,0.702055,0.7020264
				c0.2173271,0.2505035,0.4518509,0.4850616,0.7023907,0.7023926c0.2172337,0.250351,0.4516068,0.4848175,0.7020245,0.7020416
				c0.2172337,0.2503662,0.4516678,0.4848022,0.702055,0.7020264c0.2172947,0.2504883,0.4517899,0.4849548,0.7022667,0.7022705
				c0.2172661,0.2504272,0.4516983,0.4849091,0.7021465,0.702179c0.2172356,0.250351,0.4516678,0.484787,0.702055,0.7020264
				c0.2172966,0.250473,0.4517899,0.4849396,0.7022686,0.7022705c0.2172966,0.2504425,0.4517593,0.4849701,0.7022667,0.7022705
				c0.2172356,0.250351,0.4516068,0.4848175,0.7020264,0.7020416c0.2172318,0.2503662,0.4516678,0.4848022,0.7020531,0.7020264
				c0.2173271,0.2505188,0.4518509,0.4850616,0.7023888,0.7023926c0.2172356,0.250351,0.4516068,0.4848175,0.7020264,0.7020569
				c0.2172356,0.250351,0.4516678,0.484787,0.7020531,0.7020264c0.2173271,0.2505035,0.4518509,0.4850616,0.7023888,0.7023926
				c0.2172356,0.250351,0.4516106,0.4848175,0.7020264,0.7020569c0.2172356,0.250351,0.4516678,0.484787,0.7020531,0.7020111
				c0.2173271,0.2505188,0.4518509,0.4850769,0.7023926,0.7023926c0.2172318,0.2503662,0.4516068,0.4848175,0.7020226,0.7020569
				c0.2172356,0.250351,0.4516678,0.484787,0.7020569,0.7020264c0.2173233,0.2505035,0.4518509,0.4850616,0.7023888,0.7023926
				c0.2172356,0.250351,0.4516068,0.4848175,0.7020226,0.7020569c0.2172356,0.250351,0.4516678,0.484787,0.7020569,0.7020111
				c0.2172966,0.2504883,0.4517899,0.4849548,0.7022667,0.7022705c0.2172661,0.2504272,0.4516983,0.484848,0.7021179,0.7021179
				c0.2172928,0.2504425,0.4517288,0.4849396,0.7022057,0.70224c0.2172356,0.250351,0.4516373,0.4847565,0.7020226,0.7019958
				c0.2173271,0.2505035,0.4518509,0.4850616,0.7023926,0.7023926c0.2172318,0.250351,0.4516068,0.4848175,0.7020226,0.7020569
				c0.2172356,0.250351,0.4516678,0.484787,0.7020569,0.7020111c0.2173233,0.2505188,0.4518509,0.4850769,0.7023888,0.7023926
				c0.2172318,0.2503662,0.4516068,0.4848175,0.7020226,0.7020569c0.2172356,0.250351,0.4516678,0.484787,0.7020569,0.7020264
				c0.2173233,0.2505035,0.4518509,0.4850616,0.7023888,0.7023926c0.2172356,0.250351,0.4516068,0.4848175,0.7020226,0.7020569
				c0.2172356,0.250351,0.4516716,0.484787,0.7020569,0.7020264c0.2173271,0.2505035,0.4518509,0.4850616,0.7023888,0.7023773
				c0.2172356,0.2503662,0.4516068,0.4848175,0.7020264,0.7020569c0.2172318,0.2503662,0.4516678,0.484787,0.7020531,0.7020264
				c0.2172966,0.250473,0.4517899,0.4849396,0.7022667,0.7022705c0.2172661,0.250412,0.4516983,0.4849091,0.7021484,0.702179
				c0.2172356,0.250351,0.4516678,0.484787,0.7020531,0.7020264c0.2172966,0.250473,0.4517899,0.4849396,0.7022705,0.7022552
				c0.2172928,0.2504578,0.4517593,0.4849854,0.7022667,0.7022705c0.2172356,0.2503662,0.4516068,0.4848175,0.7020226,0.7020569
				c0.2172356,0.250351,0.4516678,0.484787,0.7020569,0.7020264c0.2173271,0.2505035,0.4518509,0.4850616,0.7023888,0.7023926
				c0.2172356,0.250351,0.4516068,0.4848175,0.7020264,0.7020569c0.2172318,0.250351,0.4516678,0.484787,0.7020531,0.7020264
				c0.2173271,0.2505035,0.4518509,0.4850616,0.7023888,0.7023773c0.2172356,0.2503662,0.4516068,0.4848328,0.7020264,0.7020569
				c0.2172318,0.2503662,0.4516678,0.484787,0.7020531,0.7020264c0.2173271,0.2505035,0.4518509,0.4850616,0.7023888,0.7023926
				c0.2172356,0.250351,0.4516106,0.4848175,0.7020264,0.7020569c0.2172318,0.250351,0.4516678,0.484787,0.7020569,0.7020264
				c0.2173233,0.2505035,0.4518509,0.4850616,0.7023849,0.7023773c0.2172394,0.2503662,0.4516068,0.4848328,0.7020264,0.7020569
				c0.2172318,0.2503662,0.4516678,0.484787,0.7020569,0.7020264c0.2172928,0.250473,0.4517899,0.4849396,0.7022629,0.7022705
				c0.2172699,0.250412,0.4516983,0.4849091,0.7021484,0.702179c0.2172394,0.250351,0.4516678,0.484787,0.7020569,0.7020264
				c0.2172928,0.250473,0.4517899,0.4849396,0.7022629,0.7022705c0.2173004,0.2504425,0.451767,0.4849701,0.7022705,0.7022552
				c0.2172394,0.2503662,0.4516068,0.4848328,0.7020264,0.7020569c0.2172318,0.2503662,0.4516678,0.484787,0.7020569,0.7020264
				c0.2173233,0.2505035,0.4518509,0.4850616,0.7023849,0.7023926c0.2172394,0.250351,0.4516068,0.4848175,0.7020264,0.7020569
				c0.2172318,0.250351,0.4516678,0.484787,0.7020569,0.7020264c0.2173233,0.2505035,0.4518509,0.4850616,0.7023849,0.7023773
				c0.2172394,0.2503662,0.4516068,0.4848328,0.7020264,0.7020569c0.2172318,0.2503662,0.4516678,0.4848022,0.7020569,0.7020264
				c0.2173233,0.2505188,0.4518509,0.4850616,0.7023849,0.7023926c0.2172394,0.250351,0.4516144,0.4848175,0.7020264,0.7020569
				c0.2172394,0.250351,0.4516678,0.484787,0.7020569,0.7020264c0.2173233,0.2505035,0.4518509,0.4850616,0.7023849,0.7023926
				c0.2172394,0.250351,0.4516144,0.4848175,0.7020264,0.7020416c0.2172394,0.2503662,0.4516678,0.4848022,0.7020569,0.7020264
				c0.2172928,0.2504883,0.4517899,0.4849396,0.7022705,0.7022705c0.2172623,0.250412,0.4516983,0.484848,0.7021103,0.7021179
				c0.2173004,0.2504425,0.4517288,0.4849396,0.7022095,0.70224c0.2172318,0.250351,0.4516373,0.4847565,0.7020264,0.7019958
				c0.2173233,0.2505035,0.4518509,0.4850616,0.7023849,0.7023773c0.2172394,0.2503662,0.4516068,0.4848328,0.7020264,0.7020569
				c0.2172394,0.2503662,0.4516678,0.4848022,0.7020569,0.7020264c0.2173233,0.2505188,0.4518509,0.4850616,0.7023849,0.7024078
				c0.2172394,0.2503357,0.4516144,0.4848022,0.7020264,0.7020264c0.2172394,0.2503662,0.4516678,0.4848022,0.7020569,0.7020264
				c0.2173233,0.2505188,0.4518509,0.4850769,0.7023926,0.7023926c0.2172318,0.2503662,0.4516068,0.4848328,0.7020187,0.7020569
				c0.2172394,0.2503662,0.4516678,0.4848022,0.7020569,0.7020264c0.2173233,0.2505188,0.4518509,0.4850769,0.7023926,0.7023926
				c0.2172318,0.2503662,0.4516068,0.4848328,0.7020187,0.7020569c0.2172394,0.2503662,0.4516678,0.4848022,0.7020569,0.7020264
				c0.2173004,0.2504883,0.4517899,0.4849548,0.7022705,0.7022705c0.2172623,0.2504272,0.4516983,0.4848938,0.7021408,0.702179
				c0.2172394,0.2503357,0.4516754,0.4847717,0.7020569,0.7020264c1.2736588,1.4680481,3.1463928,2.4042358,5.2309265,2.4042358
				h48.5315857l1.227417,1.227417l0,0l2.1064606,2.1064758l0,0l2.1064758,2.1064758l0,0l2.1064606,2.1064758l0,0
				l2.1064758,2.1064453v-0.0000305l0.702179,0.702179l0.7021484,0.7021484l0.7021332,0.7021484l0.702179,0.702179
				l0.7021484,0.7021484l0.7021484,0.7021484V266.44104h17.3327789c3.8128052,0,6.9330902-3.1199646,6.9330902-6.9331055
				v-21.3570404c0-3.8131104,0-10.0530853,0-13.8661957V210.976181
				C185.508728,208.8919373,184.5724182,207.0192261,183.1044159,205.7454834z"/>
		</g>
		<g>
			<defs>
				<circle id="SVGID_5_" cx="-0.4287645" cy="11.5712347" r="99.5712357"/>
			</defs>
			<clipPath id="SVGID_6_">
				<use xlink:href="#SVGID_5_"  style="overflow:visible;"/>
			</clipPath>
			<g class="st3">
				<g>
					<g>
						<g>
							
								<rect x="35.0023346" y="28.822506" transform="matrix(-0.778164 -0.6280612 0.6280612 -0.778164 36.1545563 109.7043915)" class="st4" width="4.8983254" height="39.2893143"/>
						</g>
					</g>
				</g>
				<g>
					<g>
						<g>
							<path class="st5" d="M29.6943455,65.8774719c-0.4230595,0.5241547-1.1980724,0.6067276-1.7220764,0.1838074
								l-5.7175827-4.6146927c-0.5244141-0.4232597-0.606884-1.1979065-0.1838245-1.7220802l16.9207878-20.9647598
								c0.4230614-0.5241699,1.1976624-0.6070671,1.7220802-0.1838264l5.7175789,4.6147118
								c0.5240059,0.422924,0.606884,1.1979065,0.1838264,1.7220764L29.6943455,65.8774719z"/>
						</g>
					</g>
				</g>
				<g>
					<g>
						<g>
							<g>
								<path class="st6" d="M83.9501572,15.6730337c-0.5989838-5.6095352-3.3377075-10.9904633-8.0742722-14.813364
									L62.0315971,18.0126591L83.9501572,15.6730337z"/>
							</g>
						</g>
					</g>
					<g>
						<g>
							<g>
								<path class="st7" d="M75.875885,0.8596697C66.4022751-6.7865505,52.5246239-5.304985,44.8786087,4.1683745
									c-7.6458321,9.4731388-6.1649055,23.3510532,3.3087044,30.9972744
									c4.7365608,3.8229103,10.5745201,5.3638802,16.1841087,4.7653236l-2.3398247-21.918314L75.875885,0.8596697z"/>
							</g>
						</g>
					</g>
					<g>
						<g>
							<g>
								<path class="st8" d="M79.1845245,31.856884c3.8230972-4.7367973,5.3643875-10.5745068,4.7656326-16.1838493
									l-21.91856,2.3396254l2.3398247,21.918314C69.9805679,39.3324585,75.3614197,36.593689,79.1845245,31.856884z"/>
							</g>
						</g>
					</g>
				</g>
				<g>
					<g>
						<g>
							<path class="st5" d="M72.7993774,4.671442c7.3562317,5.9372549,8.5108109,16.75247,2.5733643,24.1089306
								c-5.9374466,7.3564682-16.7526932,8.5107536-24.1089096,2.5734978
								c-7.3564758-5.9374466-8.5108948-16.7525253-2.5734367-24.1089916
								C54.6278419-0.1115813,65.4429169-1.2660036,72.7993774,4.671442L72.7993774,4.671442z M75.875885,0.8596697
								C66.4022751-6.7865505,52.5246239-5.304985,44.8786087,4.1683745
								c-7.6459999,9.4733582-6.1649055,23.3510532,3.3087044,30.9972744
								c9.4731255,7.6458015,23.3512001,6.1645851,30.9972115-3.3087654
								C86.8305283,22.3835239,85.3490067,8.5054798,75.875885,0.8596697L75.875885,0.8596697z"/>
						</g>
					</g>
				</g>
				<g class="st9">
					<g>
						<g>
							<path class="st10" d="M50.9639168,12.2272768c-1.0527649-0.8496962-1.2171402-2.3916178-0.3676338-3.4441462
								c5.089077-6.305337,14.3592606-7.2950783,20.6648407-2.2058029c1.0525055,0.849484,1.2170715,2.3915577,0.3675613,3.4440851
								c-0.8494949,1.0525284-2.3915558,1.2171707-3.4440613,0.3676949
								c-4.2037926-3.3929062-10.3838615-2.7330203-13.7765694,1.4705353
								C53.558548,12.9121714,52.016407,13.0767527,50.9639168,12.2272768z"/>
						</g>
					</g>
				</g>
			</g>
		</g>
		<g id="clipping_mask">
			<defs>
				<circle id="SVGID_7_" cx="-0.4287645" cy="11.5712347" r="99.5712357"/>
			</defs>
			<clipPath id="SVGID_8_">
				<use xlink:href="#SVGID_7_"  style="overflow:visible;"/>
			</clipPath>
			<g class="st11">
				<g>
					<g>
						<polygon class="st12" points="42.4424133,-44.3344879 39.7160873,-37.2472382 52.7076302,-39.2959862 55.4339409,-46.3832397 
													"/>
					</g>
				</g>
				<g>
					<g>
						<polygon class="st12" points="39.7160873,-37.2472382 52.7076302,-39.2959862 57.4819298,-33.3915749 44.490387,-31.3428268 
													"/>
					</g>
				</g>
				<g>
					<g>
						<g>
							<circle class="st12" cx="-12.2500076" cy="-29.0522385" r="46.0322571"/>
						</g>
					</g>
					<g>
						<g>
							<path class="st13" d="M-17.3718281-61.5310974c17.9085484-2.8241577,34.7764435,9.4484367,37.6006012,27.3569908
								C23.0530663-16.2647419,10.7804823,0.6024384-7.1280661,3.4266038
								c-17.9093704,2.8242869-34.7764397-9.447607-37.6007309-27.3569679
								C-47.5529556-41.8389206-35.2811966-58.70681-17.3718281-61.5310974L-17.3718281-61.5310974z M-18.3962021-68.0268631
								c-21.5251999,3.3945007-36.2228584,23.5957146-32.8283653,45.1208725
								C-47.8300705-1.3808351-27.628891,13.3168688-6.1036911,9.9223747
								c21.5243416-3.394372,36.2227364-23.595705,32.8282356-45.1208611
								C23.3300571-56.7236404,3.128139-71.4212341-18.3962021-68.0268631L-18.3962021-68.0268631z"/>
						</g>
					</g>
					<g>
						<g>
							<path class="st13" d="M-15.3230782-48.5395584c10.745142-1.6944962,20.8658218,5.6690636,22.5603161,16.4141998
								C8.9317989-21.3798084,1.5683198-11.2594318-9.1768227-9.5649385
								c-10.7451344,1.6945009-20.8658752-5.6686363-22.5604382-16.4141808
								C-33.4317551-36.7242584-26.0682201-46.8450584-15.3230782-48.5395584L-15.3230782-48.5395584z M-16.3474522-55.0353241
								c-14.3498459,2.2629547-24.148531,15.730732-21.8855801,30.0805779
								c2.2629623,14.3498526,15.7307396,24.148531,30.0805836,21.8855782s24.1484108-15.7307158,21.885458-30.0805626
								S-1.9976085-57.2982826-16.3474522-55.0353241L-16.3474522-55.0353241z"/>
						</g>
					</g>
					<g>
						<g>
							<path class="st13" d="M-13.2743292-35.5480156c3.5816917-0.564827,6.9551959,1.8896866,7.5200243,5.4714108
								c0.5648365,3.5817299-1.8895836,6.9553032-5.4712667,7.5201244
								c-3.5817299,0.5648365-6.9553099-1.8896675-7.5201464-5.4713898
								C-19.3105545-31.6096001-16.8560505-34.9831848-13.2743292-35.5480156L-13.2743292-35.5480156z M-14.2987032-42.0437851
								c-7.1745348,1.1314125-12.0742064,7.8657532-10.9427862,15.0402908
								c1.1314812,7.1749439,7.865757,12.0742044,15.0402918,10.9427853
								c7.1744967-1.1314125,12.0741444-7.865324,10.9426641-15.0402699
								C-0.3899454-38.2755165-7.124207-43.1751976-14.2987032-42.0437851L-14.2987032-42.0437851z"/>
						</g>
					</g>
				</g>
				<g>
					<g>
						<path class="st4" d="M52.963726-37.6720428l-64.9575806,10.243742
							c-0.8968191,0.1414261-1.7386074-0.4710331-1.8800354-1.3678513c-0.141427-0.8968277,0.4710255-1.7386074,1.3678436-1.8800354
							l64.9575806-10.243742c0.8968163-0.1414261,1.7386055,0.4710236,1.8800392,1.3678474
							C54.4729919-38.6552582,53.8605461-37.8134727,52.963726-37.6720428z"/>
					</g>
				</g>
				<g>
					<g>
						<defs>
							<circle id="SVGID_9_" cx="-12.2500076" cy="-29.0522385" r="46.0322571"/>
						</defs>
						<clipPath id="SVGID_10_">
							<use xlink:href="#SVGID_9_"  style="overflow:visible;"/>
						</clipPath>
						<g class="st14">
							<g>
								<path class="st4" d="M40.6470451,10.8714743c-0.4154015,0.065506-0.8563004-0.0274849-1.223114-0.2947283
									l-52.6413918-38.2996902c-0.7339611-0.5339718-0.896142-1.562418-0.3621254-2.2963409
									c0.5343122-0.7343864,1.5623484-0.8965073,2.2967424-0.3621941L41.3581696,7.9182792
									c0.7343254,0.5339103,0.8965149,1.5623488,0.362133,2.2963328
									C41.453537,10.5817671,41.062645,10.8059301,40.6470451,10.8714743z"/>
							</g>
						</g>
					</g>
				</g>
				<g>
					<defs>
						<circle id="SVGID_11_" cx="-0.4287645" cy="11.5712347" r="99.5712357"/>
					</defs>
					<clipPath id="SVGID_12_">
						<use xlink:href="#SVGID_11_"  style="overflow:visible;"/>
					</clipPath>
					<g class="st15">
						<g>
							<g>
								<path class="st5" d="M2.3345439,27.802002h-79.7305984c-3.8135529,0-6.9331055,3.1199894-6.9331055,6.9331131v13.3084908
									c0,3.8131256,0,10.0530853,0,13.8662109v21.3570366c0,3.8131256,3.1195526,6.9331131,6.9331055,6.9331131h48.5316162
									l13.8662176,13.8662109V90.1999664H2.3345439c3.8128207,0,6.9331045-3.1199875,6.9331045-6.9331131V61.9098167
									c0-3.8131256,0-10.0530853,0-13.8662109V34.7351151C9.2676487,30.9219913,6.1473646,27.802002,2.3345439,27.802002z"/>
							</g>
						</g>
						<g>
							<g>
								<g>
									<rect x="-65.2631149" y="46.8680534" class="st8" width="55.4647255" height="3.4665484"/>
								</g>
							</g>
							<g>
								<g>
									<rect x="-65.2631226" y="60.7342606" class="st8" width="41.5985069" height="3.4665484"/>
								</g>
							</g>
							<g>
								<g>
									<rect x="-65.2631149" y="53.8011627" class="st8" width="55.4647255" height="3.4665484"/>
								</g>
							</g>
						</g>
					</g>
				</g>
			</g>
		</g>
	</g>
</g>
</svg>
