<?xml version="1.0" encoding="utf-8"?>
<!-- Generator: Adobe Illustrator 17.1.0, SVG Export Plug-In . SVG Version: 6.00 Build 0)  -->
<!DOCTYPE svg PUBLIC "-//W3C//DTD SVG 1.1//EN" "http://www.w3.org/Graphics/SVG/1.1/DTD/svg11.dtd">
<svg version="1.1" xmlns="http://www.w3.org/2000/svg" xmlns:xlink="http://www.w3.org/1999/xlink" x="0px" y="0px"
	 viewBox="0 0 432 432" style="enable-background:new 0 0 432 432;" xml:space="preserve">
<style type="text/css">
	.st0{fill:#00789A;}
	.st1{clip-path:url(#SVGID_2_);fill:#036784;}
	.st2{clip-path:url(#SVGID_2_);}
	.st3{fill:#3B4250;}
	.st4{fill:#242C3C;}
	.st5{fill:#F4B505;}
	.st6{fill:#6DBEC4;}
	.st7{fill:#EFEEEE;}
	.st8{opacity:0.3;}
	.st9{fill:#86EAEA;}
	.st10{fill:#E36A5C;}
	.st11{fill:#FFFFFF;}
	.st12{opacity:0.3;clip-path:url(#SVGID_4_);}
</style>
<g id="circle">
	<circle class="st0" cx="216" cy="213" r="200"/>
</g>
<g id="clipping_mask">
	<g>
		<defs>
			<circle id="SVGID_1_" cx="216" cy="213" r="200"/>
		</defs>
		<clipPath id="SVGID_2_">
			<use xlink:href="#SVGID_1_"  style="overflow:visible;"/>
		</clipPath>
		<path class="st1" d="M686.3201294,476.6871338l-7.5220947-9.3026123c0.8856201-0.7178345,1.3845825-1.8644409,1.1942139-3.0714722
			c-0.1704712-1.0808105-0.8522949-1.9476929-1.7556763-2.4135742c-0.0698242-0.1340332-0.1456909-0.262085-0.2321777-0.3838501
			l4.2021484-10.9237061l-2.0790405,0.3278809l0.6686401-1.7382202l-2.0790405,0.3278809l0.6687012-1.7382812l-2.0789795,0.3278809
			l0.6686401-1.7382202l-2.0790405,0.3278809l0.6686401-1.7382202l-2.0789795,0.3278809l0.6686401-1.7382812l-2.0789795,0.3278809
			l0.6686401-1.7382202l-2.0789795,0.3278809l0.6686401-1.7382202l-2.0790405,0.3278809l0.6686401-1.7382202l-2.0790405,0.3278809
			l0.6687012-1.7382812l-2.0789795,0.3278809l0.6686401-1.7382202l-2.0790405,0.3278809l0.6686401-1.7382202l-2.0790405,0.3278809
			l0.6687012-1.7382812l-2.0789795,0.3278809l0.6686401-1.7382202l-2.0790405,0.3278809l0.6686401-1.7382202l-2.0790405,0.3278809
			l0.6687012-1.7382812l-2.0789795,0.3278809l0.6686401-1.7382202l-2.0790405,0.3278809l0.6686401-1.7382202l-2.0790405,0.3278809
			l0.6687012-1.7382812l-2.0789795,0.3278809l0.6686401-1.7382202l-2.0790405,0.3278809l0.6686401-1.7382202l-2.0790405,0.3278809
			l0.6687012-1.7382812l-2.0789795,0.3278809l0.6686401-1.7382202l-2.0790405,0.3278809l0.6686401-1.7382202l-2.0789795,0.3278809
			l0.6686401-1.7382812l-2.0789795,0.3278809l0.6686401-1.7382202l-2.0789795,0.3278809l0.6686401-1.7382202l-2.0790405,0.3278809
			l0.6686401-1.7382202l-2.0790405,0.3278809l0.6687012-1.7382812l-2.0789795,0.3278809l0.6686401-1.7382202l-2.0790405,0.3278809
			l0.6686401-1.7382202l-2.0790405,0.3278809l0.6687012-1.7382812l-2.0789795,0.3278809l0.6686401-1.7382202l-2.0790405,0.3278809
			l0.6686401-1.7382202l-2.0790405,0.3278809l0.6687012-1.7382812l-2.0789795,0.3278809l0.6686401-1.7382202l-2.0790405,0.3278809
			l0.6686401-1.7382202l-2.0790405,0.3278809l0.6687012-1.7382812l-2.0789795,0.3278809l0.6686401-1.7382202l-2.0790405,0.3278809
			l0.6686401-1.7382202l-2.0789795,0.3278809l0.6686401-1.7382812l-2.0789795,0.3278809l0.6686401-1.7382202l-2.0789795,0.3278809
			l0.6686401-1.7382202l-2.0791016,0.3278809l0.6687012-1.7382812l-2.0789795,0.3278809l0.6686401-1.7382202l-2.0789795,0.3278809
			l0.6686401-1.7382202l-2.0790405,0.3278809l0.6686401-1.7382202l-2.0790405,0.3278809l0.6687012-1.7382812l-2.0789795,0.3278809
			l0.6686401-1.7382202l-2.0790405,0.3278809l0.6686401-1.7382202l-2.0790405,0.3278809l0.6687012-1.7382812l-2.0789795,0.3278809
			l0.6686401-1.7382202l-2.0790405,0.3278809l0.6686401-1.7382202l-2.0790405,0.3278809l0.6687012-1.7382812l-2.0789795,0.3278809
			l0.6686401-1.7382202l-2.0790405,0.3278809l0.6686401-1.7382202l-2.0790405,0.3278809l0.6687012-1.7382812l-2.0789795,0.3278809
			l0.6686401-1.7382202l-2.0790405,0.3278809l0.6686401-1.7382202l-2.0789795,0.3278809l0.6686401-1.7382812l-2.0789795,0.3278809
			l0.6686401-1.7382202l-2.0789795,0.3278809l0.6686401-1.7382202l-2.0790405,0.3278809l0.6686401-1.7382202l-2.0790405,0.3278809
			l0.6687012-1.7382812l-2.0789795,0.3278809l0.6686401-1.7382202l-2.0790405,0.3278809l0.6686401-1.7382202l-2.0790405,0.3278809
			l0.6687012-1.7382812l-2.0789795,0.3278809l0.6686401-1.7382202l-2.0790405,0.3278809l0.6686401-1.7382202l-2.0790405,0.3278809
			l0.6687012-1.7382812l-2.0789795,0.3278809l0.6686401-1.7382202l-2.0790405,0.3278809l0.6686401-1.7382202l-2.0790405,0.3278809
			l0.6687012-1.7382812l-2.0789795,0.3278809l0.6686401-1.7382202l-2.0790405,0.3278809l0.6686401-1.7382202l-2.0790405,0.3278809
			l0.6687012-1.7382812l-2.0789795,0.3278809l0.6686401-1.7382202l-2.0789795,0.3278809l0.6686401-1.7382202l-2.0791016,0.3278809
			l0.6687012-1.7382812l-2.0789795,0.3278809l0.6686401-1.7382202l-2.0789795,0.3278809l0.6686401-1.7382202l-2.0790405,0.3278809
			l0.6686401-1.7382202l-2.0790405,0.3278809l0.6687012-1.7382812l-2.0789795,0.3278809l0.6686401-1.7382202l-2.0790405,0.3278809
			l0.6686401-1.7382202l-2.0790405,0.3278809l0.6687012-1.7382812l-2.0789795,0.3278809l0.6686401-1.7382202l-2.0790405,0.3278809
			l0.6686401-1.7382202l-2.0790405,0.3278809l0.6687012-1.7382812l-2.0789795,0.3278809l0.6686401-1.7382202l-2.0790405,0.3278809
			l0.6686401-1.7382202l-2.0790405,0.3278809l0.6687012-1.7382812l-2.0789795,0.3278809l0.6686401-1.7382202l-2.0790405,0.3278809
			l0.6686401-1.7382202l-2.0789795,0.3278809l0.6686401-1.7382812l-2.0789795,0.3278809l0.6686401-1.7382202l-2.0789795,0.3278809
			l0.6686401-1.7382202l-2.0790405,0.3278809l0.6686401-1.7382202l-2.0790405,0.3278809l0.6687012-1.7382812l-2.0789795,0.3278809
			l0.6686401-1.7382202l-2.0790405,0.3278809l0.6686401-1.7382202l-2.0790405,0.3278809l0.6687012-1.7382812l-2.0789795,0.3278809
			l0.6686401-1.7382202l-2.0790405,0.3278809l0.6686401-1.7382202l-2.0790405,0.3278809l0.6687012-1.7382812l-2.0789795,0.3278809
			l0.6686401-1.7382202l-2.0790405,0.3278809l0.6686401-1.7382202l-2.0790405,0.3278809l0.6687012-1.7382812l-2.0789795,0.3278809
			l0.6686401-1.7382202l-2.0790405,0.3278809l0.6686401-1.7382202l-2.0790405,0.3278809l0.6687012-1.7382812l-2.0789795,0.3278809
			l0.6686401-1.7382202l-2.0790405,0.3278809l0.6686401-1.7382202l-2.0789795,0.3278809l0.6686401-1.7382812l-2.0789795,0.3278809
			l0.6686401-1.7382202l-2.0789795,0.3278809l0.6686401-1.7382202l-2.0790405,0.3278809l0.6686401-1.7382202l-2.0790405,0.3278809
			l0.6687012-1.7382812l-2.0789795,0.3278809l0.6686401-1.7382202l-2.0790405,0.3278809l0.6686401-1.7382202l-2.0790405,0.3278809
			l0.6687012-1.7382812l-2.0789795,0.3278809l0.6686401-1.7382202l-2.0790405,0.3278809l0.6686401-1.7382202l-2.0790405,0.3278809
			l0.6687012-1.7382812l-2.0789795,0.3278809l0.6686401-1.7382202l-2.0790405,0.3278809l0.6686401-1.7382202L503.8326416,274.625
			l0.6687012-1.7382812l-2.0789795,0.3278809l0.6686401-1.7382202l-2.0790405,0.3278809l0.6686401-1.7382202l-2.0790405,0.3278809
			l0.6687012-1.7382812l-2.0789795,0.3278809l0.6686401-1.7382202l-2.0789795,0.3278809l0.6686401-1.7382202l-2.0791016,0.3278809
			l0.6687012-1.7382812l-2.0789795,0.3278809l0.6686401-1.7382202l-2.0789795,0.3278809l0.6686401-1.7382202l-2.0790405,0.3278809
			l0.6686401-1.7382202l-2.0790405,0.3278809l0.6687012-1.7382812l-2.0789795,0.3278809l0.6686401-1.7382202l-2.0790405,0.3278809
			l0.6686401-1.7382202l-2.0790405,0.3278809l0.6687012-1.7382812l-2.0789795,0.3278809l0.6686401-1.7382202l-2.0790405,0.3278809
			l0.6686401-1.7382202l-2.0790405,0.3278809l0.6687012-1.7382812l-2.0789795,0.3278809l0.6686401-1.7382202l-2.0790405,0.3278809
			l0.6686401-1.7382202l-2.0790405,0.3278809l0.6687012-1.7382812l-2.0789795,0.3278809l0.6686401-1.7382202l-2.0790405,0.3278809
			l0.6686401-1.7382202l-2.0789795,0.3278809l0.6686401-1.7382812l-2.0789795,0.3278809l0.6686401-1.7382202l-2.0789795,0.3278809
			l0.6686401-1.7382202l-2.0790405,0.3278809l0.6686401-1.7382202l-2.0790405,0.3278809l0.6687012-1.7382812l-2.0789795,0.3278809
			l0.6686401-1.7382202l-2.0790405,0.3278809l0.6686401-1.7382202l-2.0790405,0.3278809l0.6687012-1.7382812l-2.0789795,0.3278809
			l0.6686401-1.7382202l-2.0790405,0.3278809l0.6686401-1.7382202l-2.0790405,0.3278809l0.6687012-1.7382812l-2.0789795,0.3278809
			l0.6686401-1.7382202l-2.0790405,0.3278809l0.6686401-1.7382202l-2.0790405,0.3278809l0.6687012-1.7382812l-2.0789795,0.3278809
			l0.6686401-1.7382202l-2.0790405,0.3278809l0.6686401-1.7382202l-2.0790405,0.3278809l0.6687012-1.7382812l-2.0789795,0.3278809
			l0.6686401-1.7382202l-2.0790405,0.3278809l0.6686401-1.7382202l-2.0789795,0.3278809l0.6686401-1.7382812l-2.0789795,0.3278809
			l0.6686401-1.7382202l-2.0789795,0.3278809l0.6686401-1.7382202l-2.0790405,0.3278809l0.6686401-1.7382202l-2.0790405,0.3278809
			l0.6687012-1.7382812l-2.0789795,0.3278809l0.6686401-1.7382202l-2.0790405,0.3278809l0.6686401-1.7382202l-2.0790405,0.3278809
			l0.6687012-1.7382812l-2.0789795,0.3278809l0.6686401-1.7382202l-2.0790405,0.3278809l0.6686401-1.7382202l-2.0790405,0.3278809
			l0.6687012-1.7382812l-2.0789795,0.3278809l0.6686401-1.7382202l-2.0790405,0.3278809l0.6686401-1.7382202l-2.0790405,0.3278809
			l0.6687012-1.7382812l-2.0789795,0.3278809l0.6686401-1.7382202l-2.0790405,0.3278809l0.6686401-1.7382202l-2.0790405,0.3278809
			l0.6687012-1.7382812l-2.0789795,0.3278809l0.6686401-1.7382202l-2.0789795,0.3278809l0.6686401-1.7382202l-2.0791016,0.3278809
			l0.6687012-1.7382812l-2.0789795,0.3278809l0.6686401-1.7382202l-2.0789795,0.3278809l0.6686401-1.7382202l-2.0790405,0.3278809
			l0.6686401-1.7382202l-2.0790405,0.3278809l0.6687012-1.7382812l-2.0789795,0.3278809l0.6686401-1.7382202l-2.0790405,0.3278809
			l0.6686401-1.7382202l-2.0790405,0.3278809l0.6687012-1.7382812l-2.0789795,0.3278809l0.6686401-1.7382202l-2.0790405,0.3278809
			l0.6686401-1.7382202l-2.0790405,0.3278809l0.6687012-1.7382812l-2.0789795,0.3278809l0.6686401-1.7382202l-2.0790405,0.3278809
			l0.6686401-1.7382202l-2.0790405,0.3278809l0.6687012-1.7382812l-2.0789795,0.3278809l0.6686401-1.7382202l-2.0790405,0.3278809
			l0.6686401-1.7382202l-2.0789795,0.3278809l0.6686401-1.7382812l-2.0789795,0.3278809l0.6686401-1.7382202l-2.0789795,0.3278809
			l0.6686401-1.7382202l-2.0790405,0.3278809l0.6686401-1.7382202l-2.0790405,0.3278809l0.6687012-1.7382812l-2.0789795,0.3278809
			l0.6686401-1.7382202l-2.0790405,0.3278809l0.6686401-1.7382202l-2.0790405,0.3278809l0.6687012-1.7382812l-2.0789795,0.3278809
			l0.6686401-1.7382202l-2.0790405,0.3278809l0.6686401-1.7382202l-2.0790405,0.3278809l0.6687012-1.7382812l-2.0789795,0.3278809
			l0.6686401-1.7382202l-2.0790405,0.3278809l0.6686401-1.7382202l-2.0790405,0.3278809l0.6687012-1.7382812l-2.0789795,0.3278809
			l0.6686401-1.7382202l-2.0790405,0.3278809l0.6686401-1.7382202l-2.0790405,0.3278809l0.6687012-1.7382812l-2.0789795,0.3278809
			l0.6686401-1.7382202l-2.0790405,0.3278809l0.6686401-1.7382202l-2.0789795,0.3278809l0.6686401-1.7382812l-2.0789795,0.3278809
			l0.6686401-1.7382202l-2.0789795,0.3278809l0.6686401-1.7382202l-2.0790405,0.3278809l0.6686401-1.7382202l-2.0790405,0.3278809
			l0.6687012-1.7382812l-2.0789795,0.3278809l0.6686401-1.7382202l-2.0790405,0.3278809l0.6686401-1.7382202l-2.0790405,0.3278809
			l0.6687012-1.7382812l-2.0789795,0.3278809l0.6686401-1.7382202l-2.0790405,0.3278809l0.6686401-1.7382202l-2.0790405,0.3278809
			l0.6687012-1.7382812l-2.0789795,0.3278809l0.6686401-1.7382202l-2.0790405,0.3278809l0.6686401-1.7382202l-2.0790405,0.3278809
			l0.6687012-1.7382812l-2.0789795,0.3278809l0.6686401-1.7382202l-2.0790405,0.3278809l0.6686401-1.7382202l-2.0789795,0.3278809
			l0.6686401-1.7382812l-2.0789795,0.3278809l0.6686401-1.7382202l-2.0789795,0.3278809l0.6686401-1.7382202l-2.0791016,0.3278809
			l0.6687012-1.7382812l-2.0789795,0.3278809l0.6686401-1.7382202l-2.0789795,0.3278809l0.6686401-1.7382202l-2.0790405,0.3278809
			l0.6686401-1.7382202l-2.0790405,0.3278809l0.6687012-1.7382812l-2.0789795,0.3278809l0.6686401-1.7382202l-2.0790405,0.3278809
			l0.6686401-1.7382202l-2.0790405,0.3278809l0.6687012-1.7382812l-2.0789795,0.3278809l0.6686401-1.7382202l-2.0790405,0.3278809
			l0.6686401-1.7382202l-2.0790405,0.3278809l0.6687012-1.7382812l-2.0789795,0.3278809l0.6686401-1.7382202l-26.0949707,4.1151733
			l-2.7208862,7.0731201c-0.0082397-0.0081177-0.0163574-0.0163574-0.0245972-0.0244751
			c-0.4643555-0.4755249-0.9351196-0.9441528-1.4092407-1.4092407c-0.4650879-0.4762573-0.9367065-0.9457397-1.4116211-1.4115601
			c-0.4642334-0.4753418-0.9349365-0.9439697-1.4089355-1.4089966c-0.4647217-0.4759521-0.9359741-0.9450073-1.4105225-1.4105225
			c-0.4647217-0.4758301-0.9358521-0.9448853-1.4103394-1.4103394c-0.4647217-0.4758301-0.9359131-0.9449463-1.4104004-1.4104004
			c-0.4646606-0.4758301-0.9358521-0.9448853-1.4103394-1.4103394c-0.4647217-0.4758301-0.9358521-0.9448853-1.4103394-1.4103394
			c-0.4647217-0.4758301-0.9359131-0.9449463-1.4104004-1.4104004c-0.4650879-0.4761963-0.9365845-0.9456177-1.411438-1.411438
			c-0.4643555-0.4755249-0.9351196-0.9441528-1.4092407-1.4092407c-0.4647217-0.4758301-0.9359131-0.9449463-1.4104004-1.4104004
			c-0.4650879-0.4761963-0.9365845-0.9456177-1.411438-1.411438c-0.4643555-0.4755249-0.9351196-0.9441528-1.4092407-1.4092407
			c-0.4647217-0.4758301-0.9359131-0.9449463-1.4104004-1.4104004c-0.4650879-0.4761963-0.9365845-0.9456177-1.411438-1.411438
			c-0.4643555-0.4755249-0.9351196-0.9441528-1.4092407-1.4092407c-0.4647217-0.4758301-0.9358521-0.9448853-1.4103394-1.4103394
			c-0.4650269-0.4761963-0.9366455-0.9456787-1.411499-1.411499c-0.4643555-0.4755249-0.9351196-0.9441528-1.4092407-1.4092407
			c-0.4650879-0.4762573-0.9367065-0.9457397-1.4116211-1.4115601c-0.4642334-0.4753418-0.9349365-0.9439697-1.4089355-1.4089966
			c-0.4647217-0.4759521-0.9359741-0.9450073-1.4105225-1.4105225c-0.4647217-0.4758301-0.9358521-0.9448853-1.4103394-1.4103394
			c-0.4647217-0.4758301-0.9359131-0.9449463-1.4104004-1.4104004c-0.4650879-0.4761963-0.9365845-0.9456177-1.411438-1.411438
			c-0.4643555-0.4755249-0.9351196-0.9441528-1.4092407-1.4092407c-0.4647217-0.4758301-0.9359131-0.9449463-1.4104004-1.4104004
			c-0.4650879-0.4761963-0.9365845-0.9456177-1.411438-1.411438c-20.2253418-20.7106934-49.8416138-31.637146-80.612915-26.7845459
			c-50.4411621,7.9545288-84.8838501,55.2942505-76.9293213,105.7353516
			c3.2133179,20.3762817,12.855957,38.1394043,26.5315552,51.5540771c0.4647217,0.4758301,0.9358521,0.9448242,1.4103394,1.4103394
			c0.4650879,0.4762573,0.9365845,0.9456787,1.411499,1.411499c0.4642944,0.4755249,0.9351196,0.9441528,1.4092407,1.4092407
			c0.4647217,0.4758301,0.9358521,0.9448242,1.4103394,1.4103394c0.4650269,0.4761963,0.9365845,0.9456177,1.411438,1.411438
			c0.4647217,0.4758911,0.9358521,0.9449463,1.4104004,1.4104004c0.4643555,0.4754639,0.9351196,0.9440918,1.4092407,1.4092407
			c0.4650269,0.4761963,0.9365845,0.9456177,1.411438,1.411438c0.4647217,0.4758911,0.9358521,0.9449463,1.4104004,1.4104004
			c0.4643555,0.4754639,0.9351196,0.9440918,1.4092407,1.4092407c0.4650269,0.4761963,0.9365845,0.9456177,1.411438,1.411438
			c0.4647217,0.4758911,0.9358521,0.9449463,1.4104004,1.4104004c0.4643555,0.4754639,0.9351196,0.9440918,1.4092407,1.4092407
			c0.4647217,0.4758301,0.9358521,0.9448242,1.4103394,1.4103394c0.4654541,0.4766846,0.9373779,0.9465942,1.4127197,1.4127808
			c0.4638672,0.4749756,0.9341431,0.9431763,1.4078369,1.4077759c0.4647827,0.4759521,0.9359741,0.9449463,1.4105225,1.4105225
			c0.4650879,0.4762573,0.9365845,0.9456787,1.411499,1.411499c0.4642944,0.4755249,0.9351196,0.9441528,1.4092407,1.4092407
			c0.4647217,0.4758301,0.9358521,0.9448242,1.4103394,1.4103394c0.4650269,0.4761963,0.9365845,0.9456177,1.411438,1.411438
			c0.4647217,0.4758911,0.9358521,0.9449463,1.4104004,1.4104004c0.4643555,0.4754639,0.9351196,0.9440918,1.4092407,1.4092407
			c0.4650269,0.4761963,0.9365845,0.9456177,1.411438,1.411438c0.4647217,0.4758911,0.9358521,0.9449463,1.4104004,1.4104004
			c0.4643555,0.4754639,0.9351196,0.9440918,1.4092407,1.4092407c0.4650269,0.4761963,0.9365845,0.9456177,1.411438,1.411438
			c0.4647217,0.4758911,0.9358521,0.9449463,1.4104004,1.4104004c0.4643555,0.4754639,0.9351196,0.9440918,1.4092407,1.4092407
			c0.4650269,0.4761963,0.9365845,0.9456177,1.411438,1.411438c0.4647217,0.4758911,0.9358521,0.9449463,1.4104004,1.4104004
			c0.4643555,0.4754639,0.9351196,0.9440918,1.4092407,1.4092407c0.4647217,0.4758301,0.9358521,0.9448242,1.4103394,1.4103394
			c0.4650879,0.4762573,0.9365845,0.9456787,1.411499,1.411499c0.4642944,0.4755249,0.9351196,0.9441528,1.4092407,1.4092407
			c0.4647217,0.4758301,0.9358521,0.9448242,1.4103394,1.4103394c0.4650879,0.4762573,0.9365845,0.9456787,1.411499,1.411499
			c0.4642944,0.4755249,0.9351196,0.9441528,1.4092407,1.4092407c0.4647217,0.4758301,0.9358521,0.9448242,1.4103394,1.4103394
			c0.4650269,0.4761963,0.9365845,0.9456177,1.411438,1.411438c0.4647217,0.4758911,0.9358521,0.9449463,1.4104004,1.4104004
			c0.4643555,0.4754639,0.9351196,0.9440918,1.4092407,1.4092407c0.4650269,0.4761963,0.9365845,0.9456177,1.411438,1.411438
			c0.4647217,0.4758911,0.9358521,0.9449463,1.4104004,1.4104004c0.4643555,0.4754639,0.9351196,0.9440918,1.4092407,1.4092407
			c0.4650269,0.4761963,0.9365845,0.9456177,1.411438,1.411438c0.4647217,0.4758911,0.9358521,0.9449463,1.4104004,1.4104004
			c0.4643555,0.4754639,0.9351196,0.9440918,1.4092407,1.4092407c0.4647217,0.4758301,0.9358521,0.9448242,1.4103394,1.4103394
			c0.4654541,0.4766846,0.9373779,0.9465942,1.4127197,1.4127808c0.4638672,0.4749756,0.9341431,0.9431763,1.4078369,1.4077759
			c0.4647827,0.4759521,0.9359741,0.9449463,1.4105225,1.4105225c0.4650879,0.4762573,0.9365845,0.9456787,1.411499,1.411499
			c0.4642944,0.4755249,0.9351196,0.9441528,1.4092407,1.4092407c0.4647217,0.4758301,0.9358521,0.9448242,1.4103394,1.4103394
			c0.4650879,0.4762573,0.9365845,0.9456787,1.411499,1.411499c0.4642944,0.4755249,0.9351196,0.9441528,1.4092407,1.4092407
			c0.4647217,0.4758301,0.9358521,0.9448242,1.4103394,1.4103394c0.4650269,0.4761963,0.9365845,0.9456177,1.411438,1.411438
			c0.4647217,0.4758911,0.9358521,0.9449463,1.4104004,1.4104004c0.4643555,0.4754639,0.9351196,0.9440918,1.4092407,1.4092407
			c0.4650269,0.4761963,0.9365845,0.9456177,1.411438,1.411438c0.4647217,0.4758911,0.9358521,0.9449463,1.4104004,1.4104004
			c0.4643555,0.4754639,0.9351196,0.9440918,1.4092407,1.4092407c0.4650269,0.4761963,0.9365845,0.9456177,1.411438,1.411438
			c0.4647217,0.4758911,0.9358521,0.9449463,1.4104004,1.4104004c0.4643555,0.4754639,0.9351196,0.9440918,1.4092407,1.4092407
			c0.4647217,0.4758301,0.9358521,0.9448242,1.4103394,1.4103394c0.4654541,0.4766846,0.9373779,0.9465942,1.4127197,1.4127808
			c0.4638672,0.4749756,0.9341431,0.9431763,1.4078369,1.4077759c0.4647827,0.4759521,0.9359741,0.9449463,1.4105225,1.4105225
			c0.4650879,0.4762573,0.9365845,0.9456787,1.411499,1.411499c0.4642944,0.4755249,0.9351196,0.9441528,1.4092407,1.4092407
			c0.4647217,0.4758301,0.9358521,0.9448242,1.4103394,1.4103394c0.4650269,0.4761963,0.9365845,0.9456177,1.411438,1.411438
			c0.4647217,0.4758911,0.9358521,0.9449463,1.4104004,1.4104004c0.4643555,0.4754639,0.9351196,0.9440918,1.4092407,1.4092407
			c0.4650269,0.4761963,0.9365845,0.9456177,1.411438,1.411438c0.4647217,0.4758911,0.9358521,0.9449463,1.4104004,1.4104004
			c0.4643555,0.4754639,0.9351196,0.9440918,1.4092407,1.4092407c0.4650269,0.4761963,0.9365845,0.9456177,1.411438,1.411438
			c0.4647217,0.4758911,0.9358521,0.9449463,1.4104004,1.4104004c0.4643555,0.4754639,0.9351196,0.9440918,1.4092407,1.4092407
			c0.4650269,0.4761963,0.9365845,0.9456177,1.411438,1.411438c0.4647217,0.4758911,0.9358521,0.9449463,1.4104004,1.4104004
			c0.4643555,0.4754639,0.9351196,0.9440918,1.4092407,1.4092407c0.4647217,0.4758301,0.9358521,0.9448242,1.4103394,1.4103394
			c0.4650879,0.4762573,0.9365845,0.9456787,1.411499,1.411499c0.4642944,0.4755249,0.9351196,0.9441528,1.4092407,1.4092407
			c0.4647217,0.4758301,0.9358521,0.9448242,1.4103394,1.4103394c0.4650879,0.4762573,0.9365845,0.9456787,1.411499,1.411499
			c0.4642944,0.4755249,0.9351196,0.9441528,1.4092407,1.4092407c0.4647217,0.4758301,0.9358521,0.9448242,1.4103394,1.4103394
			c0.4650269,0.4761963,0.9365845,0.9456177,1.411438,1.411438c0.4647217,0.4758911,0.9358521,0.9449463,1.4104004,1.4104004
			c0.4643555,0.4754639,0.9351196,0.9440918,1.4092407,1.4092407c0.4650269,0.4761963,0.9365845,0.9456177,1.411438,1.411438
			c0.4647217,0.4758911,0.9358521,0.9449463,1.4104004,1.4104004c0.4643555,0.4754639,0.9351196,0.9440918,1.4092407,1.4092407
			c0.4650269,0.4761963,0.9365845,0.9456177,1.411438,1.411438c0.4647217,0.4758911,0.9358521,0.9449463,1.4104004,1.4104004
			c0.4643555,0.4754639,0.9351196,0.9440918,1.4092407,1.4092407c0.4647217,0.4758301,0.9358521,0.9448242,1.4103394,1.4103394
			c0.4654541,0.4766846,0.9373779,0.9465942,1.4127197,1.4127808c0.4638672,0.4749756,0.9341431,0.9431763,1.4078369,1.4077759
			c0.4647827,0.4759521,0.9359741,0.9449463,1.4105225,1.4105225c0.4650879,0.4762573,0.9365845,0.9456787,1.411499,1.411499
			c0.4642944,0.4755249,0.9351196,0.9441528,1.4092407,1.4092407c0.4647217,0.4758301,0.9358521,0.9448242,1.4103394,1.4103394
			c0.4650879,0.4762573,0.9365845,0.9456787,1.411499,1.411499c0.4642944,0.4755249,0.9351196,0.9441528,1.4092407,1.4092407
			c0.4647217,0.4758301,0.9358521,0.9448242,1.4103394,1.4103394c0.4650269,0.4761963,0.9365845,0.9456177,1.411438,1.411438
			c0.4647217,0.4758911,0.9358521,0.9449463,1.4104004,1.4104004c0.4643555,0.4754639,0.9351196,0.9440918,1.4092407,1.4092407
			c0.4650269,0.4761963,0.9365845,0.9456177,1.411438,1.411438c0.4647217,0.4758911,0.9358521,0.9449463,1.4104004,1.4104004
			c0.4643555,0.4754639,0.9351196,0.9440918,1.4092407,1.4092407c0.4650269,0.4761963,0.9365845,0.9456177,1.411438,1.411438
			c0.4647217,0.4758911,0.9358521,0.9449463,1.4104004,1.4104004c0.4643555,0.4754639,0.9351196,0.9440918,1.4092407,1.4092407
			c0.4647217,0.4758301,0.9358521,0.9448242,1.4103394,1.4103394c0.4654541,0.4766846,0.9373779,0.9465942,1.4127197,1.4127808
			c0.4638672,0.4749756,0.9341431,0.9431763,1.4078369,1.4077759c0.4647827,0.4759521,0.9359741,0.9449463,1.4105225,1.4105225
			c0.4650879,0.4762573,0.9365845,0.9456787,1.411499,1.411499c0.4642944,0.4755249,0.9351196,0.9441528,1.4092407,1.4092407
			c0.4647217,0.4758301,0.9358521,0.9448242,1.4103394,1.4103394c0.4650269,0.4761963,0.9365845,0.9456177,1.411438,1.411438
			c0.4647217,0.4758911,0.9358521,0.9449463,1.4104004,1.4104004c0.4643555,0.4754639,0.9351196,0.9440918,1.4092407,1.4092407
			c0.4650269,0.4761963,0.9365845,0.9456177,1.411438,1.411438c0.4647217,0.4758911,0.9358521,0.9449463,1.4104004,1.4104004
			c0.4643555,0.4754639,0.9351196,0.9440918,1.4092407,1.4092407c0.4650269,0.4761963,0.9365845,0.9456177,1.411438,1.411438
			c0.4647217,0.4758911,0.9358521,0.9449463,1.4104004,1.4104004c0.4643555,0.4754639,0.9351196,0.9440918,1.4092407,1.4092407
			c0.4650269,0.4761963,0.9365845,0.9456177,1.411438,1.411438c0.4650879,0.4763184,0.9367065,0.9458618,1.4116211,1.4116821
			c0.4638672,0.4749756,0.9341431,0.9431763,1.4078369,1.4077759c0.4647827,0.4759521,0.9359741,0.9449463,1.4105225,1.4105225
			c0.4650879,0.4762573,0.9365845,0.9456787,1.411499,1.411499c0.4642944,0.4755249,0.9351196,0.9441528,1.4092407,1.4092407
			c0.4647217,0.4758301,0.9358521,0.9448242,1.4103394,1.4103394c0.4650879,0.4762573,0.9365845,0.9456787,1.411499,1.411499
			c0.4642944,0.4755249,0.9351196,0.9441528,1.4092407,1.4092407c0.4647217,0.4758301,0.9358521,0.9448242,1.4103394,1.4103394
			c0.4650269,0.4761963,0.9365845,0.9456177,1.411438,1.411438c0.4647217,0.4758911,0.9358521,0.9449463,1.4104004,1.4104004
			c0.4643555,0.4754639,0.9351196,0.9440918,1.4092407,1.4092407c0.4650269,0.4761963,0.9365845,0.9456177,1.411438,1.411438
			c0.4647217,0.4758911,0.9358521,0.9449463,1.4104004,1.4104004c0.4643555,0.4754639,0.9351196,0.9440918,1.4092407,1.4092407
			c0.4650269,0.4761963,0.9365845,0.9456177,1.411438,1.411438c0.4647217,0.4758911,0.9358521,0.9449463,1.4104004,1.4104004
			c0.4643555,0.4754639,0.9351196,0.9440918,1.4092407,1.4092407c0.4647217,0.4758301,0.9358521,0.9448242,1.4103394,1.4103394
			c0.4654541,0.4766846,0.9373779,0.9465942,1.4127197,1.4127808c0.4638672,0.4749756,0.9341431,0.9431763,1.4078369,1.4077759
			c0.4647827,0.4759521,0.9359741,0.9449463,1.4105225,1.4105225c0.4650879,0.4762573,0.9365845,0.9456787,1.411499,1.411499
			c0.4642944,0.4755249,0.9351196,0.9441528,1.4092407,1.4092407c0.4647217,0.4758301,0.9358521,0.9448242,1.4103394,1.4103394
			c0.4650269,0.4761963,0.9365845,0.9456177,1.411438,1.411438c0.4647217,0.4758911,0.9358521,0.9449463,1.4104004,1.4104004
			c0.4643555,0.4754639,0.9351196,0.9440918,1.4092407,1.4092407c0.4650269,0.4761963,0.9365845,0.9456177,1.411438,1.411438
			c0.4647217,0.4758911,0.9358521,0.9449463,1.4104004,1.4104004c0.4643555,0.4754639,0.9351196,0.9440918,1.4092407,1.4092407
			c0.4650269,0.4761963,0.9365845,0.9456177,1.411438,1.411438c0.4647217,0.4758911,0.9358521,0.9449463,1.4104004,1.4104004
			c0.4643555,0.4754639,0.9351196,0.9440918,1.4092407,1.4092407c0.4650269,0.4761963,0.9365845,0.9456177,1.411438,1.411438
			c0.4647217,0.4758911,0.9358521,0.9449463,1.4104004,1.4104004c0.4643555,0.4754639,0.9351196,0.9440918,1.4092407,1.4092407
			c0.4647217,0.4758301,0.9358521,0.9448242,1.4103394,1.4103394c0.4654541,0.4766846,0.9373779,0.9465942,1.4127197,1.4127808
			c0.4638672,0.4749756,0.9341431,0.9431763,1.4078369,1.4077759c0.4647827,0.4759521,0.9359741,0.9449463,1.4105225,1.4105225
			c0.4650879,0.4762573,0.9365845,0.9456787,1.411499,1.411499c0.4642944,0.4755249,0.9351196,0.9441528,1.4092407,1.4092407
			c0.4647217,0.4758301,0.9358521,0.9448242,1.4103394,1.4103394c0.4650269,0.4761963,0.9365845,0.9456177,1.411438,1.411438
			c0.4647217,0.4758911,0.9358521,0.9449463,1.4104004,1.4104004c0.4643555,0.4754639,0.9351196,0.9440918,1.4092407,1.4092407
			c0.4650269,0.4761963,0.9365845,0.9456177,1.411438,1.411438c0.4647217,0.4758911,0.9358521,0.9449463,1.4104004,1.4104004
			c0.4643555,0.4754639,0.9351196,0.9440918,1.4092407,1.4092407c0.4650269,0.4761963,0.9365845,0.9456177,1.411438,1.411438
			c0.4647217,0.4758911,0.9358521,0.9449463,1.4104004,1.4104004c0.4643555,0.4754639,0.9351196,0.9440918,1.4092407,1.4092407
			c0.4650269,0.4761963,0.9365845,0.9456177,1.411438,1.411438c0.4650879,0.4763184,0.9366455,0.9458618,1.4116211,1.4116821
			c0.4638672,0.4749756,0.9341431,0.9431763,1.4078369,1.4077759c0.4647827,0.4759521,0.9359741,0.9449463,1.4105225,1.4105225
			c0.4650879,0.4762573,0.9365845,0.9456787,1.411499,1.411499c0.4642944,0.4755249,0.9351196,0.9441528,1.4092407,1.4092407
			c0.4647217,0.4758301,0.9358521,0.9448242,1.4103394,1.4103394c0.4650879,0.4762573,0.9365845,0.9456787,1.411499,1.411499
			c0.4642944,0.4755249,0.9351196,0.9441528,1.4092407,1.4092407c0.4647217,0.4758301,0.9358521,0.9448242,1.4103394,1.4103394
			c0.4650269,0.4761963,0.9365845,0.9456177,1.411438,1.411438c0.4647217,0.4758911,0.9358521,0.9449463,1.4104004,1.4104004
			c0.4643555,0.4754639,0.9351196,0.9440918,1.4092407,1.4092407c0.4650269,0.4761963,0.9365845,0.9456177,1.411438,1.411438
			c0.4647217,0.4758911,0.9358521,0.9449463,1.4104004,1.4104004c0.4643555,0.4754639,0.9351196,0.9440918,1.4092407,1.4092407
			c0.4650269,0.4761963,0.9365845,0.9456177,1.411438,1.411438c0.4647217,0.4758911,0.9358521,0.9449463,1.4104004,1.4104004
			c0.4643555,0.4754639,0.9351196,0.9440918,1.4092407,1.4092407c0.4647217,0.4758301,0.9358521,0.9448242,1.4103394,1.4103394
			c0.4654541,0.4766846,0.9373779,0.9465942,1.4127197,1.4127808c0.4638672,0.4749756,0.9341431,0.9431763,1.4078369,1.4077759
			c0.4647827,0.4759521,0.9359741,0.9449463,1.4105225,1.4105225c0.4650879,0.4762573,0.9365845,0.9456787,1.411499,1.411499
			c0.4642944,0.4755249,0.9351196,0.9441528,1.4092407,1.4092407c0.4647217,0.4758301,0.9358521,0.9448242,1.4103394,1.4103394
			c0.4650269,0.4761963,0.9365845,0.9456177,1.411438,1.411438c0.4647217,0.4758911,0.9358521,0.9449463,1.4104004,1.4104004
			c0.4643555,0.4754639,0.9351196,0.9440918,1.4092407,1.4092407c0.4650269,0.4761963,0.9365845,0.9456177,1.411438,1.411438
			c0.4647217,0.4758911,0.9358521,0.9449463,1.4104004,1.4104004c0.4643555,0.4754639,0.9351196,0.9440918,1.4092407,1.4092407
			c0.4650269,0.4761963,0.9365845,0.9456177,1.411438,1.411438c0.4647217,0.4758911,0.9358521,0.9449463,1.4104004,1.4104004
			c0.4643555,0.4754639,0.9351196,0.9440918,1.4092407,1.4092407c0.4650269,0.4761963,0.9365845,0.9456177,1.411438,1.411438
			c0.4647217,0.4758911,0.9358521,0.9449463,1.4104004,1.4104004c0.4643555,0.4754639,0.9351196,0.9440918,1.4092407,1.4092407
			c0.4647217,0.4758301,0.9358521,0.9448242,1.4103394,1.4103394c0.4654541,0.4766846,0.9373779,0.9465942,1.4127197,1.4127808
			c0.4638672,0.4749756,0.9341431,0.9431763,1.4078369,1.4077759c0.4647827,0.4759521,0.9359741,0.9449463,1.4105225,1.4105225
			c0.4650879,0.4762573,0.9365845,0.9456787,1.411499,1.411499c0.4642944,0.4755249,0.9351196,0.9441528,1.4092407,1.4092407
			c0.4647217,0.4758301,0.9358521,0.9448242,1.4103394,1.4103394c0.4650269,0.4761963,0.9365845,0.9456177,1.411438,1.411438
			c0.4647217,0.4758911,0.9358521,0.9449463,1.4104004,1.4104004c0.4643555,0.4754639,0.9351196,0.9440918,1.4092407,1.4092407
			c0.4650269,0.4761963,0.9365845,0.9456177,1.411438,1.411438c0.4647217,0.4758911,0.9358521,0.9449463,1.4104004,1.4104004
			c0.4643555,0.4754639,0.9351196,0.9440918,1.4092407,1.4092407c0.4650269,0.4761963,0.9365845,0.9456177,1.411438,1.411438
			c0.4647217,0.4758911,0.9358521,0.9449463,1.4104004,1.4104004c0.4643555,0.4754639,0.9351196,0.9440918,1.4092407,1.4092407
			c0.4650269,0.4761963,0.9365845,0.9456177,1.411438,1.411438c0.4650879,0.4763184,0.9366455,0.9458618,1.4116211,1.4116821
			c0.4638672,0.4749756,0.9341431,0.9431763,1.4078369,1.4077759c0.4647827,0.4759521,0.9359741,0.9449463,1.4105225,1.4105225
			c0.4650879,0.4762573,0.9365845,0.9456787,1.411499,1.411499c20.2253418,20.7106934,49.8417358,31.637146,80.6130371,26.7845459
			c24.0471802-3.7922363,44.4530029-16.539917,58.3676147-34.3035889l31.0221558,22.5704956
			c0.7368164,0.5368042,1.6223755,0.7235718,2.4567871,0.59198c0.8347778-0.1316528,1.6199341-0.5819092,2.1557617-1.3193359
			c1.0733643-1.4743042,0.7476196-3.5400391-0.727356-4.6124878l-0.4771118-0.347168
			c-0.2259521-0.4052124-0.5333862-0.7723999-0.9332886-1.0631714l-0.4770508-0.3471069
			c-0.2259521-0.4052734-0.5333252-0.7724609-0.9332886-1.0632324l-0.4770508-0.3471069
			c-0.2259521-0.4052734-0.5333252-0.772522-0.9332886-1.0632935l-0.4771118-0.347168
			c-0.2259521-0.4052124-0.5333862-0.7723999-0.9332886-1.0631714l-0.4770508-0.3471069
			c-0.2259521-0.4052734-0.5333252-0.7724609-0.9332886-1.0632324l-0.4770508-0.3471069
			c-0.2259521-0.4052734-0.5333252-0.772522-0.9332886-1.0632935l-0.4771118-0.347168
			c-0.2259521-0.4052124-0.5333862-0.7723999-0.9332886-1.0631714l-0.4770508-0.3471069
			c-0.2259521-0.4052734-0.5333252-0.7724609-0.9332886-1.0632324l-0.4770508-0.3471069
			c-0.2259521-0.4052734-0.5333252-0.772522-0.9332886-1.0632935l-0.4771118-0.347168
			c-0.2259521-0.4052124-0.5333862-0.7723999-0.9332886-1.0631714l-0.4770508-0.3471069
			c-0.2259521-0.4052734-0.5333252-0.7724609-0.9332886-1.0632324l-0.4770508-0.3471069
			c-0.2259521-0.4052734-0.5333252-0.772522-0.9332886-1.0632935l-0.4771118-0.3471069
			c-0.2259521-0.4052124-0.5333252-0.7724609-0.9332275-1.0632324l-0.4771118-0.347168
			c-0.2259521-0.4052124-0.5333862-0.7723999-0.9332886-1.0631714l-0.4770508-0.3471069
			c-0.2259521-0.4052734-0.5333252-0.772522-0.9332886-1.0632935l-0.4771118-0.3471069
			c-0.2259521-0.4052124-0.5333252-0.7724609-0.9332275-1.0632324l-0.4771118-0.347168
			c-0.2259521-0.4052124-0.5333862-0.7723999-0.9332886-1.0631714l-0.4770508-0.3471069
			c-0.2259521-0.4052734-0.5333252-0.772522-0.9332886-1.0632935l-0.4771118-0.3471069
			c-0.2259521-0.4052124-0.5333252-0.7724609-0.9332275-1.0632324l-0.4771118-0.347168
			c-0.1291504-0.2316895-0.2831421-0.4505615-0.4699097-0.649231c9.8104248-16.8535156,14.3718262-36.8948975,11.8482056-57.597168
			l13.5582275-2.1381226l0.166626,0.2060547l0.2394409-0.0377808l1.1708984,1.4481201l0.2394409-0.0377808l1.1709595,1.4481201
			l0.2393799-0.0377197l1.1709595,1.4481201l0.2394409-0.0377808l1.1708984,1.4481201l0.2394409-0.0377808l1.1709595,1.4481201
			l0.2393799-0.0377197l1.1709595,1.4481201L686.3201294,476.6871338z"/>
		<path class="st1" d="M584.6469727,603.020752c-0.4364624-0.5031128-0.9074097-0.9740601-1.4105225-1.4105225
			c-0.4365234-0.5031128-0.9074097-0.9740601-1.4105225-1.4105225c-0.4363403-0.5029297-0.9071655-0.9736938-1.4100342-1.4100342
			c-0.4364624-0.5031128-0.9074097-0.9740601-1.4105225-1.4105225c-0.4364014-0.5029907-0.9072876-0.973877-1.4102783-1.4102783
			c-0.4365234-0.5032349-0.9076538-0.9743042-1.4108276-1.4108276c-0.4362793-0.5028076-0.9070435-0.9736328-1.4099121-1.4099121
			c-0.4364014-0.5029907-0.9072876-0.973938-1.4103394-1.4103394c-0.4365234-0.5032349-0.9076538-0.9743042-1.4108276-1.4108276
			c-0.4362793-0.5028076-0.9069824-0.9735107-1.40979-1.40979c-0.4364624-0.5030518-0.9074097-0.9740601-1.4105225-1.4105225
			c-0.4365845-0.5031738-0.9075928-0.9742432-1.4107666-1.4107666c-0.4362793-0.5028076-0.9069824-0.9735107-1.40979-1.40979
			c-0.4364624-0.5030518-0.9074097-0.9740601-1.4105225-1.4105225c-0.4365845-0.5031738-0.9075928-0.9742432-1.4107666-1.4107666
			c-0.4362793-0.5028076-0.9069824-0.9735107-1.40979-1.40979c-0.4364624-0.5030518-0.9074097-0.9740601-1.4105225-1.4105225
			c-0.4365234-0.5031128-0.9074097-0.9740601-1.4105225-1.4105225c-0.4363403-0.5029297-0.9071655-0.9736938-1.4100342-1.4100342
			c-0.4364624-0.5031128-0.9074097-0.9740601-1.4105225-1.4105225c-0.4365234-0.5031128-0.9074097-0.9740601-1.4105225-1.4105225
			c-0.4364624-0.5030518-0.9072876-0.973938-1.4103394-1.4103394c-0.4363403-0.5029297-0.9072266-0.9738159-1.4101562-1.4101562
			c-0.4364014-0.5029907-0.9072876-0.973938-1.4103394-1.4103394c-0.4365234-0.5032349-0.9076538-0.9743042-1.4108276-1.4108276
			c-0.4362793-0.5028076-0.9070435-0.9736328-1.4099121-1.4099121c-0.4364014-0.5029907-0.9072876-0.973938-1.4103394-1.4103394
			c-0.4365234-0.5032349-0.9076538-0.9743042-1.4108276-1.4108276c-0.4362793-0.5028076-0.9069824-0.9735107-1.40979-1.40979
			c-0.4364624-0.5030518-0.9074097-0.9740601-1.4105225-1.4105225c-0.4365845-0.5031738-0.9075928-0.9742432-1.4107666-1.4107666
			c-0.4362793-0.5028076-0.9069824-0.9735107-1.40979-1.40979c-0.4364624-0.5030518-0.9074097-0.9740601-1.4105225-1.4105225
			c-0.4365845-0.5031738-0.9075928-0.9742432-1.4107666-1.4107666c-0.4362793-0.5028076-0.9069824-0.9735107-1.40979-1.40979
			c-0.4364624-0.5031128-0.9074097-0.9740601-1.4105225-1.4105225c-0.4365234-0.5031128-0.9074097-0.9740601-1.4105225-1.4105225
			c-0.4363403-0.5029297-0.9071655-0.9736938-1.4100342-1.4100342c-0.4364624-0.5031128-0.9074097-0.9740601-1.4105225-1.4105225
			c-0.4364014-0.5029907-0.9072876-0.973877-1.4102783-1.4102783c-0.4365234-0.5032349-0.9076538-0.9743042-1.4108276-1.4108276
			c-0.4362793-0.5028076-0.9070435-0.9736328-1.4099121-1.4099121c-0.4364014-0.5029907-0.9072876-0.973938-1.4103394-1.4103394
			c-0.4365234-0.5032349-0.9076538-0.9743042-1.4108276-1.4108276c-0.4362793-0.5028076-0.9070435-0.9736328-1.4099121-1.4099121
			c-0.4364014-0.5029907-0.9072876-0.973938-1.4103394-1.4103394c-0.4365234-0.5032349-0.9076538-0.9743042-1.4108276-1.4108276
			c-0.4362793-0.5028076-0.9069824-0.9735107-1.40979-1.40979c-0.4364624-0.5030518-0.9074097-0.9740601-1.4105225-1.4105225
			c-0.4365845-0.5031738-0.9075928-0.9742432-1.4107666-1.4107666c-0.4362793-0.5028076-0.9069824-0.9735107-1.40979-1.40979
			c-0.4364624-0.5030518-0.9074097-0.9740601-1.4105225-1.4105225c-0.4365845-0.5031738-0.9075928-0.9742432-1.4107666-1.4107666
			c-0.4362793-0.5028076-0.9069824-0.9735107-1.40979-1.40979c-0.4364624-0.5031128-0.9074097-0.9740601-1.4105225-1.4105225
			c-0.4365234-0.5031128-0.9074097-0.9740601-1.4105225-1.4105225c-0.4363403-0.5029297-0.9071655-0.9736938-1.4100342-1.4100342
			c-0.4364624-0.5031128-0.9074097-0.9740601-1.4105225-1.4105225c-0.4364014-0.5029907-0.9072876-0.973877-1.4102783-1.4102783
			c-0.4365234-0.5032349-0.9076538-0.9743042-1.4108276-1.4108276c-0.4362793-0.5028076-0.9070435-0.9736328-1.4099121-1.4099121
			c-0.4364014-0.5029907-0.9072876-0.973938-1.4103394-1.4103394c-0.4365234-0.5032349-0.9076538-0.9743042-1.4108276-1.4108276
			c-0.4362793-0.5028076-0.9069824-0.9735107-1.40979-1.40979c-0.4364624-0.5030518-0.9074097-0.9740601-1.4105225-1.4105225
			c-0.4365845-0.5031738-0.9075928-0.9742432-1.4107666-1.4107666c-0.4362793-0.5028076-0.9069824-0.9735107-1.40979-1.40979
			c-0.4364624-0.5030518-0.9074097-0.9740601-1.4105225-1.4105225c-0.4365845-0.5031738-0.9075928-0.9742432-1.4107666-1.4107666
			c-0.4362793-0.5028076-0.9069824-0.9735107-1.40979-1.40979c-0.4364624-0.5030518-0.9074097-0.9740601-1.4105225-1.4105225
			c-0.4365234-0.5031128-0.9074097-0.9740601-1.4105225-1.4105225c-0.4363403-0.5029297-0.9071655-0.9736938-1.4100342-1.4100342
			c-0.4364624-0.5031128-0.9074097-0.9740601-1.4105225-1.4105225c-0.4365234-0.5031128-0.9074097-0.9740601-1.4105225-1.4105225
			c-0.4364624-0.5030518-0.9072876-0.973938-1.4103394-1.4103394c-0.4363403-0.5029297-0.9072266-0.9738159-1.4101562-1.4101562
			c-0.4364014-0.5029907-0.9072876-0.973938-1.4103394-1.4103394c-0.4365234-0.5032349-0.9076538-0.9743042-1.4108276-1.4108276
			c-0.4362793-0.5028076-0.9070435-0.9736328-1.4099121-1.4099121c-0.4364014-0.5029907-0.9072876-0.973938-1.4103394-1.4103394
			c-0.4365234-0.5032349-0.9076538-0.9743042-1.4108276-1.4108276c-0.4362793-0.5028076-0.9069824-0.9735107-1.40979-1.40979
			c-0.4364624-0.5030518-0.9074097-0.9740601-1.4105225-1.4105225c-0.4365845-0.5031738-0.9075928-0.9742432-1.4107666-1.4107666
			c-0.4362793-0.5028076-0.9069824-0.9735107-1.40979-1.40979c-0.4364624-0.5030518-0.9074097-0.9740601-1.4105225-1.4105225
			c-0.4365845-0.5031738-0.9075928-0.9742432-1.4107666-1.4107666c-0.4362793-0.5028076-0.9069824-0.9735107-1.40979-1.40979
			c-0.4364624-0.5031128-0.9074097-0.9740601-1.4105225-1.4105225c-0.4365234-0.5031128-0.9074097-0.9740601-1.4105225-1.4105225
			c-0.4363403-0.5029297-0.9071655-0.9736938-1.4100342-1.4100342c-0.4364624-0.5031128-0.9074097-0.9740601-1.4105225-1.4105225
			c-0.4364014-0.5029907-0.9072876-0.973877-1.4102783-1.4102783c-0.4365234-0.5032349-0.9076538-0.9743042-1.4108276-1.4108276
			c-0.4362793-0.5028076-0.9070435-0.9736328-1.4099121-1.4099121c-0.4364014-0.5029907-0.9072876-0.973938-1.4103394-1.4103394
			c-0.4365234-0.5032349-0.9076538-0.9743042-1.4108276-1.4108276c-0.4362793-0.5028076-0.9070435-0.9736328-1.4099121-1.4099121
			c-0.4364014-0.5029907-0.9072876-0.973938-1.4103394-1.4103394c-0.4365234-0.5032349-0.9076538-0.9743042-1.4108276-1.4108276
			c-0.4362793-0.5028076-0.9069824-0.9735107-1.40979-1.40979c-0.4364624-0.5030518-0.9074097-0.9740601-1.4105225-1.4105225
			c-0.4365845-0.5031738-0.9075928-0.9742432-1.4107666-1.4107666c-0.4362793-0.5028076-0.9069824-0.9735107-1.40979-1.40979
			c-0.4364624-0.5030518-0.9074097-0.9740601-1.4105225-1.4105225c-0.4365845-0.5031738-0.9075928-0.9742432-1.4107666-1.4107666
			c-0.4362793-0.5028076-0.9069824-0.9735107-1.40979-1.40979c-0.4364624-0.5031128-0.9074097-0.9740601-1.4105225-1.4105225
			c-0.4365234-0.5031128-0.9074097-0.9740601-1.4105225-1.4105225c-0.4363403-0.5029297-0.9071655-0.9736938-1.4100342-1.4100342
			c-0.4364624-0.5031128-0.9074097-0.9740601-1.4105225-1.4105225c-0.4364014-0.5029907-0.9072876-0.973877-1.4102783-1.4102783
			c-0.4365234-0.5032349-0.9076538-0.9743042-1.4108276-1.4108276c-0.4362793-0.5028076-0.9070435-0.9736328-1.4099121-1.4099121
			c-0.4364014-0.5029907-0.9072876-0.973938-1.4103394-1.4103394c-0.4365234-0.5032349-0.9076538-0.9743042-1.4108276-1.4108276
			c-0.4362793-0.5028076-0.9069824-0.9735107-1.40979-1.40979c-0.4364624-0.5030518-0.9074097-0.9740601-1.4105225-1.4105225
			c-0.4365845-0.5031738-0.9075928-0.9742432-1.4107666-1.4107666c-0.4362793-0.5028076-0.9069824-0.9735107-1.40979-1.40979
			c-0.4364624-0.5030518-0.9074097-0.9740601-1.4105225-1.4105225c-0.4365845-0.5031738-0.9075928-0.9742432-1.4107666-1.4107666
			c-0.4362793-0.5028076-0.9069824-0.9735107-1.40979-1.40979c-0.4364624-0.5031128-0.9074097-0.9740601-1.4105225-1.4105225
			c-0.4365234-0.5031128-0.9074097-0.9740601-1.4105225-1.4105225c-0.4363403-0.5029297-0.9071655-0.9736938-1.4100342-1.4100342
			c-0.4364624-0.5031128-0.9074097-0.9740601-1.4105225-1.4105225c-0.4365234-0.5031128-0.9074097-0.9740601-1.4105225-1.4105225
			c-0.4364624-0.5030518-0.9072876-0.973938-1.4103394-1.4103394c-0.4363403-0.5029297-0.9072266-0.9738159-1.4101562-1.4101562
			c-0.4364014-0.5029907-0.9072876-0.973938-1.4103394-1.4103394c-0.4365234-0.5032349-0.9076538-0.9743042-1.4108276-1.4108276
			c-0.4362793-0.5028076-0.9070435-0.9736328-1.4099121-1.4099121c-0.4364014-0.5029907-0.9072876-0.973938-1.4103394-1.4103394
			c-0.4365234-0.5032349-0.9076538-0.9743042-1.4108276-1.4108276c-0.4362793-0.5028076-0.9069824-0.9735107-1.40979-1.40979
			c-0.4364624-0.5030518-0.9074097-0.9740601-1.4105225-1.4105225c-0.4365845-0.5031738-0.9075928-0.9742432-1.4107666-1.4107666
			c-0.4362793-0.5028076-0.9069824-0.9735107-1.40979-1.40979c-0.4364624-0.5030518-0.9074097-0.9740601-1.4105225-1.4105225
			c-0.4365845-0.5031738-0.9075928-0.9742432-1.4107666-1.4107666c-0.4362793-0.5028076-0.9069824-0.9735107-1.40979-1.40979
			c-0.4364624-0.5031128-0.9074097-0.9740601-1.4105225-1.4105225c-0.4365234-0.5031128-0.9074097-0.9740601-1.4105225-1.4105225
			c-0.4363403-0.5029297-0.9071655-0.9736938-1.4100342-1.4100342c-0.4364624-0.5031128-0.9074097-0.9740601-1.4105225-1.4105225
			c-0.4364014-0.5029907-0.9072876-0.973877-1.4102783-1.4102783c-0.4365234-0.5032349-0.9076538-0.9743042-1.4108276-1.4108276
			c-0.4362793-0.5028076-0.9070435-0.9736328-1.4099121-1.4099121c-0.4364014-0.5029907-0.9072876-0.973938-1.4103394-1.4103394
			c-0.4365234-0.5032349-0.9076538-0.9743042-1.4108276-1.4108276c-0.4362793-0.5028076-0.9070435-0.9736328-1.4099121-1.4099121
			c-0.4364014-0.5029907-0.9072876-0.973938-1.4103394-1.4103394c-0.4365845-0.5032349-0.9076538-0.9743042-1.4108276-1.4108276
			c-0.4362793-0.5028076-0.9069824-0.9735107-1.40979-1.40979c-0.4364624-0.5030518-0.9074097-0.9740601-1.4105225-1.4105225
			c-0.4365845-0.5031738-0.9075928-0.9742432-1.4107666-1.4107666c-0.4362793-0.5028076-0.9069824-0.9735107-1.40979-1.40979
			c-0.4364624-0.5030518-0.9074097-0.9740601-1.4105225-1.4105225c-0.4365845-0.5031738-0.9075928-0.9742432-1.4107666-1.4107666
			c-0.4362793-0.5028076-0.9069824-0.9735107-1.40979-1.40979c-0.4364624-0.5031128-0.9074097-0.9740601-1.4105225-1.4105225
			c-0.4365234-0.5031128-0.9074097-0.9740601-1.4105225-1.4105225c-0.4363403-0.5029297-0.9071655-0.9736938-1.4100342-1.4100342
			c-0.4364624-0.5031128-0.9074097-0.9740601-1.4105225-1.4105225c-0.4364014-0.5029907-0.9072876-0.973877-1.4102783-1.4102783
			c-0.4365234-0.5032349-0.9076538-0.9743042-1.4108276-1.4108276c-0.4362793-0.5028076-0.9070435-0.9736328-1.4099121-1.4099121
			c-0.4364014-0.5029907-0.9072876-0.973938-1.4103394-1.4103394c-0.4365234-0.5032349-0.9076538-0.9743042-1.4108276-1.4108276
			c-0.4362793-0.5028076-0.9069824-0.9735107-1.40979-1.40979c-0.4364624-0.5030518-0.9074097-0.9740601-1.4105225-1.4105225
			c-0.4365845-0.5031738-0.9075928-0.9742432-1.4107666-1.4107666c-0.4362793-0.5028076-0.9069824-0.9735107-1.40979-1.40979
			c-0.4364624-0.5030518-0.9074097-0.9740601-1.4105225-1.4105225c-0.4365845-0.5031738-0.9075928-0.9742432-1.4107666-1.4107666
			c-0.4362793-0.5028076-0.9069824-0.9735107-1.40979-1.40979c-0.4364624-0.5031128-0.9074097-0.9740601-1.4105225-1.4105225
			c-0.4365234-0.5031128-0.9074097-0.9740601-1.4105225-1.4105225c-0.4363403-0.5029297-0.9071655-0.9736938-1.4100342-1.4100342
			c-0.4364624-0.5031128-0.9074097-0.9740601-1.4105225-1.4105225c-0.4365234-0.5031128-0.9074097-0.9740601-1.4105225-1.4105225
			c-0.4364624-0.5030518-0.9072876-0.973938-1.4103394-1.4103394c-0.4363403-0.5029297-0.9072266-0.9738159-1.4101562-1.4101562
			c-0.4364014-0.5029907-0.9072876-0.973938-1.4103394-1.4103394c-0.4365234-0.5032349-0.9076538-0.9743042-1.4108276-1.4108276
			c-0.4362793-0.5028076-0.9070435-0.9736328-1.4099121-1.4099121c-0.4364014-0.5029907-0.9072876-0.973938-1.4103394-1.4103394
			c-0.4365234-0.5032349-0.9076538-0.9743042-1.4108276-1.4108276c-0.4362793-0.5028076-0.9069824-0.9735107-1.40979-1.40979
			c-0.4364624-0.5030518-0.9074097-0.9740601-1.4105225-1.4105225c-0.4365845-0.5031738-0.9075928-0.9742432-1.4107666-1.4107666
			c-0.4362793-0.5028076-0.9069824-0.9735107-1.40979-1.40979c-0.4364624-0.5030518-0.9074097-0.9740601-1.4105225-1.4105225
			c-0.4365845-0.5031738-0.9075928-0.9742432-1.4107666-1.4107666c-0.4362793-0.5028076-0.9069824-0.9735107-1.40979-1.40979
			c-0.4364624-0.5031128-0.9074097-0.9740601-1.4105225-1.4105225c-0.4365234-0.5031128-0.9074097-0.9740601-1.4105225-1.4105225
			c-0.4363403-0.5029297-0.9071655-0.9736938-1.4100342-1.4100342c-0.4364624-0.5031128-0.9074097-0.9740601-1.4105225-1.4105225
			c-0.4364014-0.5029907-0.9072876-0.973877-1.4102783-1.4102783c-0.4365234-0.5032349-0.9076538-0.9743042-1.4108276-1.4108276
			c-0.4362793-0.5028076-0.9070435-0.9736328-1.4099121-1.4099121c-0.4364014-0.5029907-0.9072876-0.973938-1.4103394-1.4103394
			c-0.4365234-0.5032349-0.9076538-0.9743042-1.4108276-1.4108276c-0.4362793-0.5028076-0.9070435-0.9736328-1.4099121-1.4099121
			c-0.4364014-0.5029907-0.9072876-0.973938-1.4103394-1.4103394c-0.4365845-0.5032349-0.9076538-0.9743042-1.4108276-1.4108276
			c-0.4362793-0.5028076-0.9069824-0.9735107-1.40979-1.40979c-0.4364624-0.5030518-0.9074097-0.9740601-1.4105225-1.4105225
			c-0.4365845-0.5031738-0.9075928-0.9742432-1.4107666-1.4107666c-0.4362793-0.5028076-0.9069824-0.9735107-1.40979-1.40979
			c-0.4364624-0.5030518-0.9074097-0.9740601-1.4105225-1.4105225c-0.4365845-0.5031738-0.9075928-0.9742432-1.4107666-1.4107666
			c-0.4362793-0.5028076-0.9069824-0.9735107-1.40979-1.40979c-0.4364624-0.5031128-0.9074097-0.9740601-1.4105225-1.4105225
			c-0.4365234-0.5031128-0.9074097-0.9740601-1.4105225-1.4105225c-0.4363403-0.5029297-0.9071655-0.9736938-1.4100342-1.4100342
			c-0.4364624-0.5031128-0.9074097-0.9740601-1.4105225-1.4105225c-0.4364014-0.5029907-0.9072876-0.973877-1.4102783-1.4102783
			c-0.4365234-0.5032349-0.9076538-0.9743042-1.4108276-1.4108276c-0.4362793-0.5028076-0.9070435-0.9736328-1.4099121-1.4099121
			c-0.4364014-0.5029907-0.9072876-0.973938-1.4103394-1.4103394c-0.4365234-0.5032349-0.9076538-0.9743042-1.4108276-1.4108276
			c-0.4362793-0.5028076-0.9069824-0.9735107-1.40979-1.40979c-0.4364624-0.5030518-0.9074097-0.9740601-1.4105225-1.4105225
			c-0.4365845-0.5031738-0.9075928-0.9742432-1.4107666-1.4107666c-0.4362793-0.5028076-0.9069824-0.9735107-1.40979-1.40979
			c-0.4364624-0.5030518-0.9074097-0.9740601-1.4105225-1.4105225c-0.4365845-0.5031738-0.9075928-0.9742432-1.4107666-1.4107666
			c-0.4362793-0.5028076-0.9069824-0.9735107-1.40979-1.40979c-0.4364624-0.5031128-0.9074097-0.9740601-1.4105225-1.4105225
			c-0.4365234-0.5031128-0.9074097-0.9740601-1.4105225-1.4105225c-0.4363403-0.5029297-0.9071655-0.9736938-1.4100342-1.4100342
			c-0.4364624-0.5031128-0.9074097-0.9740601-1.4105225-1.4105225c-0.4365234-0.5031128-0.9074097-0.9740601-1.4105225-1.4105225
			c-0.4364624-0.5030518-0.9072876-0.973938-1.4103394-1.4103394c-0.4363403-0.5029297-0.9072266-0.9738159-1.4101562-1.4101562
			c-0.4364014-0.5029907-0.9072876-0.973938-1.4103394-1.4103394c-0.4365234-0.5032349-0.9076538-0.9743042-1.4108276-1.4108276
			c-0.4362793-0.5028076-0.9070435-0.9736328-1.4099121-1.4099121c-0.4364014-0.5029907-0.9072876-0.973938-1.4103394-1.4103394
			c-0.4365234-0.5032349-0.9076538-0.9743042-1.4108276-1.4108276c-0.4362793-0.5028076-0.9069824-0.9735107-1.40979-1.40979
			c-0.4364624-0.5030518-0.9074097-0.9740601-1.4105225-1.4105225c-0.4365845-0.5031738-0.9075928-0.9742432-1.4107666-1.4107666
			c-0.4362793-0.5028076-0.9069824-0.9735107-1.40979-1.40979c-0.4364624-0.5030518-0.9074097-0.9740601-1.4105225-1.4105225
			c-0.4365845-0.5031738-0.9075928-0.9742432-1.4107666-1.4107666c-2.5585327-2.9486694-6.3201904-4.8292236-10.5063477-4.8292236
			H61.4025879c-7.6599731,0-13.9259644,6.2668457-13.9259644,13.9259033v26.7316284c0,7.6590576,0,20.192749,0,27.8518066
			v42.8980103c0,4.1868896,1.8805542,7.9487915,4.8296509,10.5073242c0.4364624,0.5030518,0.9074097,0.9741211,1.4105835,1.4105835
			c0.4363403,0.5028687,0.9071045,0.9738159,1.4100952,1.4101562c0.4363403,0.5028687,0.9072266,0.9737549,1.4101562,1.4100952
			c0.4365234,0.5031738,0.9075928,0.9743042,1.4108276,1.4108276c0.4363403,0.5028687,0.9071045,0.9738159,1.4100952,1.4101562
			c0.4363403,0.5028687,0.9072266,0.9737549,1.4101562,1.4100952c0.4365234,0.5031738,0.9075928,0.9743042,1.4108276,1.4108276
			c0.4363403,0.5028687,0.9071045,0.9738159,1.4100952,1.4101562c0.4363403,0.5028687,0.9072266,0.9737549,1.4101562,1.4100952
			c0.4365234,0.5031738,0.9075928,0.9743042,1.4108276,1.4108276c0.4363403,0.5028687,0.9071045,0.9738159,1.4100952,1.4101562
			c0.4363403,0.5028687,0.9072266,0.9737549,1.4101562,1.4100952c0.4365234,0.5031738,0.9075928,0.9743042,1.4108276,1.4108276
			c0.4363403,0.5028687,0.9071045,0.9738159,1.4100952,1.4101562c0.4363403,0.5028687,0.9072266,0.9737549,1.4101562,1.4100952
			c0.4364624,0.5031128,0.9074707,0.9740601,1.4105835,1.4105835c0.4364014,0.5029907,0.9072876,0.973999,1.4103394,1.4104004
			c0.4363403,0.5028687,0.9072266,0.9737549,1.4101562,1.4100952c0.4364014,0.5030518,0.9073486,0.973938,1.4103394,1.4103394
			c0.4365234,0.5031738,0.9075928,0.9743042,1.4108276,1.4108276c0.4363403,0.5028687,0.9071045,0.9738159,1.4100952,1.4101562
			c0.4363403,0.5028687,0.9072266,0.9737549,1.4101562,1.4100952c0.4365234,0.5031738,0.9075928,0.9743042,1.4108276,1.4108276
			c0.4363403,0.5028687,0.9071045,0.9738159,1.4100952,1.4101562c0.4363403,0.5028687,0.9072266,0.9737549,1.4101562,1.4100952
			c0.4365234,0.5031738,0.9075928,0.9743042,1.4108276,1.4108276c0.4363403,0.5028687,0.9071045,0.9738159,1.4100952,1.4101562
			c0.4363403,0.5028687,0.9072266,0.9737549,1.4101562,1.4100952c0.4365234,0.5031738,0.9075928,0.9743042,1.4108276,1.4108276
			c0.4363403,0.5028687,0.9071045,0.9738159,1.4100952,1.4101562c0.4363403,0.5028687,0.9072266,0.9737549,1.4101562,1.4100952
			c0.4365234,0.5031738,0.9075928,0.9743042,1.4108276,1.4108276c0.4363403,0.5028687,0.9071045,0.9738159,1.4100952,1.4101562
			c0.4363403,0.5028687,0.9072266,0.9737549,1.4101562,1.4100952c0.4364624,0.5031128,0.9074707,0.9740601,1.4105835,1.4105835
			c0.4364014,0.5029907,0.9072876,0.973877,1.4102783,1.4102783c0.4364624,0.5030518,0.9073486,0.9740601,1.4104614,1.4105225
			c0.4363403,0.5028687,0.9071655,0.9736938,1.4100952,1.4100342c0.4365234,0.5031738,0.9075928,0.9743042,1.4108276,1.4108276
			c0.4363403,0.5028687,0.9071045,0.9738159,1.4100952,1.4101562c0.4363403,0.5028687,0.9072266,0.9737549,1.4101562,1.4100952
			c0.4365234,0.5031738,0.9075928,0.9743042,1.4108276,1.4108276c0.4363403,0.5028687,0.9071045,0.9738159,1.4100952,1.4101562
			c0.4363403,0.5028687,0.9072266,0.9737549,1.4101562,1.4100952c0.4365234,0.5031738,0.9075928,0.9743042,1.4108276,1.4108276
			c0.4363403,0.5028687,0.9071045,0.9738159,1.4100952,1.4101562c0.4363403,0.5028687,0.9072266,0.9737549,1.4101562,1.4100952
			c0.4365234,0.5031738,0.9075928,0.9743042,1.4108276,1.4108276c0.4363403,0.5028687,0.9071045,0.9738159,1.4100952,1.4101562
			c0.4363403,0.5028687,0.9072266,0.9737549,1.4101562,1.4100952c0.4364624,0.5031128,0.9074707,0.9740601,1.4105835,1.4105835
			c0.4364014,0.5029907,0.9072876,0.973999,1.4103394,1.4104004c0.4363403,0.5028687,0.9072266,0.9737549,1.4101562,1.4100952
			c0.4364624,0.5031128,0.9074707,0.9740601,1.4105835,1.4105835c0.4364624,0.5030518,0.9074097,0.9741211,1.4105835,1.4105835
			c0.4363403,0.5028687,0.9071045,0.9738159,1.4100952,1.4101562c0.4363403,0.5028687,0.9072266,0.9737549,1.4101562,1.4100952
			c0.4365234,0.5031738,0.9075928,0.9743042,1.4108276,1.4108276c0.4363403,0.5028687,0.9071045,0.9738159,1.4100952,1.4101562
			c0.4363403,0.5028687,0.9072266,0.9737549,1.4101562,1.4100952c0.4365234,0.5031738,0.9075928,0.9743042,1.4108276,1.4108276
			c0.4363403,0.5028687,0.9071045,0.9738159,1.4100952,1.4101562c0.4363403,0.5028687,0.9072266,0.9737549,1.4101562,1.4100952
			c0.4365234,0.5031738,0.9075928,0.9743042,1.4108276,1.4108276c0.4363403,0.5028687,0.9071045,0.9738159,1.4100952,1.4101562
			c0.4363403,0.5028687,0.9072266,0.9737549,1.4101562,1.4100952c0.4365234,0.5031738,0.9075928,0.9743042,1.4108276,1.4108276
			c0.4363403,0.5028687,0.9071045,0.9738159,1.4100952,1.4101562c0.4363403,0.5028687,0.9072266,0.9737549,1.4101562,1.4100952
			c0.4364624,0.5031128,0.9074707,0.9740601,1.4105835,1.4105835c0.4364014,0.5029907,0.9072876,0.973999,1.4103394,1.4104004
			c0.4363403,0.5028687,0.9072266,0.9737549,1.4101562,1.4100952c0.4364014,0.5030518,0.9073486,0.973938,1.4103394,1.4103394
			c0.4365234,0.5031738,0.9075928,0.9743042,1.4108276,1.4108276c0.4363403,0.5028687,0.9071045,0.9738159,1.4100952,1.4101562
			c0.4363403,0.5028687,0.9072266,0.9737549,1.4101562,1.4100952c0.4365234,0.5031738,0.9075928,0.9743042,1.4108276,1.4108276
			c0.4363403,0.5028687,0.9071045,0.9738159,1.4100952,1.4101562c0.4363403,0.5028687,0.9072266,0.9737549,1.4101562,1.4100952
			c0.4365234,0.5031738,0.9075928,0.9743042,1.4108276,1.4108276c0.4363403,0.5028687,0.9071045,0.9738159,1.4100952,1.4101562
			c0.4363403,0.5028687,0.9072266,0.9737549,1.4101562,1.4100952c0.4365234,0.5031738,0.9075928,0.9743042,1.4108276,1.4108276
			c0.4363403,0.5028687,0.9071045,0.9738159,1.4100952,1.4101562c0.4363403,0.5028687,0.9072266,0.9737549,1.4101562,1.4100952
			c0.4364624,0.5031128,0.9074707,0.9740601,1.4105835,1.4105835c0.4364014,0.5029907,0.9072876,0.973999,1.4103394,1.4104004
			c0.4363403,0.5028687,0.9072266,0.9737549,1.4101562,1.4100952c0.4364624,0.5031128,0.9074707,0.9740601,1.4105835,1.4105835
			c0.4364624,0.5030518,0.9074097,0.9741211,1.4105835,1.4105835c0.4363403,0.5028687,0.9071045,0.9738159,1.4100952,1.4101562
			c0.4363403,0.5028687,0.9072266,0.9737549,1.4101562,1.4100952c0.4365234,0.5031738,0.9075928,0.9743042,1.4108276,1.4108276
			c0.4363403,0.5028687,0.9071045,0.9738159,1.4100952,1.4101562c0.4363403,0.5028687,0.9072266,0.9737549,1.4101562,1.4100952
			c0.4365234,0.5031738,0.9075928,0.9743042,1.4108276,1.4108276c0.4363403,0.5028687,0.9071045,0.9738159,1.4100952,1.4101562
			c0.4363403,0.5028687,0.9072266,0.9737549,1.4101562,1.4100952c0.4365234,0.5031738,0.9075928,0.9743042,1.4108276,1.4108276
			c0.4363403,0.5028687,0.9071045,0.9738159,1.4100952,1.4101562c0.4363403,0.5028687,0.9072266,0.9737549,1.4101562,1.4100952
			c0.4365234,0.5031738,0.9075928,0.9743042,1.4108276,1.4108276c0.4363403,0.5028687,0.9071045,0.9738159,1.4100952,1.4101562
			c0.4363403,0.5028687,0.9072266,0.9737549,1.4101562,1.4100952c0.4364624,0.5031128,0.9074707,0.9740601,1.4105835,1.4105835
			c0.4364014,0.5029907,0.9072876,0.973999,1.4103394,1.4104004c0.4363403,0.5028687,0.9072266,0.9737549,1.4101562,1.4100952
			c0.4364624,0.5031128,0.9074707,0.9740601,1.4105835,1.4105835c0.4364624,0.5030518,0.9074097,0.9741211,1.4105835,1.4105835
			c0.4363403,0.5028687,0.9071045,0.9738159,1.4100952,1.4101562c0.4363403,0.5028687,0.9072266,0.9737549,1.4101562,1.4100952
			c0.4365234,0.5031738,0.9075928,0.9743042,1.4108276,1.4108276c0.4363403,0.5028687,0.9071045,0.9738159,1.4100952,1.4101562
			c0.4363403,0.5028687,0.9072266,0.9737549,1.4101562,1.4100952c0.4365234,0.5031738,0.9075928,0.9743042,1.4108276,1.4108276
			c0.4363403,0.5028687,0.9071045,0.9738159,1.4100952,1.4101562c0.4363403,0.5028687,0.9072266,0.9737549,1.4101562,1.4100952
			c0.4365234,0.5031738,0.9075928,0.9743042,1.4108276,1.4108276c0.4363403,0.5028687,0.9071045,0.9738159,1.4100952,1.4101562
			c0.4363403,0.5028687,0.9072266,0.9737549,1.4101562,1.4100952c0.4365234,0.5031738,0.9075928,0.9743042,1.4108276,1.4108276
			c0.4363403,0.5028687,0.9071045,0.9738159,1.4100952,1.4101562c0.4363403,0.5028687,0.9072266,0.9737549,1.4101562,1.4100952
			c0.4364624,0.5031128,0.9074707,0.9740601,1.4105835,1.4105835c0.4364014,0.5029907,0.9072876,0.973877,1.4102783,1.4102783
			c0.4364624,0.5030518,0.9073486,0.9740601,1.4104614,1.4105225c0.4363403,0.5028687,0.9071655,0.9736938,1.4100952,1.4100342
			c0.4365234,0.5031738,0.9075928,0.9743042,1.4108276,1.4108276c0.4363403,0.5028687,0.9071045,0.9738159,1.4100952,1.4101562
			c0.4363403,0.5028687,0.9072266,0.9737549,1.4101562,1.4100952c0.4365234,0.5031738,0.9075928,0.9743042,1.4108276,1.4108276
			c0.4363403,0.5028687,0.9071045,0.9738159,1.4100952,1.4101562c0.4363403,0.5028687,0.9072266,0.9737549,1.4101562,1.4100952
			c0.4365234,0.5031738,0.9075928,0.9743042,1.4108276,1.4108276c0.4363403,0.5028687,0.9071045,0.9738159,1.4100952,1.4101562
			c0.4363403,0.5028687,0.9072266,0.9737549,1.4101562,1.4100952c0.4365234,0.5031738,0.9075928,0.9743042,1.4108276,1.4108276
			c0.4363403,0.5028687,0.9071045,0.9738159,1.4100952,1.4101562c0.4363403,0.5028687,0.9072266,0.9737549,1.4101562,1.4100952
			c0.4364624,0.5031128,0.9074707,0.9740601,1.4105835,1.4105835c0.4364014,0.5029907,0.9072876,0.973999,1.4103394,1.4104004
			c0.4363403,0.5028687,0.9072266,0.9737549,1.4101562,1.4100952c0.4364624,0.5031128,0.9074707,0.9740601,1.4105835,1.4105835
			c0.4364624,0.5030518,0.9074097,0.9741211,1.4105835,1.4105835c0.4363403,0.5028687,0.9071045,0.9738159,1.4100952,1.4101562
			c0.4363403,0.5028687,0.9072266,0.9737549,1.4101562,1.4100952c0.4365234,0.5031738,0.9075928,0.9743042,1.4108276,1.4108276
			c0.4363403,0.5028687,0.9071045,0.9738159,1.4100952,1.4101562c0.4363403,0.5028687,0.9072266,0.9737549,1.4101562,1.4100952
			c0.4365234,0.5031738,0.9075928,0.9743042,1.4108276,1.4108276c0.4363403,0.5028687,0.9071045,0.9738159,1.4100952,1.4101562
			c0.4363403,0.5028687,0.9072266,0.9737549,1.4101562,1.4100952c0.4365234,0.5031738,0.9075928,0.9743042,1.4108276,1.4108276
			c0.4363403,0.5028687,0.9071045,0.9738159,1.4100952,1.4101562c0.4363403,0.5028687,0.9072266,0.9737549,1.4101562,1.4100952
			c0.4365234,0.5031738,0.9075928,0.9743042,1.4108276,1.4108276c0.4363403,0.5028687,0.9071045,0.9738159,1.4100952,1.4101562
			c0.4363403,0.5028687,0.9072266,0.9737549,1.4101562,1.4100952c0.4364624,0.5031128,0.9074707,0.9740601,1.4105835,1.4105835
			c0.4364014,0.5029907,0.9072876,0.973999,1.4103394,1.4104004c0.4363403,0.5028687,0.9072266,0.9737549,1.4101562,1.4100952
			c0.4364624,0.5031128,0.9074707,0.9740601,1.4105835,1.4105835c0.4364624,0.5030518,0.9074097,0.9741211,1.4105835,1.4105835
			c0.4363403,0.5028687,0.9071045,0.9738159,1.4100952,1.4101562c0.4363403,0.5028687,0.9072266,0.9737549,1.4101562,1.4100952
			c0.4365234,0.5031738,0.9075928,0.9743042,1.4108276,1.4108276c0.4363403,0.5028687,0.9071045,0.9738159,1.4100952,1.4101562
			c0.4363403,0.5028687,0.9072266,0.9737549,1.4101562,1.4100952c0.4365234,0.5031738,0.9075928,0.9743042,1.4108276,1.4108276
			c0.4363403,0.5028687,0.9071045,0.9738159,1.4100952,1.4101562c0.4363403,0.5028687,0.9072266,0.9737549,1.4101562,1.4100952
			c0.4365234,0.5031738,0.9075928,0.9743042,1.4108276,1.4108276c0.4363403,0.5028687,0.9071045,0.9738159,1.4100952,1.4101562
			c0.4363403,0.5028687,0.9072266,0.9737549,1.4101562,1.4100952c0.4365234,0.5031738,0.9075928,0.9743042,1.4108276,1.4108276
			c0.4363403,0.5028687,0.9071045,0.9738159,1.4100952,1.4101562c0.4363403,0.5028687,0.9072266,0.9737549,1.4101562,1.4100952
			c0.4364624,0.5031128,0.9074707,0.9740601,1.4105835,1.4105835c0.4364014,0.5029907,0.9072876,0.973877,1.4102783,1.4102783
			c0.4364624,0.5030518,0.9073486,0.9740601,1.4104614,1.4105225c0.4363403,0.5028687,0.9071655,0.9736938,1.4100952,1.4100342
			c0.4365234,0.5031738,0.9075928,0.9743042,1.4108276,1.4108276c0.4363403,0.5028687,0.9071045,0.9738159,1.4100952,1.4101562
			c0.4363403,0.5028687,0.9072266,0.9737549,1.4101562,1.4100952c0.4365234,0.5031738,0.9075928,0.9743042,1.4108276,1.4108276
			c0.4363403,0.5028687,0.9071045,0.9738159,1.4100952,1.4101562c0.4363403,0.5028687,0.9072266,0.9737549,1.4101562,1.4100952
			c0.4365234,0.5031738,0.9075928,0.9743042,1.4108276,1.4108276c0.4363403,0.5028687,0.9071045,0.9738159,1.4100952,1.4101562
			c0.4363403,0.5028687,0.9072266,0.9737549,1.4101562,1.4100952c0.4365234,0.5031738,0.9075928,0.9743042,1.4108276,1.4108276
			c0.4363403,0.5028687,0.9071045,0.9738159,1.4100952,1.4101562c0.4363403,0.5028687,0.9072266,0.9737549,1.4101562,1.4100952
			c0.4364624,0.5031128,0.9074707,0.9740601,1.4105835,1.4105835c0.4364014,0.5029907,0.9072876,0.973999,1.4103394,1.4104004
			c0.4363403,0.5028687,0.9072266,0.9737549,1.4101562,1.4100952c0.4364624,0.5031128,0.9074707,0.9740601,1.4105835,1.4105835
			c0.4364624,0.5030518,0.9074097,0.9741211,1.4105835,1.4105835c0.4363403,0.5028687,0.9071045,0.9738159,1.4100952,1.4101562
			c0.4363403,0.5028687,0.9072266,0.9737549,1.4101562,1.4100952c0.4365234,0.5031738,0.9075928,0.9743042,1.4108276,1.4108276
			c0.4363403,0.5028687,0.9071045,0.9738159,1.4100952,1.4101562c0.4363403,0.5028687,0.9072266,0.9737549,1.4101562,1.4100952
			c0.4365234,0.5031738,0.9075928,0.9743042,1.4108276,1.4108276c0.4363403,0.5028687,0.9071045,0.9738159,1.4100952,1.4101562
			c0.4363403,0.5028687,0.9072266,0.9737549,1.4101562,1.4100952c0.4365234,0.5031738,0.9075928,0.9743042,1.4108276,1.4108276
			c0.4363403,0.5028687,0.9071045,0.9738159,1.4100952,1.4101562c0.4363403,0.5028687,0.9072266,0.9737549,1.4101562,1.4100952
			c0.4365234,0.5031738,0.9075928,0.9743042,1.4108276,1.4108276c0.4363403,0.5028687,0.9071045,0.9738159,1.4100952,1.4101562
			c0.4363403,0.5028687,0.9072266,0.9737549,1.4101562,1.4100952c0.4364624,0.5031128,0.9074707,0.9740601,1.4105835,1.4105835
			c0.4364014,0.5029907,0.9072876,0.973999,1.4103394,1.4104004c0.4363403,0.5028687,0.9072266,0.9737549,1.4101562,1.4100952
			c0.4364624,0.5031128,0.9074707,0.9740601,1.4105835,1.4105835c0.4364624,0.5030518,0.9074097,0.9741211,1.4105835,1.4105835
			c0.4363403,0.5028687,0.9071045,0.9738159,1.4100952,1.4101562c0.4363403,0.5028687,0.9072266,0.9737549,1.4101562,1.4100952
			c0.4365234,0.5031738,0.9075928,0.9743042,1.4108276,1.4108276c0.4363403,0.5028687,0.9071045,0.9738159,1.4100952,1.4101562
			c0.4363403,0.5028687,0.9072266,0.9737549,1.4101562,1.4100952c0.4365234,0.5031738,0.9075928,0.9743042,1.4108276,1.4108276
			c0.4363403,0.5028687,0.9071045,0.9738159,1.4100952,1.4101562c0.4363403,0.5028687,0.9072266,0.9737549,1.4101562,1.4100952
			c0.4365234,0.5031738,0.9075928,0.9743042,1.4108276,1.4108276c0.4363403,0.5028687,0.9071045,0.9738159,1.4100952,1.4101562
			c0.4363403,0.5028687,0.9072266,0.9737549,1.4101562,1.4100952c0.4365234,0.5031738,0.9075928,0.9743042,1.4108276,1.4108276
			c0.4363403,0.5028687,0.9071045,0.9738159,1.4100952,1.4101562c0.4363403,0.5028687,0.9072266,0.9737549,1.4101562,1.4100952
			c0.4364624,0.5031128,0.9074707,0.9740601,1.4105835,1.4105835c0.4364014,0.5029907,0.9072876,0.973877,1.4102783,1.4102783
			c0.4364624,0.5030518,0.9073486,0.9740601,1.4104614,1.4105225c0.4363403,0.5028687,0.9071655,0.9736938,1.4100952,1.4100342
			c0.4365234,0.5031738,0.9075928,0.9743042,1.4108276,1.4108276c0.4363403,0.5028687,0.9071045,0.9738159,1.4100952,1.4101562
			c0.4363403,0.5028687,0.9072266,0.9737549,1.4101562,1.4100952c0.4365234,0.5031738,0.9075928,0.9743042,1.4108276,1.4108276
			c0.4363403,0.5028687,0.9071045,0.9738159,1.4100952,1.4101562c0.4363403,0.5028687,0.9072266,0.9737549,1.4101562,1.4100952
			c0.4365234,0.5031738,0.9075928,0.9743042,1.4108276,1.4108276c0.4363403,0.5028687,0.9071045,0.9738159,1.4100952,1.4101562
			c0.4363403,0.5028687,0.9072266,0.9737549,1.4101562,1.4100952c0.4365234,0.5031738,0.9075928,0.9743042,1.4108276,1.4108276
			c0.4363403,0.5028687,0.9071045,0.9738159,1.4100952,1.4101562c0.4363403,0.5028687,0.9072266,0.9737549,1.4101562,1.4100952
			c0.4364624,0.5031128,0.9074707,0.9740601,1.4105835,1.4105835c0.4364014,0.5029907,0.9072876,0.973999,1.4103394,1.4104004
			c0.4363403,0.5028687,0.9072266,0.9737549,1.4101562,1.4100952c2.5582886,2.9487305,6.3198853,4.8292236,10.506897,4.8292236
			h97.4811401l2.4653931,2.4653931l0,0l4.2310791,4.2310791l0,0l4.2310791,4.2310791l0,0l4.2310791,4.2310791l0,0
			l4.2310791,4.2310791v-0.000061l1.4104004,1.4104004l1.4103394,1.4103394l1.4103394,1.4103394l1.4104004,1.4104004
			l1.4103394,1.4103394l1.4103394,1.4103394v-27.8518066h34.8148193c7.6584473,0,13.9259033-6.2668457,13.9259033-13.9259644
			v-42.8980103c0-7.6590576,0-20.192749,0-27.8518066v-26.7316284
			C589.4763184,609.3407593,587.5956421,605.5792236,584.6469727,603.020752z"/>
		<g class="st2">
			<g>
				<g>
					<g>
						
							<rect x="287.1673584" y="247.651123" transform="matrix(0.778164 0.6280611 -0.6280611 0.778164 245.1177216 -119.7571106)" class="st3" width="9.8388443" height="78.9170074"/>
					</g>
				</g>
			</g>
			<g>
				<g>
					<g>
						<path class="st4" d="M276.5056458,322.0801697c-0.849762,1.0528259-2.4064636,1.218689-3.4589844,0.3692017
							l-11.4844055-9.2691345c-1.0533447-0.8501587-1.2189941-2.4061279-0.3692322-3.4589844l33.9873047-42.1100769
							c0.849762-1.0528564,2.4056396-1.2193604,3.4589844-0.3692322l11.4844055,9.269165
							c1.0525208,0.8494873,1.2189941,2.4061279,0.3692322,3.4589844L276.5056458,322.0801697z"/>
					</g>
				</g>
			</g>
			<g>
				<g>
					<g>
						<g>
							<path class="st5" d="M385.4845276,221.2389221c-1.203125-11.2673798-6.7041626-22.0755768-16.2180786-29.754303
								l-27.8078003,34.4537048L385.4845276,221.2389221z"/>
						</g>
					</g>
				</g>
				<g>
					<g>
						<g>
							<path class="st6" d="M369.266449,191.4846191c-19.0288086-15.3582916-46.9036255-12.3824005-62.2615051,6.6459045
								c-15.3575134,19.0278625-12.3829041,46.9032135,6.6459045,62.2615051
								c9.513916,7.6787415,21.2401123,10.7739563,32.5075989,9.5716858l-4.6997986-44.0253906L369.266449,191.4846191z"/>
						</g>
					</g>
				</g>
				<g>
					<g>
						<g>
							<path class="st7" d="M375.9122314,253.7460022c7.6791077-9.514389,10.7749634-21.2400818,9.5722961-32.5070801
								l-44.0258789,4.6994019l4.6997986,44.0253906C357.4250488,268.7615356,368.2330933,263.2604065,375.9122314,253.7460022z"/>
						</g>
					</g>
				</g>
			</g>
			<g>
				<g>
					<g>
						<path class="st4" d="M363.0869446,199.1409912c14.7758179,11.9256439,17.0949097,33.6492157,5.1688843,48.4254913
							c-11.9260254,14.7762909-33.6496582,17.0948029-48.4254456,5.1691589
							c-14.7763062-11.9260254-17.0950928-33.6493225-5.1690369-48.4256134
							C326.5873718,189.5337524,348.3106689,187.2149658,363.0869446,199.1409912L363.0869446,199.1409912z M369.266449,191.4846191
							c-19.0288086-15.3582916-46.9036255-12.3824005-62.2615051,6.6459045
							c-15.3578491,19.0283051-12.3829041,46.9032135,6.6459045,62.2615051
							c19.027832,15.3574524,46.9035034,12.3822632,62.2613831-6.6460266
							C391.2700806,234.7176971,388.294281,206.8420868,369.266449,191.4846191L369.266449,191.4846191z"/>
					</g>
				</g>
			</g>
			<g class="st8">
				<g>
					<g>
						<path class="st9" d="M319.2279663,214.3177338c-2.1145935-1.7067108-2.4447632-4.803833-0.7384338-6.9179535
							c10.2219849-12.664978,28.8421936-14.6529846,41.5076599-4.430603
							c2.1140747,1.7062836,2.4446106,4.8037109,0.7382812,6.9178314c-1.7062988,2.1141205-4.8037109,2.4448242-6.9177856,0.7385559
							c-8.4437866-6.815033-20.8571472-5.4895782-27.6717834,2.9537354
							C324.4395752,215.6934204,321.3420105,216.0240021,319.2279663,214.3177338z"/>
					</g>
				</g>
			</g>
		</g>
		<g class="st2">
			<g>
				<g>
					<polygon class="st10" points="302.1115723,100.7070847 296.635437,114.9426193 322.7304077,110.8274765 
						328.2065125,96.5919342 					"/>
				</g>
			</g>
			<g>
				<g>
					<polygon class="st10" points="296.635437,114.9426193 322.7304077,110.8274765 332.3201294,122.687149 
						306.2251587,126.8022919 					"/>
				</g>
			</g>
			<g>
				<g>
					<g>
						<circle class="st10" cx="192.2557068" cy="131.4031982" r="92.4609528"/>
					</g>
				</g>
				<g>
					<g>
						<path class="st11" d="M181.9679565,66.1657639c35.9713287-5.6726418,69.8523865,18.978241,75.5250244,54.949585
							c5.6729126,35.9729691-18.977951,69.8525925-54.9492798,75.5252457
							c-35.9729767,5.6728973-69.8523865-18.9765778-75.5252914-54.9495392
							C121.3457718,105.7197113,145.9949799,71.8386612,181.9679565,66.1657639L181.9679565,66.1657639z M179.9103851,53.1182823
							c-43.2357788,6.8182373-72.7576752,47.3946495-65.9394531,90.6303406s47.3945618,72.7576752,90.6303406,65.9394531
							c43.2340546-6.8179779,72.757431-47.3946228,65.9391937-90.6303101
							C263.7222595,75.8220825,223.1444397,46.3003197,179.9103851,53.1182823L179.9103851,53.1182823z"/>
					</g>
				</g>
				<g>
					<g>
						<path class="st11" d="M186.0830994,92.2607269c21.5828247-3.4035873,41.9113464,11.3869476,45.3149261,32.9697647
							c3.403717,21.5836411-11.3866577,41.9115524-32.9694824,45.3151321
							c-21.5828094,3.403595-41.9114532-11.3860931-45.3151703-32.9697266
							C149.7097931,115.9930801,164.5002747,95.6643219,186.0830994,92.2607269L186.0830994,92.2607269z M184.025528,79.2132492
							c-28.8232727,4.5454025-48.5050354,31.5969467-43.9596405,60.4202194
							c4.5454102,28.823288,31.5969543,48.5050354,60.4202271,43.9596405s48.5047913-31.5969086,43.9593964-60.4201889
							S212.8488007,74.6678467,184.025528,79.2132492L184.025528,79.2132492z"/>
					</g>
				</g>
				<g>
					<g>
						<path class="st11" d="M190.1982422,118.3556976c7.1942291-1.1345215,13.9702911,3.7956467,15.1048126,10.9899445
							c1.1345367,7.1943054-3.7954407,13.9705048-10.9896545,15.105011
							c-7.1943054,1.1345367-13.97052-3.7956085-15.1050568-10.9898987
							C178.0738068,126.266449,183.003952,119.4902267,190.1982422,118.3556976L190.1982422,118.3556976z M188.1406708,105.3082123
							c-14.4108582,2.2725754-24.2523956,15.7992477-21.9798126,30.2101135
							c2.2727051,14.4116821,15.7992554,24.2523956,30.2101135,21.9798126
							c14.4107819-2.2725677,24.2522736-15.7983856,21.9795685-30.2100677
							C216.0779724,112.8772049,202.5514526,103.0356445,188.1406708,105.3082123L188.1406708,105.3082123z"/>
					</g>
				</g>
			</g>
			<g>
				<g>
					<path class="st3" d="M323.244812,114.0893478l-130.4745941,20.5757065
						c-1.8013611,0.2840729-3.4921875-0.9461212-3.7762604-2.7474823c-0.2840729-1.8013763,0.946106-3.4921875,2.747467-3.7762604
						l130.4745789-20.5757065c1.8013611-0.2840729,3.4921875,0.946106,3.7762756,2.7474747
						C326.2763367,112.1144485,325.0461731,113.805275,323.244812,114.0893478z"/>
				</g>
			</g>
			<g>
				<defs>
					<circle id="SVGID_3_" cx="192.2557068" cy="131.4031982" r="92.4609528"/>
				</defs>
				<clipPath id="SVGID_4_">
					<use xlink:href="#SVGID_3_"  style="overflow:visible;"/>
				</clipPath>
				<g class="st12">
					<g>
						<path class="st3" d="M298.5053711,211.5944519c-0.8343811,0.1315765-1.7199707-0.0552063-2.4567566-0.5919952
							l-105.736145-76.9292297c-1.4742432-1.0725403-1.8000031-3.1382904-0.7273712-4.6124573
							c1.0732269-1.4750977,3.1381531-1.8007355,4.613266-0.7275085l105.7353821,76.9293671
							c1.4749756,1.0724182,1.8007507,3.1381531,0.7273865,4.612442
							C300.1253052,211.0125427,299.3401489,211.4627991,298.5053711,211.5944519z"/>
					</g>
				</g>
			</g>
		</g>
		<g class="st2">
			<g>
				<g>
					<path class="st4" d="M221.550415,245.6013184H61.4025574c-7.6599541,0-13.9259224,6.2668457-13.9259224,13.9259338v26.7315979
						c0,7.6590881,0,20.192749,0,27.8518372v42.8980103c0,7.6590881,6.2659683,13.9259338,13.9259224,13.9259338h97.4812012
						l27.8518524,27.8518372v-27.8518372h34.8148041c7.6584778,0,13.9259186-6.2668457,13.9259186-13.9259338v-42.8980103
						c0-7.6590881,0-20.192749,0-27.8518372v-26.7315979C235.4763336,251.8681641,229.2088928,245.6013184,221.550415,245.6013184z"
						/>
				</g>
			</g>
			<g>
				<g>
					<g>
						<rect x="85.7729263" y="283.8976135" class="st7" width="111.4071198" height="6.9629617"/>
					</g>
				</g>
				<g>
					<g>
						<rect x="85.7729187" y="311.7494507" class="st7" width="83.555275" height="6.9629617"/>
					</g>
				</g>
				<g>
					<g>
						<rect x="85.7729263" y="297.8235474" class="st7" width="111.4071198" height="6.9629617"/>
					</g>
				</g>
			</g>
		</g>
	</g>
</g>
</svg>
