<?xml version="1.0" encoding="utf-8"?>
<!-- Generator: Adobe Illustrator 17.1.0, SVG Export Plug-In . SVG Version: 6.00 Build 0)  -->
<!DOCTYPE svg PUBLIC "-//W3C//DTD SVG 1.1//EN" "http://www.w3.org/Graphics/SVG/1.1/DTD/svg11.dtd">
<svg version="1.1" xmlns="http://www.w3.org/2000/svg" xmlns:xlink="http://www.w3.org/1999/xlink" x="0px" y="0px"
	 viewBox="0 0 432 432" style="enable-background:new 0 0 432 432;" xml:space="preserve">
<style type="text/css">
	.st0{fill:#00789A;}
	.st1{fill:#D0D0CD;}
	.st2{fill:#E9E8E4;}
	.st3{fill:#88B6D3;}
	.st4{fill:#344A5E;}
	.st5{fill:#2C3F50;}
	.st6{opacity:0.1;fill:#FFFFFF;}
	.st7{clip-path:url(#SVGID_2_);}
	.st8{fill:#F8F8F3;}
	.st9{opacity:0.1;}
	.st10{fill:#FFFFFF;}
	.st11{fill:none;stroke:#F8F8F3;stroke-width:3;stroke-miterlimit:10;}
	.st12{fill:#BBBDBF;}
	.st13{fill:none;}
	.st14{fill:#D0D2D3;}
	.st15{fill:#8FD4DD;}
	.st16{fill:#6DBCC3;}
</style>
<g id="circle">
	<circle class="st0" cx="216" cy="216" r="200"/>
</g>
<g id="devices">
	<g>
		<g>
			<rect x="260.151825" y="235.3153992" class="st1" width="0.7549" height="22.3691006"/>
		</g>
		<g>
			<rect x="260.151825" y="341.9032898" class="st1" width="0.7549" height="22.3612995"/>
		</g>
		<g>
			<rect x="171.0932465" y="341.9032898" class="st1" width="0.7587911" height="22.3612995"/>
		</g>
		<g>
			<path class="st2" d="M260.5277405,382.8045959c0,3.3212891-2.7207031,6.0429993-6.0428925,6.0429993h-76.9649048
				c-3.3260956,0-6.0467987-2.7217102-6.0467987-6.0429993V225.2460022c0-3.3203125,2.7207031-6.0438995,6.0467987-6.0438995
				h76.9649048c3.3221893,0,6.0428925,2.723587,6.0428925,6.0438995V382.8045959z"/>
		</g>
		<g>
			<rect x="180.3402557" y="236.6034851" class="st3" width="71.3222885" height="126.8231964"/>
		</g>
		<g>
			<path class="st1" d="M240.0922546,226.6922913c0,1.1787109-0.9561157,2.1338043-2.1289062,2.1338043
				c-1.1748047,0-2.1289062-0.9550934-2.1289062-2.1338043c0-1.1698914,0.9541016-2.125,2.1289062-2.125
				C239.1361389,224.5672913,240.0922546,225.5223999,240.0922546,226.6922913z"/>
		</g>
		<g>
			<path class="st1" d="M224.9652557,225.7684937h-17.9316101c-0.4013977,0-0.7207031-0.3262024-0.7207031-0.722702
				c0-0.3983917,0.3193054-0.7274933,0.7207031-0.7274933h17.9316101c0.4003906,0,0.726593,0.3291016,0.726593,0.7274933
				C225.6918488,225.4422913,225.3656464,225.7684937,224.9652557,225.7684937z"/>
		</g>
		<g>
			<polygon class="st1" points="185.7328491,374.1210022 181.6010437,374.1210022 182.9516449,372.76651 182.9389496,372.7537842 
				182.0375519,372.7537842 180.3402557,374.4501038 182.0238495,376.1357117 182.9516449,376.1357117 181.6010437,374.781189 
				185.7328491,374.781189 			"/>
		</g>
		<rect x="217.3188477" y="332.3836975" class="st4" width="31.6835995" height="28.3838005"/>
		<rect x="183.0024567" y="332.3836975" class="st5" width="31.6815987" height="28.3838005"/>
		<rect x="183.0024567" y="301.3417053" class="st5" width="31.6815987" height="28.3838005"/>
		<rect x="217.3188477" y="301.3417053" class="st5" width="31.6835995" height="28.3838005"/>
		<rect x="183.0024414" y="270.3016968" class="st4" width="66" height="28.3808994"/>
		<polygon class="st4" points="211.3813477,239.2626038 183.0024414,239.2626038 183.0024414,267.6434937 211.3813477,267.6434937 
			214.6840515,267.6434937 214.6840515,239.2626038 		"/>
		<rect x="217.3188477" y="239.2625885" class="st5" width="31.6835995" height="28.3808994"/>
		<g>
			<g>
				<path class="st1" d="M249.4652557,372.2626038c-1.2050018,0-2.1855164,0.9794922-2.1855164,2.1875
					c0,0.4433899,0.1328125,0.8565063,0.3594055,1.203186l-1.2207031,0.9482117l0.4062042,0.5195007l1.2656097-0.9852905
					c0.3769989,0.3125,0.8496857,0.5096741,1.375,0.5096741c1.2138824,0,2.1972961-0.9852905,2.1972961-2.195282
					C251.6625519,373.2420959,250.6791382,372.2626038,249.4652557,372.2626038z M249.4652557,375.9852905
					c-0.8398132,0-1.5302124-0.6875-1.5302124-1.5351868c0-0.8417969,0.6903992-1.5371094,1.5302124-1.5371094
					c0.8476868,0,1.5400848,0.6953125,1.5400848,1.5371094
					C251.0053406,375.2977905,250.3129425,375.9852905,249.4652557,375.9852905z"/>
			</g>
		</g>
		<g>
			<polygon class="st1" points="213.0649414,377.7333069 219.2113495,378.8504944 217.5512543,375.2352905 			"/>
			<polygon class="st1" points="217.3988495,374.906189 215.5434418,370.8426819 212.8949432,377.4208069 			"/>
		</g>
		<polygon class="st6" points="180.3393402,334.2958069 180.3393402,363.4266968 251.6615448,363.4266968 251.6615448,262.9736023 
					"/>
	</g>
</g>
<g id="clipping_mask">
	<g>
		<defs>
			<circle id="SVGID_1_" cx="216" cy="216" r="200"/>
		</defs>
		<clipPath id="SVGID_2_">
			<use xlink:href="#SVGID_1_"  style="overflow:visible;"/>
		</clipPath>
		<g class="st7">
			<g>
				<rect x="127.5927963" y="69.5615005" class="st1" width="0.748" height="7.1015"/>
			</g>
			<g>
				<rect x="127.5927963" y="81.5351028" class="st1" width="0.748" height="7.0946999"/>
			</g>
			<g>
				<rect x="127.5927963" y="93.5086975" class="st1" width="0.748" height="7.0948"/>
			</g>
			<g>
				<path class="st2" d="M127.9667969,204.0292969c0,6.5830078-5.3877029,11.9707031-11.9697037,11.9707031H58.9423981
					c-6.5860023,0-11.9736023-5.3876953-11.9736023-11.9707031V54.1044006c0-6.5848999,5.3875999-11.9696999,11.9736023-11.9696999
					h57.0546951c6.5820007,0,11.9697037,5.3848,11.9697037,11.9696999V204.0292969z"/>
			</g>
			<g>
				<path class="st8" d="M115.9970932,45.9951019c4.4726028,0,8.1092987,3.6405983,8.1092987,8.1092987v149.9248962
					c0,4.4687042-3.6366959,8.1015015-8.1092987,8.1015015H58.9423981c-4.472702,0-8.1093979-3.6327972-8.1093979-8.1015015
					V54.1044006c0-4.4687004,3.6366959-8.1092987,8.1093979-8.1092987H115.9970932L115.9970932,45.9951019z M115.9970932,42.1347008
					H58.9423981c-6.5860023,0-11.9736023,5.3848-11.9736023,11.9696999v149.9248962
					C46.9687958,210.6123047,52.3563957,216,58.9423981,216h57.0546951c6.5820007,0,11.9697037-5.3876953,11.9697037-11.9707031
					V54.1044006C127.9667969,47.5195007,122.5790939,42.1347008,115.9970932,42.1347008L115.9970932,42.1347008z"/>
			</g>
			<g>
				<path class="st1" d="M102.1708984,51.1083984c0,0.7988014-0.6416016,1.4365005-1.4365005,1.4365005
					c-0.7910004,0-1.4356003-0.6376991-1.4356003-1.4365005c0-0.7871971,0.6445999-1.4316978,1.4356003-1.4316978
					C101.5292969,49.6767006,102.1708984,50.3212013,102.1708984,51.1083984z"/>
			</g>
			<g>
				<path class="st1" d="M96.3466949,52.0097008H78.5888977c-0.4942017,0-0.8936005-0.4033012-0.8936005-0.9013023
					c0-0.4902992,0.3993988-0.8945999,0.8936005-0.8945999h17.7577972c0.4980011,0,0.8964996,0.4043007,0.8964996,0.8945999
					C97.2431946,51.6063995,96.844696,52.0097008,96.3466949,52.0097008z"/>
			</g>
			<path class="st1" d="M87.4677963,196.1190948c-3.4356003,0-6.2333984,2.7978058-6.2333984,6.2363129
				c0,3.4394989,2.7977982,6.2343903,6.2333984,6.2343903c3.4384995,0,6.2333984-2.7948914,6.2333984-6.2343903
				C93.7011948,198.9169006,90.9062958,196.1190948,87.4677963,196.1190948z"/>
			<g>
				<g>
					<rect x="51.9608994" y="65.9267044" class="st3" width="71.0214996" height="126.2773972"/>
					<rect x="54.4677963" y="161.434494" class="st5" width="66" height="28.3848"/>
					<rect x="54.4677963" y="100.2119064" class="st5" width="31.6815987" height="58.5643997"/>
					<rect x="88.7841949" y="68.3134003" class="st5" width="31.6835995" height="58.5644989"/>
					<rect x="88.625" y="156.118103" class="st4" width="31.8427944" height="2.6582"/>
					<rect x="88.625" y="150.801712" class="st4" width="31.8427944" height="2.6582"/>
					<rect x="88.625" y="145.4853058" class="st4" width="31.8427944" height="2.6582"/>
					<rect x="88.625" y="140.1688995" class="st4" width="31.8427944" height="2.6582"/>
					<rect x="88.625" y="134.8525085" class="st4" width="31.8427944" height="2.6582"/>
					<rect x="88.625" y="129.5361023" class="st4" width="31.8427944" height="2.6582"/>
					<g>
						<rect x="54.4677963" y="94.8955002" class="st4" width="31.6815987" height="2.6582"/>
						<rect x="54.4677963" y="89.5790939" class="st4" width="31.6815987" height="2.6582"/>
						<rect x="54.4677963" y="84.2626038" class="st4" width="31.6815987" height="2.6582999"/>
						<rect x="54.4677963" y="78.9461975" class="st4" width="31.6815987" height="2.6582"/>
						<rect x="54.4677963" y="73.6297989" class="st4" width="31.6815987" height="2.6582"/>
						<rect x="54.4677963" y="68.3134003" class="st4" width="31.6815987" height="2.6582"/>
					</g>
				</g>
				<g class="st9">
					<g>
						<polygon class="st10" points="122.9823914,192.2041016 122.9823914,92.0126038 51.9608955,160.3231964 
							51.9608955,192.2041016 						"/>
					</g>
				</g>
			</g>
		</g>
		<g class="st7">
			<path class="st11" d="M390.484375,195.8212433c0,11.5547028-9.4512024,21.0059052-21.0039062,21.0059052h-45.1298828
				c-11.5585938,0-21.0126953-9.4512024-21.0126953-21.0059052V68.3105469c0-11.5546989,9.4541016-21.0069008,21.0126953-21.0069008
				h45.1298828c11.5527039,0,21.0039062,9.4522018,21.0039062,21.0069008V195.8212433z"/>
			<path class="st2" d="M390.484375,195.8212433c0,11.5547028-9.4512024,21.0059052-21.0039062,21.0059052h-45.1298828
				c-11.5585938,0-21.0126953-9.4512024-21.0126953-21.0059052V68.3105469c0-11.5546989,9.4541016-21.0069008,21.0126953-21.0069008
				h45.1298828c11.5527039,0,21.0039062,9.4522018,21.0039062,21.0069008V195.8212433z"/>
			<path class="st1" d="M356.6376953,211.1425476h-19.4482117c-1.4092102,0-2.6426086-0.9745941-2.9794922-2.3339996h-0.0839844
				v-3.7938995h25.5760803v3.7938995h-0.085907C359.2841797,210.1679535,358.0517883,211.1425476,356.6376953,211.1425476z"/>
			<path class="st1" d="M334.4179993,208.5165405h0.0301819l0.0215149,0.1152039
				c0.2637024,1.2842102,1.4042969,2.2149048,2.7197876,2.2149048h19.4482117c1.3143921,0,2.4570007-0.9306946,2.7147827-2.2149048
				l0.0253906-0.1152039h0.0352173v-3.2108917h-24.9950867V208.5165405z"/>
			<g>
				<path class="st1" d="M359.5204773,53.138649h-25.2147827c-0.4825134,0-0.875-0.3916016-0.875-0.8770027
					c0-0.482399,0.3924866-0.875,0.875-0.875h25.2147827c0.4775085,0,0.875,0.392601,0.875,0.875
					C360.3954773,52.7470474,359.9979858,53.138649,359.5204773,53.138649z"/>
			</g>
			<g>
				<rect x="311.4003906" y="66.9345474" class="st3" width="71.0214996" height="126.277298"/>
				<rect x="313.905304" y="69.3222504" class="st4" width="66.0009995" height="28.3827991"/>
				<rect x="313.9071655" y="164.2899475" class="st4" width="66" height="26.5372009"/>
				<rect x="313.9071655" y="132.2626495" class="st5" width="66" height="29.2402"/>
				<g>
					<rect x="313.9071655" y="126.9462433" class="st5" width="66" height="2.6582"/>
					<rect x="313.9071655" y="121.6298447" class="st5" width="66" height="2.6582"/>
					<rect x="313.9071655" y="116.313446" class="st5" width="66" height="2.6582"/>
					<rect x="313.9071655" y="110.9970474" class="st5" width="66" height="2.6582"/>
					<rect x="313.9071655" y="105.6806412" class="st5" width="66" height="2.6582"/>
					<rect x="313.9071655" y="100.3642426" class="st5" width="66" height="2.6582"/>
				</g>
				<g class="st9">
					<g>
						<polygon class="st10" points="382.4179993,193.211853 382.4179993,93.0204468 311.3964844,161.3310547 
							311.3964844,193.211853 						"/>
					</g>
				</g>
			</g>
		</g>
		<g class="st7">
			<path class="st8" d="M130.0518036,241.3329926H-10.8236923c-4.8168993,0-8.7572994,3.9414062-8.7572994,8.7569122v187.656189
				c0,4.8135071,3.9404001,8.7539062,8.7572994,8.7539062h140.8754883c4.8153992,0,8.7543945-3.9403992,8.7543945-8.7539062
				v-187.656189C138.8061981,245.2743988,134.8672028,241.3329926,130.0518036,241.3329926z"/>
			<path class="st2" d="M137.3032074,250.0899048c0-3.9990997-3.2519073-7.25-7.2514038-7.25H-10.8236923
				c-4,0-7.2486,3.2509003-7.2486,7.25v187.656189c0,3.9942017,3.2486,7.2442017,7.2486,7.2442017h140.8754883
				c3.9994965,0,7.2514038-3.25,7.2514038-7.2442017V250.0899048z"/>
			<rect x="-1.7968918" y="261.7157898" class="st3" width="122.8246994" height="164.4004059"/>
			<path class="st1" d="M59.6152039,430.8262024c-2.9051971,0-5.2695007,2.3602905-5.2695007,5.2655945
				c0,2.907196,2.3643036,5.2666016,5.2695007,5.2666016c2.9053001,0,5.2661972-2.3594055,5.2661972-5.2666016
				C64.8814011,433.1864929,62.520504,430.8262024,59.6152039,430.8262024z"/>
			<g>
				<rect x="63.1621056" y="401.7783203" class="st5" width="51.7787971" height="6.0830998"/>
				<rect x="63.1621056" y="413.9472961" class="st5" width="51.7787971" height="6.0830002"/>
				<rect x="63.1621056" y="389.6045227" class="st5" width="51.7787971" height="6.085"/>
				<rect x="63.1621056" y="377.4385071" class="st5" width="51.7787971" height="6.0819998"/>
				<rect x="4.2891068" y="352.0820923" class="st5" width="51.777298" height="6.0830002"/>
				<rect x="4.2891068" y="364.25" class="st5" width="51.777298" height="6.0879002"/>
				<rect x="4.2891068" y="339.9131165" class="st5" width="51.777298" height="6.0869002"/>
				<rect x="4.2891068" y="327.7442017" class="st5" width="51.777298" height="6.0839"/>
				<polygon class="st4" points="63.1641045,349.0401001 63.1641045,370.3378906 114.9409027,370.3378906 114.9409027,327.7442017 
					63.1641045,327.7442017 				"/>
				<polygon class="st4" points="56.0649033,420.030304 56.0649033,398.7333984 56.0649033,377.4385071 4.2891083,377.4385071 
					4.2891083,420.030304 				"/>
				<rect x="4.2891068" y="267.7989197" class="st5" width="110.6517944" height="52.8465996"/>
			</g>
			<g class="st9">
				<g>
					<polygon class="st10" points="121.0586014,426.1162109 121.0586014,285.031311 -1.8275919,403.2284851 -1.8275919,426.1162109 
											"/>
				</g>
			</g>
		</g>
		<g class="st7">
			<g>
				<path class="st8" d="M216.9081879,188.4993896c-32.0088043,0-55.8027039-3.1747894-56.0391083-3.2070007
					c-2.0282898-0.2753906-3.6170807-2.0927887-3.6170807-4.135788V5.8196945c0-2.0928001,1.7030792-3.7939003,3.7967834-3.7939003
					h111.7187958c2.0907898,0,3.7919922,1.7011001,3.7919922,3.7939003V181.156601
					c0,2.0429993-1.5859985,3.8603973-3.6113892,4.135788C272.7099915,185.3246002,248.9188843,188.4993896,216.9081879,188.4993896
					z M161.0487823,4.3518944c-0.8105011,0-1.469696,0.6581998-1.469696,1.4678001V181.156601
					c0,0.8593903,0.7489929,1.7148895,1.6024933,1.8311005c0.2344208,0.031189,23.8848114,3.1854858,55.7266083,3.1854858
					c31.8554993,0,55.4922028-3.1542969,55.7266083-3.1854858c0.8514709-0.1162109,1.5985718-0.9717102,1.5985718-1.8311005
					V5.8196945c0-0.8096004-0.6581726-1.4678001-1.4657898-1.4678001H161.0487823z"/>
			</g>
			<g>
				<path class="st2" d="M161.0487823,3.1887944c-1.4472046,0-2.632782,1.1836002-2.632782,2.6309001V181.156601
					c0,1.4462891,1.1737823,2.7880859,2.6083832,2.9833984c0,0,23.5830078,3.1962891,55.8838043,3.1962891
					c32.3026886,0,55.8827972-3.1962891,55.8827972-3.1962891c1.4317017-0.1953125,2.6054993-1.5371094,2.6054993-2.9833984
					V5.8196945c0-1.4473-1.1806946-2.6309001-2.6289062-2.6309001H161.0487823z"/>
			</g>
			<g>
				<rect x="166.4354858" y="14.5608988" class="st12" width="100.8759995" height="140.5722961"/>
			</g>
			<g>
				<polygon class="st2" points="267.3808899,155.2747955 267.3114929,155.133194 166.4354858,155.133194 166.4354858,171.9563904 
					267.3808899,171.9563904 				"/>
			</g>
			<g>
				<path class="st1" d="M166.4354858,171.9563904v1.6426086c0,1.3076019,22.5966949,2.3651886,50.472702,2.3651886
					s50.472702-1.0575867,50.472702-2.3651886v-1.6426086H166.4354858z"/>
			</g>
			<g>
				<polygon class="st13" points="166.3700867,155.133194 166.4354858,155.133194 166.4354858,154.9895935 				"/>
			</g>
			<g>
				<polygon class="st12" points="264.4208679,20.8040943 267.3114929,14.560894 166.4354858,14.560894 169.3251801,20.8040943 				
					"/>
			</g>
			<g>
				<polygon class="st12" points="264.4208679,148.888092 169.3251801,148.888092 169.3251801,148.7483978 166.4354858,154.9895935 
					166.4354858,155.133194 267.3114929,155.133194 				"/>
			</g>
			<g>
				<g>
					<polygon class="st14" points="166.4354858,20.8040943 166.4354858,154.9895935 169.3251801,148.7483978 
						169.3251801,20.8040943 166.4354858,14.560894 					"/>
				</g>
				<g>
					<polygon class="st14" points="267.3114929,14.560894 264.4208679,20.8040943 264.4872742,20.8040943 264.4872742,148.888092 
						264.4208679,148.888092 267.3114929,155.133194 267.3808899,155.133194 267.3808899,20.8040943 267.3808899,14.560894 					"/>
				</g>
			</g>
			<g>
				<polygon class="st3" points="264.4208679,20.8040943 169.3251801,20.8040943 169.3251801,148.7483978 169.3251801,148.888092 
					264.4208679,148.888092 264.4872742,148.888092 264.4872742,20.8040943 				"/>
			</g>
			<g>
				<g>
					<rect x="206.4150085" y="82.2346954" class="st4" width="52.5722809" height="5.4991002"/>
				</g>
				<g>
					<rect x="206.4150085" y="71.2298965" class="st4" width="52.5722809" height="5.5039001"/>
				</g>
				<g>
					<rect x="206.4150085" y="93.2327957" class="st4" width="52.5722809" height="5.5029001"/>
				</g>
				<g>
					<rect x="206.4150085" y="104.2366943" class="st4" width="52.5722809" height="5.4990001"/>
				</g>
				<g>
					<polygon class="st5" points="206.4170074,26.3069935 206.4170074,45.5598946 206.4170074,64.8118973 258.9872742,64.8118973 
						258.9872742,26.3069935 					"/>
				</g>
				<g>
					<rect x="174.8251801" y="48.307991" class="st4" width="25.6893997" height="5.4990001"/>
				</g>
				<g>
					<rect x="174.8251801" y="59.3079948" class="st4" width="25.6893997" height="5.5039001"/>
				</g>
				<g>
					<rect x="174.8251801" y="37.3069916" class="st4" width="25.6893997" height="5.5029001"/>
				</g>
				<g>
					<rect x="174.8251801" y="26.3059959" class="st4" width="25.6893997" height="5.4991002"/>
				</g>
				<g>
					<polygon class="st5" points="200.5126801,109.7356949 200.5126801,90.4817963 200.5126801,71.2307968 174.8251801,71.2307968 
						174.8251801,109.7356949 					"/>
				</g>
				<g>
					<rect x="174.8251953" y="116.1546936" class="st5" width="84.1620941" height="27.5088005"/>
				</g>
			</g>
			<polygon class="st6" points="169.3251801,131.3382874 169.3251801,148.7483978 169.3251801,148.888092 264.4208679,148.888092 
				264.4872742,148.888092 264.4872742,36.1751938 			"/>
		</g>
		<g class="st7">
			<g>
				<path class="st2" d="M454.6297913,248.6826019H302.414978c-3.6547852,0-6.6289062,2.9745941-6.6289062,6.6317902v110.0157166
					c0,3.6551819,2.9741211,6.6297913,6.6289062,6.6297913h152.2148132c3.6542969,0,6.6318054-2.9746094,6.6318054-6.6297913
					V255.3143921C461.2615967,251.657196,458.2840881,248.6826019,454.6297913,248.6826019z"/>
				<path class="st8" d="M454.6297913,249.5995941c3.1513977,0,5.7149048,2.5635071,5.7149048,5.714798v110.0157166
					c0,3.1502991-2.5635071,5.7127991-5.7149048,5.7127991H302.414978c-3.1495056,0-5.7114868-2.5625-5.7114868-5.7127991
					V255.3143921c0-3.1512909,2.5619812-5.714798,5.7114868-5.714798H454.6297913L454.6297913,249.5995941z
					 M454.6297913,248.6826019H302.414978c-3.6547852,0-6.6289062,2.9745941-6.6289062,6.6317902v110.0157166
					c0,3.6551819,2.9741211,6.6297913,6.6289062,6.6297913h152.2148132c3.6542969,0,6.6318054-2.9746094,6.6318054-6.6297913
					V255.3143921C461.2615967,251.657196,458.2840881,248.6826019,454.6297913,248.6826019L454.6297913,248.6826019z"/>
				<path class="st2" d="M302.414978,252.902298c-1.327179,0-2.4125977,1.0829926-2.4125977,2.4120941v110.0157166
					c0,1.3280945,1.0854187,2.4100952,2.4125977,2.4100952h152.2148132c1.327179,0,2.407196-1.0820007,2.407196-2.4100952
					V255.3143921c0-1.3291016-1.0800171-2.4120941-2.407196-2.4120941H302.414978z"/>
			</g>
			<g>
				<rect x="306.7674866" y="258.9443054" class="st2" width="143.5087891" height="102.7528992"/>
				<rect x="306.7674866" y="258.9443054" class="st15" width="143.5087891" height="102.7528992"/>
				<g>
					<path class="st16" d="M450.2762756,291.2138062h-23.445282c-6.031311,0-12.2842102-1.8710022-17.6112976-5.2705078
						c-5.0450134-3.2167969-8.5655212-7.3623047-9.6583252-11.3701172l3.9356079-1.0692749
						c0.8135071,2.9950867,3.773407,6.3632812,7.9169922,9.0057983c4.6777039,2.9863892,10.1504211,4.6269836,15.4170227,4.6269836
						h23.445282V291.2138062z"/>
				</g>
				<g>
					<rect x="306.7674866" y="310.3241882" class="st16" width="66.7275009" height="16.0088005"/>
				</g>
				<g>
					<polygon class="st16" points="385.7977905,329.2655945 371.2459717,329.2655945 375.2098999,275.2070007 
						381.8299866,275.2070007 					"/>
				</g>
				<rect x="306.7674866" y="258.9442749" class="st16" width="143.5087891" height="16.2626991"/>
				<g>
					<rect x="306.7674866" y="295.3691101" class="st16" width="143.5087891" height="9.1220999"/>
				</g>
				<rect x="306.7674866" y="329.2655945" class="st4" width="28.7040997" height="32.4315987"/>
				<rect x="335.4715881" y="329.2655945" class="st5" width="57.3983994" height="32.4315987"/>
				<rect x="392.8699646" y="329.2655945" class="st4" width="57.4062996" height="32.4315987"/>
				<path class="st2" d="M322.9354858,338.898407c-2.6343079,0-4.7695923,2.1347961-4.7695923,4.7685852
					c0,1.0282898,0.328186,1.9823914,0.8823853,2.7607117l-4.5131836,4.5116882l1.1264038,1.1270142l4.5126953-4.5147095
					c0.7787781,0.5546875,1.7299805,0.881897,2.7612915,0.881897c2.6341858,0,4.7666016-2.1337891,4.7666016-4.7666016
					C327.7020874,341.0332031,325.5696716,338.898407,322.9354858,338.898407z M322.9354858,346.9979858
					c-1.842804,0-3.3355103-1.4911804-3.3355103-3.3309937c0-1.842804,1.4927063-3.3378906,3.3355103-3.3378906
					c1.8432007,0,3.3354187,1.4950867,3.3354187,3.3378906
					C326.2709045,345.5068054,324.7786865,346.9979858,322.9354858,346.9979858z"/>
				<path class="st2" d="M383.2049866,317.1875c0,2.5839844-2.0996094,4.6796875-4.6846008,4.6796875
					c-2.5830078,0-4.6816101-2.0957031-4.6816101-4.6796875c0-2.5859985,2.0986023-4.6835938,4.6816101-4.6835938
					C381.1053772,312.5039062,383.2049866,314.6015015,383.2049866,317.1875z"/>
				<g>
					<path class="st5" d="M332.5882874,287.0419922c-0.1855164-0.5596008-0.2832031-1.1572876-0.2832031-1.7774048
						c0-3.1620789,2.5635071-5.7245789,5.7236023-5.7245789c3.1596985,0,5.7242126,2.5625,5.7242126,5.7245789
						c0,0.6201172-0.1016235,1.217804-0.2872009,1.7774048l-0.015625-0.0048828l-5.4213867,12.8934937l-5.4242859-12.8934937
						L332.5882874,287.0419922z"/>
					<circle class="st2" cx="338.0292358" cy="285.2841797" r="3.651345"/>
				</g>
				<path class="st2" d="M441.6903687,343.8280945c-0.6904602-0.2880859-1.0634766-1.1063843-0.8300781-1.8153992
					c0.2304077-0.7119141-0.1806946-1.1864929-0.9151001-1.0575867c-0.7362976,0.1288757-1.493103-0.3575134-1.680603-1.0811157
					c-0.1885071-0.719696-0.7948914-0.8993835-1.342804-0.3926086c-0.5517883,0.506897-1.4472961,0.506897-1.9979858,0
					c-0.5458984-0.5067749-1.1524048-0.3270874-1.343811,0.3926086c-0.1885071,0.7236023-0.9414062,1.2099915-1.6777039,1.0811157
					c-0.7353821-0.1289062-1.1455078,0.3456726-0.9151001,1.0575867c0.2304993,0.7090149-0.1424866,1.5273132-0.8309937,1.8153992
					c-0.6875,0.289093-0.7744141,0.9121094-0.1983032,1.3857117c0.578186,0.4697876,0.7090149,1.359375,0.2871094,1.9755859
					c-0.421814,0.6152954-0.1640015,1.1885071,0.577179,1.2715149c0.7461243,0.0859985,1.3301086,0.764679,1.3096008,1.5097961
					c-0.0253906,0.7450867,0.5068054,1.085907,1.1757202,0.7568054c0.6679993-0.3320007,1.5312805-0.0771179,1.9169922,0.5614929
					c0.3858032,0.640686,1.015686,0.640686,1.3984985,0c0.3828125-0.6386108,1.2460938-0.8934937,1.9150085-0.5614929
					c0.6708984,0.3291016,1.2001953-0.0117188,1.1777039-0.7568054c-0.023407-0.7451172,0.5664978-1.4237976,1.3066711-1.5097961
					c0.742218-0.0830078,1.0058289-0.6562195,0.5810242-1.2715149c-0.422821-0.6162109-0.2949219-1.5057983,0.2851868-1.9755859
					C442.469696,344.7402039,442.3787842,344.1171875,441.6903687,343.8280945z M435.8192749,348.0673828
					c-0.6972961,0-1.3262024-0.265686-1.8038025-0.7012024c-0.5409851-0.4911804-0.8856812-1.1972961-0.8856812-1.9882812
					c0-1.4873047,1.2079773-2.6885071,2.6894836-2.6885071c0.7920227,0,1.4970093,0.343811,1.9902039,0.8847961
					c0.4335938,0.4785156,0.7001953,1.1064148,0.7001953,1.8037109
					C438.5096741,346.8641968,437.3055725,348.0673828,435.8192749,348.0673828z"/>
				<polygon class="st16" points="394.6942749,275.2070007 390.1199951,275.2070007 409.3299866,329.2655945 
					415.2938843,329.2655945 				"/>
			</g>
			<polygon class="st6" points="328.7855835,361.6972046 335.4715881,361.6972046 392.8699951,361.6972046 450.2762756,361.6972046 
				450.2762756,329.2655945 450.2762756,304.4911804 450.2762756,295.3691101 450.2762756,291.2138062 450.2762756,287.1366882 
				450.2762756,275.2070007 450.2762756,258.9443054 431.5379944,258.9443054 			"/>
		</g>
	</g>
</g>
</svg>
