<?xml version="1.0" encoding="utf-8"?>
<!-- Generator: Adobe Illustrator 17.1.0, SVG Export Plug-In . SVG Version: 6.00 Build 0)  -->
<!DOCTYPE svg PUBLIC "-//W3C//DTD SVG 1.1//EN" "http://www.w3.org/Graphics/SVG/1.1/DTD/svg11.dtd">
<svg version="1.1" id="Layer_1" xmlns="http://www.w3.org/2000/svg" xmlns:xlink="http://www.w3.org/1999/xlink" x="0px" y="0px"
	 viewBox="-110 -98 220 220" style="enable-background:new -110 -98 220 220;" xml:space="preserve">
<style type="text/css">
	.st0{fill:#00789A;}
	.st1{fill:#D0D0CD;}
	.st2{fill:#E9E8E4;}
	.st3{fill:#88B6D3;}
	.st4{fill:#344A5E;}
	.st5{fill:#2C3F50;}
	.st6{opacity:0.1;fill:#FFFFFF;enable-background:new    ;}
	.st7{clip-path:url(#SVGID_2_);}
	.st8{fill:#F8F8F3;}
	.st9{opacity:0.1;}
	.st10{fill:#FFFFFF;}
	.st11{clip-path:url(#SVGID_4_);}
	.st12{fill:none;stroke:#F8F8F3;stroke-width:3;stroke-miterlimit:10;}
	.st13{clip-path:url(#SVGID_6_);}
	.st14{clip-path:url(#SVGID_8_);}
	.st15{fill:#BBBDBF;}
	.st16{fill:none;}
	.st17{fill:#D0D2D3;}
	.st18{clip-path:url(#SVGID_10_);}
	.st19{fill:#8FD4DD;}
	.st20{fill:#6DBCC3;}
</style>
<g id="circle">
	<ellipse class="st0" cx="-0.0750807" cy="11.8861876" rx="100.2043381" ry="99.8861847"/>
</g>
<g id="devices">
	<g>
		<g>
			<rect x="22.0459404" y="21.5328941" class="st1" width="0.3782279" height="11.1718254"/>
		</g>
		<g>
			<rect x="22.0459404" y="74.7661819" class="st1" width="0.3782279" height="11.1679239"/>
		</g>
		<g>
			<rect x="-22.574337" y="74.7661819" class="st1" width="0.3801698" height="11.1679239"/>
		</g>
		<g>
			<path class="st2" d="M22.2342834,95.1935654c0,1.6587524-1.3631325,3.0180588-3.0276203,3.0180588h-38.5610886
				c-1.6664467,0-3.0295773-1.3593063-3.0295773-3.0180588V16.5039272c0-1.658267,1.3631306-3.0185108,3.0295773-3.0185108
				h38.5610886c1.6644878,0,3.0276203,1.3602438,3.0276203,3.0185108V95.1935654z"/>
		</g>
		<g>
			<rect x="-17.9413853" y="22.1762066" class="st3" width="35.7340088" height="63.3394356"/>
		</g>
		<g>
			<path class="st1" d="M11.9956608,17.2262478c0,0.588686-0.4790344,1.0656891-1.0666275,1.0656891
				c-0.588603,0-1.0666285-0.4770031-1.0666285-1.0656891c0-0.58428,0.4780254-1.0612907,1.0666285-1.0612907
				C11.5166264,16.164957,11.9956608,16.6419678,11.9956608,17.2262478z"/>
		</g>
		<g>
			<path class="st1" d="M4.4167066,16.7648754h-8.9841251c-0.2011089,0-0.3610878-0.1629162-0.3610878-0.360939
				c0-0.1989708,0.1599789-0.3633327,0.3610878-0.3633327h8.9841251c0.2006044,0,0.3640389,0.164362,0.3640389,0.3633327
				C4.7807455,16.6019592,4.617311,16.7648754,4.4167066,16.7648754z"/>
		</g>
		<g>
			<polygon class="st1" points="-15.2395792,90.8567047 -17.3097038,90.8567047 -16.6330223,90.1802292 -16.6393833,90.1738739 
				-17.0910034,90.1738739 -17.9413853,91.0210724 -17.097868,91.862915 -16.6330223,91.862915 -17.3097038,91.1864243 
				-15.2395792,91.1864243 			"/>
		</g>
		<rect x="0.58569" y="70.0118103" class="st4" width="15.8741674" height="14.1757421"/>
		<rect x="-16.6075649" y="70.0118103" class="st5" width="15.8731661" height="14.1757421"/>
		<rect x="-16.6075649" y="54.5084763" class="st5" width="15.8731661" height="14.1757421"/>
		<rect x="0.58569" y="54.5084763" class="st5" width="15.8741674" height="14.1757421"/>
		<rect x="-16.6075745" y="39.006134" class="st4" width="33.0674324" height="14.1742945"/>
		<polygon class="st4" points="-2.3891256,23.5042515 -16.6075726,23.5042515 -16.6075726,37.6785469 -2.3891256,37.6785469 
			-0.7343994,37.6785469 -0.7343994,23.5042515 		"/>
		<rect x="0.58569" y="23.5042439" class="st5" width="15.8741674" height="14.1743021"/>
		<g>
			<g>
				<path class="st1" d="M16.6917381,89.928566c-0.6037331,0-1.0949917,0.4891891-1.0949917,1.0925064
					c0,0.2214432,0.0665426,0.4277649,0.1800699,0.6009064l-0.611598,0.4735641l0.203517,0.2594604l0.6340971-0.4920883
					c0.1888847,0.1560745,0.4257107,0.2545471,0.6889057,0.2545471c0.608181,0,1.100893-0.4920807,1.100893-1.0963898
					C17.7926311,90.4177551,17.2999191,89.928566,16.6917381,89.928566z M16.6917381,91.7877884
					c-0.4207649,0-0.7666702-0.3433533-0.7666702-0.766716c0-0.4204178,0.3459053-0.7676849,0.7666702-0.7676849
					c0.4247093,0,0.771616,0.3472672,0.771616,0.7676849C17.4633541,91.4444351,17.1164474,91.7877884,16.6917381,91.7877884z"/>
			</g>
		</g>
		<g>
			<polygon class="st1" points="-1.5456086,92.6608047 1.533875,93.2187653 0.7021313,91.4132156 			"/>
			<polygon class="st1" points="0.6257732,91.2488556 -0.3038263,89.2194138 -1.6307814,92.5047302 			"/>
		</g>
		<polygon class="st6" points="-17.9418449,70.966774 -17.9418449,85.5156403 17.7921257,85.5156403 17.7921257,35.3462563 		"/>
	</g>
</g>
<g id="clipping_mask">
	<g>
		<g>
			<defs>
				<ellipse id="SVGID_1_" cx="-0.0750807" cy="11.8861876" rx="100.2043381" ry="99.8861847"/>
			</defs>
			<clipPath id="SVGID_2_">
				<use xlink:href="#SVGID_1_"  style="overflow:visible;"/>
			</clipPath>
			<g class="st7">
				<g>
					<rect x="-44.3690071" y="-61.2497253" class="st1" width="0.374761" height="3.5467095"/>
				</g>
				<g>
					<rect x="-44.3690071" y="-55.2697411" class="st1" width="0.374761" height="3.5433145"/>
				</g>
				<g>
					<rect x="-44.3690071" y="-49.2897606" class="st1" width="0.374761" height="3.543364"/>
				</g>
				<g>
					<path class="st2" d="M-44.1816254,5.9076481c0,3.2877579-2.6993561,5.9785395-5.9970779,5.9785395h-28.58564
						c-3.2997284,0-5.9990387-2.6907816-5.9990387-5.9785395v-74.8771286c0-3.2887039,2.6993103-5.9780426,5.9990387-5.9780426
						h28.58564c3.2977219,0,5.9970779,2.6893387,5.9970779,5.9780426V5.9076481z"/>
				</g>
				<g>
					<path class="st8" d="M-50.1787033-73.019516c2.2408676,0,4.0629311,1.818222,4.0629311,4.0500336V5.9076481
						c0,2.2318087-1.8220634,4.0461407-4.0629311,4.0461407h-28.58564c-2.240921,0-4.0629883-1.814332-4.0629883-4.0461407
						v-74.8771286c0-2.2318115,1.8220673-4.0500336,4.0629883-4.0500336H-50.1787033L-50.1787033-73.019516z M-50.1787033-74.947525
						h-28.58564c-3.2997284,0-5.9990387,2.6893387-5.9990387,5.9780426V5.9076481
						c0,3.2877579,2.6993103,5.9785395,5.9990387,5.9785395h28.58564c3.2977219,0,5.9970779-2.6907816,5.9970779-5.9785395
						v-74.8771286C-44.1816254-72.2581863-46.8809814-74.947525-50.1787033-74.947525L-50.1787033-74.947525z"/>
				</g>
				<g>
					<path class="st1" d="M-57.1059265-70.4657822c0,0.3989487-0.3214569,0.7174377-0.7197189,0.7174377
						c-0.3963089,0-0.7192688-0.3184891-0.7192688-0.7174377c0-0.3931503,0.3229599-0.7150345,0.7192688-0.7150345
						C-57.4273834-71.1808167-57.1059265-70.8589325-57.1059265-70.4657822z"/>
				</g>
				<g>
					<path class="st1" d="M-60.0239792-70.0156403h-8.8970413c-0.2476044,0-0.4477158-0.2014236-0.4477158-0.4501419
						c0-0.2448654,0.2001114-0.446785,0.4477158-0.446785h8.8970413c0.2495079,0,0.4491653,0.2019196,0.4491653,0.446785
						C-59.5748138-70.2170639-59.7744713-70.0156403-60.0239792-70.0156403z"/>
				</g>
				<path class="st1" d="M-64.4725037,1.9570484c-1.7213058,0-3.1230621,1.3973107-3.1230621,3.1146073
					c0,1.7177925,1.4017563,3.1136479,3.1230621,3.1136479c1.7227669,0,3.1230698-1.3958554,3.1230698-3.1136479
					C-61.3494339,3.3543591-62.7497368,1.9570484-64.4725037,1.9570484z"/>
				<g>
					<g>
						<rect x="-82.2622299" y="-63.0650558" class="st3" width="35.5833092" height="63.0668373"/>
						<rect x="-81.006218" y="-15.3655148" class="st5" width="33.0674324" height="14.1762457"/>
						<rect x="-81.006218" y="-45.941967" class="st5" width="15.8731699" height="29.2488728"/>
						<rect x="-63.8129539" y="-61.8730698" class="st5" width="15.8741713" height="29.2489223"/>
						<rect x="-63.8927193" y="-18.0206833" class="st4" width="15.9539309" height="1.3275889"/>
						<rect x="-63.8927193" y="-20.6758518" class="st4" width="15.9539309" height="1.3275889"/>
						<rect x="-63.8927193" y="-23.3310299" class="st4" width="15.9539309" height="1.3275889"/>
						<rect x="-63.8927193" y="-25.986208" class="st4" width="15.9539309" height="1.3275889"/>
						<rect x="-63.8927193" y="-28.6413784" class="st4" width="15.9539309" height="1.3275889"/>
						<rect x="-63.8927193" y="-31.2965565" class="st4" width="15.9539309" height="1.3275889"/>
						<g>
							<rect x="-81.006218" y="-48.5971489" class="st4" width="15.8731699" height="1.3275889"/>
							<rect x="-81.006218" y="-51.2523232" class="st4" width="15.8731699" height="1.3275889"/>
							<rect x="-81.006218" y="-53.9075394" class="st4" width="15.8731699" height="1.3276384"/>
							<rect x="-81.006218" y="-56.5627213" class="st4" width="15.8731699" height="1.3275889"/>
							<rect x="-81.006218" y="-59.2178955" class="st4" width="15.8731699" height="1.3275889"/>
							<rect x="-81.006218" y="-61.8730698" class="st4" width="15.8731699" height="1.3275889"/>
						</g>
					</g>
					<g class="st9">
						<g>
							<polygon class="st10" points="-46.6789207,0.0017797 -46.6789207,-50.036953 -82.2622299,-15.9205303 -82.2622299,0.0017797 
															"/>
						</g>
					</g>
				</g>
			</g>
		</g>
		<g>
			<defs>
				<ellipse id="SVGID_3_" cx="-0.0750807" cy="11.8861876" rx="100.2043381" ry="99.8861847"/>
			</defs>
			<clipPath id="SVGID_4_">
				<use xlink:href="#SVGID_3_"  style="overflow:visible;"/>
			</clipPath>
			<g class="st11">
				<path class="st12" d="M87.3453751,1.8082922c0,5.7707758-4.73526,10.4909983-10.5234146,10.4909983H54.2109108
					c-5.7911034,0-10.5278168-4.7202225-10.5278168-10.4909983v-63.682785c0-5.7707787,4.7367134-10.491497,10.5278168-10.491497
					h22.6110497c5.7881546,0,10.5234146,4.7207184,10.5234146,10.491497V1.8082922z"/>
				<path class="st2" d="M87.3453751,1.8082922c0,5.7707758-4.73526,10.4909983-10.5234146,10.4909983H54.2109108
					c-5.7911034,0-10.5278168-4.7202225-10.5278168-10.4909983v-63.682785c0-5.7707787,4.7367134-10.491497,10.5278168-10.491497
					h22.6110497c5.7881546,0,10.5234146,4.7207184,10.5234146,10.491497V1.8082922z"/>
				<path class="st1" d="M70.3874512,9.4602251h-9.7439728c-0.7060471,0-1.3240051-0.486742-1.4927902-1.1656713h-0.0420799
					V6.3997631h12.8141747v1.8947906h-0.043045C71.7134018,8.9734831,71.0959473,9.4602251,70.3874512,9.4602251z"/>
				<path class="st1" d="M59.2549057,8.148716h0.0151215l0.0107765,0.0575371
					c0.132122,0.6413736,0.7035866,1.1061916,1.3626747,1.1061916h9.7439728c0.6585388,0,1.2310104-0.464818,1.3601685-1.1061916
					l0.0127182-0.0575371h0.0176468V6.5450978H59.2549057V8.148716z"/>
				<g>
					<path class="st1" d="M71.8317871-69.4518127h-12.633152c-0.2417488,0-0.4383926-0.1955719-0.4383926-0.4379959
						c0-0.2409286,0.1966438-0.4370041,0.4383926-0.4370041h12.633152c0.2392426,0,0.4384003,0.1960754,0.4384003,0.4370041
						C72.2701874-69.6473846,72.0710297-69.4518127,71.8317871-69.4518127z"/>
				</g>
				<g>
					<rect x="47.7225876" y="-62.5617065" class="st3" width="35.5833015" height="63.0667915"/>
					<rect x="48.9776001" y="-61.3692169" class="st4" width="33.0679359" height="14.1752472"/>
					<rect x="48.9785309" y="-13.9394112" class="st4" width="33.0674324" height="13.253499"/>
					<rect x="48.9785309" y="-29.9348373" class="st5" width="33.0674324" height="14.6034622"/>
					<g>
						<rect x="48.9785309" y="-32.5900154" class="st5" width="33.0674324" height="1.3275889"/>
						<rect x="48.9785309" y="-35.2451897" class="st5" width="33.0674324" height="1.3275889"/>
						<rect x="48.9785309" y="-37.9003639" class="st5" width="33.0674324" height="1.3275889"/>
						<rect x="48.9785309" y="-40.5555382" class="st5" width="33.0674324" height="1.3275889"/>
						<rect x="48.9785309" y="-43.2107124" class="st5" width="33.0674324" height="1.3275889"/>
						<rect x="48.9785309" y="-45.8658867" class="st5" width="33.0674324" height="1.3275889"/>
					</g>
					<g class="st9">
						<g>
							<polygon class="st10" points="83.3039474,0.5050819 83.3039474,-49.5336075 47.7206268,-15.4171753 47.7206268,0.5050819 
															"/>
						</g>
					</g>
				</g>
			</g>
		</g>
		<g>
			<defs>
				<ellipse id="SVGID_5_" cx="-0.0750807" cy="11.8861876" rx="100.2043381" ry="99.8861847"/>
			</defs>
			<clipPath id="SVGID_6_">
				<use xlink:href="#SVGID_5_"  style="overflow:visible;"/>
			</clipPath>
			<g class="st13">
				<path class="st8" d="M-43.1369896,24.5382671h-70.5816803c-2.4133759,0-4.3875961,1.9684601-4.3875961,4.3734741v93.7213058
					c0,2.4040146,1.9742203,4.3719711,4.3875961,4.3719711h70.581665c2.4126167,0,4.3861389-1.9679565,4.3861389-4.3719711
					V28.9117413C-38.7508507,26.5067272-40.724369,24.5382671-43.1369896,24.5382671z"/>
				<path class="st2" d="M-39.5038795,28.9117413c0-1.9972744-1.6292763-3.6208744-3.63311-3.6208744h-70.5816803
					c-2.0040894,0-3.6317062,1.6236-3.6317062,3.6208744v93.7213058c0,1.9948273,1.6276169,3.6179733,3.6317062,3.6179733h70.581665
					c2.0038338,0,3.63311-1.6231461,3.63311-3.6179733C-39.5038872,122.633049-39.5038872,28.9117413-39.5038795,28.9117413z"/>
				<rect x="-109.1960449" y="34.7180672" class="st3" width="61.537838" height="82.1066589"/>
				<path class="st1" d="M-78.4272537,119.1770401c-1.4555664,0-2.6401367,1.1788025-2.6401367,2.6297989
					c0,1.4519424,1.1845703,2.6303024,2.6401367,2.6303024c1.4556198,0,2.6384811-1.17836,2.6384811-2.6303024
					C-75.7887726,120.3558426-76.9716339,119.1770401-78.4272537,119.1770401z"/>
				<g>
					<rect x="-76.650177" y="104.669632" class="st5" width="25.9422989" height="3.0380881"/>
					<rect x="-76.650177" y="110.7471924" class="st5" width="25.9422989" height="3.0380423"/>
					<rect x="-76.650177" y="98.5896606" class="st5" width="25.9422989" height="3.0390329"/>
					<rect x="-76.650177" y="92.5135727" class="st5" width="25.9422989" height="3.0375392"/>
					<rect x="-106.1468277" y="79.8497925" class="st5" width="25.9415493" height="3.0380423"/>
					<rect x="-106.1468277" y="85.9268265" class="st5" width="25.9415493" height="3.0404809"/>
					<rect x="-106.1468277" y="73.7722321" class="st5" width="25.9415493" height="3.0399933"/>
					<rect x="-106.1468277" y="67.6946945" class="st5" width="25.9415493" height="3.0384843"/>
					<polygon class="st4" points="-76.6491776,78.3305283 -76.6491776,88.967308 -50.7078781,88.967308 -50.7078781,67.6947021 
						-76.6491776,67.6947021 					"/>
					<polygon class="st4" points="-80.2060318,113.7852325 -80.2060318,103.1489029 -80.2060318,92.5135727 
						-106.1468277,92.5135727 -106.1468277,113.7852325 					"/>
					<rect x="-106.1468277" y="37.7561722" class="st5" width="55.4389496" height="26.3932209"/>
				</g>
				<g class="st9">
					<g>
						<polygon class="st10" points="-47.6427803,116.8247223 -47.6427803,46.3625603 -109.2114258,105.3938828 
							-109.2114258,116.8247223 						"/>
					</g>
				</g>
			</g>
		</g>
		<g>
			<defs>
				<ellipse id="SVGID_7_" cx="-0.0750807" cy="11.8861876" rx="100.2043381" ry="99.8861847"/>
			</defs>
			<clipPath id="SVGID_8_">
				<use xlink:href="#SVGID_7_"  style="overflow:visible;"/>
			</clipPath>
			<g class="st14">
				<g>
					<path class="st8" d="M0.3799411-1.8484681c-16.0371056,0-27.9583645-1.585588-28.0768089-1.6016755
						c-1.0162163-0.1375384-1.8122349-1.0452034-1.8122349-2.0655406v-87.5686722
						c0-1.0452118,0.8532791-1.8947906,1.9022694-1.8947906h55.9735413c1.0475311,0,1.8998699,0.8495789,1.8998699,1.8947906
						v87.5686722c0,1.0203371-0.7946205,1.9280021-1.8093834,2.0655406
						C28.3378544-3.434056,16.4179935-1.8484681,0.3799411-1.8484681z M-27.6068325-93.817421
						c-0.4060783,0-0.7363491,0.3287201-0.7363491,0.7330627v87.5686722c0,0.4292064,0.3752613,0.8564692,0.8028831,0.9145083
						c0.1174507,0.0155768,11.9668093,1.5909302,27.9202404,1.5909302c15.9602957,0,27.8027954-1.5753534,27.9202385-1.5909302
						c0.4266052-0.0580392,0.8009186-0.485302,0.8009186-0.9145083v-87.5686722
						c0-0.4043427-0.3297596-0.7330627-0.7343922-0.7330627H-27.6068325z"/>
				</g>
				<g>
					<path class="st2" d="M-27.6068325-94.3983154c-0.7250805,0-1.3190804,0.5911331-1.3190804,1.3139572v87.5686722
						c0,0.7223215,0.5880909,1.3924565,1.3068562,1.4900017c0,0,11.8155985,1.5963256,27.9989986,1.5963256
						c16.1843472,0,27.9984913-1.5963256,27.9984913-1.5963256c0.7173138-0.0975451,1.3054123-0.7676802,1.3054123-1.4900017
						v-87.5686722c0-0.7228241-0.5915527-1.3139572-1.3171387-1.3139572H-27.6068325z"/>
				</g>
				<g>
					<rect x="-24.9079762" y="-88.7187347" class="st15" width="50.5410652" height="70.2061539"/>
				</g>
				<g>
					<polygon class="st2" points="25.6678581,-18.4418583 25.6330891,-18.512579 -24.9079762,-18.512579 -24.9079762,-10.1105537 
						25.6678581,-10.1105537 					"/>
				</g>
				<g>
					<path class="st1" d="M-24.9079762-10.1105537v0.8203697c0,0.6530571,11.3214331,1.1812487,25.2879181,1.1812487
						S25.6678581-8.6371269,25.6678581-9.290184v-0.8203697H-24.9079762z"/>
				</g>
				<g>
					<polygon class="st16" points="-24.9407425,-18.512579 -24.9079762,-18.512579 -24.9079762,-18.5842972 					"/>
				</g>
				<g>
					<polygon class="st15" points="24.184824,-85.6006851 25.6330891,-88.7187347 -24.9079762,-88.7187347 -23.4601765,-85.6006851 
											"/>
				</g>
				<g>
					<polygon class="st15" points="24.184824,-21.6315746 -23.4601765,-21.6315746 -23.4601765,-21.7013435 
						-24.9079762,-18.5842972 -24.9079762,-18.512579 25.6330891,-18.512579 					"/>
				</g>
				<g>
					<g>
						<polygon class="st17" points="-24.9079762,-85.6006851 -24.9079762,-18.5842972 -23.4601765,-21.7013435 
							-23.4601765,-85.6006851 -24.9079762,-88.7187347 						"/>
					</g>
					<g>
						<polygon class="st17" points="25.6330891,-88.7187347 24.184824,-85.6006851 24.2180939,-85.6006851 24.2180939,-21.6315746 
							24.184824,-21.6315746 25.6330891,-18.512579 25.6678581,-18.512579 25.6678581,-85.6006851 25.6678581,-88.7187347 						"/>
					</g>
				</g>
				<g>
					<polygon class="st3" points="24.184824,-85.6006851 -23.4601765,-85.6006851 -23.4601765,-21.7013435 -23.4601765,-21.6315746 
						24.184824,-21.6315746 24.2180939,-21.6315746 24.2180939,-85.6006851 					"/>
				</g>
				<g>
					<g>
						<rect x="-4.8773699" y="-54.9203453" class="st4" width="26.3398609" height="2.7464206"/>
					</g>
					<g>
						<rect x="-4.8773699" y="-60.4164772" class="st4" width="26.3398609" height="2.7488172"/>
					</g>
					<g>
						<rect x="-4.8773699" y="-49.4275551" class="st4" width="26.3398609" height="2.7483182"/>
					</g>
					<g>
						<rect x="-4.8773699" y="-43.9318619" class="st4" width="26.3398609" height="2.746371"/>
					</g>
					<g>
						<polygon class="st5" points="-4.8763676,-82.8523712 -4.8763676,-73.2368774 -4.8763676,-63.62183 21.4624748,-63.62183 
							21.4624748,-82.8523712 						"/>
					</g>
					<g>
						<rect x="-20.7045574" y="-71.8643875" class="st4" width="12.8709497" height="2.746371"/>
					</g>
					<g>
						<rect x="-20.7045574" y="-66.3706512" class="st4" width="12.8709497" height="2.7488191"/>
					</g>
					<g>
						<rect x="-20.7045574" y="-77.3586273" class="st4" width="12.8709497" height="2.7483182"/>
					</g>
					<g>
						<rect x="-20.7045574" y="-82.8528595" class="st4" width="12.8709497" height="2.7464206"/>
					</g>
					<g>
						<polygon class="st5" points="-7.8345637,-41.1854935 -7.8345637,-50.801487 -7.8345637,-60.4160309 -20.7045574,-60.4160309 
							-20.7045574,-41.1854935 						"/>
					</g>
					<g>
						<rect x="-20.7045498" y="-37.9796486" class="st5" width="42.1670418" height="13.7387476"/>
					</g>
				</g>
				<polygon class="st6" points="-23.4601765,-30.3964901 -23.4601765,-21.7013435 -23.4601765,-21.6315746 24.184824,-21.6315746 
					24.2180939,-21.6315746 24.2180939,-77.9238815 				"/>
			</g>
		</g>
		<g>
			<defs>
				<ellipse id="SVGID_9_" cx="-0.0750807" cy="11.8861876" rx="100.2043381" ry="99.8861847"/>
			</defs>
			<clipPath id="SVGID_10_">
				<use xlink:href="#SVGID_9_"  style="overflow:visible;"/>
			</clipPath>
			<g class="st18">
				<g>
					<path class="st2" d="M119.4836197,28.208889H43.2206955c-1.8311272,0-3.3212242,1.4856052-3.3212242,3.3121223v54.9452515
						c0,1.8255081,1.490097,3.3111267,3.3212242,3.3111267h76.2629242c1.8308792,0,3.3226776-1.4856186,3.3226776-3.3111267
						V31.5210114C122.8062973,29.6944942,121.3144989,28.208889,119.4836197,28.208889z"/>
					<path class="st8" d="M119.4836197,28.6668644c1.5789185,0,2.8632889,1.2802944,2.8632889,2.854147v54.9452515
						c0,1.5733566-1.2843704,2.8531494-2.8632889,2.8531494H43.2206955c-1.5779686,0-2.8615761-1.2797928-2.8615761-2.8531494
						V31.5210114c0-1.5738525,1.2836075-2.854147,2.8615761-2.854147H119.4836197L119.4836197,28.6668644z M119.4836197,28.208889
						H43.2206955c-1.8311272,0-3.3212242,1.4856052-3.3212242,3.3121223v54.9452515
						c0,1.8255081,1.490097,3.3111267,3.3212242,3.3111267h76.2629242c1.8308792,0,3.3226776-1.4856186,3.3226776-3.3111267
						V31.5210114C122.8062973,29.6944942,121.3144989,28.208889,119.4836197,28.208889L119.4836197,28.208889z"/>
					<path class="st2" d="M43.2206955,30.3163376c-0.6649437,0-1.2087631,0.5408783-1.2087631,1.2046738v54.9452515
						c0,0.6632919,0.5438194,1.2036743,1.2087631,1.2036743h76.2629242c0.6649399,0,1.2060547-0.5403824,1.2060547-1.2036743
						V31.5210114c0-0.6637955-0.5411148-1.2046738-1.2060547-1.2046738H43.2206955z"/>
				</g>
				<g>
					<rect x="45.4013977" y="33.3339005" class="st2" width="71.9010162" height="51.3179779"/>
					<rect x="45.4013977" y="33.3339005" class="st19" width="71.9010162" height="51.3179779"/>
					<g>
						<path class="st20" d="M117.3024139,49.4502907h-11.7465973c-3.0218201,0-6.1546555-0.9344368-8.8236389-2.6322556
							c-2.5276642-1.6065674-4.2915115-3.6769638-4.839035-5.6785889l1.9718246-0.5340309
							c0.4075851,1.495842,1.890564,3.1780205,3.9665909,4.497776c2.3436279,1.491497,5.0855789,2.3108597,7.7242584,2.3108597
							h11.7465973V49.4502907z"/>
					</g>
					<g>
						<rect x="45.4013977" y="58.994606" class="st20" width="33.4319267" height="7.9952846"/>
					</g>
					<g>
						<polygon class="st20" points="84.9972916,68.4545288 77.7065201,68.4545288 79.6925278,41.4559937 83.0093384,41.4559937 
													"/>
					</g>
					<rect x="45.4013977" y="33.3338852" class="st20" width="71.9010162" height="8.1220932"/>
					<g>
						<rect x="45.4013977" y="51.5255737" class="st20" width="71.9010162" height="4.5558596"/>
					</g>
					<rect x="45.4013977" y="68.4545288" class="st4" width="14.3813772" height="16.1973495"/>
					<rect x="59.7827759" y="68.4545288" class="st5" width="28.7578468" height="16.1973495"/>
					<rect x="88.5406036" y="68.4545288" class="st4" width="28.7618065" height="16.1973495"/>
					<path class="st2" d="M53.501915,73.2654572c-1.3198433,0-2.3896675,1.0661774-2.3896675,2.3815765
						c0,0.5135574,0.1644287,0.9900665,0.4420929,1.3787842l-2.2612038,2.253273l0.5643539,0.5628662l2.2609596-2.2547836
						c0.3901825,0.2770309,0.8667564,0.4404449,1.3834648,0.4404449c1.3197861,0,2.3881721-1.0656738,2.3881721-2.3805847
						C55.8900871,74.3316345,54.821701,73.2654572,53.501915,73.2654572z M53.501915,77.3106308
						c-0.9232826,0-1.6711617-0.7447357-1.6711617-1.6635971c0-0.9203568,0.747879-1.6670456,1.6711617-1.6670456
						c0.9234848,0,1.6711197,0.7466888,1.6711197,1.6670456C55.1730347,76.5658951,54.4253998,77.3106308,53.501915,77.3106308z"/>
					<path class="st2" d="M83.6982422,62.4223557c0,1.2905197-1.0519485,2.3371811-2.347084,2.3371811
						c-1.2941437,0-2.3455887-1.0466614-2.3455887-2.3371811c0-1.2915268,1.051445-2.3391304,2.3455887-2.3391304
						C82.6462936,60.0832253,83.6982422,61.1308289,83.6982422,62.4223557z"/>
					<g>
						<path class="st5" d="M58.3381805,47.3667564c-0.0929489-0.2794838-0.1418915-0.5779839-0.1418915-0.8876915
							c0-1.5792389,1.2843704-2.8590317,2.8676491-2.8590317c1.5830765,0,2.8679543,1.2797928,2.8679543,2.8590317
							c0,0.3097076-0.0509186,0.6082077-0.1438942,0.8876915l-0.0078278-0.0024376l-2.7162323,6.4394073l-2.7176857-6.4394073
							L58.3381805,47.3667564z"/>
						<ellipse class="st2" cx="61.0642128" cy="46.4888496" rx="1.8293989" ry="1.8235905"/>
					</g>
					<path class="st2" d="M113.0006866,75.7274933c-0.345932-0.1438828-0.5328217-0.5525665-0.4158859-0.9066696
						c0.1154404-0.3555527-0.0905304-0.5925674-0.4584885-0.5281906c-0.3688965,0.0643692-0.7480774-0.1785507-0.8420181-0.5399399
						c-0.0944443-0.3594437-0.3982544-0.4491806-0.6727753-0.1960831c-0.2764511,0.2531586-0.7251205,0.2531586-1.00103,0
						c-0.2735062-0.2530975-0.5773773-0.1633606-0.6732788,0.1960831c-0.0944443,0.3613892-0.4716644,0.6043091-0.8405685,0.5399399
						c-0.3684387-0.0643768-0.5739212,0.1726379-0.4584808,0.5281906c0.1154861,0.3541031-0.0713882,0.7627869-0.4163513,0.9066696
						c-0.3444519,0.1443787-0.3879929,0.4555359-0.09935,0.69207c0.2896805,0.2346191,0.3552322,0.6789093,0.1438446,0.9866638
						c-0.2113342,0.3072968-0.0821686,0.5935822,0.2891846,0.6350327c0.3738251,0.0429535,0.6664124,0.3819046,0.6561356,0.7540436
						c-0.0127182,0.3721161,0.2539215,0.5423355,0.5890579,0.3779678c0.3346863-0.1658096,0.7672043-0.0385132,0.9604568,0.280426
						c0.1932983,0.3199844,0.5088806,0.3199844,0.700676,0c0.191803-0.3189392,0.624321-0.4462357,0.959465-0.280426
						c0.3361359,0.1643677,0.601326-0.0058517,0.5900574-0.3779678c-0.011734-0.372139,0.2838211-0.7110901,0.6546707-0.7540436
						c0.3718643-0.0414505,0.5039368-0.3277359,0.2910995-0.6350327c-0.2118378-0.3077545-0.1477585-0.7520447,0.1428909-0.9866638
						C113.3911438,76.1830292,113.3455963,75.8718719,113.0006866,75.7274933z M110.0591431,77.8447266
						c-0.3493652,0-0.6644592-0.1326981-0.9037476-0.3502045c-0.2710419-0.2453079-0.4437408-0.5979691-0.4437408-0.9930115
						c0-0.7428055,0.605217-1.34272,1.3474884-1.34272c0.3968201,0,0.7500305,0.1717072,0.9971313,0.4418945
						c0.2172394,0.2389832,0.3508148,0.5525742,0.3508148,0.9008255
						C111.4070892,77.2438126,110.8038101,77.8447266,110.0591431,77.8447266z"/>
					<polygon class="st20" points="89.454628,41.4559937 87.1628113,41.4559937 96.7874298,68.4545288 99.7754745,68.4545288 					
						"/>
				</g>
				<polygon class="st6" points="56.4329414,84.6518784 59.7827759,84.6518784 88.5406189,84.6518784 117.3024139,84.6518784 
					117.3024139,68.4545288 117.3024139,56.0814209 117.3024139,51.5255775 117.3024139,49.4502907 117.3024139,47.4140511 
					117.3024139,41.4559937 117.3024139,33.3339005 107.9141235,33.3339005 				"/>
			</g>
		</g>
	</g>
</g>
</svg>
