<?xml version="1.0" encoding="utf-8"?>
<!-- Generator: Adobe Illustrator 17.1.0, SVG Export Plug-In . SVG Version: 6.00 Build 0)  -->
<!DOCTYPE svg PUBLIC "-//W3C//DTD SVG 1.1//EN" "http://www.w3.org/Graphics/SVG/1.1/DTD/svg11.dtd">
<svg version="1.1" xmlns="http://www.w3.org/2000/svg" xmlns:xlink="http://www.w3.org/1999/xlink" x="0px" y="0px"
	 viewBox="0 0 2376.3010254 1807.5699463" style="enable-background:new 0 0 2376.3010254 1807.5699463;" xml:space="preserve">
<style type="text/css">
	.st0{display:none;}
	.st1{fill:#F4B505;}
	.st2{fill:#E0A628;}
	.st3{fill:#283343;}
	.st4{fill:#242C3C;}
	.st5{fill:#2B3A49;}
	.st6{fill:#C2C3C6;}
	.st7{fill:#EFEEEE;}
	.st8{fill:#D8D8DA;}
	.st9{fill:#FFFFFF;}
	.st10{clip-path:url(#SVGID_2_);}
	.st11{fill:#4E5254;}
	.st12{fill:#111111;}
	.st13{fill-rule:evenodd;clip-rule:evenodd;fill:#FFFFFF;}
	.st14{fill-rule:evenodd;clip-rule:evenodd;fill:#515151;}
	.st15{fill-rule:evenodd;clip-rule:evenodd;fill:#494949;}
	.st16{fill-rule:evenodd;clip-rule:evenodd;fill:#AEAEAE;}
	.st17{fill:#686868;}
	.st18{fill-rule:evenodd;clip-rule:evenodd;fill:#686868;}
	.st19{fill:#393939;}
	.st20{fill:#64676A;}
	.st21{fill:#343434;}
</style>
<g id="Layer_2" class="st0">
	
		<image style="display:inline;overflow:visible;opacity:0.54;" width="962" height="715" xlink:href="../../../../Desktop/briefcase.png"  transform="matrix(2.4701674 0 0 2.52807 0 0)">
	</image>
</g>
<g id="circle">
	<circle class="st1" cx="1949.765625" cy="1098.2913818" r="192.0293884"/>
	<circle class="st1" cx="1949.7653809" cy="636.2404785" r="192.0293884"/>
</g>
<g id="enterprise">
	<path class="st2" d="M1949.765625,1290.3206787c100.6467285,0,183.1970215-77.4328613,191.3557129-175.9733887h-0.427002
		v-1.1274414h-1.1274414v-1.1276855h-1.1276855v-1.1274414h-1.1276855v-1.1276855h-1.1274414v-1.1274414h-1.1274414v-1.1275635
		h-1.1276855v-1.1275635h-1.1274414v-1.1275635h-1.1276855v-1.1275635h-1.1274414v-1.1274414h-1.1274414v-1.1276855h-1.1276855
		v-1.1274414h-1.1274414v-1.1275635h-1.1276855v-1.1275635h-1.1274414v-1.1275635h-1.1276855v-1.1275635h-1.1274414v-1.1275635
		h-1.1276855v-1.1275635h-1.1274414v-1.1274414h-1.1274414v-1.1276855h-1.1276855v-1.1274414h-1.1274414v-1.1275635h-1.1276855
		v-1.1275635h-1.1274414v-1.1275635h-1.1274414v-1.1275635h-1.1276855v-1.1274414h-1.1276855v-1.1276855h-1.1274414v-1.1274414
		h-1.1274414v-1.1276855h-1.1276855v-1.1274414h-1.1274414v-1.1275635h-1.1276855v-1.1275635h-1.1274414v-1.1275635h-1.1274414
		v-1.1275635h-1.1276855v-1.1274414h-1.1276855v-1.1276855h-1.1274414v-1.1274414h-1.1274414v-1.1275635h-1.1276855v-1.1275635
		h-1.1274414v-1.1275635h-1.1276855v-1.1275635h-1.1274414v-1.1274414h-1.1274414v-1.1276855h-1.1276855v-1.1274414h-1.1276855
		v-1.1276855h-1.1274414v-1.1274414h-1.1274414v-1.1275635h-1.1276855v-1.1275635h-1.1274414v-1.1275635h-1.1276855v-1.1275635
		h-1.1274414v-1.1274414h-1.1274414v-1.1276855h-1.1276855v-1.1274414h-1.1274414v-1.1276855h-1.1276855v-1.1274414h-1.1274414
		v-1.1275635h-1.1276855v-1.1275635h-1.1274414v-1.1275635h-1.1276855v-1.1275635h-1.1274414v-1.1274414h-1.1274414v-1.1276855
		h-1.1276855v-1.1274414h-1.1274414v-1.1275635h-1.1276855v-1.1275635h-1.1274414v-1.1275635h-1.1274414v-1.1275635h-1.1276855
		v-1.1274414h-1.1276855v-1.1276855h-1.1274414v-1.1274414h-1.1274414v-1.1276855h-1.1276855v-1.1274414h-12.6179199v-0.6174316
		h-1.1274414v-1.1274414h-1.1274414v-1.1276855h-1.1276855v-1.1274414h-32v4h-3.4216309
		c-0.2590332-0.2695312-0.5307617-0.5249023-0.8076172-0.7758789c-0.3574219-0.3944092-0.7331543-0.7700195-1.1276855-1.1274414
		c-0.357666-0.3946533-0.7333984-0.7703857-1.1279297-1.1279297c-0.3571777-0.394043-0.732666-0.7695312-1.1269531-1.1268311
		c-0.3574219-0.3946533-0.7331543-0.7703857-1.1276855-1.1279297c-0.3574219-0.3944092-0.7331543-0.7701416-1.1276855-1.1275635
		c-0.3574219-0.3945312-0.7331543-0.7702637-1.1276855-1.1276855c-0.3574219-0.3942871-0.7329102-0.7698975-1.1271973-1.1271973
		c-0.3574219-0.3945312-0.7331543-0.7702637-1.1276855-1.1276855c-0.3574219-0.3945312-0.7331543-0.7702637-1.1274414-1.1276855
		c-0.357666-0.3945312-0.7333984-0.7702637-1.1279297-1.1276855c-0.3571777-0.3942871-0.7329102-0.7697754-1.1271973-1.1271973
		c-0.3574219-0.3944092-0.7331543-0.7702637-1.1276855-1.1276855c-0.3574219-0.3945312-0.7329102-0.7701416-1.1274414-1.1275635
		c-0.3574219-0.3945312-0.7333984-0.7702637-1.1279297-1.1276855c-0.3571777-0.3944092-0.732666-0.7698975-1.1269531-1.1271973
		c-0.3574219-0.3944092-0.7333984-0.7702637-1.1279297-1.1278076c-0.3574219-0.3944092-0.7329102-0.7700195-1.1274414-1.1274414
		c-0.3574219-0.3945312-0.7331543-0.7702637-1.1274414-1.1276855c-0.3574219-0.3944092-0.7331543-0.7700195-1.1276855-1.1274414
		c-0.3574219-0.3945312-0.7331543-0.7701416-1.1274414-1.1275635c-0.3574219-0.3944092-0.7331543-0.7701416-1.1276855-1.1275635
		c-0.3574219-0.3945312-0.7329102-0.7701416-1.1274414-1.1275635c-0.3574219-0.3945312-0.7333984-0.7702637-1.1279297-1.1276855
		c-2.9328613-3.2369385-7.1513672-5.2904053-11.8366699-5.2904053h-44c-8.7998047,0-16,7.2001953-16,16v16h-22.6174316v-0.6174316
		h-1.1274414v-1.1274414h-1.1274414v-1.1276855h-1.1276855v-1.1274414h-32v4h-16v40v37.0283203v2.9716797v4v76h1.1276855v1.1274414
		h1.1274414v1.1276855h1.1274414v1.1274414h1.1276855v1.1276855h1.1274414v1.1274414h1.1276855v1.1275635h1.1274414v1.1275635
		h1.1276855v1.1275635h1.1274414v1.1275635h1.1276855v1.1274414h1.1274414v1.1276855h1.1274414v1.1274414h1.1276855v1.1275635
		h1.1274414v1.1275635h1.1276855v1.1275635h1.1274414v1.1275635h1.1274414v1.1274414h1.1276855v1.1276855h1.1276855v1.1274414
		h1.1274414v1.1276855h1.1274414v1.1274414h1.1276855v1.1275635h1.1274414v1.1275635h1.1276855v1.1275635h1.1274414v1.1275635
		h1.1274414v1.1274414h1.1276855v1.1276855h1.1276855v1.1274414h1.1274414v1.1276855h1.1274414v1.1274414h1.1276855v1.1275635
		h1.1274414v1.1275635h1.1276855v1.1275635h1.1274414v1.1275635h1.1274414v1.1274414h1.1276855v1.1276855h1.1276855v1.1274414
		h1.1274414v1.1275635h1.1274414v1.1275635h1.1276855v1.1275635h1.1274414v1.1275635h1.1276855v1.1274414H1886.25v1.1276855
		h1.1274414v1.1274414h1.1276855v1.1276855h1.1274414v1.1274414h1.1276855v1.1275635h1.1274414v1.1275635h1.1276855v1.1275635
		h1.1274414v1.1275635h1.1276855v1.1274414h1.1274414v1.1276855h1.1274414v1.1274414h1.1276855v1.1275635h1.1274414v1.1275635
		h1.1276855v1.1275635h1.1274414v1.1275635h1.1274414v1.1275635h1.1276855v1.1275635h1.1276855v1.1274414h1.1274414v1.1276855
		h1.1274414v1.1274414h1.1276855v1.1275635h1.1274414v1.1275635h1.1276855v1.1275635h1.1274414v1.1275635h1.1274414v1.1274414
		h1.1276855v1.1276855h1.1276855v1.1274414h1.1274414v1.1276855h1.1274414v1.1274414h1.1276855v1.1275635h1.1274414v1.1275635
		h1.1276855v1.1275635h1.1274414v1.1275635h1.1274414v1.1274414h1.1276855v1.1276855h1.1276855v1.1274414h1.1274414v1.1275635
		h1.1274414v1.1275635h1.1276855v1.1275635h1.1274414v1.1275635h1.1276855v1.1274414h1.1274414v1.1276855h1.1274414v0.6323242
		C1938.9355469,1290.0819092,1944.3222656,1290.3206787,1949.765625,1290.3206787z"/>
	<g>
		<g>
			<g>
				<polygon class="st3" points="1837.7653809,1034.2913818 1837.7653809,1074.2913818 1837.7653809,1111.3197021 
					1837.7653809,1114.2913818 1837.7653809,1194.2913818 2061.7658691,1194.2913818 2061.7658691,1114.2913818 
					2061.7658691,1111.3197021 2061.7658691,1074.2913818 2061.7658691,1034.2913818 				"/>
			</g>
		</g>
		<g>
			<g>
				<path class="st4" d="M1971.7653809,1014.2913818c2.168457,0,4,1.8320923,4,4v32c0,2.1679688-1.831543,4-4,4h-44
					c-2.168335,0-4-1.8320312-4-4v-32c0-2.1679077,1.831665-4,4-4H1971.7653809L1971.7653809,1014.2913818z
					 M1971.7653809,1002.2913818h-44c-8.7998047,0-16,7.2001953-16,16v32c0,8.7998047,7.2001953,16,16,16h44
					c8.7998047,0,16-7.2001953,16-16v-32C1987.7653809,1009.4915771,1980.5651855,1002.2913818,1971.7653809,1002.2913818
					L1971.7653809,1002.2913818z"/>
			</g>
		</g>
		<g>
			<g>
				<rect x="1853.7653809" y="1030.2913818" class="st4" width="32" height="8"/>
			</g>
		</g>
		<g>
			<g>
				<rect x="2013.7653809" y="1030.2913818" class="st4" width="32" height="8"/>
			</g>
		</g>
		<g>
			<g>
				<g>
					<polygon class="st5" points="2061.7658691,1111.3197021 2061.7658691,1074.2913818 2061.7658691,1034.2913818 
						1837.7653809,1034.2913818 1837.7653809,1074.2913818 1837.7653809,1111.3197021 1837.7653809,1114.2913818 
						2061.7658691,1114.2913818 					"/>
				</g>
			</g>
			<g>
				<g>
					<rect x="1837.7653809" y="1114.2913818" class="st3" width="224.0005035" height="80"/>
				</g>
			</g>
		</g>
		<g>
			<g>
				<rect x="1837.7653809" y="1114.2913818" class="st4" width="224.0005035" height="4"/>
			</g>
		</g>
		<g>
			<g>
				<g>
					<rect x="1933.7653809" y="1106.2913818" class="st6" width="32" height="8"/>
				</g>
			</g>
			<g>
				<g>
					<rect x="1933.7653809" y="1114.2913818" class="st7" width="32" height="8"/>
				</g>
			</g>
		</g>
	</g>
	<path class="st2" d="M2140.5759277,657.8638916h-0.1674805l-0.4499512-0.8999023h-0.4499512l-0.4499512-0.9001465h-0.4499512
		l-0.4499512-0.8999023h-0.4499512l-0.4499512-0.8999023h-0.4501953l-0.4499512-0.8999023h-0.4499512l-0.4499512-0.8999023
		h-0.4499512l-0.4499512-0.9001465h-0.4499512l-0.4501953-0.8999023h-0.4499512l-0.4499512-0.8999023h-0.4499512
		l-0.4499512-0.8999023h-0.4499512l-0.4499512-0.9001465h-0.4499512l-0.4499512-0.8999023h-0.4499512l-0.4499512-0.8999023
		h-0.4501953l-0.4499512-0.8999023h-0.4499512l-0.4499512-0.8999023h-0.4499512l-0.4499512-0.9001465h-0.4499512
		l-0.4501953-0.8999023h-0.449707l-0.4501953-0.8999023h-0.4499512l-0.4499512-0.8999023h-0.4499512l-0.4499512-0.9001465
		h-0.4499512l-0.4499512-0.8999023h-0.4499512l-0.4499512-0.8999023h-0.4501953l-0.4499512-0.8999023h-0.4499512
		l-0.4499512-0.8999023h-0.4499512l-0.4499512-0.9001465h-0.4499512l-0.4501953-0.8999023h-0.449707l-0.4501953-0.8999023
		h-0.4499512l-0.4499512-0.8999023h-0.4499512l-0.4499512-0.9001465h-0.4499512l-0.4499512-0.8999023h-0.4499512
		l-0.4499512-0.8999023h-0.4501953l-0.4499512-0.8999023h-0.4499512l-0.4499512-0.8999023h-0.4499512l-0.4499512-0.8999023
		h-0.4499512l-0.4501953-0.9001465h-0.449707l-0.4501953-0.8999023h-0.4499512l-0.4499512-0.8999023h-0.4499512
		l-0.4499512-0.9001465h-0.4499512l-0.4499512-0.8999023h-0.4499512l-0.4499512-0.8999023h-0.4501953l-0.4499512-0.8999023
		h-0.4499512l-0.4499512-0.8999023h-0.4499512l-0.4499512-0.8999023h-0.4499512l-0.4501953-0.9001465h-0.449707
		l-0.4501953-0.8999023h-0.4499512l-0.4499512-0.8999023h-0.4499512l-0.4499512-0.9001465h-0.4499512l-0.4499512-0.8999023
		h-0.4499512l-0.4499512-0.8999023h-0.4501953l-0.4499512-0.8999023h-0.4499512l-0.4499512-0.8999023h-0.4499512
		l-0.4499512-0.8999023h-0.4499512l-0.4501953-0.9001465h-0.449707l-0.4501953-0.8999023h-0.4499512l-0.4499512-0.8999023
		h-0.4499512l-0.4499512-0.9001465h-0.4499512l-0.4499512-0.8999023h-0.4499512l-0.4499512-0.8999023h-0.4501953
		l-0.4499512-0.8999023h-0.4499512l-0.4499512-0.8999023h-0.4499512l-0.4499512-0.8999023h-0.4499512l-0.4501953-0.9001465
		h-0.449707l-0.4501953-0.8999023h-0.449707l-0.4501953-0.8999023h-0.4499512l-0.4499512-0.9001465h-0.4499512l-0.4499512-0.8999023
		h-0.4499512l-0.4499512-0.8999023h-0.4501953l-0.4499512-0.8999023h-0.4499512l-0.4499512-0.8999023h-0.4499512
		l-0.4499512-0.8999023h-0.4499512l-0.4501953-0.9001465h-0.449707l-0.4501953-0.8999023h-0.449707l-0.4501953-0.8999023h-0.4499512
		l-0.4499512-0.9001465h-0.4499512l-0.4499512-0.8999023h-0.4499512l-0.4499512-0.8999023h-0.4501953l-0.4499512-0.8999023
		h-0.4499512l-0.4499512-0.8999023h-0.4499512l-0.4499512-0.8999023h-0.4499512l-0.4501953-0.9001465h-0.449707
		l-0.4501953-0.8999023h-0.449707l-0.4501953-0.8999023h-0.4499512l-0.4499512-0.9001465h-0.4499512l-0.4499512-0.8999023
		h-0.4499512l-0.4499512-0.8999023h-0.4501953l-0.4499512-0.8999023h-0.4499512l-0.4499512-0.8999023h-0.4499512
		l-0.4499512-0.8999023h-0.4499512l-0.4501953-0.9001465h-0.449707l-0.4501953-0.8999023h-0.449707l-0.4501953-0.8999023h-0.4499512
		l-0.4499512-0.9001465h-0.4499512l-0.4499512-0.8999023h-0.4501953l-0.449707-0.8999023H2055.8125l-0.4499512-0.8999023h-0.4499512
		l-0.4499512-0.8999023h-0.4499512l-0.4499512-0.8999023h-0.4499512l-0.4501953-0.9001465h-0.449707l-0.4501953-0.8999023h-0.449707
		l-0.4501953-0.8999023h-0.4499512l-0.4499512-0.9001465h-0.4499512l-0.4499512-0.8999023h-0.4501953l-0.449707-0.8999023
		h-0.4501953l-0.4499512-0.8999023h-0.4499512l-0.4499512-0.8999023h-0.4499512l-0.4499512-0.8999023h-0.4499512
		l-0.4499512-0.9001465h-0.4499512l-0.4501953-0.8999023h-0.449707l-0.4501953-0.8999023h-0.4499512l-0.4499512-0.9001465
		h-0.4499512l-0.4499512-0.8999023h-0.4501953l-0.449707-0.8999023h-0.4501953l-0.4499512-0.8999023h-0.4499512
		l-0.4499512-0.8999023h-0.4499512l-0.4499512-0.8999023h-0.4499512l-0.4499512-0.9001465h-0.4499512l-0.4501953-0.8999023
		h-0.449707l-0.4501953-0.8999023h-0.4499512l-0.4499512-0.9001465h-0.4499512l-0.4499512-0.8999023h-0.4499512
		l-0.4499512-0.8999023h-0.4501953l-0.4499512-0.8999023h-0.4499512l-0.4499512-0.8999023h-0.4499512l-0.4499512-0.8999023
		h-0.4499512l-0.4499512-0.9001465h-0.4499512l-0.4501953-0.8999023h-0.449707l-0.4501953-0.8999023h-0.4499512
		l-0.4499512-0.9001465h-0.4499512l-0.4499512-0.8999023h-0.4499512l-0.4499512-0.8999023h-0.4501953l-0.4499512-0.8999023
		h-0.4499512l-0.4499512-0.8999023h-0.4499512l-0.4499512-0.8999023h-0.4499512l-0.4499512-0.9001465h-0.4499512
		l-0.4501953-0.8999023h-0.449707l-0.4501953-0.8999023h-0.4499512l-0.4499512-0.8999023h-0.4499512l-0.4499512-0.9001465
		h-0.4499512l-0.4499512-0.8999023h-0.4501953l-0.4499512-0.8999023h-0.4499512l-0.4499512-0.8999023h-0.4499512
		l-0.4499512-0.8999023h-0.4499512l-0.4499512-0.9001465h-0.4499512l-0.4501953-0.8999023h-0.449707l-0.4501953-0.8999023
		h-0.4499512l-0.4499512-0.8999023h-0.4499512l-0.4499512-0.9001465h-0.4499512l-0.4499512-0.8999023h-0.4501953
		l-0.4499512-0.8999023h-0.4499512l-0.4499512-0.8999023h-0.4499512l-0.4499512-0.8999023h-0.4499512l-0.4499512-0.9001465
		h-0.4499512l-0.4501953-0.8999023h-0.449707l-0.4501953-0.8999023h-0.4499512l-0.4499512-0.8999023h-0.4499512
		l-0.4499512-0.9001465h-0.4499512l-0.4499512-0.8999023h-0.4501953l-0.4499512-0.8999023h-0.4499512l-0.4499512-0.8999023h-96
		l-8,16l16,80l0.5998535-0.6000977l0.3000488,1.5l0.6000977-0.6000977l0.3000488,1.5l0.5998535-0.5998535l0.3000488,1.4997559
		l0.5998535-0.5998535l0.3000488,1.5l0.6000977-0.6000977l0.2998047,1.5l0.6000977-0.6000977l0.2998047,1.5l0.6000977-0.5998535
		l0.3000488,1.4997559l0.5998535-0.5998535l0.3000488,1.5l0.5998535-0.6000977l0.3000488,1.5l0.5998535-0.6000977l0.3000488,1.5
		l0.6000977-0.6000977l0.3000488,1.5l0.5998535-0.5998535l0.3000488,1.4997559l0.5998535-0.5998535l0.3000488,1.5
		l0.6000977-0.6000977l0.2998047,1.5l0.6000977-0.6000977l0.2998047,1.5l0.6000977-0.5998535l0.3000488,1.4997559
		l0.5998535-0.5998535l0.3000488,1.5l0.5998535-0.6000977l0.3000488,1.5l0.5998535-0.6000977l0.3000488,1.5l0.6000977-0.6000977
		l0.3000488,1.5l0.5998535-0.5998535l0.3000488,1.4997559l0.5998535-0.5998535l0.3000488,1.5l0.6000977-0.6000977l0.2998047,1.5
		l0.6000977-0.6000977l0.2998047,1.5l0.6000977-0.5998535l0.3000488,1.4997559l0.5998535-0.5998535l0.3000488,1.5
		l0.5998535-0.6000977l0.3000488,1.5l0.5998535-0.6000977l0.3000488,1.5l0.6000977-0.6000977l0.3000488,1.5l0.5998535-0.5998535
		l0.3000488,1.4997559l0.5998535-0.5998535l0.3000488,1.4997559l0.6000977-0.5998535l0.2998047,1.5l0.4431152-0.4431152
		l-9.3295898,95.9082031l7.199707,7.199707l6.894043,6.894043l1.2055664,1.2055664l2.8442383,2.8442383l2.8442383,2.8442383
		l1.2055664,1.2055664l1.2055664,1.2055664l2.8442383,2.8442383l2.8442383,2.8442383l0.7556152,0.7556152l0.7553711,0.7556152
		l2.8444824,2.8442383l2.8442383,2.8442383l1.2055664,1.2055664l1.2053223,1.2055664l2.8444824,2.8442383l2.8442383,2.8442383
		l0.7556152,0.7553711l0.7553711,0.7556152l2.8442383,2.8444824l2.8444824,2.8442383l1.2053223,1.2055664l1.2055664,1.2053223
		l2.8442383,2.8444824l2.8444824,2.8442383l1.2053223,1.2055664l6.8942871,6.894043l1.5109863,1.5109863l2.8442383,2.8442383
		l2.8442383,2.8444824l1.2055664,1.2053223l1.2055664,1.2055664l2.8442383,2.8442383l2.5224609,2.5227051
		C2081.1738281,794.0740967,2132.2185059,732.427124,2140.5759277,657.8638916z"/>
	<g>
		<g>
			<polygon class="st8" points="2005.7653809,530.770813 1893.7653809,530.770813 1901.7653809,514.770813 1997.7653809,514.770813 
							"/>
		</g>
		<g>
			<polygon class="st5" points="1957.7653809,610.770813 1941.7653809,610.770813 1933.7653809,578.770813 1965.7653809,578.770813 
							"/>
		</g>
		<g>
			<polygon class="st9" points="1909.7653809,610.770813 1941.7653809,578.770813 1901.7653809,514.770813 1893.7653809,530.770813 
							"/>
		</g>
		<g>
			<polygon class="st9" points="1989.7653809,610.770813 1957.7653809,578.770813 1997.7653809,514.770813 2005.7653809,530.770813 
							"/>
		</g>
		<g>
			<defs>
				<polygon id="SVGID_1_" points="1929.6774902,735.0345459 1941.7653809,610.770813 1957.7653809,610.770813 
					1969.8532715,735.0345459 1949.7653809,755.1224365 				"/>
			</defs>
			<use xlink:href="#SVGID_1_"  style="overflow:visible;fill:#242C3C;"/>
			<clipPath id="SVGID_2_">
				<use xlink:href="#SVGID_1_"  style="overflow:visible;"/>
			</clipPath>
			<g class="st10">
				<g>
					<g>
						<g>
							
								<rect x="1946.7650146" y="541.9760132" transform="matrix(0.3749796 0.9270331 -0.9270331 0.3749796 1761.0715332 -1441.7828369)" class="st5" width="6.0003257" height="86.294548"/>
						</g>
					</g>
				</g>
				<g>
					<g>
						<g>
							
								<rect x="1946.7650146" y="557.9760132" transform="matrix(0.3749796 0.9270331 -0.9270331 0.3749796 1775.9040527 -1431.7824707)" class="st5" width="6.0003257" height="86.294548"/>
						</g>
					</g>
				</g>
				<g>
					<g>
						<g>
							
								<rect x="1946.7650146" y="573.9760132" transform="matrix(0.3749796 0.9270331 -0.9270331 0.3749796 1790.7365723 -1421.7821045)" class="st5" width="6.0003257" height="86.294548"/>
						</g>
					</g>
				</g>
				<g>
					<g>
						<g>
							
								<rect x="1946.7650146" y="589.9760132" transform="matrix(0.3749796 0.9270331 -0.9270331 0.3749796 1805.5690918 -1411.7818604)" class="st5" width="6.0003257" height="86.294548"/>
						</g>
					</g>
				</g>
				<g>
					<g>
						<g>
							
								<rect x="1946.7650146" y="605.9760132" transform="matrix(0.3749796 0.9270331 -0.9270331 0.3749796 1820.4016113 -1401.7814941)" class="st5" width="6.0003257" height="86.294548"/>
						</g>
					</g>
				</g>
				<g>
					<g>
						<g>
							
								<rect x="1946.7650146" y="621.9760132" transform="matrix(0.3749796 0.9270331 -0.9270331 0.3749796 1835.2341309 -1391.7811279)" class="st5" width="6.0003257" height="86.294548"/>
						</g>
					</g>
				</g>
				<g>
					<g>
						<g>
							
								<rect x="1946.7650146" y="637.9760132" transform="matrix(0.3749796 0.9270331 -0.9270331 0.3749796 1850.0666504 -1381.7807617)" class="st5" width="6.0003257" height="86.294548"/>
						</g>
					</g>
				</g>
				<g>
					<g>
						<g>
							
								<rect x="1946.7650146" y="653.9760132" transform="matrix(0.3749796 0.9270331 -0.9270331 0.3749796 1864.899292 -1371.7805176)" class="st5" width="6.0003257" height="86.294548"/>
						</g>
					</g>
				</g>
				<g>
					<g>
						<g>
							
								<rect x="1946.7650146" y="669.9760132" transform="matrix(0.3749796 0.9270331 -0.9270331 0.3749796 1879.7318115 -1361.7801514)" class="st5" width="6.0003257" height="86.294548"/>
						</g>
					</g>
				</g>
				<g>
					<g>
						<g>
							
								<rect x="1946.7650146" y="685.9760132" transform="matrix(0.3749796 0.9270331 -0.9270331 0.3749796 1894.5643311 -1351.7797852)" class="st5" width="6.0003257" height="86.294548"/>
						</g>
					</g>
				</g>
				<g>
					<g>
						<g>
							
								<rect x="1946.7650146" y="701.9760132" transform="matrix(0.3749796 0.9270331 -0.9270331 0.3749796 1909.3968506 -1341.779541)" class="st5" width="6.0003257" height="86.294548"/>
						</g>
					</g>
				</g>
			</g>
		</g>
	</g>
</g>
<g id="plus">
	<g>
		<g>
			<path class="st11" d="M1532.1293945,737.7846069c2.5,0,3.5,0.5,3.5,3.5v102.5h98.5c2.5,0,3,1,3,4v35.5c0,3-0.5,3.5-3.5,3.5h-98
				v104.5c0,2-0.5,2.5-3.5,2.5h-38.5c-2.5,0-3-1-3-3v-104h-97.9995117c-3,0-4-0.5-4-3.5v-36c0-2.5,1.5-3.5,3.5-3.5h98.4995117v-103
				c0.5-2,1-3,3-3H1532.1293945z"/>
		</g>
		<g>
			<g>
				<path class="st12" d="M1529.1293945,734.7846069c2.5,0,3.5,0.5,3.5,3.5v102.5h98.5c2.5,0,3,1,3,4v35.5c0,3-0.5,3.5-3.5,3.5h-98
					v104.5c0,2-0.5,2.5-3.5,2.5h-38.5c-2.5,0-3-1-3-3v-104h-97.9995117c-3,0-4-0.5-4-3.5v-36c0-2.5,1.5-3.5,3.5-3.5h98.4995117v-103
					c0.5-2,1-3,3-3H1529.1293945z"/>
			</g>
		</g>
	</g>
</g>
<g id="phone">
	<path class="st13" d="M1236.9311523,1807.5699463c6.2392578-8.3874512,9.9335938-18.7802734,9.9335938-30.0369873V122.603157
		c0-27.822998-22.5554199-50.3781738-50.3786621-50.3781738c0,0-213.0275879-22.6699257-422.1748047-22.6699257
		c-206.4572754,0-409.0686035,22.6699257-409.0686035,22.6699257c-27.8227539,0-50.3779297,22.5551758-50.3779297,50.3781738
		V1777.532959c0,11.2567139,3.6943359,21.6495361,9.9335938,30.0369873H1236.9311523z"/>
	<path class="st14" d="M373.1933289,258.4674072h815.3425293c2.7821045,0,5.0378418,2.2554626,5.0378418,5.0378418v1319.9920654
		c0,2.7824707-2.2557373,5.0378418-5.0378418,5.0378418H373.1933289c-2.7824097,0-5.0378418-2.2553711-5.0378418-5.0378418
		V263.505249C368.1554871,260.7228699,370.4109192,258.4674072,373.1933289,258.4674072z"/>
	<path class="st15" d="M481.1131287,1427.4031982h596.9837646c26.4320068,0,47.8594971,21.4274902,47.8594971,47.8594971
		s-21.4274902,47.8594971-47.8594971,47.8594971H481.1131287c-26.4320068,0-47.8594666-21.4274902-47.8594666-47.8594971
		S454.6811218,1427.4031982,481.1131287,1427.4031982z"/>
	<path class="st15" d="M798.4968872,1213.295166h327.4595337v176.3242188H798.4968872V1213.295166z"/>
	<path class="st15" d="M445.8482666,1213.295166h327.4594727v176.3242188H445.8482666V1213.295166z"/>
	<path class="st15" d="M445.8482666,439.9869995h672.5513916v80.6054077H445.8482666V439.9869995z"/>
	<path class="st15" d="M373.1933289,258.4674072h815.3425293c2.7821045,0,5.0378418,2.2554626,5.0378418,5.0378418v98.3164368
		c0,2.7824097-2.2557373,5.0378418-5.0378418,5.0378418H373.1933289c-2.7824097,0-5.0378418-2.2554321-5.0378418-5.0378418
		V263.505249C368.1554871,260.7228699,370.4109192,258.4674072,373.1933289,258.4674072z"/>
	<path class="st16" d="M700.2590942,178.6491699h161.2108154c6.9556885,0,12.5945435,5.638855,12.5945435,12.5946045v1.4168854
		c0,6.9557495-5.638855,12.5946045-12.5945435,12.5946045H700.2590942c-6.9557495,0-12.5946045-5.638855-12.5946045-12.5946045
		v-1.4168854C687.6644897,184.2880249,693.3033447,178.6491699,700.2590942,178.6491699z"/>
	<path class="st14" d="M777.0861206,1654.105957c13.2160034,0,23.9296875,10.713623,23.9296875,23.9296875
		s-10.7136841,23.9296875-23.9296875,23.9296875s-23.9297485-10.713623-23.9297485-23.9296875
		S763.8701172,1654.105957,777.0861206,1654.105957z"/>
	<path class="st17" d="M1156.1833496,302.0762024c-0.8682861,0-1.5717773-0.7032776-1.5739746-1.5718079
		c-0.0028076-0.6566772-0.1773682-16.0606384-12.2825928-16.0606384c-12.1048584,0-12.2781982,15.4039612-12.2794189,16.0606384
		c-0.0025635,0.8685303-0.7060547,1.5718079-1.5743408,1.5718079h-0.0012207
		c-0.8696289-0.002533-1.5731201-0.7058105-1.5731201-1.5743103c0-0.1917114,0.0194092-4.7595215,1.8398438-9.3918152
		c2.5217285-6.4199524,7.2211914-9.8146973,13.5882568-9.8146973c12.2061768,0,15.4309082,12.5625916,15.4309082,19.2065125
		c0,0.8684998-0.7034912,1.5717773-1.5717773,1.5743103H1156.1833496z"/>
	<path class="st17" d="M1163.7401123,301.4467163c0-1.3919373-1.126709-2.5189209-2.5189209-2.5189209h-45.3404541
		c-1.3919678,0-2.5186768,1.1269836-2.5186768,2.5189209l-2.5189209,37.7832947c0,1.3929443,1.126709,2.519165,2.5189209,2.519165
		h50.3780518c1.3924561,0,2.519165-1.1262207,2.519165-2.519165L1163.7401123,301.4467163z M1127.2160645,311.522644
		c-2.0861816,0-3.7783203-1.6901855-3.7783203-3.7791138c0-2.0881958,1.6921387-3.7781372,3.7783203-3.7781372
		c2.0856934,0,3.7781982,1.6899414,3.7781982,3.7781372C1130.9942627,309.8324585,1129.3017578,311.522644,1127.2160645,311.522644z
		 M1149.8863525,311.522644c-2.0861816,0-3.7783203-1.6901855-3.7783203-3.7791138
		c0-2.0881958,1.6921387-3.7781372,3.7783203-3.7781372c2.0856934,0,3.7783203,1.6899414,3.7783203,3.7781372
		C1153.6646729,309.8324585,1151.9720459,311.522644,1149.8863525,311.522644z"/>
	<path class="st17" d="M1130.8946533,285.073761c1.4071045-1.6234436,3.0550537-2.870575,4.9406738-3.7098694
		c-0.3554688-0.0219116-0.6934814-0.068512-1.0650635-0.068512c-6.3673096,0-11.0670166,3.3947449-13.588501,9.8146973
		c-1.8201904,4.6322937-1.8400879,9.2001038-1.8400879,9.3918152c0,0.8684998,0.7034912,1.5717773,1.5731201,1.5743103h0.0012207
		c0.8687744,0,1.5717773-0.7032776,1.5743408-1.5718079C1122.4915771,299.9265442,1122.6334229,287.9563904,1130.8946533,285.073761
		z"/>
	<path class="st17" d="M1142.3267822,285.7034912c-0.6861572,0-1.328125,0.0589294-1.9320068,0.1644897
		c6.5396729,3.8300171,6.6564941,14.1029053,6.6578369,14.6364136c0.0024414,0.8685303,0.7058105,1.5718079,1.5742188,1.5718079
		h0.0023193c0.8685303-0.002533,1.5720215-0.7058105,1.5720215-1.5743103c0-3.9723511-1.1722412-10.0459595-4.7080078-14.301178
		C1144.5484619,285.8977051,1143.5124512,285.7034912,1142.3267822,285.7034912z"/>
	<path class="st18" d="M400.5077209,291.3707886h57.9351501v7.5567627h-57.9351501V291.3707886z"/>
	<path class="st18" d="M400.5077209,309.0032349h57.9351501v7.5567627h-57.9351501V309.0032349z"/>
	<path class="st18" d="M400.5077209,326.6356506h57.9351501v7.5567627h-57.9351501V326.6356506z"/>
	<path class="st19" d="M602.9500122,1447.7536621c-1.5928955-1.2130127-3.8649292-0.9089355-5.0761719,0.680542
		l-31.0192261,40.6201172l-11.5509644-13.6585693c-1.2907104-1.5257568-3.5766602-1.7185059-5.1025391-0.4278564
		c-1.52771,1.2926025-1.7185669,3.5769043-0.4280396,5.1027832l14.4595337,17.0991211
		c0.6894531,0.8150635,1.7008057,1.2835693,2.7651978,1.2835693c0.0300903,0,0.0601807,0,0.0901489-0.0018311
		c1.0963135-0.0263672,2.1217651-0.5498047,2.7883911-1.4215088l33.7543945-44.2001953
		C604.8436279,1451.2401123,604.5396118,1448.9683838,602.9500122,1447.7536621z"/>
	<g>
		<path class="st19" d="M649.2177734,1482.9193115l-3.0732422,8.7666016
			c-0.050293,0.3027344-0.2016602,0.4033203-0.5039062,0.4033203h-5.1391602c-0.3530273,0-0.4536133-0.1513672-0.3530273-0.5039062
			c2.7211914-7.7089844,7.3061523-20.5566406,10.5307617-29.2734375c0.1508789-0.5039062,0.3022461-1.0078125,0.402832-2.7709961
			c0-0.2016602,0.1513672-0.3022461,0.3022461-0.3022461h6.953125c0.2519531,0,0.3022461,0.050293,0.4033203,0.2519531
			c3.7285156,10.3286133,7.8095703,21.7158203,11.6386719,32.1450195c0.1005859,0.3022461,0,0.4536133-0.3022461,0.4536133
			h-5.6430664c-0.2519531,0-0.3525391-0.1005859-0.4536133-0.3022461l-3.2246094-8.8676758H649.2177734z M659.3955078,1477.9818115
			c-1.0078125-3.3759766-3.4765625-10.1777344-4.484375-13.7050781h-0.050293
			c-0.7558594,3.3256836-2.8212891,9.019043-4.3330078,13.7050781H659.3955078z"/>
		<path class="st19" d="M675.6147461,1459.5911865c0-0.2016602,0.050293-0.3022461,0.3525391-0.3525391
			c3.0234375-0.1010742,6.8022461-0.1513672,10.0771484-0.1513672c11.3867188,0,17.1308594,6.4995117,17.1308594,16.1733398
			c0,14.3598633-11.2861328,16.9291992-18.1386719,16.9291992c-3.5771484,0-6.1972656-0.050293-9.0693359-0.1005859
			c-0.2519531,0-0.3525391-0.1005859-0.3525391-0.4536133V1459.5911865z M681.7114258,1487.3529053
			c0.9067383,0.0507812,2.1162109,0.0507812,3.5268555,0.0507812c7.0537109,0,11.6889648-3.6782227,11.6889648-11.9916992
			c0-7.6079102-3.9799805-11.487793-10.8828125-11.487793c-2.2675781,0-3.8798828,0.050293-4.3330078,0.1010742V1487.3529053z"/>
		<path class="st19" d="M709.871582,1459.5911865c0-0.2016602,0.050293-0.3022461,0.3525391-0.3525391
			c3.0234375-0.1010742,6.8022461-0.1513672,10.0771484-0.1513672c11.3867188,0,17.1308594,6.4995117,17.1308594,16.1733398
			c0,14.3598633-11.2861328,16.9291992-18.1386719,16.9291992c-3.5771484,0-6.1972656-0.050293-9.0693359-0.1005859
			c-0.2519531,0-0.3525391-0.1005859-0.3525391-0.4536133V1459.5911865z M715.9682617,1487.3529053
			c0.9067383,0.0507812,2.1162109,0.0507812,3.5268555,0.0507812c7.0537109,0,11.6889648-3.6782227,11.6889648-11.9916992
			c0-7.6079102-3.9799805-11.487793-10.8828125-11.487793c-2.2675781,0-3.8798828,0.050293-4.3330078,0.1010742V1487.3529053z"/>
		<path class="st19" d="M762.5170898,1464.1258545h-10.1274414c-0.3022461,0-0.3525391-0.1513672-0.3022461-0.4536133
			l0.6552734-4.0810547c0.050293-0.2519531,0.1508789-0.3525391,0.453125-0.3525391h25.394043
			c0.3022461,0,0.402832,0.1005859,0.453125,0.402832l0.4536133,3.9804688
			c0.050293,0.3525391-0.050293,0.5039062-0.3525391,0.5039062h-10.5302734v27.5097656
			c0,0.3022461-0.1010742,0.4536133-0.4033203,0.4536133h-5.1894531c-0.3525391,0.050293-0.5039062-0.1005859-0.5039062-0.4536133
			V1464.1258545z"/>
		<path class="st19" d="M812.4458008,1475.4622803c0,10.7822266-6.4492188,17.1308594-15.5688477,17.1308594
			c-9.6738281,0-15.6191406-6.7011719-15.6191406-17.0302734c0-10.1269531,6.4492188-16.878418,15.6694336-16.878418
			C806.5004883,1458.6844482,812.3955078,1466.1409912,812.4458008,1475.4622803z M797.0786133,1487.5042725
			c5.6933594,0,9.1196289-4.534668,9.1196289-11.890625c0-7.1044922-3.6279297-11.8911133-9.371582-11.8911133
			c-5.3408203,0-9.2709961,4.2324219-9.2709961,11.8911133
			C787.5556641,1482.6170654,791.0322266,1487.5042725,797.0786133,1487.5042725z"/>
		<path class="st19" d="M847.2045898,1458.6844482c3.1743164,0,5.6933594,0.453125,7.003418,1.1083984
			c0.2016602,0.1005859,0.2519531,0.2016602,0.2519531,0.5039062v4.5849609c0,0.3525391-0.2016602,0.3525391-0.3525391,0.3022461
			c-1.6625977-0.7055664-3.8291016-1.2597656-6.7514648-1.2597656c-6.902832,0-11.6894531,4.3837891-11.6894531,11.6386719
			c0,9.1196289,6.550293,11.5888672,11.5380859,11.5888672c2.9223633,0,5.4414062-0.6049805,7.2553711-1.3603516
			c0.2016602-0.1010742,0.3525391,0,0.3525391,0.3022461v4.3833008c0,0.3022461-0.050293,0.5039062-0.3525391,0.6044922
			c-1.7631836,0.9072266-4.7866211,1.5117188-8.3134766,1.5117188c-8.5654297,0-16.7275391-4.8369141-16.7275391-16.8789062
			C829.4189453,1466.1917725,836.3720703,1458.6844482,847.2045898,1458.6844482z"/>
		<path class="st19" d="M868.2607422,1482.9193115l-3.0732422,8.7666016
			c-0.050293,0.3027344-0.2016602,0.4033203-0.5039062,0.4033203h-5.1391602c-0.3530273,0-0.4536133-0.1513672-0.3530273-0.5039062
			c2.7211914-7.7089844,7.3061523-20.5566406,10.5307617-29.2734375c0.1508789-0.5039062,0.3022461-1.0078125,0.402832-2.7709961
			c0-0.2016602,0.1513672-0.3022461,0.3022461-0.3022461h6.953125c0.2519531,0,0.3022461,0.050293,0.4033203,0.2519531
			c3.7285156,10.3286133,7.8095703,21.7158203,11.6386719,32.1450195c0.1005859,0.3022461,0,0.4536133-0.3022461,0.4536133
			h-5.6430664c-0.2519531,0-0.3525391-0.1005859-0.4536133-0.3022461l-3.2246094-8.8676758H868.2607422z M878.4384766,1477.9818115
			c-1.0078125-3.3759766-3.4765625-10.1777344-4.484375-13.7050781h-0.050293
			c-0.7558594,3.3256836-2.8212891,9.019043-4.3330078,13.7050781H878.4384766z"/>
		<path class="st19" d="M895.1113281,1492.0892334c-0.3022461,0-0.4033203-0.1005859-0.4033203-0.4033203v-32.0444336
			c0-0.2519531,0.050293-0.402832,0.3022461-0.402832c2.6704102-0.1010742,5.3911133-0.1513672,9.9257812-0.1513672
			c7.9106445,0,12.6464844,3.2246094,12.6464844,9.472168c0,4.7363281-2.8212891,7.5581055-6.9023438,8.918457
			c1.2592773,1.6123047,9.0688477,11.7900391,10.5805664,14.0571289c0.2016602,0.3022461,0.1513672,0.5541992-0.1508789,0.5541992
			h-6.2983398c-0.402832,0-0.5541992-0.1005859-0.7055664-0.2519531c-1.5112305-2.0151367-5.9956055-8.5654297-8.2124023-11.840332
			c-0.4033203-0.7055664-0.7055664-0.9067383-1.6123047-0.9067383h-3.6279297v12.5957031
			c0,0.3027344-0.1005859,0.4033203-0.3525391,0.4033203H895.1113281z M904.6337891,1474.2532959
			c4.8369141,0,6.902832-2.1665039,6.902832-5.3408203c0-3.3256836-2.5698242-5.0385742-6.902832-5.0385742
			c-2.3173828,0-3.6274414,0.050293-3.9804688,0.1005859v10.2788086H904.6337891z"/>
		<path class="st19" d="M931.4355469,1464.1258545h-10.1274414c-0.3022461,0-0.3525391-0.1513672-0.3022461-0.4536133
			l0.6552734-4.0810547c0.050293-0.2519531,0.1508789-0.3525391,0.453125-0.3525391h25.394043
			c0.3022461,0,0.402832,0.1005859,0.453125,0.402832l0.4536133,3.9804688
			c0.050293,0.3525391-0.050293,0.5039062-0.3525391,0.5039062h-10.5302734v27.5097656
			c0,0.3022461-0.1010742,0.4536133-0.4033203,0.4536133h-5.1894531c-0.3530273,0.050293-0.5039062-0.1005859-0.5039062-0.4536133
			V1464.1258545z"/>
	</g>
	<g>
		<g>
			<path class="st20" d="M678.0467529,942.6112671l-18.5706787,1.3503418
				c0.0557251,3.6016235,0.1114502,6.6768799,0.1498413,8.8916016c0.4494629,23.034668,13.5245972,27.87323,24.4234009,27.87323
				c1.5751343,0,2.5509033-0.1113892,2.5509033-0.1113892c0.1113892,0,0.2247314-0.0384521,0.3380737-0.0384521
				l30.9696045-2.9638062c1.1813354-3.6381226,1.3311768-6.3771973,1.3311768-6.3771973
				s-4.0894775-194.6729126-5.2150879-219.2461548c-0.2247314-5.4666748-1.7633057-9.875-3.9396362-13.4400635
				c-11.2906494-0.9085693-21.4960938-1.715332-29.2062988-2.2589111c-1.1813354-0.0845337-2.3434448-0.1229248-3.4325562-0.1229248
				c-7.5776978,0-13.2422485,1.932312-16.843811,5.7682495c-5.5147095,5.8720093-5.0095215,14.8000488-5.0095215,14.8384399
				c0.0192261,0.1402588,0.0192261,0.270874,0.0192261,0.4110718c0,0.2823486,0.1132812,5.4974365,0.2996216,13.9472046
				c14.9882812,0.8355713,25.9985352,1.4348755,25.9985352,1.4348755s17.258728,3.7244873,17.9905396,21.4134521
				c0.8067627,19.2929077,0.6934204,127.2457886,0.6934204,127.2457886S702.5066528,938.8214722,678.0467529,942.6112671z"/>
			<path class="st20" d="M618.8273315,946.887085l-31.1021729,2.2512207c0,0-25.6047363,3.5266113-26.2040405-24.5348511
				c-0.4129639-20.7104492-2.9638062-137.8161621-2.9638062-137.8161621s-1.7633667-21.7131348,24.5732422-19.9497681
				c7.8773193,0.5339966,19.6213379,1.246582,32.3199463,1.9880371
				c-0.3572388-19.3293457-0.6760864-36.2692261-0.9200439-49.2310181
				c-16.6190796-1.2466431-32.5063477-2.5604858-43.4800415-3.7418213
				c-34.7594604-3.7799683-32.621582,25.3704224-32.621582,25.3704224s4.1835938,214.9300537,4.9711304,241.2301025
				c0.956604,31.3999023,34.7786865,26.2982178,34.7786865,26.2982178l41.810791-4.4640503
				C619.6705933,988.7555542,619.2576294,968.984375,618.8273315,946.887085z"/>
			<path class="st20" d="M990.6877441,680.27771c-1.5366211-40.2457275-36.9146118-48.7056885-36.9146118-48.7056885
				s-122.6030884-18.4578857-176.3077393-25.1827393c-53.723877-6.6873779-50.385498,45.3479004-50.385498,45.3479004
				s12.1934814,379.486084,13.4689331,426.494751c1.4252319,56.0115967,53.6854248,47.008667,53.6854248,47.008667
				l184.7114258-31.9262695c33.578186-6.71521,35.2666016-48.6970215,35.2666016-48.6970215
				S992.3953857,724.171875,990.6877441,680.27771z M949.3648071,1002.6373901l-137.3666382,14.2180786
				c0,0-40.0110474,6.0410156-40.9119263-42.5427246c-0.6569214-35.7908936-8.5726929-240.9208374-8.5726929-240.9208374
				s-2.7563477-37.6013184,38.416748-34.5155029c42.0009766,3.1138916,142.6758423,10.7672729,142.6758423,10.7672729
				s26.9359131,6.4241943,28.1172485,37.1134033c1.2753906,33.3898926,12.9060669,218.7755737,12.9060669,218.7755737
				S987.6489868,996.0335693,949.3648071,1002.6373901z"/>
			<path class="st20" d="M811.2662964,1009.6138916l52.9171143-5.4763184
				c-2.4375-53.8736572-11.9302979-263.4484253-13.2057495-293.7999268c0-0.1500244-0.036499-0.2814331-0.036499-0.4313965
				c-19.3024292-1.4539185-37.6867676-2.8324585-50.5736694-3.7892456
				c-1.4060669-0.1125488-2.7947998-0.1594238-4.1067505-0.1594238c-8.8166504,0-15.5126953,2.3635864-19.9036865,7.0437012
				c-7.2588501,7.7380981-6.6019287,19.7797852-6.6019287,19.8643188c0.0192261,0.0845337,0.0192261,0.1594238,0.0192261,0.2439575
				c0,0.1497803,0.0556641,1.2658081,0.1306152,3.1885986c21.4960938,1.8574219,37.7982178,3.2922974,37.7982178,3.2922974
				s23.2036743,5.2150879,24.2543945,30.3607178c1.0679932,27.3584595,7.708313,175.8103027,7.708313,175.8103027
				s2.6084595,25.0246582-30.3684082,30.3895264l-30.689209,2.925415
				c2.1206055,25.2493896,16.8457031,30.725708,29.2446899,30.725708c1.8747559,0,3.0579834-0.1498413,3.0579834-0.1498413l0,0
				C811.0223999,1009.6522827,811.1356812,1009.6138916,811.2662964,1009.6138916z"/>
			<path class="st20" d="M730.3818359,983.6903076l-42.730896,4.0894165c0,0-34.5155029,4.9903564-35.2666016-34.8151245
				c-0.5628052-29.3369141-4.0125732-195.6275635-4.0125732-195.6275635s-2.401062-30.7736816,33.0133667-28.288147
				c10.3917236,0.7318726,25.1725464,1.9227905,41.0060425,3.2269897
				c-1.0142212-31.6361694-1.8209839-56.7533569-2.2512207-69.9216919
				c-20.7469482-2.0444946-40.6679688-4.079834-54.9801025-5.711792
				c-46.8011475-5.3179932-43.8565063,36.0344849-43.8565063,36.0344849s5.5703735,305.045105,6.6594849,342.4111328
				c1.2754517,44.5327148,46.8203735,37.3660889,46.8203735,37.3660889l58.111084-7.4279785
				C732.369873,1047.5062256,731.4690552,1018.5054321,730.3818359,983.6903076z"/>
		</g>
		<g>
			<g>
				<g>
					<path class="st21" d="M675.0467529,939.6112671l-18.5706787,1.3503418
						c0.0557251,3.6016235,0.1114502,6.6768799,0.1498413,8.8916016c0.4494629,23.034668,13.5245972,27.87323,24.4234009,27.87323
						c1.5751343,0,2.5509033-0.1113892,2.5509033-0.1113892c0.1113892,0,0.2247314-0.0384521,0.3380737-0.0384521
						l30.9696045-2.9638062c1.1813354-3.6381226,1.3311768-6.3771973,1.3311768-6.3771973
						s-4.0894775-194.6729126-5.2150879-219.2461548c-0.2247314-5.4666748-1.7633057-9.875-3.9396362-13.4400635
						c-11.2906494-0.9085693-21.4960938-1.715332-29.2062988-2.2589111
						c-1.1813354-0.0845337-2.3434448-0.1229248-3.4325562-0.1229248c-7.5776978,0-13.2422485,1.932312-16.843811,5.7682495
						c-5.5147095,5.8720093-5.0095215,14.8000488-5.0095215,14.8384399c0.0192261,0.1402588,0.0192261,0.270874,0.0192261,0.4110718
						c0,0.2823486,0.1132812,5.4974365,0.2996216,13.9472046c14.9882812,0.8355713,25.9985352,1.4348755,25.9985352,1.4348755
						s17.258728,3.7244873,17.9905396,21.4134521c0.8067627,19.2929077,0.6934204,127.2457886,0.6934204,127.2457886
						S699.5066528,935.8214722,675.0467529,939.6112671z"/>
					<path class="st21" d="M615.8273315,943.887085l-31.1021729,2.2512207c0,0-25.6047363,3.5266113-26.2040405-24.5348511
						c-0.4129639-20.7104492-2.9638062-137.8161621-2.9638062-137.8161621s-1.7633667-21.7131348,24.5732422-19.9497681
						c7.8773193,0.5339966,19.6213379,1.246582,32.3199463,1.9880371
						c-0.3572388-19.3293457-0.6760864-36.2692261-0.9200439-49.2310181
						c-16.6190796-1.2466431-32.5063477-2.5604858-43.4800415-3.7418213
						c-34.7594604-3.7799683-32.621582,25.3704224-32.621582,25.3704224s4.1835938,214.9300537,4.9711304,241.2301025
						c0.956604,31.3999023,34.7786865,26.2982178,34.7786865,26.2982178l41.810791-4.4640503
						C616.6705933,985.7555542,616.2576294,965.984375,615.8273315,943.887085z"/>
				</g>
				<path class="st21" d="M987.6877441,677.27771c-1.5366211-40.2457275-36.9146118-48.7056885-36.9146118-48.7056885
					s-122.6030884-18.4578857-176.3077393-25.1827393c-53.723877-6.6873779-50.385498,45.3479004-50.385498,45.3479004
					s12.1934814,379.486084,13.4689331,426.494751c1.4252319,56.0115967,53.6854248,47.008667,53.6854248,47.008667
					l184.7114258-31.9262695c33.578186-6.71521,35.2666016-48.6970215,35.2666016-48.6970215
					S989.3953857,721.171875,987.6877441,677.27771z M946.3648071,999.6373901l-137.3666382,14.2180786
					c0,0-40.0110474,6.0410156-40.9119263-42.5427246c-0.6569214-35.7908936-8.5726929-240.9208374-8.5726929-240.9208374
					s-2.7563477-37.6013184,38.416748-34.5155029c42.0009766,3.1138916,142.6758423,10.7672729,142.6758423,10.7672729
					s26.9359131,6.4241943,28.1172485,37.1134033c1.2753906,33.3898926,12.9060669,218.7755737,12.9060669,218.7755737
					S984.6489868,993.0335693,946.3648071,999.6373901z"/>
				<g>
					<path class="st21" d="M808.2662964,1006.6138916l52.9171143-5.4763184
						c-2.4375-53.8736572-11.9302979-263.4484253-13.2057495-293.7999268c0-0.1500244-0.036499-0.2814331-0.036499-0.4313965
						c-19.3024292-1.4539185-37.6867676-2.8324585-50.5736694-3.7892456
						c-1.4060669-0.1125488-2.7947998-0.1594238-4.1067505-0.1594238c-8.8166504,0-15.5126953,2.3635864-19.9036865,7.0437012
						c-7.2588501,7.7380981-6.6019287,19.7797852-6.6019287,19.8643188
						c0.0192261,0.0845337,0.0192261,0.1594238,0.0192261,0.2439575c0,0.1497803,0.0556641,1.2658081,0.1306152,3.1885986
						c21.4960938,1.8574219,37.7982178,3.2922974,37.7982178,3.2922974s23.2036743,5.2150879,24.2543945,30.3607178
						c1.0679932,27.3584595,7.708313,175.8103027,7.708313,175.8103027s2.6084595,25.0246582-30.3684082,30.3895264
						l-30.689209,2.925415c2.1206055,25.2493896,16.8457031,30.725708,29.2446899,30.725708
						c1.8747559,0,3.0579834-0.1498413,3.0579834-0.1498413l0,0
						C808.0223999,1006.6522827,808.1356812,1006.6138916,808.2662964,1006.6138916z"/>
					<path class="st21" d="M727.3818359,980.6903076l-42.730896,4.0894165c0,0-34.5155029,4.9903564-35.2666016-34.8151245
						c-0.5628052-29.3369141-4.0125732-195.6275635-4.0125732-195.6275635s-2.401062-30.7736816,33.0133667-28.288147
						c10.3917236,0.7318726,25.1725464,1.9227905,41.0060425,3.2269897
						c-1.0142212-31.6361694-1.8209839-56.7533569-2.2512207-69.9216919
						c-20.7469482-2.0444946-40.6679688-4.079834-54.9801025-5.711792
						c-46.8011475-5.3179932-43.8565063,36.0344849-43.8565063,36.0344849s5.5703735,305.045105,6.6594849,342.4111328
						c1.2754517,44.5327148,46.8203735,37.3660889,46.8203735,37.3660889l58.111084-7.4279785
						C729.369873,1044.5062256,728.4690552,1015.5054321,727.3818359,980.6903076z"/>
				</g>
			</g>
		</g>
	</g>
</g>
</svg>
