<?xml version="1.0" encoding="UTF-8" standalone="no"?>
<svg width="1828px" height="1759px" viewBox="0 0 1828 1759" version="1.1" xmlns="http://www.w3.org/2000/svg" xmlns:xlink="http://www.w3.org/1999/xlink" xmlns:sketch="http://www.bohemiancoding.com/sketch/ns">
    <title>Slice 1</title>
    <description>Created with Sketch (http://www.bohemiancoding.com/sketch)</description>
    <defs></defs>
    <g id="Page-1" stroke="none" stroke-width="1" fill="none" fill-rule="evenodd" sketch:type="MSPage">
        <g id="hero" sketch:type="MSLayerGroup" transform="translate(-349.000000, -48.000000)">
            <g id="circle" transform="translate(1793.000000, 443.000000)" fill="#F4B505" sketch:type="MSShapeGroup">
                <circle id="Oval" cx="192" cy="654" r="192"></circle>
                <circle id="Oval" cx="192" cy="192" r="192"></circle>
            </g>
            <g id="briefcase" transform="translate(1873.000000, 514.000000)" sketch:type="MSShapeGroup">
                <path d="M111.9,775.3 C212.5,775.3 295.1,697.9 303.3,599.3 L302.9,599.3 L302.9,598.2 L301.8,598.2 L301.8,597.1 L300.7,597.1 L300.7,596 L299.6,596 L299.6,594.9 L298.5,594.9 L298.5,593.8 L297.4,593.8 L297.4,592.7 L296.3,592.7 L296.3,591.6 L295.2,591.6 L295.2,590.5 L294.1,590.5 L294.1,589.4 L293,589.4 L293,588.3 L291.9,588.3 L291.9,587.2 L290.8,587.2 L290.8,586.1 L289.7,586.1 L289.7,585 L288.6,585 L288.6,583.9 L287.5,583.9 L287.5,582.8 L286.4,582.8 L286.4,581.7 L285.3,581.7 L285.3,580.6 L284.2,580.6 L284.2,579.5 L283.1,579.5 L283.1,578.4 L282,578.4 L282,577.3 L280.9,577.3 L280.9,576.2 L279.8,576.2 L279.8,575.1 L278.7,575.1 L278.7,574 L277.6,574 L277.6,572.9 L276.5,572.9 L276.5,571.8 L275.4,571.8 L275.4,570.7 L274.3,570.7 L274.3,569.6 L273.2,569.6 L273.2,568.5 L272.1,568.5 L272.1,567.4 L271,567.4 L271,566.3 L269.9,566.3 L269.9,565.2 L268.8,565.2 L268.8,564.1 L267.7,564.1 L267.7,563 L266.6,563 L266.6,561.9 L265.5,561.9 L265.5,560.8 L264.4,560.8 L264.4,559.7 L263.3,559.7 L263.3,558.6 L262.2,558.6 L262.2,557.5 L261.1,557.5 L261.1,556.4 L260,556.4 L260,555.3 L258.9,555.3 L258.9,554.2 L257.8,554.2 L257.8,553.1 L256.7,553.1 L256.7,552 L255.6,552 L255.6,550.9 L254.5,550.9 L254.5,549.8 L253.4,549.8 L253.4,548.7 L252.3,548.7 L252.3,547.6 L251.2,547.6 L251.2,546.5 L250.1,546.5 L250.1,545.4 L249,545.4 L249,544.3 L247.9,544.3 L247.9,543.2 L246.8,543.2 L246.8,542.1 L245.7,542.1 L245.7,541 L244.6,541 L244.6,539.9 L243.5,539.9 L243.5,538.8 L242.4,538.8 L242.4,537.7 L241.3,537.7 L241.3,536.6 L240.2,536.6 L240.2,535.5 L239.1,535.5 L239.1,534.4 L238,534.4 L238,533.3 L236.9,533.3 L236.9,532.2 L235.8,532.2 L235.8,531.1 L234.7,531.1 L234.7,530 L233.6,530 L233.6,528.9 L232.5,528.9 L232.5,527.8 L231.4,527.8 L231.4,526.7 L230.3,526.7 L230.3,525.6 L229.2,525.6 L229.2,524.5 L228.1,524.5 L228.1,523.4 L227,523.4 L227,522.3 L225.9,522.3 L225.9,521.2 L213.3,521.2 L213.3,520.6 L212.2,520.6 L212.2,519.5 L211.1,519.5 L211.1,518.4 L210,518.4 L210,517.3 L178,517.3 L178,521.3 L174.6,521.3 L173.8,520.5 C173.4,520.1 173.1,519.7 172.7,519.4 C172.3,519 172,518.6 171.6,518.3 C171.2,517.9 170.9,517.5 170.5,517.2 C170.1,516.8 169.8,516.4 169.4,516.1 C169,515.7 168.7,515.3 168.3,515 C167.9,514.6 167.6,514.2 167.2,513.9 C166.8,513.5 166.5,513.1 166.1,512.8 C165.7,512.4 165.4,512 165,511.7 C164.6,511.3 164.3,510.9 163.9,510.6 C163.5,510.2 163.2,509.8 162.8,509.5 C162.4,509.1 162.1,508.7 161.7,508.4 C161.3,508 161,507.6 160.6,507.3 C160.2,506.9 159.9,506.5 159.5,506.2 C159.1,505.8 158.8,505.4 158.4,505.1 C158,504.7 157.7,504.3 157.3,504 C156.9,503.6 156.6,503.2 156.2,502.9 C155.8,502.5 155.5,502.1 155.1,501.8 C154.7,501.4 154.4,501 154,500.7 C153.6,500.3 153.3,499.9 152.9,499.6 C152.5,499.2 152.2,498.8 151.8,498.5 C151.4,498.1 151.1,497.7 150.7,497.4 C150.3,497 150,496.6 149.6,496.3 C149.2,495.9 148.9,495.5 148.5,495.2 C145.6,492 141.3,489.9 136.7,489.9 L92.7,489.9 C83.9,489.9 76.7,497.1 76.7,505.9 L76.7,521.9 L54.1,521.9 L54.1,521.3 L53,521.3 L53,520.2 L51.9,520.2 L51.9,519.1 L50.8,519.1 L50.8,518 L18.8,518 L18.8,522 L2.8,522 L2.8,562 L2.8,599 L2.8,602 L2.8,606 L2.8,682 L3.9,682 L3.9,683.1 L5,683.1 L5,684.2 L6.1,684.2 L6.1,685.3 L7.2,685.3 L7.2,686.4 L8.3,686.4 L8.3,687.5 L9.4,687.5 L9.4,688.6 L10.5,688.6 L10.5,689.7 L11.6,689.7 L11.6,690.8 L12.7,690.8 L12.7,691.9 L13.8,691.9 L13.8,693 L14.9,693 L14.9,694.1 L16,694.1 L16,695.2 L17.1,695.2 L17.1,696.3 L18.2,696.3 L18.2,697.4 L19.3,697.4 L19.3,698.5 L20.4,698.5 L20.4,699.6 L21.5,699.6 L21.5,700.7 L22.6,700.7 L22.6,701.8 L23.7,701.8 L23.7,702.9 L24.8,702.9 L24.8,704 L25.9,704 L25.9,705.1 L27,705.1 L27,706.2 L28.1,706.2 L28.1,707.3 L29.2,707.3 L29.2,708.4 L30.3,708.4 L30.3,709.5 L31.4,709.5 L31.4,710.6 L32.5,710.6 L32.5,711.7 L33.6,711.7 L33.6,712.8 L34.7,712.8 L34.7,713.9 L35.8,713.9 L35.8,715 L36.9,715 L36.9,716.1 L38,716.1 L38,717.2 L39.1,717.2 L39.1,718.3 L40.2,718.3 L40.2,719.4 L41.3,719.4 L41.3,720.5 L42.4,720.5 L42.4,721.6 L43.5,721.6 L43.5,722.7 L44.6,722.7 L44.6,723.8 L45.7,723.8 L45.7,724.9 L46.8,724.9 L46.8,726 L47.9,726 L47.9,727.1 L49,727.1 L49,728.2 L50.1,728.2 L50.1,729.3 L51.2,729.3 L51.2,730.4 L52.3,730.4 L52.3,731.5 L53.4,731.5 L53.4,732.6 L54.5,732.6 L54.5,733.7 L55.6,733.7 L55.6,734.8 L56.7,734.8 L56.7,735.9 L57.8,735.9 L57.8,737 L58.9,737 L58.9,738.1 L60,738.1 L60,739.2 L61.1,739.2 L61.1,740.3 L62.2,740.3 L62.2,741.4 L63.3,741.4 L63.3,742.5 L64.4,742.5 L64.4,743.6 L65.5,743.6 L65.5,744.7 L66.6,744.7 L66.6,745.8 L67.7,745.8 L67.7,746.9 L68.8,746.9 L68.8,748 L69.9,748 L69.9,749.1 L71,749.1 L71,750.2 L72.1,750.2 L72.1,751.3 L73.2,751.3 L73.2,752.4 L74.3,752.4 L74.3,753.5 L75.4,753.5 L75.4,754.6 L76.5,754.6 L76.5,755.7 L77.6,755.7 L77.6,756.8 L78.7,756.8 L78.7,757.9 L79.8,757.9 L79.8,759 L80.9,759 L80.9,760.1 L82,760.1 L82,761.2 L83.1,761.2 L83.1,762.3 L84.2,762.3 L84.2,763.4 L85.3,763.4 L85.3,764.5 L86.4,764.5 L86.4,765.6 L87.5,765.6 L87.5,766.7 L88.6,766.7 L88.6,767.8 L89.7,767.8 L89.7,768.9 L90.8,768.9 L90.8,770 L91.9,770 L91.9,771.1 L93,771.1 L93,772.2 L94.1,772.2 L94.1,773.3 L95.2,773.3 L95.2,774.4 L96.3,774.4 L96.3,775 C101.1,775.1 106.5,775.3 111.9,775.3 L111.9,775.3 Z" id="Shape" fill="#E0A628"></path>
                <g id="Group" transform="translate(0.000000, 487.000000)">
                    <path d="M-0.1,32.3 L-0.1,72.3 L-0.1,109.3 L-0.1,112.3 L-0.1,192.3 L223.9,192.3 L223.9,112.3 L223.9,109.3 L223.9,72.3 L223.9,32.3 L-0.1,32.3 Z" id="Shape" fill="#283343"></path>
                    <path d="M133.9,12.3 C136.1,12.3 137.9,14.1 137.9,16.3 L137.9,48.3 C137.9,50.5 136.1,52.3 133.9,52.3 L89.9,52.3 C87.7,52.3 85.9,50.5 85.9,48.3 L85.9,16.3 C85.9,14.1 87.7,12.3 89.9,12.3 L133.9,12.3 L133.9,12.3 Z M133.9,0.3 L89.9,0.3 C81.1,0.3 73.9,7.5 73.9,16.3 L73.9,48.3 C73.9,57.1 81.1,64.3 89.9,64.3 L133.9,64.3 C142.7,64.3 149.9,57.1 149.9,48.3 L149.9,16.3 C149.9,7.5 142.7,0.3 133.9,0.3 L133.9,0.3 L133.9,0.3 Z" id="Shape" fill="#242C3C"></path>
                    <rect id="Rectangle" fill="#242C3C" x="16" y="28" width="32" height="8"></rect>
                    <rect id="Rectangle" fill="#242C3C" x="176" y="28" width="32" height="8"></rect>
                    <g transform="translate(0.000000, 32.000000)">
                        <path d="M223.9,77.3 L223.9,40.3 L223.9,0.3 L-0.1,0.3 L-0.1,40.3 L-0.1,77.3 L-0.1,80.3 L223.9,80.3 L223.9,77.3 Z" id="Shape" fill="#2B3A49"></path>
                        <rect id="Rectangle" fill="#283343" x="0" y="80" width="224" height="80"></rect>
                    </g>
                    <rect id="Rectangle" fill="#242C3C" x="0" y="112" width="224" height="4"></rect>
                    <g transform="translate(96.000000, 104.000000)" id="Rectangle">
                        <rect fill="#C2C3C6" x="0" y="0" width="32" height="8"></rect>
                        <rect fill="#EFEEEE" x="0" y="8" width="32" height="8"></rect>
                    </g>
                </g>
                <path d="M301.695359,143.573245 L301.486076,143.573245 L301.067511,142.681589 L300.648945,142.681589 L300.23038,141.789934 L299.811814,141.789934 L299.393249,140.898278 L298.974684,140.898278 L298.556118,140.006623 L298.032911,140.006623 L297.614346,139.114967 L297.195781,139.114967 L296.777215,138.223311 L296.35865,138.223311 L295.940084,137.331656 L295.521519,137.331656 L294.998312,136.44 L294.579747,136.44 L294.161181,135.548344 L293.742616,135.548344 L293.324051,134.656689 L292.905485,134.656689 L292.48692,133.765033 L292.068354,133.765033 L291.649789,132.873377 L291.231224,132.873377 L290.812658,131.981722 L290.289451,131.981722 L289.870886,131.090066 L289.452321,131.090066 L289.033755,130.198411 L288.61519,130.198411 L288.196624,129.306755 L287.778059,129.306755 L287.254852,128.415099 L286.836287,128.415099 L286.31308,127.523444 L285.894515,127.523444 L285.475949,126.631788 L285.057384,126.631788 L284.638819,125.740132 L284.220253,125.740132 L283.801688,124.848477 L283.383122,124.848477 L282.964557,123.956821 L282.44135,123.956821 L282.022785,123.065166 L281.604219,123.065166 L281.185654,122.17351 L280.767089,122.17351 L280.348523,121.281854 L279.929958,121.281854 L279.406751,120.390199 L278.988186,120.390199 L278.464979,119.498543 L278.046414,119.498543 L277.627848,118.606887 L277.209283,118.606887 L276.790717,117.715232 L276.372152,117.715232 L275.953586,116.823576 L275.535021,116.823576 L275.116456,115.931921 L274.593249,115.931921 L274.174684,115.040265 L273.756118,115.040265 L273.337553,114.148609 L272.918987,114.148609 L272.500422,113.256954 L272.081857,113.256954 L271.55865,112.365298 L271.140084,112.365298 L270.616878,111.473642 L270.198312,111.473642 L269.779747,110.581987 L269.361181,110.581987 L268.942616,109.690331 L268.524051,109.690331 L268.105485,108.798675 L267.68692,108.798675 L267.268354,107.90702 L266.745148,107.90702 L266.326582,107.015364 L265.908017,107.015364 L265.489451,106.123709 L265.070886,106.123709 L264.652321,105.232053 L264.233755,105.232053 L263.710549,104.340397 L263.291983,104.340397 L262.768776,103.448742 L262.350211,103.448742 L261.931646,102.557086 L261.51308,102.557086 L261.094515,101.66543 L260.675949,101.66543 L260.257384,100.773775 L259.838819,100.773775 L259.420253,99.8821192 L258.897046,99.8821192 L258.478481,98.9904636 L258.059916,98.9904636 L257.64135,98.0988079 L257.222785,98.0988079 L256.804219,97.2071523 L256.385654,97.2071523 L255.862447,96.3154967 L255.443882,96.3154967 L254.920675,95.4238411 L254.50211,95.4238411 L254.083544,94.5321854 L253.664979,94.5321854 L253.246414,93.6405298 L252.827848,93.6405298 L252.409283,92.7488742 L251.990717,92.7488742 L251.572152,91.8572185 L251.048945,91.8572185 L250.63038,90.9655629 L250.211814,90.9655629 L249.793249,90.0739073 L249.374684,90.0739073 L248.956118,89.1822517 L248.537553,89.1822517 L248.014346,88.290596 L247.595781,88.290596 L247.072574,87.3989404 L246.654008,87.3989404 L246.130802,86.5072848 L245.712236,86.5072848 L245.293671,85.6156291 L244.875105,85.6156291 L244.45654,84.7239735 L244.037975,84.7239735 L243.619409,83.8323179 L243.096203,83.8323179 L242.677637,82.9406623 L242.259072,82.9406623 L241.840506,82.0490066 L241.421941,82.0490066 L241.003376,81.157351 L240.58481,81.157351 L240.061603,80.2656954 L239.643038,80.2656954 L239.119831,79.3740397 L238.701266,79.3740397 L238.178059,78.4823841 L237.759494,78.4823841 L237.340928,77.5907285 L236.922363,77.5907285 L236.503797,76.6990728 L236.085232,76.6990728 L235.666667,75.8074172 L235.14346,75.8074172 L234.724895,74.9157616 L234.306329,74.9157616 L233.887764,74.024106 L233.469198,74.024106 L233.050633,73.1324503 L232.632068,73.1324503 L232.108861,72.2407947 L231.690295,72.2407947 L231.167089,71.3491391 L230.748523,71.3491391 L230.225316,70.4574834 L229.806751,70.4574834 L229.388186,69.5658278 L228.96962,69.5658278 L228.551055,68.6741722 L228.132489,68.6741722 L227.713924,67.7825166 L227.190717,67.7825166 L226.772152,66.8908609 L226.353586,66.8908609 L225.935021,65.9992053 L225.516456,65.9992053 L225.09789,65.1075497 L224.679325,65.1075497 L224.156118,64.215894 L223.737553,64.215894 L223.214346,63.3242384 L222.795781,63.3242384 L222.272574,62.4325828 L221.854008,62.4325828 L221.435443,61.5409272 L221.016878,61.5409272 L220.598312,60.6492715 L220.075105,60.6492715 L219.65654,59.7576159 L219.133333,59.7576159 L218.714768,58.8659603 L218.296203,58.8659603 L217.877637,57.9743046 L217.459072,57.9743046 L217.040506,57.082649 L216.621941,57.082649 L216.098734,56.1909934 L215.680169,56.1909934 L215.156962,55.2993377 L214.738397,55.2993377 L214.21519,54.4076821 L213.796624,54.4076821 L213.378059,53.5160265 L212.959494,53.5160265 L212.540928,52.6243709 L212.017722,52.6243709 L211.599156,51.7327152 L211.075949,51.7327152 L210.657384,50.8410596 L210.238819,50.8410596 L209.820253,49.949404 L209.401688,49.949404 L208.983122,49.0577483 L208.564557,49.0577483 L208.145992,48.1660927 L207.727426,48.1660927 L207.204219,47.2744371 L206.785654,47.2744371 L206.262447,46.3827815 L205.843882,46.3827815 L205.425316,45.4911258 L205.006751,45.4911258 L204.588186,44.5994702 L204.064979,44.5994702 L203.646414,43.7078146 L203.123207,43.7078146 L202.704641,42.8161589 L202.286076,42.8161589 L201.867511,41.9245033 L201.448945,41.9245033 L201.03038,41.0328477 L200.611814,41.0328477 L200.193249,40.1411921 L199.774684,40.1411921 L199.251477,39.2495364 L198.832911,39.2495364 L198.309705,38.3578808 L197.891139,38.3578808 L197.472574,37.4662252 L197.054008,37.4662252 L196.635443,36.5745695 L196.216878,36.5745695 L195.798312,35.6829139 L195.275105,35.6829139 L194.85654,34.7912583 L194.437975,34.7912583 L194.019409,33.8996026 L193.600844,33.8996026 L193.182278,33.007947 L192.763713,33.007947 L192.345148,32.1162914 L191.926582,32.1162914 L191.403376,31.2246358 L190.98481,31.2246358 L190.461603,30.3329801 L190.043038,30.3329801 L189.624473,29.4413245 L189.205907,29.4413245 L188.787342,28.5496689 L188.368776,28.5496689 L187.950211,27.6580132 L187.427004,27.6580132 L187.008439,26.7663576 L186.589873,26.7663576 L186.171308,25.874702 L185.752743,25.874702 L185.334177,24.9830464 L184.915612,24.9830464 L184.497046,24.0913907 L184.078481,24.0913907 L183.555274,23.1997351 L183.136709,23.1997351 L182.613502,22.3080795 L182.194937,22.3080795 L181.776371,21.4164238 L181.357806,21.4164238 L180.939241,20.5247682 L180.520675,20.5247682 L180.10211,19.6331126 L179.578903,19.6331126 L179.160338,18.741457 L178.741772,18.741457 L178.323207,17.8498013 L177.904641,17.8498013 L177.486076,16.9581457 L177.067511,16.9581457 L176.648945,16.0664901 L176.23038,16.0664901 L175.707173,15.1748344 L175.288608,15.1748344 L174.765401,14.2831788 L174.346835,14.2831788 L173.92827,13.3915232 L173.509705,13.3915232 L173.091139,12.4998675 L172.672574,12.4998675 L172.254008,11.6082119 L171.730802,11.6082119 L171.312236,10.7165563 L170.893671,10.7165563 L170.475105,9.82490066 L170.05654,9.82490066 L169.637975,8.93324503 L169.219409,8.93324503 L168.800844,8.0415894 L168.382278,8.0415894 L167.859072,7.14993377 L167.440506,7.14993377 L166.9173,6.25827815 L166.498734,6.25827815 L166.080169,5.36662252 L165.661603,5.36662252 L165.243038,4.47496689 L164.824473,4.47496689 L164.405907,3.58331126 L163.8827,3.58331126 L163.464135,2.69165563 L163.04557,2.69165563 L162.627004,1.8 L62.171308,1.8 L53.8,17.6516556 L70.542616,96.9099338 L71.1704641,96.3154967 L71.4843882,97.8015894 L72.1122363,97.2071523 L72.4261603,98.693245 L73.0540084,98.0988079 L73.3679325,99.5849007 L73.9957806,98.9904636 L74.3097046,100.476556 L74.9375527,99.8821192 L75.2514768,101.368212 L75.8793249,100.773775 L76.1932489,102.259868 L76.821097,101.66543 L77.1350211,103.151523 L77.7628692,102.557086 L78.0767932,104.043179 L78.7046414,103.448742 L79.0185654,104.934834 L79.6464135,104.340397 L79.9603376,105.82649 L80.5881857,105.232053 L80.9021097,106.718146 L81.5299578,106.123709 L81.8438819,107.609801 L82.47173,107.015364 L82.785654,108.501457 L83.4135021,107.90702 L83.7274262,109.393113 L84.3552743,108.798675 L84.6691983,110.284768 L85.2970464,109.690331 L85.6109705,111.176424 L86.2388186,110.581987 L86.5527426,112.068079 L87.1805907,111.473642 L87.4945148,112.959735 L88.1223629,112.365298 L88.4362869,113.851391 L89.064135,113.256954 L89.3780591,114.743046 L90.0059072,114.148609 L90.3198312,115.634702 L90.9476793,115.040265 L91.2616034,116.526358 L91.8894515,115.931921 L92.2033755,117.418013 L92.8312236,116.823576 L93.1451477,118.309669 L93.7729958,117.715232 L94.0869198,119.201325 L94.7147679,118.606887 L95.028692,120.09298 L95.6565401,119.498543 L95.9704641,120.984636 L96.5983122,120.390199 L96.9122363,121.876291 L97.5400844,121.281854 L97.8540084,122.767947 L98.4818565,122.17351 L98.7957806,123.659603 L99.4236287,123.065166 L99.7375527,124.551258 L100.365401,123.956821 L100.679325,125.442914 L101.09789,125.046623 L91.3662447,220.057483 L98.9004219,227.190728 L106.120675,234.026755 L107.376371,235.215629 L110.306329,237.989669 L113.236287,240.763709 L114.491983,241.952583 L115.747679,243.141457 L118.677637,245.915497 L121.607595,248.689536 L122.444726,249.482119 L123.281857,250.274702 L126.211814,253.048742 L129.141772,255.822781 L130.397468,257.011656 L131.653165,258.20053 L134.583122,260.97457 L137.51308,263.748609 L138.350211,264.541192 L139.187342,265.333775 L142.1173,268.107815 L145.047257,270.881854 L146.302954,272.070728 L147.55865,273.259603 L150.488608,276.033642 L153.418565,278.807682 L154.674262,279.996556 L161.894515,286.832583 L163.464135,288.318675 L166.394093,291.092715 L169.324051,293.866755 L170.579747,295.055629 L171.835443,296.244503 L174.765401,299.018543 L177.381435,301.495364 C239.538397,278.510464 293.010127,217.382517 301.695359,143.573245 L301.695359,143.573245 Z" id="Shape" fill="#E0A628"></path>
                <g id="Group" transform="translate(56.000000, 0.000000)">
                    <path d="M111.9,15.8 L-0.1,15.8 L7.9,-0.2 L103.9,-0.2 L111.9,15.8 Z" id="Shape" fill="#D8D8DA"></path>
                    <path d="M63.9,95.8 L47.9,95.8 L39.9,63.8 L71.9,63.8 L63.9,95.8 Z" id="Shape" fill="#2B3A49"></path>
                    <path d="M15.9,95.8 L47.9,63.8 L7.9,-0.2 L-0.1,15.8 L15.9,95.8 Z" id="Shape" fill="#FFFFFF"></path>
                    <path d="M95.9,95.8 L63.9,63.8 L103.9,-0.2 L111.9,15.8 L95.9,95.8 Z" id="Shape" fill="#FFFFFF"></path>
                    <g transform="translate(36.000000, 96.000000)" id="SVGID_1_-link" fill="#242C3C">
                        <g>
                            <path d="M-0.2,124 L11.9,-0.2 L27.9,-0.2 L40,124 L19.9,144.1 L-0.2,124 Z" id="SVGID_1_"></path>
                        </g>
                    </g>
                </g>
            </g>
            <g id="plus" transform="translate(1421.000000, 734.000000)" sketch:type="MSShapeGroup">
                <g id="Group">
                    <path d="M146.3,2.8 C148.8,2.8 149.8,3.3 149.8,6.3 L149.8,108.8 L248.3,108.8 C250.8,108.8 251.3,109.8 251.3,112.8 L251.3,148.3 C251.3,151.3 250.8,151.8 247.8,151.8 L149.8,151.8 L149.8,256.3 C149.8,258.3 149.3,258.8 146.3,258.8 L107.8,258.8 C105.3,258.8 104.8,257.8 104.8,255.8 L104.8,151.8 L6.8,151.8 C3.8,151.8 2.8,151.3 2.8,148.3 L2.8,112.3 C2.8,109.8 4.3,108.8 6.3,108.8 L104.8,108.8 L104.8,5.8 C105.3,3.8 105.8,2.8 107.8,2.8 L146.3,2.8 L146.3,2.8 Z" id="Shape" fill="#4E5254"></path>
                    <path d="M143.3,-0.2 C145.8,-0.2 146.8,0.3 146.8,3.3 L146.8,105.8 L245.3,105.8 C247.8,105.8 248.3,106.8 248.3,109.8 L248.3,145.3 C248.3,148.3 247.8,148.8 244.8,148.8 L146.8,148.8 L146.8,253.3 C146.8,255.3 146.3,255.8 143.3,255.8 L104.8,255.8 C102.3,255.8 101.8,254.8 101.8,252.8 L101.8,148.8 L3.8,148.8 C0.8,148.8 -0.2,148.3 -0.2,145.3 L-0.2,109.3 C-0.2,106.8 1.3,105.8 3.3,105.8 L101.8,105.8 L101.8,2.8 C102.3,0.8 102.8,-0.2 104.8,-0.2 L143.3,-0.2 L143.3,-0.2 Z" id="Shape" fill="#111111"></path>
                </g>
            </g>
            <g id="phone" transform="translate(350.000000, 49.000000)" sketch:type="MSShapeGroup">
                <path d="M922.1,1757.6 C928.3,1749.2 932,1738.8 932,1727.6 L932,72.6 C932,44.8 909.4,22.2 881.6,22.2 C881.6,22.2 668.6,-0.5 459.4,-0.5 C252.9,-0.5 50.3,22.2 50.3,22.2 C22.5,22.2 -0.1,44.8 -0.1,72.6 L-0.1,1727.5 C-0.1,1738.8 3.6,1749.1 9.8,1757.5 L922.1,1757.5 L922.1,1757.6 Z" id="Shape" fill="#FFFFFF"></path>
                <path d="M58.3,208.5 L873.6,208.5 C876.4,208.5 878.6,210.8 878.6,213.5 L878.6,1533.5 C878.6,1536.3 876.3,1538.5 873.6,1538.5 L58.3,1538.5 C55.5,1538.5 53.3,1536.2 53.3,1533.5 L53.3,213.5 C53.3,210.7 55.5,208.5 58.3,208.5 L58.3,208.5 Z" id="Shape" fill="#515151"></path>
                <path d="M166.2,1377.4 L763.2,1377.4 C789.6,1377.4 811.1,1398.8 811.1,1425.3 C811.1,1451.8 789.7,1473.2 763.2,1473.2 L166.2,1473.2 C139.8,1473.2 118.3,1451.8 118.3,1425.3 C118.3,1398.8 139.8,1377.4 166.2,1377.4 L166.2,1377.4 Z" id="Shape" fill="#494949"></path>
                <path d="M483.6,1163.3 L811.1,1163.3 L811.1,1339.6 L483.6,1339.6 L483.6,1163.3 L483.6,1163.3 Z" id="Shape" fill="#494949"></path>
                <path d="M131,1163.3 L458.5,1163.3 L458.5,1339.6 L131,1339.6 L131,1163.3 L131,1163.3 Z" id="Shape" fill="#494949"></path>
                <path d="M131,390 L803.6,390 L803.6,470.6 L131,470.6 L131,390 L131,390 Z" id="Shape" fill="#494949"></path>
                <path d="M58.3,208.5 L873.6,208.5 C876.4,208.5 878.6,210.8 878.6,213.5 L878.6,311.8 C878.6,314.6 876.3,316.8 873.6,316.8 L58.3,316.8 C55.5,316.8 53.3,314.5 53.3,311.8 L53.3,213.5 C53.3,210.7 55.5,208.5 58.3,208.5 L58.3,208.5 Z" id="Shape" fill="#494949"></path>
                <path d="M385.4,107.8 L546.6,107.8 C553.6,107.8 559.2,113.4 559.2,120.4 L559.2,121.8 C559.2,128.8 553.6,134.4 546.6,134.4 L385.4,134.4 C378.4,134.4 372.8,128.8 372.8,121.8 L372.8,120.4 C372.8,113.5 378.4,107.8 385.4,107.8 L385.4,107.8 Z" id="Shape" fill="#AEAEAE"></path>
                <path d="M462.2,1583.3 C475.4,1583.3 486.1,1594 486.1,1607.2 C486.1,1620.4 475.4,1631.1 462.2,1631.1 C449,1631.1 438.3,1620.4 438.3,1607.2 C438.3,1594 449,1583.3 462.2,1583.3 L462.2,1583.3 Z" id="Shape" fill="#515151"></path>
                <path d="M841.3,252.1 C840.4,252.1 839.7,251.4 839.7,250.5 C839.7,249.8 839.5,234.4 827.4,234.4 C815.3,234.4 815.1,249.8 815.1,250.5 C815.1,251.4 814.4,252.1 813.5,252.1 L813.5,252.1 C812.6,252.1 811.9,251.4 811.9,250.5 C811.9,250.3 811.9,245.7 813.7,241.1 C816.2,234.7 820.9,231.3 827.3,231.3 C839.5,231.3 842.7,243.9 842.7,250.5 C842.9,251.4 842.2,252.1 841.3,252.1 L841.3,252.1 L841.3,252.1 Z" id="Shape" fill="#686868"></path>
                <path d="M848.9,251.4 C848.9,250 847.8,248.9 846.4,248.9 L801,248.9 C799.6,248.9 798.5,250 798.5,251.4 L796,289.2 C796,290.6 797.1,291.7 798.5,291.7 L848.9,291.7 C850.3,291.7 851.4,290.6 851.4,289.2 L848.9,251.4 L848.9,251.4 Z M812.4,261.5 C810.3,261.5 808.6,259.8 808.6,257.7 C808.6,255.6 810.3,253.9 812.4,253.9 C814.5,253.9 816.2,255.6 816.2,257.7 C816.1,259.8 814.4,261.5 812.4,261.5 L812.4,261.5 Z M835,261.5 C832.9,261.5 831.2,259.8 831.2,257.7 C831.2,255.6 832.9,253.9 835,253.9 C837.1,253.9 838.8,255.6 838.8,257.7 C838.8,259.8 837.1,261.5 835,261.5 L835,261.5 Z" id="Shape" fill="#686868"></path>
                <path d="M816,235.1 C817.4,233.5 819.1,232.2 820.9,231.4 C820.5,231.4 820.2,231.3 819.8,231.3 C813.4,231.3 808.7,234.7 806.2,241.1 C804.4,245.7 804.4,250.3 804.4,250.5 C804.4,251.4 805.1,252.1 806,252.1 L806,252.1 C806.9,252.1 807.6,251.4 807.6,250.5 C807.6,249.9 807.8,238 816,235.1 L816,235.1 Z" id="Shape" fill="#686868"></path>
                <path d="M827.5,235.7 C826.8,235.7 826.2,235.8 825.6,235.9 C832.1,239.7 832.3,250 832.3,250.5 C832.3,251.4 833,252.1 833.9,252.1 L833.9,252.1 C834.8,252.1 835.5,251.4 835.5,250.5 C835.5,246.5 834.3,240.5 830.8,236.2 C829.7,235.9 828.6,235.7 827.5,235.7 L827.5,235.7 Z" id="Shape" fill="#686868"></path>
                <path d="M85.6,241.4 L143.5,241.4 L143.5,249 L85.6,249 L85.6,241.4 L85.6,241.4 Z" id="Shape" fill="#686868"></path>
                <path d="M85.6,259 L143.5,259 L143.5,266.6 L85.6,266.6 L85.6,259 L85.6,259 Z" id="Shape" fill="#686868"></path>
                <path d="M85.6,276.6 L143.5,276.6 L143.5,284.2 L85.6,284.2 L85.6,276.6 L85.6,276.6 Z" id="Shape" fill="#686868"></path>
                <path d="M288.1,1397.8 C286.5,1396.6 284.2,1396.9 283,1398.5 L252,1439.1 L240.4,1425.4 C239.1,1423.9 236.8,1423.7 235.3,1425 C233.8,1426.3 233.6,1428.6 234.9,1430.1 L249.4,1447.2 C250.1,1448 251.1,1448.5 252.2,1448.5 L252.3,1448.5 C253.4,1448.5 254.4,1448 255.1,1447.1 L288.9,1402.9 C290,1401.2 289.7,1399 288.1,1397.8 L288.1,1397.8 Z" id="Shape" fill="#393939"></path>
                <g id="Group" transform="translate(325.000000, 1409.000000)" fill="#393939">
                    <path d="M9.4,23.9 L6.3,32.7 C6.2,33 6.1,33.1 5.8,33.1 L0.7,33.1 C0.3,33.1 0.2,32.9 0.3,32.6 C3,24.9 7.6,12 10.8,3.3 C11,2.8 11.1,2.3 11.2,0.5 C11.2,0.3 11.4,0.2 11.5,0.2 L18.5,0.2 C18.8,0.2 18.8,0.3 18.9,0.5 C22.6,10.8 26.7,22.2 30.5,32.6 C30.6,32.9 30.5,33.1 30.2,33.1 L24.6,33.1 C24.3,33.1 24.2,33 24.1,32.8 L20.9,23.9 L9.4,23.9 L9.4,23.9 Z M19.5,19 C18.5,15.6 16,8.8 15,5.3 L15,5.3 C14.2,8.6 12.2,14.3 10.7,19 L19.5,19 L19.5,19 Z" id="Shape"></path>
                    <path d="M35.8,0.6 C35.8,0.4 35.9,0.3 36.2,0.2 C39.2,0.1 43,-4.54747351e-13 46.3,-4.54747351e-13 C57.7,-4.54747351e-13 63.4,6.5 63.4,16.2 C63.4,30.6 52.1,33.1 45.3,33.1 C41.7,33.1 39.1,33 36.2,33 C35.9,33 35.8,32.9 35.8,32.5 L35.8,0.6 L35.8,0.6 Z M41.8,28.4 C42.7,28.5 43.9,28.5 45.3,28.5 C52.4,28.5 57,24.8 57,16.5 C57,8.9 53,5 46.1,5 C43.8,5 42.2,5.1 41.8,5.1 L41.8,28.4 L41.8,28.4 Z" id="Shape"></path>
                    <path d="M70,0.6 C70,0.4 70.1,0.3 70.4,0.2 C73.4,0.1 77.2,-4.54747351e-13 80.5,-4.54747351e-13 C91.9,-4.54747351e-13 97.6,6.5 97.6,16.2 C97.6,30.6 86.3,33.1 79.5,33.1 C75.9,33.1 73.3,33 70.4,33 C70.1,33 70,32.9 70,32.5 L70,0.6 L70,0.6 Z M76.1,28.4 C77,28.5 78.2,28.5 79.6,28.5 C86.7,28.5 91.3,24.8 91.3,16.5 C91.3,8.9 87.3,5 80.4,5 C78.1,5 76.5,5.1 76.1,5.1 L76.1,28.4 L76.1,28.4 Z" id="Shape"></path>
                    <path d="M122.7,5.1 L112.6,5.1 C112.3,5.1 112.2,4.9 112.3,4.6 L113,0.5 C113.1,0.2 113.2,0.1 113.5,0.1 L138.9,0.1 C139.2,0.1 139.3,0.2 139.4,0.5 L139.9,4.5 C140,4.9 139.8,5 139.5,5 L129,5 L129,32.5 C129,32.8 128.9,33 128.6,33 L123.4,33 C123,33.1 122.9,32.9 122.9,32.5 L122.9,5.1 L122.7,5.1 Z" id="Shape"></path>
                    <path d="M172.6,16.5 C172.6,27.3 166.2,33.6 157,33.6 C147.3,33.6 141.4,26.9 141.4,16.6 C141.4,6.5 147.8,-0.3 157.1,-0.3 C166.6,-0.3 172.5,7.1 172.6,16.5 L172.6,16.5 Z M157.2,28.5 C162.9,28.5 166.3,24 166.3,16.6 C166.3,9.5 162.7,4.7 156.9,4.7 C151.6,4.7 147.6,8.9 147.6,16.6 C147.7,23.6 151.2,28.5 157.2,28.5 L157.2,28.5 Z" id="Shape"></path>
                    <path d="M207.3,-0.3 C210.5,-0.3 213,0.2 214.3,0.8 C214.5,0.9 214.6,1 214.6,1.3 L214.6,5.9 C214.6,6.3 214.4,6.3 214.2,6.2 C212.5,5.5 210.4,4.9 207.4,4.9 C200.5,4.9 195.7,9.3 195.7,16.5 C195.7,25.6 202.3,28.1 207.2,28.1 C210.1,28.1 212.6,27.5 214.5,26.7 C214.7,26.6 214.9,26.7 214.9,27 L214.9,31.4 C214.9,31.7 214.8,31.9 214.5,32 C212.7,32.9 209.7,33.5 206.2,33.5 C197.6,33.5 189.5,28.7 189.5,16.6 C189.6,7.2 196.5,-0.3 207.3,-0.3 L207.3,-0.3 Z" id="Shape"></path>
                    <path d="M228.4,23.9 L225.3,32.7 C225.2,33 225.1,33.1 224.8,33.1 L219.7,33.1 C219.3,33.1 219.2,32.9 219.3,32.6 C222,24.9 226.6,12 229.8,3.3 C230,2.8 230.1,2.3 230.2,0.5 C230.2,0.3 230.4,0.2 230.5,0.2 L237.5,0.2 C237.8,0.2 237.8,0.3 237.9,0.5 C241.6,10.8 245.7,22.2 249.5,32.6 C249.6,32.9 249.5,33.1 249.2,33.1 L243.6,33.1 C243.3,33.1 243.2,33 243.1,32.8 L239.9,23.9 L228.4,23.9 L228.4,23.9 Z M238.6,19 C237.6,15.6 235.1,8.8 234.1,5.3 L234,5.3 C233.2,8.6 231.2,14.3 229.7,19 L238.6,19 L238.6,19 Z" id="Shape"></path>
                    <path d="M255.2,33.1 C254.9,33.1 254.8,33 254.8,32.7 L254.8,0.7 C254.8,0.4 254.9,0.3 255.1,0.3 C257.8,0.2 260.5,0.1 265,0.1 C272.9,0.1 277.6,3.3 277.6,9.6 C277.6,14.3 274.8,17.2 270.7,18.5 C272,20.1 279.8,30.3 281.3,32.6 C281.5,32.9 281.5,33.2 281.1,33.2 L274.8,33.2 C274.4,33.2 274.2,33.1 274.1,32.9 C272.6,30.9 268.1,24.3 265.9,21.1 C265.5,20.4 265.2,20.2 264.3,20.2 L260.7,20.2 L260.7,32.8 C260.7,33.1 260.6,33.2 260.3,33.2 L255.2,33.2 L255.2,33.1 Z M264.8,15.3 C269.6,15.3 271.7,13.1 271.7,10 C271.7,6.7 269.1,5 264.8,5 C262.5,5 261.2,5.1 260.8,5.1 L260.8,15.4 L264.8,15.4 L264.8,15.3 Z" id="Shape"></path>
                    <path d="M291.6,5.1 L281.5,5.1 C281.2,5.1 281.1,4.9 281.2,4.6 L281.9,0.5 C282,0.2 282.1,0.1 282.4,0.1 L307.8,0.1 C308.1,0.1 308.2,0.2 308.3,0.5 L308.8,4.5 C308.9,4.9 308.7,5 308.4,5 L297.9,5 L297.9,32.5 C297.9,32.8 297.8,33 297.5,33 L292.3,33 C291.9,33.1 291.8,32.9 291.8,32.5 L291.8,5.1 L291.6,5.1 Z" id="Shape"></path>
                </g>
                <g id="Group" transform="translate(221.000000, 553.000000)">
                    <g transform="translate(3.000000, 3.000000)" id="Shape" fill="#64676A">
                        <path d="M139.2,336.6 L120.6,338 C120.7,341.6 120.7,344.7 120.7,346.9 C121.1,369.9 134.2,374.8 145.1,374.8 C146.7,374.8 147.7,374.7 147.7,374.7 L148,374.7 L179,371.7 C180.2,368.1 180.3,365.3 180.3,365.3 C180.3,365.3 176.2,170.6 175.1,146.1 C174.9,140.6 173.3,136.2 171.2,132.7 C159.9,131.8 149.7,131 142,130.4 C140.8,130.3 139.7,130.3 138.6,130.3 C131,130.3 125.4,132.2 121.8,136.1 C116.3,142 116.8,150.9 116.8,150.9 L116.8,151.3 C116.8,151.6 116.9,156.8 117.1,165.2 C132.1,166 143.1,166.6 143.1,166.6 C143.1,166.6 160.4,170.3 161.1,188 C161.9,207.3 161.8,315.2 161.8,315.2 C161.8,315.2 163.6,332.8 139.2,336.6 L139.2,336.6 Z"></path>
                        <path d="M80,340.9 L48.9,343.2 C48.9,343.2 23.3,346.7 22.7,318.7 C22.3,298 19.7,180.9 19.7,180.9 C19.7,180.9 17.9,159.2 44.3,161 C52.2,161.5 63.9,162.2 76.6,163 C76.2,143.7 75.9,126.7 75.7,113.8 C59.1,112.6 43.2,111.2 32.2,110.1 C-2.6,106.3 -0.4,135.5 -0.4,135.5 C-0.4,135.5 3.8,350.4 4.6,376.7 C5.6,408.1 39.4,403 39.4,403 L81.2,398.5 C80.8,382.8 80.4,363 80,340.9 L80,340.9 Z"></path>
                        <path d="M451.8,74.3 C450.3,34.1 414.9,25.6 414.9,25.6 C414.9,25.6 292.3,7.1 238.6,0.4 C184.9,-6.3 188.2,45.7 188.2,45.7 C188.2,45.7 200.4,425.2 201.7,472.2 C203.1,528.2 255.4,519.2 255.4,519.2 L440.1,487.3 C473.7,480.6 475.4,438.6 475.4,438.6 C475.4,438.6 453.5,118.2 451.8,74.3 L451.8,74.3 Z M410.5,396.6 L273.1,410.8 C273.1,410.8 233.1,416.8 232.2,368.3 C231.5,332.5 223.6,127.4 223.6,127.4 C223.6,127.4 220.8,89.8 262,92.9 C304,96 404.7,103.7 404.7,103.7 C404.7,103.7 431.6,110.1 432.8,140.8 C434.1,174.2 445.7,359.6 445.7,359.6 C445.7,359.6 448.8,390 410.5,396.6 L410.5,396.6 Z"></path>
                        <path d="M272.4,403.6 L325.3,398.1 C322.9,344.2 313.4,134.7 312.1,104.3 L312.1,103.9 C292.8,102.4 274.4,101.1 261.5,100.1 C260.1,100 258.7,99.9 257.4,99.9 C248.6,99.9 241.9,102.3 237.5,106.9 C230.2,114.6 230.9,126.7 230.9,126.8 L230.9,127 C230.9,127.1 231,128.3 231,130.2 C252.5,132.1 268.8,133.5 268.8,133.5 C268.8,133.5 292,138.7 293.1,163.9 C294.2,191.3 300.8,339.7 300.8,339.7 C300.8,339.7 303.4,364.7 270.4,370.1 L239.7,373 C241.8,398.2 256.5,403.7 268.9,403.7 C270.8,403.7 272,403.6 272,403.6 L272,403.6 C272.2,403.7 272.3,403.6 272.4,403.6 L272.4,403.6 Z"></path>
                        <path d="M191.5,377.7 L148.8,381.8 C148.8,381.8 114.3,386.8 113.5,347 C112.9,317.7 109.5,151.4 109.5,151.4 C109.5,151.4 107.1,120.6 142.5,123.1 C152.9,123.8 167.7,125 183.5,126.3 C182.5,94.7 181.7,69.5 181.2,56.4 C160.5,54.4 140.5,52.3 126.2,50.7 C79.4,45.4 82.3,86.7 82.3,86.7 C82.3,86.7 87.9,391.7 89,429.1 C90.3,473.6 135.8,466.5 135.8,466.5 L193.9,459.1 C193.5,441.5 192.6,412.5 191.5,377.7 L191.5,377.7 Z"></path>
                    </g>
                    <g id="Shape" fill="#343434">
                        <g transform="translate(0.000000, 110.000000)">
                            <path d="M139.2,226.6 L120.6,228 C120.7,231.6 120.7,234.7 120.7,236.9 C121.1,259.9 134.2,264.8 145.1,264.8 C146.7,264.8 147.7,264.7 147.7,264.7 L148,264.7 L179,261.7 C180.2,258.1 180.3,255.3 180.3,255.3 C180.3,255.3 176.2,60.6 175.1,36.1 C174.9,30.6 173.3,26.2 171.2,22.7 C159.9,21.8 149.7,21 142,20.4 C140.8,20.3 139.7,20.3 138.6,20.3 C131,20.3 125.4,22.2 121.8,26.1 C116.3,32 116.8,40.9 116.8,40.9 L116.8,41.3 C116.8,41.6 116.9,46.8 117.1,55.2 C132.1,56 143.1,56.6 143.1,56.6 C143.1,56.6 160.4,60.3 161.1,78 C161.9,97.3 161.8,205.2 161.8,205.2 C161.8,205.2 163.6,222.8 139.2,226.6 L139.2,226.6 Z"></path>
                            <path d="M80,230.9 L48.9,233.2 C48.9,233.2 23.3,236.7 22.7,208.7 C22.3,188 19.7,70.9 19.7,70.9 C19.7,70.9 17.9,49.2 44.3,51 C52.2,51.5 63.9,52.2 76.6,53 C76.2,33.7 75.9,16.7 75.7,3.8 C59.1,2.6 43.2,1.2 32.2,0.1 C-2.6,-3.7 -0.4,25.5 -0.4,25.5 C-0.4,25.5 3.8,240.4 4.6,266.7 C5.6,298.1 39.4,293 39.4,293 L81.2,288.5 C80.8,272.8 80.4,253 80,230.9 L80,230.9 Z"></path>
                        </g>
                        <path d="M451.8,74.3 C450.3,34.1 414.9,25.6 414.9,25.6 C414.9,25.6 292.3,7.1 238.6,0.4 C184.9,-6.3 188.2,45.7 188.2,45.7 C188.2,45.7 200.4,425.2 201.7,472.2 C203.1,528.2 255.4,519.2 255.4,519.2 L440.1,487.3 C473.7,480.6 475.4,438.6 475.4,438.6 C475.4,438.6 453.5,118.2 451.8,74.3 L451.8,74.3 Z M410.5,396.6 L273.1,410.8 C273.1,410.8 233.1,416.8 232.2,368.3 C231.5,332.5 223.6,127.4 223.6,127.4 C223.6,127.4 220.8,89.8 262,92.9 C304,96 404.7,103.7 404.7,103.7 C404.7,103.7 431.6,110.1 432.8,140.8 C434.1,174.2 445.7,359.6 445.7,359.6 C445.7,359.6 448.8,390 410.5,396.6 L410.5,396.6 Z"></path>
                        <g transform="translate(82.000000, 50.000000)">
                            <path d="M190.4,353.6 L243.3,348.1 C240.9,294.2 231.4,84.7 230.1,54.3 L230.1,53.9 C210.8,52.4 192.4,51.1 179.5,50.1 C178.1,50 176.7,49.9 175.4,49.9 C166.6,49.9 159.9,52.3 155.5,56.9 C148.2,64.6 148.9,76.7 148.9,76.8 L148.9,77 C148.9,77.1 149,78.3 149,80.2 C170.5,82.1 186.8,83.5 186.8,83.5 C186.8,83.5 210,88.7 211.1,113.9 C212.2,141.3 218.8,289.7 218.8,289.7 C218.8,289.7 221.4,314.7 188.4,320.1 L157.7,323 C159.8,348.2 174.5,353.7 186.9,353.7 C188.8,353.7 190,353.6 190,353.6 L190,353.6 C190.2,353.7 190.3,353.6 190.4,353.6 L190.4,353.6 Z"></path>
                            <path d="M109.5,327.7 L66.8,331.8 C66.8,331.8 32.3,336.8 31.5,297 C30.9,267.7 27.5,101.4 27.5,101.4 C27.5,101.4 25.1,70.6 60.5,73.1 C70.9,73.8 85.7,75 101.5,76.3 C100.5,44.7 99.7,19.5 99.2,6.4 C78.5,4.4 58.5,2.3 44.2,0.7 C-2.6,-4.6 0.3,36.7 0.3,36.7 C0.3,36.7 5.9,341.7 7,379.1 C8.3,423.6 53.8,416.5 53.8,416.5 L111.9,409.1 C111.5,391.5 110.6,362.5 109.5,327.7 L109.5,327.7 Z"></path>
                        </g>
                    </g>
                </g>
            </g>
        </g>
    </g>
</svg>