<?xml version="1.0" encoding="utf-8"?>
<!-- Generator: Adobe Illustrator 17.1.0, SVG Export Plug-In . SVG Version: 6.00 Build 0)  -->
<!DOCTYPE svg PUBLIC "-//W3C//DTD SVG 1.1//EN" "http://www.w3.org/Graphics/SVG/1.1/DTD/svg11.dtd">
<svg version="1.1" xmlns="http://www.w3.org/2000/svg" xmlns:xlink="http://www.w3.org/1999/xlink" x="0px" y="0px" width="400px"
	 height="400px" viewBox="852 579 400 400" style="enable-background:new 852 579 400 400;" xml:space="preserve">
<style type="text/css">
	.st0{display:none;}
	.st1{fill:#F4B505;}
	.st2{fill:#E0A628;}
	.st3{fill:#283343;}
	.st4{fill:#242C3C;}
	.st5{fill:#2B3A49;}
	.st6{fill:#C2C3C6;}
	.st7{fill:#EFEEEE;}
	.st8{fill:#D8D8DA;}
	.st9{fill:#FFFFFF;}
	.st10{clip-path:url(#SVGID_3_);}
	.st11{fill:#4E5254;}
	.st12{fill:#111111;}
	.st13{fill:#515151;}
	.st14{fill:#494949;}
	.st15{fill:#AEAEAE;}
	.st16{fill:#686868;}
	.st17{fill:#393939;}
	.st18{fill:#64676A;}
	.st19{fill:#343434;}
</style>
<g id="Layer_2_1_">
</g>
<g id="Layer_1">
	<g id="Layer_2" class="st0">
	</g>
	<g id="circle_2_">
		<circle class="st1" cx="1209.5512695" cy="824.2918091" r="41.8855553"/>
		<circle class="st1" cx="1209.5512695" cy="723.5089722" r="41.8855515"/>
	</g>
	<g id="enterprise_2_">
		<path class="st2" d="M1209.5513916,866.1773071c21.9530029,0,39.9589844-16.8897095,41.7385254-38.3833618h-0.0931396v-0.2459717
			h-0.2458496v-0.2459717h-0.2459717v-0.2459106h-0.2459717v-0.2459717h-0.2459717v-0.2459106h-0.2458496v-0.2459106h-0.2459717
			v-0.2459717h-0.2459717v-0.2459717h-0.2459717v-0.2459106h-0.2459717v-0.2459106h-0.2458496v-0.2459717h-0.2459717v-0.2459106
			h-0.2459717v-0.2459717h-0.2459717v-0.2459106h-0.2458496v-0.2459717h-0.2459717v-0.2459717h-0.2459717v-0.2459106h-0.2459717
			v-0.2459717h-0.2458496v-0.2459106h-0.2459717v-0.2459717h-0.2459717v-0.2459106h-0.2458496v-0.2459106h-0.2459717v-0.2459717
			h-0.2459717v-0.2459717h-0.2459717v-0.2459106h-0.2459717v-0.2459106h-0.2459717v-0.2459717h-0.2458496v-0.2459106h-0.2459717
			v-0.2459717h-0.2459717v-0.2459717h-0.2458496v-0.2459106h-0.2459717v-0.2459717h-0.2459717v-0.2459106h-0.2458496v-0.2459717
			h-0.2459717v-0.2459106h-0.2459717v-0.2459717h-0.2459717v-0.2459106h-0.2459717v-0.2459717h-0.2459717v-0.2459106h-0.2458496
			v-0.2459717h-0.2459717v-0.2459106h-0.2459717v-0.2459106h-0.2458496v-0.2459717h-0.2459717v-0.2459106h-0.2459717v-0.2459717
			h-0.2459717v-0.2459717h-0.2458496v-0.2459106h-0.2459717v-0.2459717h-0.2459717v-0.2459106h-0.2459717v-0.2459717h-0.2458496
			v-0.2459106h-0.2459717v-0.2459717h-0.2459717v-0.2459106h-0.2459717v-0.2459717h-0.2459717v-0.2459106h-0.2458496v-0.2459717
			h-0.2459717v-0.2459106h-0.2459717v-0.2459717h-0.2459717v-0.2459106h-0.2458496v-0.2459717h-0.2459717v-0.2459717h-0.2459717
			v-0.2459106h-0.2458496v-0.2459106h-0.2459717v-0.2459717h-0.2459717v-0.2459106h-0.2458496v-0.2459717h-0.2459717v-0.2459106
			h-0.2459717v-0.2459717h-0.2459717v-0.2459106h-0.2459717v-0.2459717h-0.2459717v-0.2459106h-2.7521973v-0.1347046h-0.2458496
			v-0.2459106h-0.2459717v-0.2459717h-0.2459717v-0.2459106h-6.9798584v0.8724976h-0.7463379
			c-0.0565186-0.0587769-0.1157227-0.114502-0.1761475-0.1692505c-0.0780029-0.0859985-0.1599121-0.1679688-0.2459717-0.2459106
			c-0.0780029-0.0860596-0.1599121-0.1680298-0.2459717-0.2460327c-0.0780029-0.0859375-0.1599121-0.1678467-0.2458496-0.2457886
			c-0.0780029-0.0860596-0.1599121-0.1680298-0.2459717-0.2460327c-0.0780029-0.0859985-0.1599121-0.1679688-0.2459717-0.2459106
			c-0.0780029-0.0860596-0.1599121-0.1680298-0.2459717-0.2459717c-0.0780029-0.0859985-0.1599121-0.1679688-0.2458496-0.2459106
			c-0.0780029-0.0859985-0.1599121-0.1679688-0.2459717-0.2459717c-0.0780029-0.0859985-0.1599121-0.1679688-0.2459717-0.2459717
			c-0.0780029-0.0859985-0.1599121-0.1679688-0.2459717-0.2459717c-0.0778809-0.0859985-0.1599121-0.1678467-0.2458496-0.2458496
			c-0.0780029-0.0859985-0.1599121-0.1679688-0.2459717-0.2459717c-0.0780029-0.0860596-0.1599121-0.1679688-0.2459717-0.2459106
			c-0.0778809-0.0860596-0.1599121-0.1680298-0.2459717-0.2459717c-0.0778809-0.0860596-0.15979-0.1679688-0.2458496-0.2459106
			c-0.0780029-0.0859985-0.1599121-0.1679688-0.2459717-0.2459717c-0.0780029-0.0860596-0.1599121-0.1679688-0.2459717-0.2459106
			c-0.0780029-0.0860596-0.1599121-0.1680298-0.2459717-0.2459717c-0.0778809-0.0860596-0.1599121-0.1679688-0.2459717-0.2459106
			c-0.0778809-0.0860596-0.1599121-0.1680298-0.2458496-0.2459717c-0.0780029-0.0859985-0.1599121-0.1679688-0.2459717-0.2459106
			c-0.0780029-0.0860596-0.1599121-0.1680298-0.2459717-0.2459717c-0.0778809-0.0860596-0.1599121-0.1680298-0.2459717-0.2459717
			c-0.6397705-0.7060547-1.5598145-1.1539307-2.5817871-1.1539307h-9.59729c-1.9194336,0-3.4899902,1.5704956-3.4899902,3.4899292
			v3.4899292h-4.9333496v-0.1347046h-0.2458496v-0.2459106h-0.2459717v-0.2459717h-0.2459717v-0.2459106h-6.9798584v0.8724976
			h-3.4898682v8.7247925v8.0766602v0.6481934v0.8724365v16.5772095h0.2459717v0.2459106h0.2458496v0.2459717h0.2459717v0.2459106
			h0.2459717v0.2459717h0.2458496v0.2459106h0.2459717v0.2459717h0.2459717v0.2459106h0.2459717v0.2459717h0.2458496v0.2459106
			h0.2459717v0.2459106h0.2459717v0.2459717h0.2459717v0.2459106h0.2459717v0.2459717h0.2458496v0.2459717h0.2459717v0.2459106
			h0.2459717v0.2459717h0.2458496v0.2459106h0.2459717v0.2459717h0.2459717v0.2459106h0.2459717v0.2459717h0.2458496v0.2459106
			h0.2459717v0.2459717h0.2459717v0.2459106h0.2459717v0.2459717h0.2458496v0.2459106h0.2459717v0.2459106h0.2459717v0.2459717
			h0.2459717v0.2459717h0.2459717v0.2459717H1192.5v0.2459106h0.2459717v0.2459106h0.2459717v0.2459717h0.2459717v0.2459106
			h0.2458496v0.2459717h0.2459717v0.2459106h0.2459717v0.2459717h0.2459717v0.2459106h0.2458496v0.2459717h0.2459717v0.2459106
			h0.2459717v0.2459717h0.2459717v0.2459106h0.2459717v0.2459106h0.2458496v0.2459717h0.2459717v0.2459717h0.2459717v0.2459717
			h0.2458496v0.2459106h0.2459717v0.2459106h0.2459717v0.2459717h0.2459717v0.2459106h0.2458496v0.2459717h0.2459717v0.2459106
			h0.2459717v0.2459717h0.2458496v0.2459106h0.2459717v0.2459717h0.2459717v0.2459106h0.2459717v0.2459717h0.2459717V859.25
			h0.2458496v0.2459717h0.2459717v0.2459717h0.2459717v0.2459106h0.2459717v0.2459717h0.2458496v0.2459106h0.2459717v0.2459106
			h0.2459717v0.2459717h0.2459717v0.2459106h0.2458496v0.2459717h0.2459717v0.2459106h0.2459717v0.2459717h0.2459717v0.2459106
			h0.2458496v0.2459717h0.2459717v0.2459106h0.2459717v0.2459717h0.2459717v0.2459106h0.2459717v0.2459717h0.2458496v0.2459717
			h0.2459717v0.2459106h0.2459717v0.2459717h0.2459717v0.2459106h0.2458496v0.2459106h0.2459717v0.2459717h0.2459717v0.2459717
			h0.2458496v0.2459106h0.2459717v0.2459106h0.2459717v0.2459717h0.2458496v0.1379395
			C1207.1890869,866.1252441,1208.3640137,866.1773071,1209.5513916,866.1773071z"/>
		<g>
			<g>
				<g>
					<polygon class="st3" points="1185.1218262,810.3320923 1185.1218262,819.0568848 1185.1218262,827.1335449 
						1185.1218262,827.7817383 1185.1218262,845.2313843 1233.980835,845.2313843 1233.980835,827.7817383 1233.980835,827.1335449 
						1233.980835,819.0568848 1233.980835,810.3320923 					"/>
				</g>
			</g>
			<g>
				<g>
					<path class="st4" d="M1214.3499756,805.9696655c0.4730225,0,0.8724365,0.3995972,0.8724365,0.8724976v6.9798584
						c0,0.4728394-0.3994141,0.8724365-0.8724365,0.8724365h-9.59729c-0.4730225,0-0.8725586-0.3995972-0.8725586-0.8724365
						v-6.9798584c0-0.4729004,0.3995361-0.8724976,0.8725586-0.8724976H1214.3499756L1214.3499756,805.9696655z
						 M1214.3499756,803.3522339h-9.59729c-1.9194336,0-3.4899902,1.5704956-3.4899902,3.4899292v6.9798584
						c0,1.9193726,1.5705566,3.4899292,3.4899902,3.4899292h9.59729c1.9194336,0,3.4898682-1.5705566,3.4898682-3.4899292
						v-6.9798584C1217.8398438,804.9227295,1216.2694092,803.3522339,1214.3499756,803.3522339L1214.3499756,803.3522339z"/>
				</g>
			</g>
			<g>
				<g>
					<rect x="1188.6116943" y="809.4595947" class="st4" width="6.9798565" height="1.7449641"/>
				</g>
			</g>
			<g>
				<g>
					<rect x="1223.5109863" y="809.4595947" class="st4" width="6.9798565" height="1.7449641"/>
				</g>
			</g>
			<g>
				<g>
					<g>
						<polygon class="st5" points="1233.980835,827.1335449 1233.980835,819.0568848 1233.980835,810.3320923 
							1185.1218262,810.3320923 1185.1218262,819.0568848 1185.1218262,827.1335449 1185.1218262,827.7817383 
							1233.980835,827.7817383 						"/>
					</g>
				</g>
				<g>
					<g>
						<rect x="1185.1218262" y="827.7817383" class="st3" width="48.8591042" height="17.4496422"/>
					</g>
				</g>
			</g>
			<g>
				<g>
					<rect x="1185.1218262" y="827.7817383" class="st4" width="48.8591042" height="0.8724821"/>
				</g>
			</g>
			<g>
				<g>
					<g>
						<rect x="1206.0614014" y="826.0367432" class="st6" width="6.9798565" height="1.7449641"/>
					</g>
				</g>
				<g>
					<g>
						<rect x="1206.0614014" y="827.7817383" class="st7" width="6.9798565" height="1.7449641"/>
					</g>
				</g>
			</g>
		</g>
		<path class="st2" d="M1251.1710205,728.2255249h-0.0366211l-0.0981445-0.1962891h-0.0981445l-0.0981445-0.1963501h-0.0981445
			l-0.0981445-0.1962891h-0.0981445l-0.0981445-0.1962891h-0.0981445l-0.0981445-0.1962891h-0.0981445l-0.0981445-0.1962891
			h-0.0981445l-0.0981445-0.1963501h-0.0981445l-0.0981445-0.1962891h-0.0981445l-0.0981445-0.1962891h-0.0981445
			l-0.0981445-0.1962891h-0.0981445l-0.0981445-0.1962891h-0.0981445l-0.0981445-0.1962891h-0.0981445l-0.0981445-0.1962891
			h-0.0982666l-0.0981445-0.1962891h-0.0981445l-0.0981445-0.1962891h-0.0981445l-0.0981445-0.1963501h-0.0981445
			l-0.0981445-0.1962891h-0.0981445l-0.0981445-0.1962891h-0.0981445l-0.0981445-0.1962891h-0.0981445l-0.0981445-0.1963501
			h-0.0981445l-0.0981445-0.1962891h-0.0981445l-0.0981445-0.1962891h-0.0981445l-0.0981445-0.1962891h-0.0981445
			l-0.0981445-0.1962891h-0.0981445l-0.0981445-0.1963501h-0.0981445l-0.0982666-0.1962891h-0.0980225l-0.0982666-0.196228
			h-0.0981445l-0.0981445-0.1962891h-0.0981445l-0.0981445-0.1963501h-0.0981445l-0.0981445-0.1962891h-0.0981445
			l-0.0981445-0.1962891h-0.0981445l-0.0981445-0.1962891h-0.0981445l-0.0981445-0.1962891h-0.0981445l-0.0981445-0.1962891
			h-0.0981445l-0.0982666-0.1963501h-0.0980225l-0.0982666-0.1962891h-0.0981445l-0.0981445-0.1962891h-0.0981445
			l-0.0981445-0.1963501h-0.0981445l-0.0981445-0.1962891h-0.0980225l-0.0981445-0.1962891h-0.0982666l-0.0981445-0.1962891
			h-0.0981445l-0.0981445-0.1962891h-0.0981445l-0.0981445-0.1962891h-0.0981445l-0.0981445-0.1962891h-0.0981445
			l-0.0981445-0.1962891h-0.0981445l-0.0981445-0.1962891h-0.0981445l-0.0981445-0.1963501h-0.0981445l-0.0981445-0.1962891
			h-0.0981445l-0.0981445-0.1962891h-0.0982666l-0.0981445-0.1962891h-0.0981445l-0.0981445-0.1962891h-0.0981445
			l-0.0981445-0.1962891h-0.0981445l-0.0981445-0.1963501h-0.0981445l-0.0981445-0.1962891h-0.0981445l-0.0981445-0.1962891
			h-0.0981445l-0.0981445-0.1963501h-0.0981445l-0.0981445-0.1962891h-0.0981445l-0.0981445-0.1962891h-0.0981445
			l-0.0981445-0.1962891h-0.0981445l-0.0981445-0.1962891h-0.0981445l-0.0981445-0.1962891h-0.0981445l-0.0982666-0.1962891
			h-0.0980225l-0.0982666-0.1962891h-0.0980225l-0.0982666-0.1962891h-0.0981445l-0.0981445-0.1963501H1238.375
			l-0.0981445-0.1962891h-0.0981445l-0.0981445-0.1962891h-0.0981445l-0.0981445-0.1962891h-0.0981445l-0.0981445-0.1962891
			h-0.0981445l-0.0981445-0.1962891h-0.0981445l-0.0981445-0.1963501h-0.0981445l-0.0981445-0.1962891h-0.0981445
			l-0.0981445-0.1962891h-0.0981445l-0.0981445-0.1963501h-0.0981445l-0.0981445-0.1962891h-0.0981445l-0.0981445-0.1962891
			h-0.0982666l-0.0981445-0.1962891h-0.0981445l-0.0981445-0.196228h-0.0981445l-0.0981445-0.1962891h-0.0981445
			l-0.0981445-0.1963501h-0.0981445l-0.0981445-0.1962891h-0.0981445l-0.0981445-0.1962891h-0.0981445l-0.0981445-0.1963501
			h-0.0981445l-0.0981445-0.1962891h-0.0981445l-0.0981445-0.1962891h-0.0982666l-0.0981445-0.1962891h-0.0981445
			l-0.0981445-0.1962891h-0.0981445l-0.0981445-0.1962891h-0.0981445l-0.0981445-0.1963501h-0.0981445l-0.0981445-0.1962891
			h-0.0981445l-0.0981445-0.1962891h-0.0981445l-0.0981445-0.1963501h-0.0981445l-0.0981445-0.1962891h-0.0981445
			l-0.0981445-0.196228h-0.0981445l-0.0981445-0.1962891h-0.0981445l-0.0981445-0.1962891h-0.0981445l-0.0981445-0.1962891
			h-0.0981445l-0.0982666-0.1963501h-0.0980225l-0.0982666-0.1962891h-0.0980225l-0.0982666-0.1962891h-0.0981445
			l-0.0981445-0.1963501h-0.0981445l-0.0981445-0.1962891h-0.0981445l-0.0981445-0.1962891h-0.0981445l-0.0981445-0.1962891
			h-0.0981445l-0.0981445-0.1962891h-0.0981445l-0.0981445-0.1962891h-0.0981445l-0.0981445-0.1963501h-0.0981445
			l-0.0981445-0.1962891h-0.0981445l-0.0981445-0.1962891h-0.0981445l-0.0981445-0.1962891h-0.0981445l-0.0981445-0.1962891
			h-0.0982666l-0.0980225-0.1962891h-0.0982666l-0.0981445-0.1962891h-0.0981445l-0.0981445-0.1962891h-0.0981445
			l-0.0981445-0.1962891h-0.0981445l-0.0981445-0.1963501h-0.0981445l-0.0981445-0.1962891h-0.0981445l-0.0981445-0.1962891
			h-0.0981445l-0.0981445-0.1963501h-0.0981445l-0.0981445-0.1962891h-0.0981445l-0.0981445-0.1962891h-0.0982666
			l-0.0981445-0.1962891h-0.0980225l-0.0981445-0.1962891h-0.0981445l-0.0981445-0.1962891h-0.0981445l-0.0981445-0.1963501
			h-0.0981445l-0.0982666-0.1962891h-0.0980225l-0.0982666-0.1962891h-0.0981445l-0.0981445-0.1962891h-0.0981445
			l-0.0981445-0.1962891h-0.0981445l-0.0981445-0.1962891h-0.0981445l-0.0981445-0.1962891h-0.0981445l-0.0981445-0.1962891
			h-0.0981445l-0.0981445-0.1962891h-0.0981445l-0.0981445-0.1963501h-0.0981445l-0.0982666-0.1962891h-0.0980225
			l-0.0982666-0.1962891h-0.0981445l-0.0981445-0.1962891h-0.0981445l-0.0981445-0.1963501h-0.0981445l-0.0981445-0.1962891
			h-0.0981445l-0.0981445-0.1962891h-0.0981445l-0.0981445-0.1962891h-0.0981445l-0.0981445-0.1962891h-0.0981445
			l-0.0981445-0.1963501h-0.0981445l-0.0981445-0.1962891h-0.0981445l-0.0981445-0.196228h-0.0981445l-0.0981445-0.1962891
			h-0.0981445l-0.0981445-0.1963501h-0.0981445l-0.0981445-0.1962891h-0.0982666l-0.0981445-0.1962891h-0.0981445
			l-0.0981445-0.1962891h-0.0981445l-0.0981445-0.1962891h-0.0981445l-0.0981445-0.1963501h-0.0981445l-0.0981445-0.1962891
			h-0.0981445l-0.0981445-0.1962891h-0.0981445l-0.0981445-0.1962891h-0.0981445l-0.0981445-0.1963501h-0.0981445
			l-0.0981445-0.1962891h-0.0981445l-0.0981445-0.1962891h-0.0981445l-0.0981445-0.1962891h-20.9395752l-1.7449951,3.4899292
			l3.4898682,17.449646l0.1308594-0.1308594l0.0654297,0.3271484l0.1309814-0.1308594l0.0654297,0.3271484l0.1308594-0.1308594
			l0.0654297,0.3271484l0.1308594-0.1308594l0.0654297,0.3272095l0.1308594-0.1309204l0.0654297,0.3272095l0.1308594-0.1309204
			l0.0654297,0.3272095l0.1308594-0.1308594l0.0654297,0.3271484l0.1308594-0.1308594l0.0654297,0.3272095l0.1308594-0.1309204
			l0.0654297,0.3272095l0.1308594-0.1309204l0.0654297,0.3272095l0.1308594-0.1309204l0.0655518,0.3272095l0.1307373-0.1308594
			l0.0654297,0.3271484l0.1308594-0.1308594l0.0654297,0.3271484l0.1309814-0.1308594l0.0653076,0.3271484l0.1309814-0.1308594
			l0.0653076,0.3271484l0.1309814-0.1307983l0.0654297,0.3270874l0.1308594-0.1307983l0.0654297,0.3271484l0.1308594-0.1308594
			l0.0654297,0.3271484l0.1308594-0.1308594l0.0654297,0.3271484l0.1308594-0.1308594l0.0654297,0.3271484l0.1308594-0.1308594
			l0.0654297,0.3271484l0.1308594-0.1308594l0.0654297,0.3272095l0.1308594-0.1309204l0.0654297,0.3272095l0.1308594-0.1309204
			l0.0654297,0.3272095l0.1308594-0.1308594l0.0655518,0.3271484l0.1307373-0.1308594l0.0655518,0.3272095l0.1307373-0.1309204
			l0.0655518,0.3272095l0.1307373-0.1309204l0.0655518,0.3272095l0.1308594-0.1309204l0.0654297,0.3272095l0.1308594-0.1308594
			l0.0654297,0.3271484l0.1308594-0.1308594l0.0654297,0.3271484l0.1308594-0.1308594l0.0654297,0.3271484l0.0966797-0.0966187
			l-2.0350342,20.9195557l1.5704346,1.5703735l1.5037842,1.5037231l0.2629395,0.2630005l0.6203613,0.6203613l0.6203613,0.6203613
			l0.2629395,0.2630005l0.2629395,0.2629395l0.6204834,0.6203613l0.6203613,0.6204224l0.1647949,0.1647949l0.1647949,0.164856
			l0.6203613,0.6203613l0.6204834,0.6203613l0.2629395,0.2630005l0.2628174,0.2629395l0.6204834,0.6203613l0.6203613,0.6204224
			l0.1647949,0.1647339l0.1647949,0.164856l0.6203613,0.6204224l0.6204834,0.6203613l0.2629395,0.2630005l0.2629395,0.2628784
			l0.6203613,0.6204224l0.6204834,0.6204224l0.2629395,0.2629395l1.5037842,1.5037231l0.3294678,0.3295898l0.6204834,0.6204224
			l0.6203613,0.6204224l0.2629395,0.2628784l0.2629395,0.2630005l0.6203613,0.6203613l0.550293,0.5502319
			C1238.2141113,757.93573,1249.3480225,744.4893188,1251.1710205,728.2255249z"/>
		<g>
			<g>
				<polygon class="st8" points="1221.7659912,700.5039062 1197.3365479,700.5039062 1199.081543,697.0139771 
					1220.0211182,697.0139771 				"/>
			</g>
			<g>
				<polygon class="st5" points="1211.2962646,717.9535522 1207.8062744,717.9535522 1206.0614014,710.9736938 
					1213.0412598,710.9736938 				"/>
			</g>
			<g>
				<polygon class="st9" points="1200.826416,717.9535522 1207.8062744,710.9736938 1199.081543,697.0139771 
					1197.3365479,700.5039062 				"/>
			</g>
			<g>
				<polygon class="st9" points="1218.276123,717.9535522 1211.2962646,710.9736938 1220.0211182,697.0139771 
					1221.7659912,700.5039062 				"/>
			</g>
			<g>
				<g>
					<polygon id="SVGID_1_" class="st4" points="1205.1696777,745.0579834 1207.8062744,717.9535522 1211.2962646,717.9535522 
						1213.9328613,745.0579834 1209.5512695,749.4395752 					"/>
				</g>
				<g>
					<defs>
						<polygon id="SVGID_2_" points="1205.1696777,745.0579834 1207.8062744,717.9535522 1211.2962646,717.9535522 
							1213.9328613,745.0579834 1209.5512695,749.4395752 						"/>
					</defs>
					<clipPath id="SVGID_3_">
						<use xlink:href="#SVGID_2_"  style="overflow:visible;"/>
					</clipPath>
					<g class="st10">
						<g>
							<g>
								<g>
									
										<rect x="1208.8968506" y="702.9480591" transform="matrix(-0.3749796 -0.9270331 0.9270331 -0.3749796 1002.7276001 2100.7734375)" class="st5" width="1.3088031" height="18.8226147"/>
								</g>
							</g>
						</g>
						<g>
							<g>
								<g>
									
										<rect x="1208.8968506" y="706.4379883" transform="matrix(-0.3749796 -0.9270331 0.9270331 -0.3749796 999.4923096 2105.5722656)" class="st5" width="1.3088031" height="18.8226147"/>
								</g>
							</g>
						</g>
						<g>
							<g>
								<g>
									
										<rect x="1208.8968506" y="709.9279175" transform="matrix(-0.3749796 -0.9270331 0.9270331 -0.3749796 996.257019 2110.3706055)" class="st5" width="1.3088031" height="18.8226147"/>
								</g>
							</g>
						</g>
						<g>
							<g>
								<g>
									
										<rect x="1208.8968506" y="713.4178467" transform="matrix(-0.3749796 -0.9270331 0.9270331 -0.3749796 993.0217285 2115.1691895)" class="st5" width="1.3088031" height="18.8226147"/>
								</g>
							</g>
						</g>
						<g>
							<g>
								<g>
									
										<rect x="1208.8968506" y="716.9077759" transform="matrix(-0.3749796 -0.9270331 0.9270331 -0.3749796 989.786438 2119.9677734)" class="st5" width="1.3088031" height="18.8226147"/>
								</g>
							</g>
						</g>
						<g>
							<g>
								<g>
									
										<rect x="1208.8968506" y="720.3977051" transform="matrix(-0.3749796 -0.9270331 0.9270331 -0.3749796 986.5512085 2124.7663574)" class="st5" width="1.3088031" height="18.8226147"/>
								</g>
							</g>
						</g>
						<g>
							<g>
								<g>
									
										<rect x="1208.8968506" y="723.8876343" transform="matrix(-0.3749796 -0.9270331 0.9270331 -0.3749796 983.315918 2129.5649414)" class="st5" width="1.3088031" height="18.8226147"/>
								</g>
							</g>
						</g>
						<g>
							<g>
								<g>
									
										<rect x="1208.8967285" y="727.3775635" transform="matrix(-0.3749796 -0.9270331 0.9270331 -0.3749796 980.0805664 2134.3635254)" class="st5" width="1.3088031" height="18.8226147"/>
								</g>
							</g>
						</g>
						<g>
							<g>
								<g>
									
										<rect x="1208.8968506" y="730.8674927" transform="matrix(-0.3749796 -0.9270331 0.9270331 -0.3749796 976.8453369 2139.1621094)" class="st5" width="1.3088031" height="18.8226147"/>
								</g>
							</g>
						</g>
						<g>
							<g>
								<g>
									
										<rect x="1208.8968506" y="734.3574219" transform="matrix(-0.3749796 -0.9270331 0.9270331 -0.3749796 973.6100464 2143.9606934)" class="st5" width="1.3088031" height="18.8226147"/>
								</g>
							</g>
						</g>
						<g>
							<g>
								<g>
									
										<rect x="1208.8968506" y="737.8473511" transform="matrix(-0.3749796 -0.9270331 0.9270331 -0.3749796 970.3747559 2148.7592773)" class="st5" width="1.3088031" height="18.8226147"/>
								</g>
							</g>
						</g>
					</g>
				</g>
			</g>
		</g>
	</g>
	<g id="plus_2_">
		<g>
			<g>
				<path class="st11" d="M1118.4562988,745.6578369c0.5452881,0,0.7634277,0.1090698,0.7634277,0.7634277v22.3573608h21.4848633
					c0.5452881,0,0.6544189,0.2181396,0.6544189,0.8724976v7.7432861c0,0.6543579-0.1091309,0.7634277-0.7634277,0.7634277
					h-21.3758545v22.7935791c0,0.4362183-0.1090088,0.5452881-0.7634277,0.5452881h-8.397583
					c-0.5454102,0-0.6544189-0.2181396-0.6544189-0.6543579v-22.6845093h-21.3757324
					c-0.6542969,0-0.8724365-0.1090698-0.8724365-0.7634277v-7.852356c0-0.5452881,0.3271484-0.7634277,0.7634277-0.7634277
					h21.4847412v-22.4664307c0.1090088-0.4362183,0.2181396-0.6543579,0.6544189-0.6543579H1118.4562988z"/>
			</g>
			<g>
				<g>
					<path class="st12" d="M1117.802002,745.003479c0.5452881,0,0.7633057,0.1090698,0.7633057,0.7634277v22.3573608h21.4849854
						c0.5452881,0,0.6542969,0.2181396,0.6542969,0.8724976v7.7432861c0,0.6543579-0.1090088,0.7634277-0.7634277,0.7634277
						h-21.3758545v22.7935791c0,0.4362183-0.1090088,0.5452881-0.7633057,0.5452881h-8.3977051
						c-0.5452881,0-0.6542969-0.2181396-0.6542969-0.6543579V777.503479h-21.3757324
						c-0.6544189,0-0.8725586-0.1090698-0.8725586-0.7634277v-7.852356c0-0.5452881,0.3272705-0.7634277,0.7634277-0.7634277
						H1108.75v-22.4664307c0.1090088-0.4362183,0.2180176-0.6543579,0.6542969-0.6543579H1117.802002z"/>
				</g>
			</g>
		</g>
	</g>
	<g id="phone_2_">
		<path class="st9" d="M1054.0675049,979c1.3609619-1.8294678,2.166748-4.0963745,2.166748-6.5516968V611.4741821
			c0-6.0687866-4.9197998-10.9885254-10.9886475-10.9885254c0,0-46.4656982-4.9447632-92.0849609-4.9447632
			c-45.0325928,0-89.2262573,4.9447632-89.2262573,4.9447632c-6.0687256,0-10.9884644,4.9197388-10.9884644,10.9885254v360.9741211
			c0,2.4553223,0.8057861,4.722229,2.166687,6.5516968H1054.0675049z"/>
		<path class="st13" d="M865.6685791,641.1089478h177.8428955c0.6069336,0,1.098877,0.4919434,1.098877,1.098877v287.9173584
			c0,0.6068726-0.4919434,1.0988159-1.098877,1.0988159H865.6685791c-0.6069336,0-1.098877-0.4919434-1.098877-1.0988159
			V642.2078247C864.5697021,641.6008911,865.0616455,641.1089478,865.6685791,641.1089478z"/>
		<path class="st14" d="M889.2080688,896.0778198h130.2144165c5.7653809,0,10.4390869,4.6737671,10.4390869,10.4391479
			s-4.6737061,10.4390869-10.4390869,10.4390869H889.2080688c-5.7653198,0-10.4390869-4.6737061-10.4390869-10.4390869
			S883.442749,896.0778198,889.2080688,896.0778198z"/>
		<path class="st14" d="M958.4360352,849.3764648h71.4255371v38.4599609h-71.4255371V849.3764648z"/>
		<path class="st14" d="M881.5161133,849.3764648h71.4255981v38.4599609h-71.4255981V849.3764648z"/>
		<path class="st14" d="M881.5161133,680.7020874h146.6972656v17.5817261H881.5161133V680.7020874z"/>
		<path class="st14" d="M865.6685791,641.1089478h177.8428955c0.6069336,0,1.098877,0.4919434,1.098877,1.098877v21.4448242
			c0,0.6068726-0.4919434,1.0988159-1.098877,1.0988159H865.6685791c-0.6069336,0-1.098877-0.4919434-1.098877-1.0988159
			v-21.4448242C864.5697021,641.6008911,865.0616455,641.1089478,865.6685791,641.1089478z"/>
		<path class="st15" d="M937.0083008,623.6989746h35.1633911c1.5172119,0,2.7471313,1.2299194,2.7471313,2.7471313v0.309021
			c0,1.5172119-1.2299194,2.7471313-2.7471313,2.7471313h-35.1633911c-1.5171509,0-2.7471313-1.2299194-2.7471313-2.7471313
			v-0.309021C934.2611694,624.928894,935.4911499,623.6989746,937.0083008,623.6989746z"/>
		<path class="st13" d="M953.7658691,945.5263672c2.8826904,0,5.2195435,2.336853,5.2195435,5.2195435
			s-2.336853,5.2195435-5.2195435,5.2195435s-5.2195435-2.336853-5.2195435-5.2195435
			S950.8831787,945.5263672,953.7658691,945.5263672z"/>
		<path class="st16" d="M1036.4547119,650.6209106c-0.1893311,0-0.3427734-0.1533813-0.3432617-0.3428345
			c-0.0006104-0.1432495-0.0386963-3.5031738-2.6790771-3.5031738s-2.6781006,3.3599243-2.6784668,3.5031738
			c-0.0004883,0.1894531-0.1539307,0.3428345-0.3433838,0.3428345h-0.0002441
			c-0.1896973-0.0005493-0.3431396-0.1539307-0.3431396-0.3433838c0-0.0418091,0.0042725-1.038147,0.4013672-2.0485229
			c0.5500488-1.4003296,1.5750732-2.1408081,2.9638672-2.1408081c2.6624756,0,3.3658447,2.7401733,3.3658447,4.1893311
			c0,0.1894531-0.1535645,0.3428345-0.3428955,0.3433838H1036.4547119z"/>
		<path class="st16" d="M1038.1030273,650.4836426c0-0.3036499-0.2457275-0.5494385-0.5494385-0.5494385h-9.8896484
			c-0.3035889,0-0.5494385,0.2457886-0.5494385,0.5494385l-0.5493164,8.241272c0,0.303833,0.2457275,0.5494995,0.5493164,0.5494995
			h10.9885254c0.3037109,0,0.5495605-0.2456665,0.5495605-0.5494995L1038.1030273,650.4836426z M1030.1363525,652.6813965
			c-0.4549561,0-0.8240967-0.3686523-0.8240967-0.8243408c0-0.4554443,0.3691406-0.8240967,0.8240967-0.8240967
			s0.8240967,0.3686523,0.8240967,0.8240967C1030.9604492,652.3127441,1030.5913086,652.6813965,1030.1363525,652.6813965z
			 M1035.0812988,652.6813965c-0.4550781,0-0.8242188-0.3686523-0.8242188-0.8243408
			c0-0.4554443,0.3691406-0.8240967,0.8242188-0.8240967c0.454834,0,0.8240967,0.3686523,0.8240967,0.8240967
			C1035.9053955,652.3127441,1035.5361328,652.6813965,1035.0812988,652.6813965z"/>
		<path class="st16" d="M1030.9388428,646.9123535c0.3068848-0.354126,0.6662598-0.6261597,1.0776367-0.8092041
			c-0.0775146-0.0047607-0.1512451-0.0149536-0.2322998-0.0149536c-1.388916,0-2.4140625,0.7404785-2.9639893,2.1408081
			c-0.3969727,1.010376-0.4013672,2.0067139-0.4013672,2.0485229c0,0.1894531,0.1534424,0.3428345,0.3431396,0.3433838h0.0002441
			c0.1895752,0,0.3428955-0.1533813,0.3433838-0.3428345
			C1029.105835,650.1520386,1029.1368408,647.5410767,1030.9388428,646.9123535z"/>
		<path class="st16" d="M1033.432373,647.0496826c-0.1496582,0-0.2896729,0.0128784-0.4213867,0.0358887
			c1.4263916,0.8353882,1.4519043,3.0761108,1.4521484,3.1925049c0.0006104,0.1894531,0.1539307,0.3428345,0.3433838,0.3428345
			h0.0004883c0.1894531-0.0005493,0.3428955-0.1539307,0.3428955-0.3433838c0-0.8664551-0.2556152-2.1912231-1.0268555-3.1193848
			C1033.9169922,647.092041,1033.690918,647.0496826,1033.432373,647.0496826z"/>
		<path class="st16" d="M871.6264038,648.2858276h12.6368408v1.6483154h-12.6368408V648.2858276z"/>
		<path class="st16" d="M871.6264038,652.1318359h12.6368408v1.6483154h-12.6368408V652.1318359z"/>
		<path class="st16" d="M871.6264038,655.9778442h12.6368408v1.6483154h-12.6368408V655.9778442z"/>
		<path class="st17" d="M915.7832031,900.5166626c-0.3474121-0.2645874-0.8430176-0.1982422-1.1071777,0.1484375
			l-6.7659302,8.8601074l-2.5195312-2.979187c-0.2814941-0.3328247-0.7801514-0.3748779-1.1129761-0.0933228
			c-0.3331909,0.2818604-0.3748169,0.7801514-0.0933228,1.1129761l3.1538696,3.7296753
			c0.1503906,0.1777954,0.3709717,0.2799683,0.6031494,0.2799683c0.0065918,0,0.0131226,0,0.0197144-0.0003662
			c0.2390747-0.0057983,0.4627686-0.1199341,0.6081543-0.3101196l7.3625488-9.6409302
			C916.196228,901.2771606,916.1299438,900.7816162,915.7832031,900.5166626z"/>
		<g>
			<path class="st17" d="M925.8751831,908.1870117l-0.6703491,1.9121704
				c-0.0109863,0.06604-0.0440063,0.0880127-0.1099243,0.0880127h-1.1209717c-0.0769653,0-0.098938-0.03302-0.0769653-0.1099243
				c0.5935059-1.6814575,1.5936279-4.4838257,2.296936-6.3851318c0.032959-0.1099243,0.065979-0.2198486,0.0878906-0.6044312
				c0-0.0439453,0.03302-0.065918,0.065918-0.065918h1.5166016c0.0549927,0,0.065979,0.0109863,0.0880127,0.0549927
				c0.8132324,2.2528687,1.7034302,4.7366333,2.5386353,7.0114746c0.0219116,0.065918,0,0.098938-0.065918,0.098938h-1.230896
				c-0.0549316,0-0.0769043-0.0219727-0.098938-0.065918l-0.7033691-1.9342651H925.8751831z M928.0951538,907.1100464
				c-0.2198486-0.7363281-0.7583008-2.2199707-0.9781494-2.9893188h-0.0109863
				c-0.164856,0.7254028-0.6153564,1.9672241-0.9451294,2.9893188H928.0951538z"/>
			<path class="st17" d="M931.6328735,903.0986938c0-0.0440063,0.0109863-0.065918,0.0769043-0.0769043
				c0.6594849-0.0220337,1.4837036-0.03302,2.1980591-0.03302c2.4836426,0,3.7365723,1.4176636,3.7365723,3.527771
				c0,3.1321411-2.461731,3.6925659-3.9564209,3.6925659c-0.7802734,0-1.3517456-0.0109253-1.9782104-0.0219116
				c-0.0549316,0-0.0769043-0.0219727-0.0769043-0.098938V903.0986938z M932.9627075,909.1541138
				c0.1977539,0.0110474,0.4615479,0.0110474,0.7692871,0.0110474c1.5385132,0,2.5495605-0.8023071,2.5495605-2.6156006
				c0-1.6594849-0.868103-2.5057373-2.3737183-2.5057373c-0.4946289,0-0.8463135,0.0109863-0.9451294,0.0220337V909.1541138z"/>
			<path class="st17" d="M939.1049805,903.0986938c0-0.0440063,0.0109863-0.065918,0.0769043-0.0769043
				c0.6594849-0.0220337,1.4837036-0.03302,2.1980591-0.03302c2.4836426,0,3.7365723,1.4176636,3.7365723,3.527771
				c0,3.1321411-2.461731,3.6925659-3.9564209,3.6925659c-0.7802124,0-1.3517456-0.0109253-1.9782104-0.0219116
				c-0.0549316,0-0.0769043-0.0219727-0.0769043-0.098938V903.0986938z M940.4348145,909.1541138
				c0.1977539,0.0110474,0.4616089,0.0110474,0.7692871,0.0110474c1.5385742,0,2.5496216-0.8023071,2.5496216-2.6156006
				c0-1.6594849-0.8681641-2.5057373-2.3737793-2.5057373c-0.4946289,0-0.8463135,0.0109863-0.9451294,0.0220337V909.1541138z"/>
			<path class="st17" d="M950.5880737,904.0877686h-2.2089844c-0.065918,0-0.0769043-0.032959-0.065918-0.098938
				l0.1428833-0.8901367c0.0109863-0.0549316,0.0328979-0.0769043,0.098877-0.0769043h5.5389404
				c0.065918,0,0.0878906,0.0219727,0.0988159,0.0878906l0.098938,0.8682251
				c0.0109863,0.0769043-0.0109253,0.1098633-0.0769043,0.1098633h-2.296814v6.0004883
				c0,0.065918-0.0220947,0.098938-0.0880127,0.098938h-1.131897c-0.0769043,0.0109863-0.1099243-0.0219727-0.1099243-0.098938
				V904.0877686z"/>
			<path class="st17" d="M961.4785767,906.5604858c0,2.3518677-1.4067383,3.7366333-3.3959351,3.7366333
				c-2.1100464,0-3.4068604-1.4616699-3.4068604-3.7146606c0-2.2089233,1.4067383-3.6815186,3.4178467-3.6815186
				C960.1817627,902.9009399,961.4675903,904.5273438,961.4785767,906.5604858z M958.1266479,909.1871338
				c1.2418213,0,1.9891968-0.9891357,1.9891968-2.5936279c0-1.5496216-0.7913208-2.593689-2.0441284-2.593689
				c-1.164978,0-2.0222168,0.9231567-2.0222168,2.593689C956.0494995,908.1210938,956.8078003,909.1871338,958.1266479,909.1871338z
				"/>
			<path class="st17" d="M969.0601807,902.9009399c0.6923828,0,1.2418213,0.0988159,1.5275879,0.2417603
				c0.0439453,0.0219116,0.0549316,0.0439453,0.0549316,0.1098633v1.0001221c0,0.0769043-0.0440063,0.0769043-0.0769043,0.065918
				c-0.3626709-0.1539307-0.8352051-0.2747803-1.4726562-0.2747803c-1.5056152,0-2.5496826,0.9561768-2.5496826,2.5386353
				c0,1.9891357,1.428772,2.527771,2.5167236,2.527771c0.6373901,0,1.1868286-0.131958,1.5825195-0.2967529
				c0.0440063-0.0220337,0.0769043,0,0.0769043,0.065918v0.9561157c0,0.065918-0.0109863,0.1099243-0.0769043,0.1318359
				c-0.3845825,0.197876-1.0440674,0.3297729-1.8133545,0.3297729c-1.8682861,0-3.6486206-1.0550537-3.6486206-3.6816406
				C965.1807251,904.5383911,966.6973267,902.9009399,969.0601807,902.9009399z"/>
			<path class="st17" d="M973.6529541,908.1870117l-0.6703491,1.9121704
				c-0.0109863,0.06604-0.0440063,0.0880127-0.1099243,0.0880127h-1.1209717c-0.0769653,0-0.098938-0.03302-0.0769653-0.1099243
				c0.5935059-1.6814575,1.5936279-4.4838257,2.296936-6.3851318c0.0328979-0.1099243,0.065918-0.2198486,0.0878906-0.6044312
				c0-0.0439453,0.03302-0.065918,0.065918-0.065918h1.5166016c0.0549927,0,0.065918,0.0109863,0.0880127,0.0549927
				c0.8132324,2.2528687,1.7034302,4.7366333,2.5386353,7.0114746c0.0219116,0.065918,0,0.098938-0.065979,0.098938h-1.230835
				c-0.0549316,0-0.0769043-0.0219727-0.098938-0.065918l-0.7033691-1.9342651H973.6529541z M975.8729248,907.1100464
				c-0.2198486-0.7363281-0.7583618-2.2199707-0.9781494-2.9893188h-0.0109863
				c-0.164856,0.7254028-0.6153564,1.9672241-0.9451294,2.9893188H975.8729248z"/>
			<path class="st17" d="M979.5095825,910.1871948c-0.065918,0-0.0879517-0.0219727-0.0879517-0.0880127v-6.989502
				c0-0.0549927,0.0109863-0.0878906,0.065918-0.0878906c0.5824585-0.0220337,1.1759033-0.03302,2.1650391-0.03302
				c1.7254639,0,2.7584229,0.7033691,2.7584229,2.0661011c0,1.0330811-0.6153564,1.6485596-1.5055542,1.9453125
				c0.2747192,0.3516235,1.9781494,2.5715942,2.3078613,3.0661011c0.0440063,0.065918,0.03302,0.1209106-0.0328979,0.1209106
				h-1.3737793c-0.0878906,0-0.1209106-0.0219727-0.1539307-0.0549927
				c-0.3296509-0.4395142-1.3077393-1.8682861-1.7913208-2.5825806c-0.0879517-0.1539307-0.1538696-0.1978149-0.3516235-0.1978149
				h-0.7913208v2.7473755c0,0.06604-0.0219727,0.0880127-0.0769043,0.0880127H979.5095825z M981.5866089,906.296814
				c1.0550537,0,1.5056763-0.4725952,1.5056763-1.164978c0-0.7254028-0.5605469-1.098999-1.5056763-1.098999
				c-0.5054321,0-0.7911987,0.0109863-0.8681641,0.0219727v2.2420044H981.5866089z"/>
			<path class="st17" d="M987.4326782,904.0877686h-2.2090454c-0.065918,0-0.0769043-0.032959-0.065918-0.098938
				l0.1429443-0.8901367c0.0109863-0.0549316,0.0328979-0.0769043,0.0988159-0.0769043h5.5390015
				c0.065918,0,0.0878296,0.0219727,0.0988159,0.0878906l0.098938,0.8682251
				c0.0109863,0.0769043-0.0109863,0.1098633-0.0769043,0.1098633h-2.296875v6.0004883
				c0,0.065918-0.0220337,0.098938-0.0879517,0.098938h-1.131958c-0.0769653,0.0109863-0.1098633-0.0219727-0.1098633-0.098938
				V904.0877686z"/>
		</g>
		<g>
			<g>
				<path class="st18" d="M932.1633301,790.3347778l-4.0505981,0.2944946
					c0.012146,0.7855835,0.024292,1.4563599,0.0326538,1.9394531c0.0980225,5.024353,2.9500122,6.0797119,5.3272705,6.0797119
					c0.3435669,0,0.5563965-0.024292,0.5563965-0.024292c0.024292,0,0.0490112-0.0083618,0.0737305-0.0083618l6.755127-0.6464844
					c0.2576294-0.7935181,0.2903442-1.3909912,0.2903442-1.3909912s-0.8920288-42.4621582-1.1375122-47.8220825
					c-0.0490112-1.1923828-0.3846436-2.1539307-0.859314-2.9315796c-2.4627075-0.1981812-4.6887207-0.3741455-6.3704834-0.4926758
					c-0.2576904-0.0184326-0.5111694-0.0268555-0.7487183-0.0268555c-1.652832,0-2.8884277,0.4215088-3.6740112,1.2582397
					c-1.2028809,1.2807617-1.0926514,3.2281494-1.0926514,3.2365112c0.0041504,0.0305786,0.0041504,0.059082,0.0041504,0.0897217
					c0,0.0615845,0.0247192,1.1990967,0.0653687,3.0421143c3.2692871,0.182251,5.6708374,0.3129883,5.6708374,0.3129883
					s3.7644653,0.8123779,3.9240723,4.6707153c0.1760254,4.2081909,0.1512451,27.7549438,0.1512451,27.7549438
					S937.4985352,789.5081177,932.1633301,790.3347778z"/>
				<path class="st18" d="M919.2463989,791.267395l-6.7840576,0.4910278c0,0-5.5848999,0.7692261-5.7156372-5.3515015
					c-0.0900269-4.517395-0.6464233-30.0605469-0.6464233-30.0605469s-0.3846436-4.736084,5.3599243-4.3515015
					c1.7182007,0.1165161,4.2797852,0.2719116,7.0496216,0.4336548c-0.0779419-4.2161255-0.1474609-7.9110718-0.2006836-10.7382812
					c-3.624939-0.2719116-7.090271-0.5584717-9.4838867-0.8161621c-7.5817261-0.8245239-7.1154175,5.5338135-7.1154175,5.5338135
					s0.9125366,46.8806152,1.0842896,52.6172485c0.2086792,6.848938,7.5859375,5.736145,7.5859375,5.736145l9.119812-0.9736938
					C919.4302979,800.3997803,919.340271,796.0872803,919.2463989,791.267395z"/>
				<path class="st18" d="M1000.3568115,733.1144409c-0.3352051-8.7784424-8.0518799-10.6237183-8.0518799-10.6237183
					s-26.7422485-4.026062-38.4563599-5.4928589c-11.7182617-1.4586792-10.9900513,9.8912964-10.9900513,9.8912964
					s2.6596069,82.7736816,2.9378052,93.0272827c0.3109131,12.2172241,11.7098999,10.253479,11.7098999,10.253479
					l40.2893677-6.9637451c7.3240967-1.4647217,7.6923828-10.6218262,7.6923828-10.6218262
					S1000.729248,742.6886597,1000.3568115,733.1144409z M991.3433838,803.4276733l-29.9624634,3.1012573
					c0,0-8.7272339,1.317688-8.9237061-9.2794189c-0.1433105-7.8067627-1.8699341-52.5498047-1.8699341-52.5498047
					s-0.6011963-8.2015991,8.3795166-7.5285034c9.1612549,0.6791992,31.1204834,2.3485107,31.1204834,2.3485107
					s5.8753052,1.4013062,6.1329956,8.0952148c0.2781982,7.28302,2.8150635,47.7194214,2.8150635,47.7194214
					S999.6939697,801.9872437,991.3433838,803.4276733z"/>
				<path class="st18" d="M961.2212524,804.9494019l11.5423584-1.194458
					c-0.5316772-11.7509766-2.6022949-57.463562-2.8804932-64.0838013c0-0.0327148-0.0079346-0.0614014-0.0079346-0.0941162
					c-4.2102661-0.3171387-8.2202759-0.6178589-11.031189-0.8265381c-0.3066406-0.0245361-0.6095581-0.03479-0.895752-0.03479
					c-1.9230957,0-3.383606,0.515564-4.3413696,1.536438c-1.583313,1.6878052-1.4400635,4.3143311-1.4400635,4.3328247
					c0.0042114,0.0183716,0.0042114,0.034729,0.0042114,0.0531616c0,0.0327148,0.012146,0.276123,0.0285034,0.6954956
					c4.6887207,0.4051514,8.2445679,0.7181396,8.2445679,0.7181396s5.0612183,1.1375122,5.2903442,6.6223145
					c0.2329712,5.9674072,1.6813965,38.3477783,1.6813965,38.3477783s0.5689087,5.4584351-6.6240234,6.6286011l-6.6939087,0.6381226
					c0.4625244,5.5073853,3.6743774,6.7019043,6.3788452,6.7019043c0.4089355,0,0.6670532-0.0327148,0.6670532-0.0327148l0,0
					C961.1680908,804.9577637,961.1928101,804.9494019,961.2212524,804.9494019z"/>
				<path class="st18" d="M943.5787354,799.2949219l-9.3204956,0.8920288c0,0-7.5285645,1.088501-7.6923828-7.5939331
					c-0.1227417-6.3989868-0.8752441-42.6703491-0.8752441-42.6703491s-0.5236816-6.7124023,7.2009277-6.1702271
					c2.2666626,0.1596069,5.4906616,0.4193726,8.9442139,0.7038574c-0.2211914-6.9005127-0.3971558-12.3790894-0.4910278-15.2513428
					c-4.5253296-0.4459839-8.8704834-0.8898926-11.9922485-1.2458496c-10.208313-1.1599731-9.56604,7.8598633-9.56604,7.8598633
					s1.2150269,66.5365601,1.4525757,74.6868896c0.2781982,9.713501,10.2125244,8.1502686,10.2125244,8.1502686
					l12.6751709-1.6201782C944.0123291,813.2144775,943.8158569,806.888855,943.5787354,799.2949219z"/>
			</g>
			<g>
				<g>
					<g>
						<path class="st19" d="M931.5089722,789.6804199l-4.0505981,0.2944946
							c0.012146,0.7855835,0.024292,1.4563599,0.0326538,1.9394531c0.0980225,5.024353,2.9500122,6.0797119,5.3272705,6.0797119
							c0.3435669,0,0.5563965-0.024292,0.5563965-0.024292c0.024292,0,0.0490112-0.0083618,0.0737305-0.0083618l6.755127-0.6464844
							c0.2576294-0.7935181,0.2903442-1.3909912,0.2903442-1.3909912s-0.8920288-42.4621582-1.1375122-47.8220825
							c-0.0490112-1.1923828-0.3846436-2.1539307-0.859314-2.9315796c-2.4627686-0.1981812-4.6887207-0.3741455-6.3704834-0.4926758
							c-0.2576904-0.0184326-0.5111694-0.0268555-0.7487183-0.0268555c-1.6528931,0-2.8884277,0.4215088-3.6740112,1.2581787
							c-1.2028809,1.2808228-1.0926514,3.2282104-1.0926514,3.2365723c0.0041504,0.0305786,0.0041504,0.059082,0.0041504,0.0896606
							c0,0.0615845,0.0247192,1.1991577,0.0653687,3.0421753c3.2692871,0.182251,5.6708374,0.3129883,5.6708374,0.3129883
							s3.7644653,0.8123779,3.9240723,4.6707153c0.1759644,4.2081909,0.1512451,27.7549438,0.1512451,27.7549438
							S936.8441772,788.8537598,931.5089722,789.6804199z"/>
						<path class="st19" d="M918.592041,790.6130371l-6.7840576,0.4910278c0,0-5.5848999,0.7692261-5.7156372-5.3515625
							c-0.0900879-4.517334-0.6464844-30.0604858-0.6464844-30.0604858s-0.3845825-4.736084,5.3599854-4.3515015
							c1.7182007,0.1165161,4.2797852,0.2719116,7.0496216,0.4336548
							c-0.0779419-4.2161255-0.1474609-7.9110718-0.2006836-10.7382812c-3.624939-0.2719116-7.090271-0.5585327-9.4838867-0.8161621
							c-7.5817261-0.8245239-7.1154175,5.5338135-7.1154175,5.5338135s0.9125366,46.8806152,1.0842896,52.6171875
							c0.2086182,6.848999,7.5859375,5.7362061,7.5859375,5.7362061l9.119812-0.9736938
							C918.7759399,799.7454224,918.6858521,795.4329224,918.592041,790.6130371z"/>
					</g>
					<path class="st19" d="M999.7023926,732.460083c-0.335144-8.7784424-8.0518188-10.6237183-8.0518188-10.6237183
						s-26.7422485-4.026062-38.4563599-5.4928589c-11.7182617-1.4586792-10.9900513,9.8912964-10.9900513,9.8912964
						s2.6596069,82.7736816,2.9378052,93.0272217c0.3109131,12.2172852,11.7098999,10.25354,11.7098999,10.25354
						l40.2893677-6.9637451c7.3240967-1.4647217,7.6923828-10.6218262,7.6923828-10.6218262
						S1000.0748901,742.0343018,999.7023926,732.460083z M990.6890259,802.7733154l-29.9624634,3.1012573
						c0,0-8.7272339,1.317688-8.9237671-9.2794189c-0.1432495-7.8067627-1.869873-52.5498047-1.869873-52.5498047
						s-0.6011963-8.2015991,8.3795166-7.5285034c9.1612549,0.6791992,31.1204834,2.3485107,31.1204834,2.3485107
						s5.8753052,1.4013062,6.1329956,8.0952148c0.2781372,7.28302,2.8150635,47.7194214,2.8150635,47.7194214
						S999.0396118,801.3328857,990.6890259,802.7733154z"/>
					<g>
						<path class="st19" d="M960.5668945,804.2950439l11.5422974-1.194519
							c-0.5316162-11.7509155-2.6022339-57.463501-2.8804321-64.0837402c0-0.0327759-0.0079346-0.0614014-0.0079346-0.0941162
							c-4.2102661-0.3171387-8.2202759-0.6178589-11.031189-0.8265381c-0.3066406-0.0245361-0.6095581-0.03479-0.895752-0.03479
							c-1.9230957,0-3.383606,0.515564-4.3413696,1.536438c-1.583313,1.6878052-1.4400635,4.3143311-1.4400635,4.3327637
							c0.0042114,0.0184326,0.0042114,0.03479,0.0042114,0.0532227c0,0.0327148,0.012146,0.276123,0.0285034,0.6954956
							c4.6887207,0.4051514,8.2445679,0.7181396,8.2445679,0.7181396s5.0611572,1.1375122,5.2903442,6.6223145
							c0.2329712,5.9674072,1.6813965,38.3477783,1.6813965,38.3477783s0.5689087,5.4584351-6.6240234,6.6286011
							l-6.6939087,0.6381226c0.4625244,5.5073853,3.6743774,6.7019043,6.3788452,6.7019043
							c0.4089355,0,0.6669922-0.0327148,0.6669922-0.0327148l0,0
							C960.5137329,804.3034058,960.5384521,804.2950439,960.5668945,804.2950439z"/>
						<path class="st19" d="M942.9243774,798.640564l-9.3204956,0.8920288c0,0-7.5285645,1.088501-7.6923828-7.5939331
							c-0.1227417-6.3989868-0.8752441-42.6703491-0.8752441-42.6703491s-0.5236816-6.7124023,7.2009277-6.1702271
							c2.2666626,0.1596069,5.4906616,0.4193726,8.9442139,0.7038574
							c-0.2211914-6.9005127-0.3971558-12.3790894-0.4910278-15.2513428
							c-4.5253296-0.4459839-8.8704834-0.8898926-11.9922485-1.2458496c-10.208313-1.1599731-9.56604,7.8598633-9.56604,7.8598633
							s1.2150269,66.5365601,1.4525757,74.6868896c0.2781982,9.713501,10.2125244,8.1502686,10.2125244,8.1502686
							l12.6751709-1.6201782C943.3579712,812.5601196,943.161499,806.2344971,942.9243774,798.640564z"/>
					</g>
				</g>
			</g>
		</g>
	</g>
</g>
</svg>
