<?xml version="1.0" encoding="utf-8"?>
<!-- Generator: Adobe Illustrator 17.1.0, SVG Export Plug-In . SVG Version: 6.00 Build 0)  -->
<!DOCTYPE svg PUBLIC "-//W3C//DTD SVG 1.1//EN" "http://www.w3.org/Graphics/SVG/1.1/DTD/svg11.dtd">
<svg version="1.1" id="Layer_1" xmlns="http://www.w3.org/2000/svg" xmlns:xlink="http://www.w3.org/1999/xlink" x="0px" y="0px"
	 viewBox="0 0 400 400" enable-background="new 0 0 400 400" xml:space="preserve">
<g id="Layer_2_1_">
</g>
<g id="Layer_1_1_">
	<g id="Layer_2" display="none">
	</g>
	<g id="circle_2_">
		<circle fill="#F4B505" cx="358.114502" cy="245.2918091" r="41.8855591"/>
		<circle fill="#F4B505" cx="358.114502" cy="144.5089722" r="41.8855591"/>
	</g>
	<g id="enterprise_2_">
		<path fill="#E0A628" d="M358.114624,287.1773071c21.9530029,0,39.9589844-16.8897095,41.7385254-38.3833618h-0.0931396v-0.2459717
			h-0.2458496v-0.2459717h-0.2459717v-0.2459106h-0.2459717v-0.2459717h-0.2459717v-0.2459106h-0.2458496v-0.2459106h-0.2459717
			v-0.2459717h-0.2459717v-0.2459717h-0.2459717v-0.2459106h-0.2459717v-0.2459106h-0.2458496v-0.2459717h-0.2459717v-0.2459106
			h-0.2459717v-0.2459717h-0.2459717v-0.2459106h-0.2458496v-0.2459717h-0.2459717v-0.2459717h-0.2459717v-0.2459106h-0.2459717
			v-0.2459717h-0.2458496v-0.2459106h-0.2459717v-0.2459717h-0.2459717v-0.2459106h-0.2458496v-0.2459106h-0.2459717v-0.2459717
			h-0.2459717v-0.2459717h-0.2459717v-0.2459106h-0.2459717v-0.2459106h-0.2459717v-0.2459717h-0.2458496v-0.2459106h-0.2459717
			v-0.2459717h-0.2459717v-0.2459717h-0.2458496v-0.2459106h-0.2459717v-0.2459717h-0.2459717v-0.2459106h-0.2458496v-0.2459717
			h-0.2459717v-0.2459106h-0.2459717v-0.2459717h-0.2459717v-0.2459106h-0.2459717v-0.2459717h-0.2459717v-0.2459106h-0.2458496
			v-0.2459717h-0.2459717v-0.2459106h-0.2459717v-0.2459106h-0.2458496v-0.2459717h-0.2459717v-0.2459106h-0.2459717v-0.2459717
			h-0.2459717v-0.2459717h-0.2458496v-0.2459106h-0.2459717v-0.2459717h-0.2459717v-0.2459106h-0.2459717v-0.2459717h-0.2458496
			v-0.2459106h-0.2459717v-0.2459717h-0.2459717v-0.2459106h-0.2459717v-0.2459717h-0.2459717v-0.2459106h-0.2458496v-0.2459717
			h-0.2459717v-0.2459106h-0.2459717v-0.2459717h-0.2459717v-0.2459106h-0.2458496v-0.2459717H385.00354v-0.2459717h-0.2459717
			v-0.2459106h-0.2458496v-0.2459106h-0.2459717v-0.2459717h-0.2459717v-0.2459106h-0.2458496v-0.2459717h-0.2459717v-0.2459106
			h-0.2459717v-0.2459717h-0.2459717v-0.2459106h-0.2459717v-0.2459717h-0.2459717v-0.2459106h-2.7521973v-0.1347046h-0.2458496
			v-0.2459106h-0.2459717v-0.2459717h-0.2459717v-0.2459106h-6.9798584v0.8724976h-0.7463379
			c-0.0565186-0.0587769-0.1157227-0.114502-0.1761475-0.1692505c-0.0780029-0.0859985-0.1599121-0.1679688-0.2459717-0.2459106
			c-0.0780029-0.0860596-0.1599121-0.1680298-0.2459717-0.2460327c-0.0780029-0.0859375-0.1599121-0.1678467-0.2458496-0.2457886
			c-0.0780029-0.0860596-0.1599121-0.1680298-0.2459717-0.2460327c-0.0780029-0.0859985-0.1599121-0.1679688-0.2459717-0.2459106
			c-0.0780029-0.0860596-0.1599121-0.1680298-0.2459717-0.2459717c-0.0780029-0.0859985-0.1599121-0.1679688-0.2458496-0.2459106
			c-0.0780029-0.0859985-0.1599121-0.1679688-0.2459717-0.2459717c-0.0780029-0.0859985-0.1599121-0.1679688-0.2459717-0.2459717
			c-0.0780029-0.0859985-0.1599121-0.1679688-0.2459717-0.2459717c-0.0778809-0.0859985-0.1599121-0.1678467-0.2458496-0.2458496
			c-0.0780029-0.0859985-0.1599121-0.1679688-0.2459717-0.2459717c-0.0780029-0.0860596-0.1599121-0.1679688-0.2459717-0.2459106
			c-0.0778809-0.0860596-0.1599121-0.1680298-0.2459717-0.2459717c-0.0778809-0.0860596-0.15979-0.1679688-0.2458496-0.2459106
			c-0.0780029-0.0859985-0.1599121-0.1679688-0.2459717-0.2459717c-0.0780029-0.0860596-0.1599121-0.1679688-0.2459717-0.2459106
			c-0.0780029-0.0860596-0.1599121-0.1680298-0.2459717-0.2459717c-0.0778809-0.0860596-0.1599121-0.1679688-0.2459717-0.2459106
			c-0.0778809-0.0860596-0.1599121-0.1680298-0.2458496-0.2459717c-0.0780029-0.0859985-0.1599121-0.1679688-0.2459717-0.2459106
			c-0.0780029-0.0860596-0.1599121-0.1680298-0.2459717-0.2459717c-0.0778809-0.0860596-0.1599121-0.1680298-0.2459717-0.2459717
			c-0.6397705-0.7060547-1.5598145-1.1539307-2.5817871-1.1539307h-9.59729c-1.9194336,0-3.4899902,1.5704956-3.4899902,3.4899292
			v3.4899292h-4.9333496v-0.1347046h-0.2458496v-0.2459106h-0.2459717v-0.2459717h-0.2459717v-0.2459106h-6.9798584v0.8724976
			h-3.4898682v8.7247925v8.0766602v0.6481934v0.8724365v16.5772095h0.2459717v0.2459106h0.2458496v0.2459717h0.2459717v0.2459106
			h0.2459717v0.2459717h0.2458496v0.2459106h0.2459717v0.2459717h0.2459717v0.2459106h0.2459717v0.2459717h0.2458496v0.2459106
			h0.2459717v0.2459106h0.2459717v0.2459717h0.2459717v0.2459106h0.2459717v0.2459717h0.2458496v0.2459717h0.2459717v0.2459106
			h0.2459717v0.2459717h0.2458496v0.2459106h0.2459717v0.2459717h0.2459717v0.2459106h0.2459717v0.2459717h0.2458496v0.2459106
			h0.2459717v0.2459717h0.2459717v0.2459106h0.2459717v0.2459717h0.2458496v0.2459106h0.2459717v0.2459106h0.2459717v0.2459717
			h0.2459717v0.2459717h0.2459717v0.2459717h0.2458496v0.2459106h0.2459717v0.2459106h0.2459717v0.2459717h0.2459717v0.2459106
			h0.2458496v0.2459717h0.2459717v0.2459106h0.2459717v0.2459717h0.2459717v0.2459106h0.2458496v0.2459717h0.2459717v0.2459106
			h0.2459717v0.2459717h0.2459717v0.2459106h0.2459717v0.2459106h0.2458496v0.2459717h0.2459717v0.2459717h0.2459717v0.2459717
			h0.2458496v0.2459106h0.2459717v0.2459106h0.2459717v0.2459717h0.2459717v0.2459106h0.2458496v0.2459717h0.2459717v0.2459106
			h0.2459717v0.2459717h0.2458496v0.2459106h0.2459717v0.2459717h0.2459717v0.2459106h0.2459717v0.2459717h0.2459717V280.25
			h0.2458496v0.2459717h0.2459717v0.2459717h0.2459717v0.2459106H348.6875v0.2459717h0.2458496v0.2459106h0.2459717v0.2459106
			h0.2459717v0.2459717h0.2459717v0.2459106h0.2458496v0.2459717h0.2459717v0.2459106h0.2459717v0.2459717h0.2459717v0.2459106
			h0.2458496v0.2459717h0.2459717v0.2459106h0.2459717v0.2459717h0.2459717v0.2459106h0.2459717v0.2459717h0.2458496v0.2459717
			h0.2459717v0.2459106h0.2459717v0.2459717h0.2459717v0.2459106h0.2458496v0.2459106h0.2459717v0.2459717h0.2459717v0.2459717
			h0.2458496v0.2459106h0.2459717v0.2459106h0.2459717v0.2459717h0.2458496v0.1379395
			C355.7523193,287.1252441,356.9272461,287.1773071,358.114624,287.1773071z"/>
		<g>
			<g>
				<g>
					<polygon fill="#283343" points="333.6850586,231.3320923 333.6850586,240.0568848 333.6850586,248.1335449 
						333.6850586,248.7817383 333.6850586,266.2313843 382.5440674,266.2313843 382.5440674,248.7817383 382.5440674,248.1335449 
						382.5440674,240.0568848 382.5440674,231.3320923 					"/>
				</g>
			</g>
			<g>
				<g>
					<path fill="#242C3C" d="M362.913208,226.9696655c0.4730225,0,0.8724365,0.3995972,0.8724365,0.8724976v6.9798584
						c0,0.4728394-0.3994141,0.8724365-0.8724365,0.8724365h-9.59729c-0.4730225,0-0.8725586-0.3995972-0.8725586-0.8724365
						v-6.9798584c0-0.4729004,0.3995361-0.8724976,0.8725586-0.8724976H362.913208L362.913208,226.9696655z M362.913208,224.3522339
						h-9.59729c-1.9194336,0-3.4899902,1.5704956-3.4899902,3.4899292v6.9798584
						c0,1.9193726,1.5705566,3.4899292,3.4899902,3.4899292h9.59729c1.9194336,0,3.4898682-1.5705566,3.4898682-3.4899292
						v-6.9798584C366.4030762,225.9227295,364.8326416,224.3522339,362.913208,224.3522339L362.913208,224.3522339z"/>
				</g>
			</g>
			<g>
				<g>
					<rect x="337.1749268" y="230.4595947" fill="#242C3C" width="6.9798584" height="1.7449341"/>
				</g>
			</g>
			<g>
				<g>
					<rect x="372.0742188" y="230.4595947" fill="#242C3C" width="6.9798584" height="1.7449341"/>
				</g>
			</g>
			<g>
				<g>
					<g>
						<polygon fill="#2B3A49" points="382.5440674,248.1335449 382.5440674,240.0568848 382.5440674,231.3320923 
							333.6850586,231.3320923 333.6850586,240.0568848 333.6850586,248.1335449 333.6850586,248.7817383 382.5440674,248.7817383 
													"/>
					</g>
				</g>
				<g>
					<g>
						<rect x="333.6850586" y="248.7817383" fill="#283343" width="48.8591309" height="17.449646"/>
					</g>
				</g>
			</g>
			<g>
				<g>
					<rect x="333.6850586" y="248.7817383" fill="#242C3C" width="48.8591309" height="0.8724976"/>
				</g>
			</g>
			<g>
				<g>
					<g>
						<rect x="354.6246338" y="247.0367432" fill="#C2C3C6" width="6.9798584" height="1.7449341"/>
					</g>
				</g>
				<g>
					<g>
						<rect x="354.6246338" y="248.7817383" fill="#EFEEEE" width="6.9798584" height="1.7449341"/>
					</g>
				</g>
			</g>
		</g>
		<path fill="#E0A628" d="M399.7342529,149.2255249h-0.0366211l-0.0981445-0.1962891h-0.0981445l-0.0981445-0.1963501h-0.0981445
			l-0.0981445-0.1962891h-0.0981445l-0.0981445-0.1962891h-0.0981445l-0.0981445-0.1962891h-0.0981445l-0.0981445-0.1962891
			h-0.0981445l-0.0981445-0.1963501h-0.0981445l-0.0981445-0.1962891h-0.0981445l-0.0981445-0.1962891h-0.0981445
			l-0.0981445-0.1962891h-0.0981445l-0.0981445-0.1962891h-0.0981445l-0.0981445-0.1962891h-0.0981445l-0.0981445-0.1962891
			h-0.0982666l-0.0981445-0.1962891h-0.0981445l-0.0981445-0.1962891h-0.0981445l-0.0981445-0.1963501h-0.0981445
			l-0.0981445-0.1962891h-0.0981445l-0.0981445-0.1962891h-0.0981445l-0.0981445-0.1962891h-0.0981445l-0.0981445-0.1963501
			h-0.0981445l-0.0981445-0.1962891h-0.0981445l-0.0981445-0.1962891h-0.0981445l-0.0981445-0.1962891h-0.0981445
			l-0.0981445-0.1962891h-0.0981445l-0.0981445-0.1963501h-0.0981445l-0.0982666-0.1962891h-0.0980225l-0.0982666-0.196228
			h-0.0981445l-0.0981445-0.1962891h-0.0981445l-0.0981445-0.1963501h-0.0981445l-0.0981445-0.1962891h-0.0981445
			l-0.0981445-0.1962891h-0.0981445l-0.0981445-0.1962891h-0.0981445l-0.0981445-0.1962891h-0.0981445l-0.0981445-0.1962891
			h-0.0981445l-0.0982666-0.1963501h-0.0980225l-0.0982666-0.1962891h-0.0981445l-0.0981445-0.1962891h-0.0981445
			l-0.0981445-0.1963501h-0.0981445l-0.0981445-0.1962891h-0.0980225l-0.0981445-0.1962891h-0.0982666l-0.0981445-0.1962891
			h-0.0981445l-0.0981445-0.1962891h-0.0981445l-0.0981445-0.1962891h-0.0981445l-0.0981445-0.1962891h-0.0981445
			l-0.0981445-0.1962891h-0.0981445l-0.0981445-0.1962891h-0.0981445l-0.0981445-0.1963501h-0.0981445l-0.0981445-0.1962891
			h-0.0981445l-0.0981445-0.1962891h-0.0982666l-0.0981445-0.1962891h-0.0981445l-0.0981445-0.1962891h-0.0981445
			l-0.0981445-0.1962891h-0.0981445l-0.0981445-0.1963501h-0.0981445l-0.0981445-0.1962891h-0.0981445l-0.0981445-0.1962891
			h-0.0981445l-0.0981445-0.1963501h-0.0981445l-0.0981445-0.1962891h-0.0981445l-0.0981445-0.1962891h-0.0981445
			l-0.0981445-0.1962891h-0.0981445l-0.0981445-0.1962891h-0.0981445l-0.0981445-0.1962891h-0.0981445l-0.0982666-0.1962891
			h-0.0980225l-0.0982666-0.1962891h-0.0980225l-0.0982666-0.1962891h-0.0981445l-0.0981445-0.1963501h-0.0981445
			l-0.0981445-0.1962891h-0.0981445l-0.0981445-0.1962891h-0.0981445l-0.0981445-0.1962891h-0.0981445l-0.0981445-0.1962891
			h-0.0981445l-0.0981445-0.1962891h-0.0981445l-0.0981445-0.1963501h-0.0981445l-0.0981445-0.1962891h-0.0981445
			l-0.0981445-0.1962891h-0.0981445l-0.0981445-0.1963501h-0.0981445l-0.0981445-0.1962891h-0.0981445l-0.0981445-0.1962891
			h-0.0982666l-0.0981445-0.1962891h-0.0981445l-0.0981445-0.196228h-0.0981445l-0.0981445-0.1962891h-0.0981445
			l-0.0981445-0.1963501h-0.0981445l-0.0981445-0.1962891h-0.0981445l-0.0981445-0.1962891h-0.0981445l-0.0981445-0.1963501
			h-0.0981445l-0.0981445-0.1962891h-0.0981445l-0.0981445-0.1962891h-0.0982666l-0.0981445-0.1962891h-0.0981445
			l-0.0981445-0.1962891h-0.0981445l-0.0981445-0.1962891h-0.0981445l-0.0981445-0.1963501h-0.0981445l-0.0981445-0.1962891
			h-0.0981445l-0.0981445-0.1962891h-0.0981445l-0.0981445-0.1963501h-0.0981445l-0.0981445-0.1962891h-0.0981445
			l-0.0981445-0.196228h-0.0981445l-0.0981445-0.1962891h-0.0981445l-0.0981445-0.1962891h-0.0981445l-0.0981445-0.1962891
			h-0.0981445l-0.0982666-0.1963501h-0.0980225l-0.0982666-0.1962891h-0.0980225l-0.0982666-0.1962891h-0.0981445
			l-0.0981445-0.1963501H379.87146l-0.0981445-0.1962891h-0.0981445l-0.0981445-0.1962891h-0.0981445l-0.0981445-0.1962891
			h-0.0981445l-0.0981445-0.1962891h-0.0981445l-0.0981445-0.1962891h-0.0981445l-0.0981445-0.1963501h-0.0981445
			l-0.0981445-0.1962891h-0.0981445l-0.0981445-0.1962891h-0.0981445l-0.0981445-0.1962891h-0.0981445l-0.0981445-0.1962891
			h-0.0982666l-0.0980225-0.1962891h-0.0982666l-0.0981445-0.1962891h-0.0981445l-0.0981445-0.1962891h-0.0981445
			l-0.0981445-0.1962891h-0.0981445l-0.0981445-0.1963501h-0.0981445l-0.0981445-0.1962891h-0.0981445l-0.0981445-0.1962891
			h-0.0981445l-0.0981445-0.1963501h-0.0981445l-0.0981445-0.1962891h-0.0981445l-0.0981445-0.1962891h-0.0982666
			l-0.0981445-0.1962891h-0.0980225l-0.0981445-0.1962891h-0.0981445l-0.0981445-0.1962891h-0.0981445l-0.0981445-0.1963501
			h-0.0981445l-0.0982666-0.1962891h-0.0980225l-0.0982666-0.1962891h-0.0981445l-0.0981445-0.1962891h-0.0981445
			l-0.0981445-0.1962891h-0.0981445l-0.0981445-0.1962891h-0.0981445l-0.0981445-0.1962891h-0.0981445l-0.0981445-0.1962891
			h-0.0981445l-0.0981445-0.1962891h-0.0981445l-0.0981445-0.1963501h-0.0981445l-0.0982666-0.1962891h-0.0980225
			l-0.0982666-0.1962891h-0.0981445l-0.0981445-0.1962891h-0.0981445l-0.0981445-0.1963501h-0.0981445l-0.0981445-0.1962891
			h-0.0981445l-0.0981445-0.1962891h-0.0981445l-0.0981445-0.1962891h-0.0981445l-0.0981445-0.1962891h-0.0981445
			l-0.0981445-0.1963501h-0.0981445l-0.0981445-0.1962891h-0.0981445l-0.0981445-0.196228h-0.0981445l-0.0981445-0.1962891
			h-0.0981445l-0.0981445-0.1963501h-0.0981445l-0.0981445-0.1962891h-0.0982666l-0.0981445-0.1962891h-0.0981445
			l-0.0981445-0.1962891h-0.0981445l-0.0981445-0.1962891h-0.0981445l-0.0981445-0.1963501h-0.0981445l-0.0981445-0.1962891
			h-0.0981445l-0.0981445-0.1962891h-0.0981445l-0.0981445-0.1962891h-0.0981445l-0.0981445-0.1963501h-0.0981445
			l-0.0981445-0.1962891h-0.0981445l-0.0981445-0.1962891h-0.0981445l-0.0981445-0.1962891h-20.9395752l-1.7449951,3.4899292
			l3.4898682,17.449646l0.1308594-0.1308594l0.0654297,0.3271484l0.1309814-0.1308594l0.0654297,0.3271484l0.1308594-0.1308594
			l0.0654297,0.3271484l0.1308594-0.1308594l0.0654297,0.3272095l0.1308594-0.1309204l0.0654297,0.3272095l0.1308594-0.1309204
			l0.0654297,0.3272095l0.1308594-0.1308594l0.0654297,0.3271484l0.1308594-0.1308594l0.0654297,0.3272095l0.1308594-0.1309204
			l0.0654297,0.3272095l0.1308594-0.1309204l0.0654297,0.3272095l0.1308594-0.1309204l0.0655518,0.3272095l0.1307373-0.1308594
			l0.0654297,0.3271484l0.1308594-0.1308594l0.0654297,0.3271484l0.1309814-0.1308594l0.0653076,0.3271484l0.1309814-0.1308594
			l0.0653076,0.3271484l0.1309814-0.1307983l0.0654297,0.3270874l0.1308594-0.1307983l0.0654297,0.3271484l0.1308594-0.1308594
			l0.0654297,0.3271484l0.1308594-0.1308594l0.0654297,0.3271484l0.1308594-0.1308594l0.0654297,0.3271484l0.1308594-0.1308594
			l0.0654297,0.3271484l0.1308594-0.1308594l0.0654297,0.3272095l0.1308594-0.1309204l0.0654297,0.3272095l0.1308594-0.1309204
			l0.0654297,0.3272095l0.1308594-0.1308594l0.0655518,0.3271484l0.1307373-0.1308594l0.0655518,0.3272095l0.1307373-0.1309204
			l0.0655518,0.3272095l0.1307373-0.1309204l0.0655518,0.3272095l0.1308594-0.1309204l0.0654297,0.3272095l0.1308594-0.1308594
			l0.0654297,0.3271484l0.1308594-0.1308594l0.0654297,0.3271484l0.1308594-0.1308594l0.0654297,0.3271484l0.0966797-0.0966187
			l-2.0350342,20.9195557l1.5704346,1.5703735l1.5037842,1.5037231l0.2629395,0.2630005l0.6203613,0.6203613l0.6203613,0.6203613
			l0.2629395,0.2630005l0.2629395,0.2629395l0.6204834,0.6203613l0.6203613,0.6204224l0.1647949,0.1647949l0.1647949,0.164856
			l0.6203613,0.6203613l0.6204834,0.6203613l0.2629395,0.2630005l0.2628174,0.2629395l0.6204834,0.6203613l0.6203613,0.6204224
			l0.1647949,0.1647339l0.1647949,0.164856l0.6203613,0.6204224l0.6204834,0.6203613l0.2629395,0.2630005l0.2629395,0.2628784
			l0.6203613,0.6204224l0.6204834,0.6204224l0.2629395,0.2629395l1.5037842,1.5037231l0.3294678,0.3295898l0.6204834,0.6204224
			l0.6203613,0.6204224l0.2629395,0.2628784l0.2629395,0.2630005l0.6203613,0.6203613l0.550293,0.5502319
			C386.7773438,178.93573,397.9112549,165.4893188,399.7342529,149.2255249z"/>
		<g>
			<g>
				<polygon fill="#D8D8DA" points="370.3292236,121.5039062 345.8997803,121.5039062 347.6447754,118.0139771 
					368.5843506,118.0139771 				"/>
			</g>
			<g>
				<polygon fill="#2B3A49" points="359.8594971,138.9535522 356.3695068,138.9535522 354.6246338,131.9736938 
					361.6044922,131.9736938 				"/>
			</g>
			<g>
				<polygon fill="#FFFFFF" points="349.3896484,138.9535522 356.3695068,131.9736938 347.6447754,118.0139771 
					345.8997803,121.5039062 				"/>
			</g>
			<g>
				<polygon fill="#FFFFFF" points="366.8393555,138.9535522 359.8594971,131.9736938 368.5843506,118.0139771 
					370.3292236,121.5039062 				"/>
			</g>
			<g>
				<g>
					<polygon id="SVGID_1_" fill="#242C3C" points="353.7329102,166.0579834 356.3695068,138.9535522 359.8594971,138.9535522 
						362.4960938,166.0579834 358.114502,170.4395752 					"/>
				</g>
				<g>
					<g>
						<defs>
							<polygon id="SVGID_2_" points="353.7329102,166.0579834 356.3695068,138.9535522 359.8594971,138.9535522 
								362.4960938,166.0579834 358.114502,170.4395752 							"/>
						</defs>
						<clipPath id="SVGID_3_">
							<use xlink:href="#SVGID_2_"  overflow="visible"/>
						</clipPath>
						<g clip-path="url(#SVGID_3_)">
							<g>
								<g>
									<g>
										
											<rect x="357.4601135" y="123.9477997" transform="matrix(0.3749795 0.9270331 -0.9270331 0.3749795 347.4572144 -248.6318512)" fill="#2B3A49" width="1.308838" height="18.8226337"/>
									</g>
								</g>
							</g>
							<g>
								<g>
									<g>
										
											<rect x="357.4601135" y="127.437973" transform="matrix(0.3749795 0.9270331 -0.9270331 0.3749795 350.6927185 -246.4504089)" fill="#2B3A49" width="1.308838" height="18.8226337"/>
									</g>
								</g>
							</g>
							<g>
								<g>
									<g>
										
											<rect x="357.460083" y="130.9276733" transform="matrix(0.3749795 0.9270331 -0.9270331 0.3749795 353.9277954 -244.2692719)" fill="#2B3A49" width="1.308838" height="18.8226337"/>
									</g>
								</g>
							</g>
							<g>
								<g>
									<g>
										
											<rect x="357.460083" y="134.4176025" transform="matrix(0.3749795 0.9270331 -0.9270331 0.3749795 357.1630554 -242.0879822)" fill="#2B3A49" width="1.308838" height="18.8226337"/>
									</g>
								</g>
							</g>
							<g>
								<g>
									<g>
										
											<rect x="357.460083" y="137.9075317" transform="matrix(0.3749795 0.9270331 -0.9270331 0.3749795 360.3983459 -239.9066925)" fill="#2B3A49" width="1.308838" height="18.8226337"/>
									</g>
								</g>
							</g>
							<g>
								<g>
									<g>
										
											<rect x="357.4601135" y="141.3974609" transform="matrix(0.3749795 0.9270331 -0.9270331 0.3749795 363.6336365 -237.7254639)" fill="#2B3A49" width="1.308838" height="18.8226337"/>
									</g>
								</g>
							</g>
							<g>
								<g>
									<g>
										
											<rect x="357.4601135" y="144.8873901" transform="matrix(0.3749795 0.9270331 -0.9270331 0.3749795 366.868927 -235.5441742)" fill="#2B3A49" width="1.308838" height="18.8226337"/>
									</g>
								</g>
							</g>
							<g>
								<g>
									<g>
										
											<rect x="357.460083" y="148.3774414" transform="matrix(0.3749795 0.9270331 -0.9270331 0.3749795 370.1042786 -233.362793)" fill="#2B3A49" width="1.308838" height="18.8226337"/>
									</g>
								</g>
							</g>
							<g>
								<g>
									<g>
										
											<rect x="357.460083" y="151.8672485" transform="matrix(0.3749795 0.9270331 -0.9270331 0.3749795 373.3394775 -231.1815948)" fill="#2B3A49" width="1.308838" height="18.8226337"/>
									</g>
								</g>
							</g>
							<g>
								<g>
									<g>
										
											<rect x="357.460083" y="155.357193" transform="matrix(0.3749795 0.9270331 -0.9270331 0.3749795 376.5747681 -229.0003052)" fill="#2B3A49" width="1.308838" height="18.8226337"/>
									</g>
								</g>
							</g>
							<g>
								<g>
									<g>
										
											<rect x="357.4600525" y="158.8471222" transform="matrix(0.3749795 0.9270331 -0.9270331 0.3749795 379.8100281 -226.8190155)" fill="#2B3A49" width="1.308838" height="18.8226337"/>
									</g>
								</g>
							</g>
						</g>
					</g>
				</g>
			</g>
		</g>
	</g>
	<g id="plus_2_">
		<g>
			<g>
				<path fill="#4E5254" d="M267.0195312,166.6578369c0.5452881,0,0.7634277,0.1090698,0.7634277,0.7634277v22.3573608h21.4848633
					c0.5452881,0,0.6544189,0.2181396,0.6544189,0.8724976v7.7432861c0,0.6543579-0.1091309,0.7634277-0.7634277,0.7634277
					H267.782959v22.7935791c0,0.4362183-0.1090088,0.5452881-0.7634277,0.5452881h-8.397583
					c-0.5454102,0-0.6544189-0.2181396-0.6544189-0.6543579v-22.6845093h-21.3757324
					c-0.6542969,0-0.8724365-0.1090698-0.8724365-0.7634277v-7.852356c0-0.5452881,0.3271484-0.7634277,0.7634277-0.7634277
					h21.4847412v-22.4664307c0.1090088-0.4362183,0.2181396-0.6543579,0.6544189-0.6543579H267.0195312z"/>
			</g>
			<g>
				<g>
					<path fill="#111111" d="M266.3652344,166.003479c0.5452881,0,0.7633057,0.1090698,0.7633057,0.7634277v22.3573608h21.4849854
						c0.5452881,0,0.6542969,0.2181396,0.6542969,0.8724976v7.7432861c0,0.6543579-0.1090088,0.7634277-0.7634277,0.7634277
						H267.12854v22.7935791c0,0.4362183-0.1090088,0.5452881-0.7633057,0.5452881h-8.3977051
						c-0.5452881,0-0.6542969-0.2181396-0.6542969-0.6543579V198.503479H235.9375
						c-0.6544189,0-0.8725586-0.1090698-0.8725586-0.7634277v-7.852356c0-0.5452881,0.3272705-0.7634277,0.7634277-0.7634277
						h21.4848633v-22.4664307c0.1090088-0.4362183,0.2180176-0.6543579,0.6542969-0.6543579H266.3652344z"/>
				</g>
			</g>
		</g>
	</g>
	<g id="phone_2_">
		<path fill="#FFFFFF" d="M202.6307373,400c1.3609619-1.8294678,2.166748-4.0963745,2.166748-6.5516968V32.4741821
			c0-6.0687866-4.9197998-10.9885254-10.9886475-10.9885254c0,0-46.4656982-4.9447632-92.0849609-4.9447632
			c-45.0325928,0-89.2262573,4.9447632-89.2262573,4.9447632c-6.0687256,0-10.9884644,4.9197388-10.9884644,10.9885254v360.9741211
			c0,2.4553223,0.8057861,4.722229,2.166687,6.5516968H202.6307373z"/>
		<path fill="#515151" d="M14.2318115,62.1089478H192.074707c0.6069336,0,1.098877,0.4919434,1.098877,1.098877v287.9173584
			c0,0.6068726-0.4919434,1.0988159-1.098877,1.0988159H14.2318115c-0.6069336,0-1.098877-0.4919434-1.098877-1.0988159V63.2078247
			C13.1329346,62.6008911,13.6248779,62.1089478,14.2318115,62.1089478z"/>
		<path fill="#494949" d="M37.7713013,317.0778198h130.2144165c5.7653809,0,10.4390869,4.6737671,10.4390869,10.4391479
			s-4.6737061,10.4390869-10.4390869,10.4390869H37.7713013c-5.7653198,0-10.4390869-4.6737061-10.4390869-10.4390869
			S32.0059814,317.0778198,37.7713013,317.0778198z"/>
		<path fill="#494949" d="M106.9992676,270.3764648h71.4255371v38.4599609h-71.4255371V270.3764648z"/>
		<path fill="#494949" d="M30.0793457,270.3764648h71.4255981v38.4599609H30.0793457V270.3764648z"/>
		<path fill="#494949" d="M30.0793457,101.7020874h146.6972656v17.5817261H30.0793457V101.7020874z"/>
		<path fill="#494949" d="M14.2318115,62.1089478H192.074707c0.6069336,0,1.098877,0.4919434,1.098877,1.098877v21.4448242
			c0,0.6068726-0.4919434,1.0988159-1.098877,1.0988159H14.2318115c-0.6069336,0-1.098877-0.4919434-1.098877-1.0988159V63.2078247
			C13.1329346,62.6008911,13.6248779,62.1089478,14.2318115,62.1089478z"/>
		<path fill="#AEAEAE" d="M85.5715332,44.6989746h35.1633911c1.5172119,0,2.7471313,1.2299194,2.7471313,2.7471313v0.309021
			c0,1.5172119-1.2299194,2.7471313-2.7471313,2.7471313H85.5715332c-1.5171509,0-2.7471313-1.2299194-2.7471313-2.7471313
			v-0.309021C82.8244019,45.928894,84.0543823,44.6989746,85.5715332,44.6989746z"/>
		<path fill="#515151" d="M102.3291016,366.5263672c2.8826904,0,5.2195435,2.336853,5.2195435,5.2195435
			s-2.336853,5.2195435-5.2195435,5.2195435s-5.2195435-2.336853-5.2195435-5.2195435
			S99.4464111,366.5263672,102.3291016,366.5263672z"/>
		<path fill="#686868" d="M185.0179443,71.6209106c-0.1893311,0-0.3427734-0.1533813-0.3432617-0.3428345
			c-0.0006104-0.1432495-0.0386963-3.5031738-2.6790771-3.5031738s-2.6781006,3.3599243-2.6784668,3.5031738
			c-0.0004883,0.1894531-0.1539307,0.3428345-0.3433838,0.3428345h-0.0002441
			c-0.1896973-0.0005493-0.3431396-0.1539307-0.3431396-0.3433838c0-0.0418091,0.0042725-1.038147,0.4013672-2.0485229
			c0.5500488-1.4003296,1.5750732-2.1408081,2.9638672-2.1408081c2.6624756,0,3.3658447,2.7401733,3.3658447,4.1893311
			c0,0.1894531-0.1535645,0.3428345-0.3428955,0.3433838H185.0179443z"/>
		<path fill="#686868" d="M186.6662598,71.4836426c0-0.3036499-0.2457275-0.5494385-0.5494385-0.5494385h-9.8896484
			c-0.3035889,0-0.5494385,0.2457886-0.5494385,0.5494385l-0.5493164,8.241272c0,0.303833,0.2457275,0.5494995,0.5493164,0.5494995
			h10.9885254c0.3037109,0,0.5495605-0.2456665,0.5495605-0.5494995L186.6662598,71.4836426z M178.699585,73.6813965
			c-0.4549561,0-0.8240967-0.3686523-0.8240967-0.8243408c0-0.4554443,0.3691406-0.8240967,0.8240967-0.8240967
			s0.8240967,0.3686523,0.8240967,0.8240967C179.5236816,73.3127441,179.154541,73.6813965,178.699585,73.6813965z
			 M183.6445312,73.6813965c-0.4550781,0-0.8242188-0.3686523-0.8242188-0.8243408
			c0-0.4554443,0.3691406-0.8240967,0.8242188-0.8240967c0.454834,0,0.8240967,0.3686523,0.8240967,0.8240967
			C184.4686279,73.3127441,184.0993652,73.6813965,183.6445312,73.6813965z"/>
		<path fill="#686868" d="M179.5020752,67.9123535c0.3068848-0.354126,0.6662598-0.6261597,1.0776367-0.8092041
			c-0.0775146-0.0047607-0.1512451-0.0149536-0.2322998-0.0149536c-1.388916,0-2.4140625,0.7404785-2.9639893,2.1408081
			c-0.3969727,1.010376-0.4013672,2.0067139-0.4013672,2.0485229c0,0.1894531,0.1534424,0.3428345,0.3431396,0.3433838h0.0002441
			c0.1895752,0,0.3428955-0.1533813,0.3433838-0.3428345C177.6690674,71.1520386,177.7000732,68.5410767,179.5020752,67.9123535z"/>
		<path fill="#686868" d="M181.9956055,68.0496826c-0.1496582,0-0.2896729,0.0128784-0.4213867,0.0358887
			c1.4263916,0.8353882,1.4519043,3.0761108,1.4521484,3.1925049c0.0006104,0.1894531,0.1539307,0.3428345,0.3433838,0.3428345
			h0.0004883c0.1894531-0.0005493,0.3428955-0.1539307,0.3428955-0.3433838c0-0.8664551-0.2556152-2.1912231-1.0268555-3.1193848
			C182.4802246,68.092041,182.2541504,68.0496826,181.9956055,68.0496826z"/>
		<path fill="#686868" d="M20.1896362,69.2858276h12.6368408v1.6483154H20.1896362V69.2858276z"/>
		<path fill="#686868" d="M20.1896362,73.1318359h12.6368408v1.6483154H20.1896362V73.1318359z"/>
		<path fill="#686868" d="M20.1896362,76.9778442h12.6368408v1.6483154H20.1896362V76.9778442z"/>
		<path fill="#393939" d="M64.3464355,321.5166626c-0.3474121-0.2645874-0.8430176-0.1982422-1.1071777,0.1484375
			l-6.7659302,8.8601074l-2.5195312-2.979187c-0.2814941-0.3328247-0.7801514-0.3748779-1.1129761-0.0933228
			c-0.3331909,0.2818604-0.3748169,0.7801514-0.0933228,1.1129761l3.1538696,3.7296753
			c0.1503906,0.1777954,0.3709717,0.2799683,0.6031494,0.2799683c0.0065918,0,0.0131226,0,0.0197144-0.0003662
			c0.2390747-0.0057983,0.4627686-0.1199341,0.6081543-0.3101196l7.3625488-9.6409302
			C64.7594604,322.2771606,64.6931763,321.7816162,64.3464355,321.5166626z"/>
		<g>
			<path fill="#393939" d="M74.4384155,329.1870117l-0.6703491,1.9121704
				c-0.0109863,0.06604-0.0440063,0.0880127-0.1099243,0.0880127h-1.1209717c-0.0769653,0-0.098938-0.03302-0.0769653-0.1099243
				c0.5935059-1.6814575,1.5936279-4.4838257,2.296936-6.3851318c0.032959-0.1099243,0.065979-0.2198486,0.0878906-0.6044312
				c0-0.0439453,0.03302-0.065918,0.065918-0.065918h1.5166016c0.0549927,0,0.065979,0.0109863,0.0880127,0.0549927
				c0.8132324,2.2528687,1.7034302,4.7366333,2.5386353,7.0114746c0.0219116,0.065918,0,0.098938-0.065918,0.098938h-1.230896
				c-0.0549316,0-0.0769043-0.0219727-0.098938-0.065918l-0.7033691-1.9342651H74.4384155z M76.6583862,328.1100464
				c-0.2198486-0.7363281-0.7583008-2.2199707-0.9781494-2.9893188h-0.0109863
				c-0.164856,0.7254028-0.6153564,1.9672241-0.9451294,2.9893188H76.6583862z"/>
			<path fill="#393939" d="M80.196106,324.0986938c0-0.0440063,0.0109863-0.065918,0.0769043-0.0769043
				c0.6594849-0.0220337,1.4837036-0.03302,2.1980591-0.03302c2.4836426,0,3.7365723,1.4176636,3.7365723,3.527771
				c0,3.1321411-2.461731,3.6925659-3.9564209,3.6925659c-0.7802734,0-1.3517456-0.0109253-1.9782104-0.0219116
				c-0.0549316,0-0.0769043-0.0219727-0.0769043-0.098938V324.0986938z M81.5259399,330.1541138
				c0.1977539,0.0110474,0.4615479,0.0110474,0.7692871,0.0110474c1.5385132,0,2.5495605-0.8023071,2.5495605-2.6156006
				c0-1.6594849-0.868103-2.5057373-2.3737183-2.5057373c-0.4946289,0-0.8463135,0.0109863-0.9451294,0.0220337V330.1541138z"/>
			<path fill="#393939" d="M87.6682129,324.0986938c0-0.0440063,0.0109863-0.065918,0.0769043-0.0769043
				c0.6594849-0.0220337,1.4837036-0.03302,2.1980591-0.03302c2.4836426,0,3.7365723,1.4176636,3.7365723,3.527771
				c0,3.1321411-2.461731,3.6925659-3.9564209,3.6925659c-0.7802124,0-1.3517456-0.0109253-1.9782104-0.0219116
				c-0.0549316,0-0.0769043-0.0219727-0.0769043-0.098938V324.0986938z M88.9980469,330.1541138
				c0.1977539,0.0110474,0.4616089,0.0110474,0.7692871,0.0110474c1.5385742,0,2.5496216-0.8023071,2.5496216-2.6156006
				c0-1.6594849-0.8681641-2.5057373-2.3737793-2.5057373c-0.4946289,0-0.8463135,0.0109863-0.9451294,0.0220337V330.1541138z"/>
			<path fill="#393939" d="M99.1513062,325.0877686h-2.2089844c-0.065918,0-0.0769043-0.032959-0.065918-0.098938
				l0.1428833-0.8901367c0.0109863-0.0549316,0.0328979-0.0769043,0.098877-0.0769043h5.5389404
				c0.065918,0,0.0878906,0.0219727,0.0988159,0.0878906l0.098938,0.8682251
				c0.0109863,0.0769043-0.0109253,0.1098633-0.0769043,0.1098633h-2.296814v6.0004883
				c0,0.065918-0.0220947,0.098938-0.0880127,0.098938h-1.131897c-0.0769043,0.0109863-0.1099243-0.0219727-0.1099243-0.098938
				V325.0877686z"/>
			<path fill="#393939" d="M110.0418091,327.5604858c0,2.3518677-1.4067383,3.7366333-3.3959351,3.7366333
				c-2.1100464,0-3.4068604-1.4616699-3.4068604-3.7146606c0-2.2089233,1.4067383-3.6815186,3.4178467-3.6815186
				C108.7449951,323.9009399,110.0308228,325.5273438,110.0418091,327.5604858z M106.6898804,330.1871338
				c1.2418213,0,1.9891968-0.9891357,1.9891968-2.5936279c0-1.5496216-0.7913208-2.593689-2.0441284-2.593689
				c-1.164978,0-2.0222168,0.9231567-2.0222168,2.593689C104.6127319,329.1210938,105.3710327,330.1871338,106.6898804,330.1871338z
				"/>
			<path fill="#393939" d="M117.6234131,323.9009399c0.6923828,0,1.2418213,0.0988159,1.5275879,0.2417603
				c0.0439453,0.0219116,0.0549316,0.0439453,0.0549316,0.1098633v1.0001221c0,0.0769043-0.0440063,0.0769043-0.0769043,0.065918
				c-0.3626709-0.1539307-0.8352051-0.2747803-1.4726562-0.2747803c-1.5056152,0-2.5496826,0.9561768-2.5496826,2.5386353
				c0,1.9891357,1.428772,2.527771,2.5167236,2.527771c0.6373901,0,1.1868286-0.131958,1.5825195-0.2967529
				c0.0440063-0.0220337,0.0769043,0,0.0769043,0.065918v0.9561157c0,0.065918-0.0109863,0.1099243-0.0769043,0.1318359
				c-0.3845825,0.197876-1.0440674,0.3297729-1.8133545,0.3297729c-1.8682861,0-3.6486206-1.0550537-3.6486206-3.6816406
				C113.7439575,325.5383911,115.2605591,323.9009399,117.6234131,323.9009399z"/>
			<path fill="#393939" d="M122.2161865,329.1870117l-0.6703491,1.9121704
				c-0.0109863,0.06604-0.0440063,0.0880127-0.1099243,0.0880127h-1.1209717c-0.0769653,0-0.098938-0.03302-0.0769653-0.1099243
				c0.5935059-1.6814575,1.5936279-4.4838257,2.296936-6.3851318c0.0328979-0.1099243,0.065918-0.2198486,0.0878906-0.6044312
				c0-0.0439453,0.03302-0.065918,0.065918-0.065918h1.5166016c0.0549927,0,0.065918,0.0109863,0.0880127,0.0549927
				c0.8132324,2.2528687,1.7034302,4.7366333,2.5386353,7.0114746c0.0219116,0.065918,0,0.098938-0.065979,0.098938h-1.230835
				c-0.0549316,0-0.0769043-0.0219727-0.098938-0.065918l-0.7033691-1.9342651H122.2161865z M124.4361572,328.1100464
				c-0.2198486-0.7363281-0.7583618-2.2199707-0.9781494-2.9893188h-0.0109863
				c-0.164856,0.7254028-0.6153564,1.9672241-0.9451294,2.9893188H124.4361572z"/>
			<path fill="#393939" d="M128.0728149,331.1871948c-0.065918,0-0.0879517-0.0219727-0.0879517-0.0880127v-6.989502
				c0-0.0549927,0.0109863-0.0878906,0.065918-0.0878906c0.5824585-0.0220337,1.1759033-0.03302,2.1650391-0.03302
				c1.7254639,0,2.7584229,0.7033691,2.7584229,2.0661011c0,1.0330811-0.6153564,1.6485596-1.5055542,1.9453125
				c0.2747192,0.3516235,1.9781494,2.5715942,2.3078613,3.0661011c0.0440063,0.065918,0.03302,0.1209106-0.0328979,0.1209106
				h-1.3737793c-0.0878906,0-0.1209106-0.0219727-0.1539307-0.0549927
				c-0.3296509-0.4395142-1.3077393-1.8682861-1.7913208-2.5825806c-0.0879517-0.1539307-0.1538696-0.1978149-0.3516235-0.1978149
				h-0.7913208v2.7473755c0,0.06604-0.0219727,0.0880127-0.0769043,0.0880127H128.0728149z M130.1498413,327.296814
				c1.0550537,0,1.5056763-0.4725952,1.5056763-1.164978c0-0.7254028-0.5605469-1.098999-1.5056763-1.098999
				c-0.5054321,0-0.7911987,0.0109863-0.8681641,0.0219727v2.2420044H130.1498413z"/>
			<path fill="#393939" d="M135.9959106,325.0877686h-2.2090454c-0.065918,0-0.0769043-0.032959-0.065918-0.098938
				l0.1429443-0.8901367c0.0109863-0.0549316,0.0328979-0.0769043,0.0988159-0.0769043h5.5390015
				c0.065918,0,0.0878296,0.0219727,0.0988159,0.0878906l0.098938,0.8682251
				c0.0109863,0.0769043-0.0109863,0.1098633-0.0769043,0.1098633h-2.296875v6.0004883
				c0,0.065918-0.0220337,0.098938-0.0879517,0.098938h-1.131958c-0.0769653,0.0109863-0.1098633-0.0219727-0.1098633-0.098938
				V325.0877686z"/>
		</g>
		<g>
			<g>
				<path fill="#64676A" d="M80.7265625,211.3347778l-4.0505981,0.2944946
					c0.012146,0.7855835,0.024292,1.4563599,0.0326538,1.9394531c0.0980225,5.024353,2.9500122,6.0797119,5.3272705,6.0797119
					c0.3435669,0,0.5563965-0.024292,0.5563965-0.024292c0.024292,0,0.0490112-0.0083618,0.0737305-0.0083618l6.755127-0.6464844
					c0.2576294-0.7935181,0.2903442-1.3909912,0.2903442-1.3909912s-0.8920288-42.4621582-1.1375122-47.8220825
					c-0.0490112-1.1923828-0.3846436-2.1539307-0.859314-2.9315796c-2.4627075-0.1981812-4.6887207-0.3741455-6.3704834-0.4926758
					c-0.2576904-0.0184326-0.5111694-0.0268555-0.7487183-0.0268555c-1.652832,0-2.8884277,0.4215088-3.6740112,1.2582397
					c-1.2028809,1.2807617-1.0926514,3.2281494-1.0926514,3.2365112c0.0041504,0.0305786,0.0041504,0.059082,0.0041504,0.0897217
					c0,0.0615845,0.0247192,1.1990967,0.0653687,3.0421143c3.2692871,0.182251,5.6708374,0.3129883,5.6708374,0.3129883
					s3.7644653,0.8123779,3.9240723,4.6707153c0.1760254,4.2081909,0.1512451,27.7549438,0.1512451,27.7549438
					S86.0617676,210.5081177,80.7265625,211.3347778z"/>
				<path fill="#64676A" d="M67.8096313,212.267395l-6.7840576,0.4910278c0,0-5.5848999,0.7692261-5.7156372-5.3515015
					c-0.0900269-4.517395-0.6464233-30.0605469-0.6464233-30.0605469s-0.3846436-4.736084,5.3599243-4.3515015
					c1.7182007,0.1165161,4.2797852,0.2719116,7.0496216,0.4336548c-0.0779419-4.2161255-0.1474609-7.9110718-0.2006836-10.7382812
					c-3.624939-0.2719116-7.090271-0.5584717-9.4838867-0.8161621c-7.5817261-0.8245239-7.1154175,5.5338135-7.1154175,5.5338135
					s0.9125366,46.8806152,1.0842896,52.6172485c0.2086792,6.848938,7.5859375,5.736145,7.5859375,5.736145l9.119812-0.9736938
					C67.9935303,221.3997803,67.9035034,217.0872803,67.8096313,212.267395z"/>
				<path fill="#64676A" d="M148.9200439,154.1144409c-0.3352051-8.7784424-8.0518799-10.6237183-8.0518799-10.6237183
					s-26.7422485-4.026062-38.4563599-5.4928589c-11.7182617-1.4586792-10.9900513,9.8912964-10.9900513,9.8912964
					s2.6596069,82.7736816,2.9378052,93.0272827c0.3109131,12.2172241,11.7098999,10.253479,11.7098999,10.253479
					l40.2893677-6.9637451c7.3240967-1.4647217,7.6923828-10.6218262,7.6923828-10.6218262
					S149.2924805,163.6886597,148.9200439,154.1144409z M139.9066162,224.4276733l-29.9624634,3.1012573
					c0,0-8.7272339,1.317688-8.9237061-9.2794189c-0.1433105-7.8067627-1.8699341-52.5498047-1.8699341-52.5498047
					s-0.6011963-8.2015991,8.3795166-7.5285034c9.1612549,0.6791992,31.1204834,2.3485107,31.1204834,2.3485107
					s5.8753052,1.4013062,6.1329956,8.0952148c0.2781982,7.28302,2.8150635,47.7194214,2.8150635,47.7194214
					S148.2572021,222.9872437,139.9066162,224.4276733z"/>
				<path fill="#64676A" d="M109.7844849,225.9494019l11.5423584-1.194458
					c-0.5316772-11.7509766-2.6022949-57.463562-2.8804932-64.0838013c0-0.0327148-0.0079346-0.0614014-0.0079346-0.0941162
					c-4.2102661-0.3171387-8.2202759-0.6178589-11.031189-0.8265381c-0.3066406-0.0245361-0.6095581-0.03479-0.895752-0.03479
					c-1.9230957,0-3.383606,0.515564-4.3413696,1.536438c-1.583313,1.6878052-1.4400635,4.3143311-1.4400635,4.3328247
					c0.0042114,0.0183716,0.0042114,0.034729,0.0042114,0.0531616c0,0.0327148,0.012146,0.276123,0.0285034,0.6954956
					c4.6887207,0.4051514,8.2445679,0.7181396,8.2445679,0.7181396s5.0612183,1.1375122,5.2903442,6.6223145
					c0.2329712,5.9674072,1.6813965,38.3477783,1.6813965,38.3477783s0.5689087,5.4584351-6.6240234,6.6286011l-6.6939087,0.6381226
					c0.4625244,5.5073853,3.6743774,6.7019043,6.3788452,6.7019043c0.4089355,0,0.6670532-0.0327148,0.6670532-0.0327148l0,0
					C109.7313232,225.9577637,109.7560425,225.9494019,109.7844849,225.9494019z"/>
				<path fill="#64676A" d="M92.1419678,220.2949219l-9.3204956,0.8920288c0,0-7.5285645,1.088501-7.6923828-7.5939331
					c-0.1227417-6.3989868-0.8752441-42.6703491-0.8752441-42.6703491s-0.5236816-6.7124023,7.2009277-6.1702271
					c2.2666626,0.1596069,5.4906616,0.4193726,8.9442139,0.7038574c-0.2211914-6.9005127-0.3971558-12.3790894-0.4910278-15.2513428
					c-4.5253296-0.4459839-8.8704834-0.8898926-11.9922485-1.2458496c-10.208313-1.1599731-9.56604,7.8598633-9.56604,7.8598633
					s1.2150269,66.5365601,1.4525757,74.6868896c0.2781982,9.713501,10.2125244,8.1502686,10.2125244,8.1502686
					l12.6751709-1.6201782C92.5755615,234.2144775,92.3790894,227.888855,92.1419678,220.2949219z"/>
			</g>
			<g>
				<g>
					<g>
						<path fill="#343434" d="M80.0722046,210.6804199l-4.0505981,0.2944946
							c0.012146,0.7855835,0.024292,1.4563599,0.0326538,1.9394531c0.0980225,5.024353,2.9500122,6.0797119,5.3272705,6.0797119
							c0.3435669,0,0.5563965-0.024292,0.5563965-0.024292c0.024292,0,0.0490112-0.0083618,0.0737305-0.0083618l6.755127-0.6464844
							c0.2576294-0.7935181,0.2903442-1.3909912,0.2903442-1.3909912s-0.8920288-42.4621582-1.1375122-47.8220825
							c-0.0490112-1.1923828-0.3846436-2.1539307-0.859314-2.9315796c-2.4627686-0.1981812-4.6887207-0.3741455-6.3704834-0.4926758
							c-0.2576904-0.0184326-0.5111694-0.0268555-0.7487183-0.0268555c-1.6528931,0-2.8884277,0.4215088-3.6740112,1.2581787
							c-1.2028809,1.2808228-1.0926514,3.2282104-1.0926514,3.2365723c0.0041504,0.0305786,0.0041504,0.059082,0.0041504,0.0896606
							c0,0.0615845,0.0247192,1.1991577,0.0653687,3.0421753c3.2692871,0.182251,5.6708374,0.3129883,5.6708374,0.3129883
							s3.7644653,0.8123779,3.9240723,4.6707153c0.1759644,4.2081909,0.1512451,27.7549438,0.1512451,27.7549438
							S85.4074097,209.8537598,80.0722046,210.6804199z"/>
						<path fill="#343434" d="M67.1552734,211.6130371l-6.7840576,0.4910278c0,0-5.5848999,0.7692261-5.7156372-5.3515625
							c-0.0900879-4.517334-0.6464844-30.0604858-0.6464844-30.0604858s-0.3845825-4.736084,5.3599854-4.3515015
							c1.7182007,0.1165161,4.2797852,0.2719116,7.0496216,0.4336548
							c-0.0779419-4.2161255-0.1474609-7.9110718-0.2006836-10.7382812c-3.624939-0.2719116-7.090271-0.5585327-9.4838867-0.8161621
							c-7.5817261-0.8245239-7.1154175,5.5338135-7.1154175,5.5338135s0.9125366,46.8806152,1.0842896,52.6171875
							c0.2086182,6.848999,7.5859375,5.7362061,7.5859375,5.7362061l9.119812-0.9736938
							C67.3391724,220.7454224,67.2490845,216.4329224,67.1552734,211.6130371z"/>
					</g>
					<path fill="#343434" d="M148.265625,153.460083c-0.335144-8.7784424-8.0518188-10.6237183-8.0518188-10.6237183
						s-26.7422485-4.026062-38.4563599-5.4928589c-11.7182617-1.4586792-10.9900513,9.8912964-10.9900513,9.8912964
						s2.6596069,82.7736816,2.9378052,93.0272217c0.3109131,12.2172852,11.7098999,10.25354,11.7098999,10.25354
						l40.2893677-6.9637451c7.3240967-1.4647217,7.6923828-10.6218262,7.6923828-10.6218262
						S148.6381226,163.0343018,148.265625,153.460083z M139.2522583,223.7733154l-29.9624634,3.1012573
						c0,0-8.7272339,1.317688-8.9237671-9.2794189c-0.1432495-7.8067627-1.869873-52.5498047-1.869873-52.5498047
						s-0.6011963-8.2015991,8.3795166-7.5285034c9.1612549,0.6791992,31.1204834,2.3485107,31.1204834,2.3485107
						s5.8753052,1.4013062,6.1329956,8.0952148c0.2781372,7.28302,2.8150635,47.7194214,2.8150635,47.7194214
						S147.6028442,222.3328857,139.2522583,223.7733154z"/>
					<g>
						<path fill="#343434" d="M109.130127,225.2950439l11.5422974-1.194519
							c-0.5316162-11.7509155-2.6022339-57.463501-2.8804321-64.0837402c0-0.0327759-0.0079346-0.0614014-0.0079346-0.0941162
							c-4.2102661-0.3171387-8.2202759-0.6178589-11.031189-0.8265381c-0.3066406-0.0245361-0.6095581-0.03479-0.895752-0.03479
							c-1.9230957,0-3.383606,0.515564-4.3413696,1.536438c-1.583313,1.6878052-1.4400635,4.3143311-1.4400635,4.3327637
							c0.0042114,0.0184326,0.0042114,0.03479,0.0042114,0.0532227c0,0.0327148,0.012146,0.276123,0.0285034,0.6954956
							c4.6887207,0.4051514,8.2445679,0.7181396,8.2445679,0.7181396s5.0611572,1.1375122,5.2903442,6.6223145
							c0.2329712,5.9674072,1.6813965,38.3477783,1.6813965,38.3477783s0.5689087,5.4584351-6.6240234,6.6286011
							l-6.6939087,0.6381226c0.4625244,5.5073853,3.6743774,6.7019043,6.3788452,6.7019043
							c0.4089355,0,0.6669922-0.0327148,0.6669922-0.0327148l0,0
							C109.0769653,225.3034058,109.1016846,225.2950439,109.130127,225.2950439z"/>
						<path fill="#343434" d="M91.4876099,219.640564l-9.3204956,0.8920288c0,0-7.5285645,1.088501-7.6923828-7.5939331
							c-0.1227417-6.3989868-0.8752441-42.6703491-0.8752441-42.6703491s-0.5236816-6.7124023,7.2009277-6.1702271
							c2.2666626,0.1596069,5.4906616,0.4193726,8.9442139,0.7038574
							c-0.2211914-6.9005127-0.3971558-12.3790894-0.4910278-15.2513428
							c-4.5253296-0.4459839-8.8704834-0.8898926-11.9922485-1.2458496c-10.208313-1.1599731-9.56604,7.8598633-9.56604,7.8598633
							s1.2150269,66.5365601,1.4525757,74.6868896c0.2781982,9.713501,10.2125244,8.1502686,10.2125244,8.1502686
							l12.6751709-1.6201782C91.9212036,233.5601196,91.7247314,227.2344971,91.4876099,219.640564z"/>
					</g>
				</g>
			</g>
		</g>
	</g>
</g>
</svg>
