<?xml version="1.0" encoding="UTF-8" standalone="no"?>
<svg width="1828px" height="1759px" viewBox="0 0 1828 1759" version="1.1" xmlns="http://www.w3.org/2000/svg" xmlns:xlink="http://www.w3.org/1999/xlink" xmlns:sketch="http://www.bohemiancoding.com/sketch/ns">
    <title>Slice 1</title>
    <description>Created with Sketch (http://www.bohemiancoding.com/sketch)</description>
    <defs></defs>
    <g id="Page-1" stroke="none" stroke-width="1" fill="none" fill-rule="evenodd" sketch:type="MSPage">
        <g id="hero" sketch:type="MSLayerGroup" transform="translate(278.000000, -262.000000)">
            <g id="phone" transform="translate(59.163987, 8.297731)" sketch:type="MSShapeGroup">
                <path d="M155.87175,297.634532 C156.919798,296.212064 157.545246,294.450913 157.545246,292.554289 L157.545246,12.2941893 C157.545246,7.58649696 153.724943,3.75938019 149.025632,3.75938019 C149.025632,3.75938019 113.020119,-0.084670725 77.6569591,-0.084670725 C42.7502067,-0.084670725 8.50271015,3.75938019 8.50271015,3.75938019 C3.80339917,3.75938019 -0.0169039963,7.58649696 -0.0169039963,12.2941893 L-0.0169039963,292.537355 C-0.0169039963,294.450913 0.608543868,296.19513 1.65659164,297.617598 L155.87175,297.617598 L155.87175,297.634532 Z" id="Shape" fill="#FFFFFF"></path>
                <path d="M9.85502986,35.3076923 L147.673312,35.3076923 C148.146624,35.3076923 148.518512,35.6971776 148.518512,36.1543996 L148.518512,259.685113 C148.518512,260.15927 148.12972,260.531821 147.673312,260.531821 L9.85502986,260.531821 C9.38171796,260.531821 9.00983004,260.142335 9.00983004,259.685113 L9.00983004,36.1543996 C9.00983004,35.6802435 9.38171796,35.3076923 9.85502986,35.3076923 L9.85502986,35.3076923 Z" id="Shape" fill="#515151"></path>
                <path d="M78.130271,268.118318 C80.3615985,268.118318 82.1703261,269.930271 82.1703261,272.165578 C82.1703261,274.400885 80.3615985,276.212839 78.130271,276.212839 C75.8989435,276.212839 74.0902159,274.400885 74.0902159,272.165578 C74.0902159,269.930271 75.8989435,268.118318 78.130271,268.118318 L78.130271,268.118318 Z" id="Shape" fill="#515151"></path>
            </g>
        </g>
    </g>
</svg>