<?xml version="1.0" encoding="utf-8"?>
<!-- Generator: Adobe Illustrator 17.1.0, SVG Export Plug-In . SVG Version: 6.00 Build 0)  -->
<!DOCTYPE svg PUBLIC "-//W3C//DTD SVG 1.1//EN" "http://www.w3.org/Graphics/SVG/1.1/DTD/svg11.dtd">
<svg version="1.1" id="Layer_1" xmlns="http://www.w3.org/2000/svg" xmlns:xlink="http://www.w3.org/1999/xlink" x="0px" y="0px"
	 viewBox="-60 0 500 362" style="enable-background:new -60 0 500 362;" xml:space="preserve">
<style type="text/css">
	.st0{display:none;}
	.st1{fill:#F4B505;}
	.st2{fill:#E0A628;}
	.st3{fill:#283343;}
	.st4{fill:#242C3C;}
	.st5{fill:#2B3A49;}
	.st6{fill:#C2C3C6;}
	.st7{fill:#EFEEEE;}
	.st8{fill:#D8D8DA;}
	.st9{fill:#FFFFFF;}
	.st10{clip-path:url(#SVGID_3_);}
	.st11{fill:#4E5254;}
	.st12{fill:#111111;}
	.st13{fill:#515151;}
	.st14{fill:#494949;}
	.st15{fill:#AEAEAE;}
	.st16{fill:#686868;}
	.st17{fill:#393939;}
	.st18{fill:#64676A;}
	.st19{fill:#343434;}
</style>
<g id="Layer_2" class="st0">
	
		<image style="display:inline;overflow:visible;opacity:0.54;enable-background:new    ;" width="962" height="715" xlink:href="../../../../Desktop/briefcase.png"  transform="matrix(0.0163988 0 0 0.0167832 8.1121998 0)">
	</image>
</g>
<g id="circle">
	<circle class="st1" cx="329.7142334" cy="224.5652771" r="37.2318001"/>
	<circle class="st1" cx="329.7142334" cy="135.0949707" r="37.2318001"/>
</g>
<g id="enterprise">
	<path class="st2" d="M329.7142334,261.7970581c19.4707031,0,35.5221863-15.0066833,37.0418396-34.0974731h-0.0949707v-0.1899567
		h-0.1899719v-0.1899719h-0.1899414v-0.1899567h-0.1899719v-0.1899567h-0.1899414v-0.1899567h-0.1899719v-0.1899567h-0.1899414
		v-0.3799133h-0.1899719v-0.1899567h-0.1899414v-0.1899567h-0.1899719v-0.1899567h-0.1899414v-0.1899719h-0.1899414v-0.1899567
		h-0.4749451v-0.1899567h-0.1899414v-0.1899567h-0.1899719v-0.1899567h-0.1899414v-0.1899567h-0.1899719v-0.1899567h-0.1899414
		v-0.1899719h-0.1899414v-0.1899567h-0.1899719v-0.5698547h-0.1899414v-0.1899719h-0.3799438v-0.1899567h-0.1899719v-0.1899567
		h-0.1899414v-0.1899567h-0.1899719v-0.1899567h-0.3799133v-0.1899567h-0.1899414v-0.1899567h-0.1899719v-0.1899719h-0.1899414
		v-0.1899567h-0.1899719v-0.1899567h-0.1899414v-0.1899567h-0.1899719v-0.1899567h-0.1899414v-0.56987h-0.1899719v-0.1899567
		h-0.3799133v-0.1899567h-0.1899719v-0.1899567h-0.1899414v-0.1899719h-0.1899719v-0.1899567h-0.3799133v-0.1899567h-0.1899719
		v-0.1899567h-0.1899414v-0.1899567h-0.1899719v-0.1899567h-0.1899414v-0.1899567h-0.1899719v-0.1899719h-0.1899414v-0.1899567
		h-0.1899414v-0.5698547h-0.1899719v-0.1899719h-0.3799438v-0.1899567h-0.1899414v-0.1899567h-0.1899719v-0.1899567h-0.1899414
		v-0.1899567h-0.1899719v-0.1899567h-0.1899414v-0.1899567h-0.1899414v-0.1899719h-0.1899719v-0.3798981h-0.1899414v-0.1899719
		h-0.1899719v-0.1899567h-0.1899414v-0.1899567h-0.1899719v-0.3799133h-0.1899414v-0.1899567h-0.5699158v-0.1899567h-0.1899414
		v-0.1899567h-0.1899719v-0.1899567h-0.1899414v-0.1899719h-0.1899719v-0.1899567h-0.1899414v-0.1899567h-0.1899719v-0.1899567
		h-0.1899414v-0.3799133h-0.1899719v-0.1899567h-0.1899414v-0.1899567h-0.1899414v-0.1899567h-2.4694824v-0.094986h-0.1899414
		v-0.1899567h-0.1899719v-0.1899567h-0.1899414v-0.1899567h-6.173645v0.7598267h-0.664856
		c-0.0949707-0.094986-0.0949707-0.094986-0.1899414-0.1899567c-0.0950012-0.094986-0.0950012-0.1899567-0.1899719-0.1899567
		c-0.0949707-0.094986-0.0949707-0.1899567-0.1899414-0.1899567c-0.0950012-0.094986-0.0950012-0.1899719-0.1899719-0.1899719
		c-0.0949707-0.0949707-0.0949707-0.1899567-0.1899414-0.1899567c-0.0950012-0.0949707-0.0950012-0.1899567-0.1899719-0.1899567
		c-0.0949707-0.0949707-0.0949707-0.1899567-0.1899414-0.1899567c-0.0949707-0.094986-0.0949707-0.1899567-0.1899414-0.1899567
		c-0.0950012-0.094986-0.0950012-0.1899567-0.1899719-0.1899567c-0.0949707-0.094986-0.0949707-0.1899567-0.1899414-0.1899567
		c-0.0950012-0.094986-0.0950012-0.1899719-0.1899719-0.1899719c-0.0949707-0.0949707-0.0949707-0.1899567-0.1899414-0.1899567
		c-0.0950012-0.0949707-0.0950012-0.1899567-0.1899719-0.1899567c-0.0949707-0.0949707-0.0949707-0.1899567-0.1899414-0.1899567
		c-0.0950012-0.094986-0.0950012-0.1899567-0.1899719-0.1899567c-0.0949707-0.094986-0.0949707-0.1899567-0.1899414-0.1899567
		c-0.0950012-0.094986-0.0950012-0.1899567-0.1899719-0.1899567c-0.0949707-0.094986-0.0949707-0.1899719-0.1899414-0.1899719
		c-0.0949707-0.0949707-0.0949707-0.1899567-0.1899414-0.1899567c-0.0950012-0.0949707-0.0950012-0.1899567-0.1899719-0.1899567
		c-0.0949707-0.0949707-0.0949707-0.1899567-0.1899414-0.1899567c-0.0950012-0.094986-0.0950012-0.1899567-0.1899719-0.1899567
		c-0.0949707-0.094986-0.0949707-0.1899567-0.1899414-0.1899567c-0.0950012-0.094986-0.0950012-0.1899567-0.1899719-0.1899567
		c-0.5698853-0.664856-1.4246826-1.0447845-2.27948-1.0447845h-8.5481262c-1.7096252,0-3.1343079,1.4246979-3.1343079,3.1343231
		v3.1343079h-4.3690491v-0.094986h-0.1899414v-0.1899567h-1.2348328v-0.1899567h-0.1899719v-0.1899567h-6.173645v0.7598267
		h-3.1343079v7.7882843v6.1736603v0.5698853v0.7598267v14.721756h0.1899719v0.1899567h0.1899414v0.1899567h0.1899719v0.1899719
		h0.1899414v0.1899567h0.1899719v0.1899567h0.1899414v0.1899567h0.1899414v0.1899567h0.1899719v0.1899567h0.1899414v0.4748993
		h0.1899719v0.1899567h0.1899414v0.1899567h0.1899719v0.1899567h0.1899414v0.1899414h0.1899719v0.1899567h0.1899414v0.1899567
		h0.1899719v0.1899567h0.1899414v0.1899567h0.1899414v0.1899567h0.1899719v0.1899567h0.1899414v0.1899567h0.1899719v0.1899567
		h0.1899414v0.5699005h0.1899719v0.1899567h0.1899414v0.1899567h0.1899719v0.1899567h0.1899414v0.1899567h0.1899719v0.1899567
		h0.1899414v0.1899567h0.1899414v0.1899567h0.1899719v0.1899567h0.1899414v0.3799286h0.1899719v0.1899567h0.1899414v0.1899567
		h0.1899719v0.1899567h0.1899414v0.3799286h0.1899719v0.1899567h0.1899414v0.1899567h0.1899719v0.1899414h0.1899414v0.1899567
		h0.1899414v0.1899567h0.1899719v0.1899567h0.1899414v0.1899567h0.1899719v0.1899567h0.1899414v0.3799438h0.1899719v0.1899567
		h0.1899414v0.1899567h0.1899719v0.1899414h0.1899414v0.3799286h0.1899719v0.1899567h0.1899414v0.1899567h0.1899414v0.1899567
		h0.1899719v0.1899567h0.1899414v0.1899567h0.1899719v0.1899567h0.1899414v0.1899567h0.1899719v0.1899414h0.1899414v0.3799438
		h0.1899719v0.1899567h0.1899414v0.1899414h0.1899719v0.1899719h0.1899414v0.1899414h0.1899414v0.1899719h0.1899719v0.1899414
		h0.1899414v0.1899719h0.1899719v0.1899414h0.1899414v0.1899719h0.1899719v0.1899414h0.1899414v0.1899719h0.1899719v0.1899414
		h0.1899414v0.5699158h0.1899719v0.1899414h0.1899414v0.1899719h0.1899414v0.1899414h0.1899719v0.1899719h0.1899414v0.1899414
		h0.1899719v0.1899719h0.1899414v0.1899414h0.1899719v0.1899414h0.1899414v0.1899719h0.1899719v0.1899414h0.1899414v0.1899719
		h0.1899719v0.1899414h0.1899414v0.5699158h0.1899414v0.1899719h0.1899719v0.0949707
		C327.6246948,261.7970581,328.6694641,261.7970581,329.7142334,261.7970581z"/>
	<g>
		<g>
			<g>
				<polygon class="st3" points="308.0589905,212.2179871 308.0589905,219.9113007 308.0589905,227.1296997 308.0589905,227.699585 
					308.0589905,243.1811676 351.464447,243.1811676 351.464447,227.699585 351.464447,227.1296997 351.464447,219.9113007 
					351.464447,212.2179871 				"/>
			</g>
		</g>
		<g>
			<g>
				<path class="st4" d="M333.9882812,208.3238525c0.3799133,0,0.7598572,0.3799133,0.7598572,0.7598267v6.173645
					c0,0.3799133-0.3799133,0.7598267-0.7598572,0.7598267h-8.5480957c-0.3799133,0-0.7598572-0.3799133-0.7598572-0.7598267
					v-6.173645c0-0.3799133,0.3799133-0.7598267,0.7598572-0.7598267H333.9882812L333.9882812,208.3238525z
					 M333.9882812,206.0443573h-8.5480957c-1.7096252,0-3.1343384,1.4246826-3.1343384,3.1343079v6.1736298
					c0,1.7096252,1.4247131,3.1343079,3.1343384,3.1343079h8.5480957c1.7096252,0,3.1343079-1.4246826,3.1343079-3.1343079
					v-6.2686157C337.1225891,207.374054,335.6979065,206.0443573,333.9882812,206.0443573L333.9882812,206.0443573z"/>
			</g>
		</g>
		<g>
			<g>
				<rect x="311.1933289" y="211.4581604" class="st4" width="6.1736403" height="1.5196656"/>
			</g>
		</g>
		<g>
			<g>
				<rect x="342.1564941" y="211.4581604" class="st4" width="6.1736403" height="1.5196656"/>
			</g>
		</g>
		<g>
			<g>
				<g>
					<polygon class="st5" points="351.464447,227.1296997 351.464447,219.9113007 351.464447,212.2179871 308.0589905,212.2179871 
						308.0589905,219.9113007 308.0589905,227.1296997 308.0589905,227.699585 351.464447,227.699585 					"/>
				</g>
			</g>
			<g>
				<g>
					<rect x="308.0589905" y="227.699585" class="st3" width="43.4054375" height="15.4815893"/>
				</g>
			</g>
		</g>
		<g>
			<g>
				<rect x="308.0589905" y="227.699585" class="st4" width="43.4054375" height="0.7598319"/>
			</g>
		</g>
		<g>
			<g>
				<g>
					<rect x="326.6748962" y="226.1799164" class="st6" width="6.1736403" height="1.5196638"/>
				</g>
			</g>
			<g>
				<g>
					<rect x="326.6748962" y="227.699585" class="st7" width="6.1736403" height="1.5196638"/>
				</g>
			</g>
		</g>
	</g>
	<path class="st2" d="M366.756073,139.2740631L366.756073,139.2740631l-0.0949707-0.1899567h-0.0950012l-0.0949707-0.1899719
		h-0.0950012l-0.0949707-0.1899567h-0.0950012l-0.0949707-0.1899567h-0.0949402l-0.0950012-0.1899567h-0.0949707
		l-0.0950012-0.1899567h-0.0949707l-0.0950012-0.1899567h-0.0949707l-0.0950012-0.1899567h-0.0949707l-0.0949707-0.1899719
		h-0.0950012l-0.0949707-0.1899567h-0.0950012l-0.0949707-0.1899567h-0.0950012l-0.0949707-0.1899567h-0.0950012
		l-0.0949707-0.1899567h-0.0950012l-0.0949707-0.1899567h-0.0950012l-0.0949707-0.1899567h0.0950928l-0.0949707-0.1899719
		h-0.0950012l-0.0949707-0.1899567h-0.0950012l-0.0949707-0.1899567h-0.0950012l-0.0949707-0.1899567h-0.0949707
		l-0.0950012-0.1899567h-0.0949707l-0.0950012-0.1899567h-0.0949707l-0.0950012-0.1899719h-0.0949707l-0.0950012-0.1899567
		h-0.0949707l-0.0950012-0.1899567h-0.0949707l-0.0950012-0.1899567h-0.0949707l-0.0950012-0.1899567h0.0951233
		l-0.0950012-0.1899567h-0.0949707l-0.0950012-0.1899567h-0.0949707l-0.0950012-0.1899719h-0.0949707l-0.0950012-0.1899567
		h-0.0949707l-0.0949707-0.1899567h-0.0949402l-0.0949707-0.1899567h-0.0950012l-0.0949707-0.1899567h-0.0950012
		l-0.0949707-0.1899567h-0.0950012l-0.0949707-0.1899567h-0.0950012l-0.0949707-0.1899719h-0.0950012l-0.0949707-0.1899567
		h-0.0950012l-0.0949707-0.1899567h-0.0950012l-0.0949707-0.1899567h-0.0949707l-0.0950012-0.1899567h-0.0949707
		l-0.0950012-0.1899567h-0.0949707l-0.0950012-0.1899567h0.0951233l-0.0950012-0.1899719h-0.0949707l-0.0950012-0.1899567
		h-0.0949707l-0.0950012-0.1899567h-0.0949707l-0.0950012-0.1899567h-0.0949707l-0.0950012-0.1899567h-0.0949707
		l-0.0950012-0.1899567h-0.0949707l-0.0950012-0.1899567h-0.0949707l-0.0949707-0.1899719h-0.0950012l-0.0949707-0.1899567
		H357.63797l-0.0949707-0.1899567h-0.0950012l-0.0949707-0.1899567h0.0950928l-0.0949707-0.1899567h-0.0950012l-0.0949707-0.1899567
		h-0.0950012l-0.0949707-0.1899567h-0.0950012l-0.0949707-0.1899719h-0.0950012l-0.0949707-0.1899567h-0.0950012
		l-0.0949707-0.1899567h-0.0950012l-0.0949707-0.1899567h-0.0949707l-0.0950012-0.1899567h-0.0949707l-0.0950012-0.1899643
		h-0.0949707l-0.0950012-0.1899567h-0.0949707l-0.0950012-0.1899567h0.0951233l-0.0950012-0.1899643h-0.0949707
		l-0.0950012-0.1899567h-0.0949707l-0.0950012-0.1899567h-0.0949707l-0.0950012-0.1899567h-0.0949707l-0.0950012-0.1899643
		h-0.0949707l-0.0950012-0.1899567h-0.0949707l-0.0950012-0.1899567H354.21875l-0.0949707-0.1899643h-0.0950012
		l-0.0949707-0.1899567h-0.0950012l-0.0949707-0.1899567h-0.0950012l-0.0949707-0.1899567h0.0950928l-0.0949707-0.1899643
		h-0.0950012l-0.0949707-0.1899567h-0.0950012l-0.0949707-0.1899567h-0.0950012l-0.0949707-0.1899643h-0.0950012
		l-0.0949707-0.1899567h-0.0949402l-0.0949707-0.1899567h-0.0950012l-0.0949707-0.1899567h-0.0950012l-0.0949707-0.1899567
		h-0.0949707l-0.0950012-0.1899567h-0.0949707l-0.0950012-0.1899567h-0.0949707l-0.0950012-0.1899567h-0.0949707
		l-0.0950012-0.1899567h-0.0949707l-0.0950012-0.189949h-0.0949707l-0.0950012-0.1899567h-0.0949707l-0.0950012-0.1899567
		h-0.0949707l-0.0949707-0.1899567h0.0950928l-0.0950012-0.1899567h-0.0949707l-0.0950012-0.189949h-0.0949707l-0.0950012-0.1899567
		h-0.0949707l-0.0949707-0.1899567h-0.0950012l-0.0949707-0.1899567h-0.0950012l-0.0949707-0.1899567h-0.0950012
		l-0.0949707-0.1899567h-0.0950012l-0.0949707-0.189949h-0.0950012l-0.0949707-0.1899567h-0.0950012l-0.0949707-0.1899567
		h-0.0949707l-0.0950012-0.1899567h0.0950928l-0.0949707-0.1899567h-0.0950012l-0.0949707-0.189949H348.52005l-0.0949707-0.1899567
		h-0.0949707l-0.0950012-0.1899567h-0.0949707l-0.0950012-0.1899567h-0.0949707l-0.0950012-0.1899567h-0.0949707
		l-0.0950012-0.189949h-0.0949707l-0.0950012-0.1899567h-0.0949707l-0.0950012-0.1899567h-0.0949707l-0.0950012-0.1899567
		h-0.0949707l-0.0949707-0.1899567h0.0950928l-0.0950012-0.1899567h-0.0949707l-0.0950012-0.189949h-0.0949707l-0.0949707-0.1899567
		h-0.0950012l-0.0949707-0.1899567h-0.0950012l-0.0949707-0.1899567h-0.0950012l-0.0949707-0.1899567h-0.0950012
		l-0.0949707-0.189949h-0.0950012l-0.0949707-0.1899567h-0.0950012l-0.0949707-0.1899567h-0.0950012l-0.0949707-0.1899567
		h-0.0949707l-0.0950012-0.1899567h0.0950928l-0.0949707-0.1899567h-0.0950012l-0.0949707-0.189949h-0.0950012l-0.0949707-0.1899567
		h-0.0949707l-0.0950012-0.1899567h-0.0949707l-0.0950012-0.1899567h-0.0949097l-0.0950012-0.1899567h-0.0949707
		l-0.0950012-0.189949h-0.0949707l-0.0950012-0.1899567h-0.0949707l-0.0950012-0.1899567h-0.0949707l-0.0950012-0.1899567
		h-0.0949707l-0.0950012-0.1899567h-0.0949707l-0.0949707-0.1899567h-0.0950012l-0.0949707-0.189949h-0.0950012
		l-0.0949707-0.1899567h-0.0950012l-0.0949707-0.1899567h-0.0950012l-0.0949707-0.1899567h0.0950928l-0.0949707-0.1899567
		h-0.0950012l-0.0949707-0.189949h-0.0950012l-0.0949707-0.1899567h-0.0950012l-0.0949707-0.1899567h-0.0950012
		l-0.0949707-0.1899567h-0.0950012l-0.0949707-0.1899567h-0.0949707l-0.0950012-0.189949h-0.0949707l-0.0950012-0.1899567H340.73172
		l-0.0950012-0.1899567h-0.0949707l-0.0950012-0.1899567h-0.0949707l-0.0950012-0.1899567h0.0951233l-0.0950012-0.1899567
		h-0.0949707l-0.0950012-0.189949h-0.0949707l-0.0950012-0.1899567h-0.0949707l-0.0950012-0.1899567h-0.0949707
		l-0.0950012-0.1899567h-0.0949707l-0.0949707-0.1899567h-0.0950012l-0.0949707-0.189949h-0.0950012l-0.0949707-0.1899567
		h-18.6159058l-1.5196838,3.1343079l3.1343079,15.4815903l0.0950012-0.0949783l0.0949707,0.284935l0.190033,2.374321
		l0.0950012,0.2849274l0.0949707-0.0949707l0.0950012,0.2849274l0.0949707-0.0949707l0.0950012,0.2849274l0.0949707-0.0949707
		l0.0950012,0.2849426l0.0949707-0.094986l0.0950012,0.2849426l0.0949707-0.094986l0.0950012,0.2849426l0.0949707-0.094986
		l0.0949707,0.2849426l0.0950012-0.0949707l0.0949707,0.2849274l0.0950012-0.0949707l0.0949707,0.2849274l0.0950012-0.0949707
		l0.0949707,0.2849274l0.0950012-0.0949707l0.0949707,0.2849426l-0.0950928-0.2849426l0.0949707,0.2849274l0.0950012-0.0949707
		l0.0949707,0.2849274l0.0950012-0.0949707l0.0949707,0.2849274l0.0950012-0.0949707l0.0949707,0.2849426l0.0950012-0.094986
		l0.0949707,0.2849426l0.0950012-0.094986l0.0949707,0.2849426l0.0950012-0.094986l0.0949707,0.2849426l0.0949707-0.0949707
		l0.0950012,0.2849274l0.0949707-0.0949707l0.0950012,0.2849274l0.0949707-0.0949707l0.0950012,0.2849274l0.0949707-0.0949707
		l0.0950012,0.2849426l-0.0951233-0.2849426l0.0950012,0.2849274l0.0949707-0.0949707l0.0950012,0.2849274l0.0949707-0.0949707
		l0.0950012,0.2849274l0.0949707-0.0949707l0.0950012,0.2849426l0.0949707-0.094986l0.0950012,0.2849426L327.0548706,135
		l0.0950012,0.2849426l0.0949707-0.094986l0.0949707,0.2849426l0.0950012-0.0949707l0.0949707,0.2849274l0.0950012-0.0949707
		l0.0949707,0.2849274l0.0950012-0.0949707l-1.8045959,18.6158905l1.4246826,1.4246979l1.3297119,1.3296967l0.1899414,0.1899567
		l0.5698853,0.5698853l0.5698853,0.56987l0.1899414,0.1899567l0.1899719,0.1899567l0.5698547,0.5698853l0.5698853,0.56987
		l0.1899719,0.1899567l0.1899414,0.1899567l0.5698853,0.5698853l0.5698853,0.56987l0.1899414,0.1899567l0.1899719,0.1899567
		l0.5698853,0.5698853l0.5698547,0.56987l0.1899719,0.1899567l0.1899414,0.1899567l0.5698853,0.56987l0.5698853,0.5698853
		l0.1899414,0.1899567l0.1899719,0.1899567l0.5698853,0.56987l0.5698853,0.5698853l0.1899414,0.1899567l1.3297119,1.3297119
		l0.2849426,0.2849274l0.5698547,0.56987l0.5698853,0.5698853l0.1899719,0.1899567l0.1899414,0.1899567l0.5698853,0.56987
		l0.474884,0.4748993C355.1686401,165.6782379,365.1414185,153.7108765,366.756073,139.2740631z"/>
	<g>
		<g>
			<polygon class="st8" points="340.6368408,114.6744766 318.8865967,114.6744766 320.5012512,111.5401688 339.0221863,111.5401688 
							"/>
		</g>
		<g>
			<polygon class="st5" points="331.3288879,130.1560669 328.1945496,130.1560669 326.6748962,123.9824295 332.8485413,123.9824295 
							"/>
		</g>
		<g>
			<polygon class="st9" points="322.0209351,130.1560669 328.1945496,123.9824295 320.5012512,111.5401688 318.8865967,114.6744766 
							"/>
		</g>
		<g>
			<polygon class="st9" points="337.5025024,130.1560669 331.3288879,123.9824295 339.0221863,111.5401688 340.6368408,114.6744766 
							"/>
		</g>
		<g>
			<g>
				<polygon id="SVGID_1_" class="st4" points="325.8200989,154.1857758 328.1945496,130.1560669 331.3288879,130.1560669 
					333.6083679,154.1857758 329.7142334,158.0799103 				"/>
			</g>
			<g>
				<g>
					<defs>
						<polygon id="SVGID_2_" points="325.8200989,154.1857758 328.1945496,130.1560669 331.3288879,130.1560669 
							333.6083679,154.1857758 329.7142334,158.0799103 						"/>
					</defs>
					<clipPath id="SVGID_3_">
						<use xlink:href="#SVGID_2_"  style="overflow:visible;"/>
					</clipPath>
					<g class="st10">
						<g>
							<g>
								<g>
									
										<rect x="329.232605" y="116.8572922" transform="matrix(0.3750086 0.9270213 -0.9270213 0.3750086 322.2009277 -227.4754639)" class="st5" width="1.1397198" height="16.7159309"/>
								</g>
							</g>
						</g>
						<g>
							<g>
								<g>
									
										<rect x="329.1766663" y="119.9793549" transform="matrix(0.3750086 0.9270213 -0.9270213 0.3750086 325.0601807 -225.4723511)" class="st5" width="1.1397198" height="16.7159309"/>
								</g>
							</g>
						</g>
						<g>
							<g>
								<g>
									
										<rect x="329.2086487" y="123.0658875" transform="matrix(0.3750086 0.9270213 -0.9270213 0.3750086 327.9414673 -223.5729523)" class="st5" width="1.1397198" height="16.7159309"/>
								</g>
							</g>
						</g>
						<g>
							<g>
								<g>
									
										<rect x="329.2407532" y="126.1523285" transform="matrix(0.3750086 0.9270213 -0.9270213 0.3750086 330.8227234 -221.6737061)" class="st5" width="1.1397198" height="16.7159348"/>
								</g>
							</g>
						</g>
						<g>
							<g>
								<g>
									
										<rect x="329.1848145" y="129.2744904" transform="matrix(0.3750086 0.9270213 -0.9270213 0.3750086 333.6820679 -219.6705322)" class="st5" width="1.1397198" height="16.7159309"/>
								</g>
							</g>
						</g>
						<g>
							<g>
								<g>
									
										<rect x="329.2169189" y="132.3610229" transform="matrix(0.3750086 0.9270213 -0.9270213 0.3750086 336.5634155 -217.7712402)" class="st5" width="1.1397198" height="16.7159348"/>
								</g>
							</g>
						</g>
						<g>
							<g>
								<g>
									
										<rect x="329.1609802" y="135.483078" transform="matrix(0.3750086 0.9270213 -0.9270213 0.3750086 339.4226685 -215.7681274)" class="st5" width="1.1397198" height="16.7159309"/>
								</g>
							</g>
						</g>
						<g>
							<g>
								<g>
									
										<rect x="329.1930847" y="138.5696106" transform="matrix(0.3750086 0.9270213 -0.9270213 0.3750086 342.3040161 -213.8688202)" class="st5" width="1.1397198" height="16.7159328"/>
								</g>
							</g>
						</g>
						<g>
							<g>
								<g>
									
										<rect x="329.2251892" y="141.6561432" transform="matrix(0.3750086 0.9270213 -0.9270213 0.3750086 345.1853638 -211.9695282)" class="st5" width="1.1397198" height="16.7159328"/>
								</g>
							</g>
						</g>
						<g>
							<g>
								<g>
									
										<rect x="329.1691589" y="144.7781982" transform="matrix(0.3750086 0.9270213 -0.9270213 0.3750086 348.0445557 -209.9663239)" class="st5" width="1.1397198" height="16.7159328"/>
								</g>
							</g>
						</g>
						<g>
							<g>
								<g>
									
										<rect x="329.2012634" y="147.8647308" transform="matrix(0.3750086 0.9270213 -0.9270213 0.3750086 350.9259033 -208.0670319)" class="st5" width="1.1397198" height="16.7159328"/>
								</g>
							</g>
						</g>
					</g>
				</g>
			</g>
		</g>
	</g>
</g>
<g id="plus">
	<g>
		<g>
			<path class="st11" d="M248.8870239,154.7556458c0.4748993,0,0.664856,0.094986,0.664856,0.664856v19.8506317h19.0907898
				c0.4749146,0,0.5698853,0.1899567,0.5698853,0.7598267v6.838501c0,0.56987-0.0949707,0.6648407-0.664856,0.6648407h-18.9958191
				v20.230545c0,0.3799286-0.0949707,0.4748993-0.664856,0.4748993h-7.5033417c-0.4748993,0-0.56987-0.1899567-0.56987-0.56987
				v-20.0405884h-18.9958191c-0.56987,0-0.7598267-0.0949707-0.7598267-0.664856v-6.9334717
				c0-0.4748993,0.2849274-0.664856,0.6648407-0.664856h19.0908051v-19.9456024
				c0.0949707-0.3799133,0.1899567-0.56987,0.56987-0.56987h7.5033417V154.7556458z"/>
		</g>
		<g>
			<g>
				<path class="st12" d="M248.2221832,154.1857758c0.474884,0,0.6648407,0.094986,0.6648407,0.664856v19.8506317h19.0907898
					c0.4749146,0,0.5698853,0.1899567,0.5698853,0.7598267v6.8384857c0,0.5698853-0.0949707,0.664856-0.664856,0.664856h-18.9958191
					v20.230545c0,0.3799133-0.0949707,0.4748993-0.6648407,0.4748993h-7.5033569c-0.474884,0-0.56987-0.1899567-0.56987-0.56987
					v-20.0405884h-18.9958191c-0.56987,0-0.7598267-0.094986-0.7598267-0.664856v-6.9334717
					c0-0.4748993,0.2849426-0.664856,0.664856-0.664856h19.0907898v-19.9456024
					c0.094986-0.3799133,0.1899567-0.56987,0.56987-0.56987h7.5033569V154.1857758z"/>
			</g>
		</g>
	</g>
</g>
<g id="phone">
	<path class="st9" d="M191.7096252,362c1.234726-1.6146545,1.8995819-3.6092224,1.8995819-5.7937317V35.6518784
		c0-5.4138069-4.3690338-9.7828503-9.7828369-9.7828503c0,0-41.3159027-4.3690434-81.7769928-4.3690434
		c-39.9861946,0-79.2125549,4.3690434-79.2125549,4.3690434c-5.413805,0-9.7828484,4.3690434-9.7828484,9.7828503v320.5543823
		c0,2.1845093,0.7598352,4.1790771,1.899581,5.7937317H191.7096252z"/>
	<path class="st13" d="M24.3564911,61.8661079h157.9502106c0.56987,0,0.9497833,0.4748955,0.9497833,0.949791v255.6837006
		c0,0.5698853-0.4748993,0.9497681-0.9497833,0.9497681H24.3564911c-0.5698795,0-0.949791-0.474884-0.949791-0.9497681V62.8158989
		C23.4067001,62.3410034,23.7866116,61.8661079,24.3564911,61.8661079z"/>
	<path class="st14" d="M45.2518883,288.3912048h115.6845245c5.1288605,0,9.3079376,4.1790771,9.3079376,9.3079529
		s-4.1790771,9.3079529-9.3079376,9.3079529H45.2518883c-5.1288643,0-9.3079529-4.1790771-9.3079529-9.3079529
		S40.1230087,288.3912048,45.2518883,288.3912048z"/>
	<path class="st14" d="M106.7033539,246.8853607h63.4460297v34.1924591h-63.4460297V246.8853607z"/>
	<path class="st14" d="M38.4133987,246.8853607h63.4460297v34.1924591H38.4133987V246.8853607z"/>
	<path class="st14" d="M38.4133987,97.1033478h130.3112793v15.5765686H38.4133987V97.1033478z"/>
	<path class="st14" d="M24.3564911,61.8661079h157.9502106c0.56987,0,0.9497833,0.4748955,0.9497833,0.949791v19.0907936
		c0,0.56987-0.4748993,0.949791-0.9497833,0.949791H24.3564911c-0.5698795,0-0.949791-0.4748917-0.949791-0.949791V62.8158989
		C23.4067001,62.3410034,23.7866116,61.8661079,24.3564911,61.8661079z"/>
	<path class="st15" d="M87.7075348,46.4794998h31.2481155c1.3297119,0,2.4694595,1.1397476,2.4694595,2.4694633v0.2849388
		c0,1.3297005-1.1397552,2.4694633-2.4694595,2.4694633H87.7075348c-1.3297119,0-2.4694519-1.1397476-2.4694519-2.4694633
		v-0.2849388C85.2380829,47.5242615,86.3778229,46.4794998,87.7075348,46.4794998z"/>
	<path class="st13" d="M102.6192474,332.2715454c2.5644302,0,4.6539764,2.0895386,4.6539764,4.6539612
		c0,2.5644531-2.0895386,4.6539917-4.6539764,4.6539917c-2.5644302,0-4.6539764-2.0895386-4.6539764-4.6539917
		C97.9652786,334.361084,100.0548172,332.2715454,102.6192474,332.2715454z"/>
	<path class="st16" d="M176.0380859,70.3192444c-0.1899719,0-0.2849426-0.0949707-0.2849426-0.284935
		c0-0.0949783,0-3.1343155-2.3744812-3.1343155s-2.3744812,2.9443512-2.3744812,3.1343155
		c0,0.1899567-0.0949707,0.284935-0.2849274,0.284935l0,0c-0.1899567,0-0.2849426-0.0949707-0.2849426-0.284935
		c0,0,0-0.949791,0.3799133-1.8046036c0.4748993-1.2347336,1.4246979-1.8995819,2.6594238-1.8995819
		c2.3744659,0,2.9443512,2.4694519,2.9443512,3.7041855C176.3230133,70.2242737,176.2280426,70.3192444,176.0380859,70.3192444
		L176.0380859,70.3192444z"/>
	<path class="st16" d="M177.4627686,70.2242737c0-0.2849426-0.1899567-0.4748993-0.4748993-0.4748993h-8.7380676
		c-0.2849426,0-0.4748993,0.1899567-0.4748993,0.4748993l-0.4748993,7.313385c0,0.284935,0.1899567,0.4748917,0.4748993,0.4748917
		h9.6878662c0.2849274,0,0.474884-0.1899567,0.474884-0.4748917L177.4627686,70.2242737z M170.4343109,72.2188263
		c-0.3799133,0-0.7598267-0.284935-0.7598267-0.7598343c0-0.3799133,0.2849274-0.7598343,0.7598267-0.7598343
		c0.3799133,0,0.7598419,0.2849426,0.7598419,0.7598343C171.0991669,71.838913,170.8142242,72.2188263,170.4343109,72.2188263z
		 M174.8033447,72.2188263c-0.3799133,0-0.7598267-0.284935-0.7598267-0.7598343
		c0-0.3799133,0.2849426-0.7598343,0.7598267-0.7598343c0.3799286,0,0.7598419,0.2849426,0.7598419,0.7598343
		C175.5631866,71.838913,175.1832733,72.2188263,174.8033447,72.2188263z"/>
	<path class="st16" d="M171.0991669,67.0899582c0.2849426-0.2849426,0.56987-0.56987,0.9497833-0.7598343
		c-0.0949707,0-0.0949707,0-0.1899567,0c-1.234726,0-2.1845093,0.6648483-2.6594086,1.8995819
		c-0.3799133,0.8548126-0.3799133,1.8046036-0.3799133,1.8046036c0,0.1899567,0.0949707,0.284935,0.2849274,0.284935l0,0
		c0.1899719,0,0.2849426-0.0949707,0.2849426-0.284935C169.4845276,69.9393311,169.4845276,67.6598282,171.0991669,67.0899582z"/>
	<path class="st16" d="M173.3786621,67.1849365c-0.0949707,0-0.2849274,0-0.3799133,0
		c1.234726,0.7598343,1.3297119,2.7543945,1.3297119,2.8493729c0,0.1899567,0.0949707,0.284935,0.2849274,0.284935l0,0
		c0.1899567,0,0.2849426-0.0949707,0.2849426-0.284935c0-0.7598343-0.1899567-1.8995819-0.9497986-2.7543945
		C173.7585754,67.1849365,173.5686188,67.1849365,173.3786621,67.1849365z"/>
	<path class="st16" d="M29.6753101,68.2297058h11.2075367v1.4246826H29.6753101V68.2297058z"/>
	<path class="st16" d="M29.6753101,71.6489563h11.2075367v1.4246902H29.6753101V71.6489563z"/>
	<path class="st16" d="M29.6753101,75.0681992h11.2075367v1.4246902H29.6753101V75.0681992z"/>
	<path class="st17" d="M68.806694,292.2853394c-0.284935-0.1899414-0.7598343-0.1899414-0.949791,0.0950012l-5.9836845,7.8832703
		l-2.2794991-2.6594238c-0.2849388-0.2849426-0.6648483-0.3799133-0.949791-0.0949707
		c-0.2849388,0.2849426-0.3799171,0.6648254-0.0949745,0.9497681l2.7543945,3.3242798
		c0.0949745,0.1899414,0.2849388,0.2849426,0.56987,0.2849426l0,0c0.1899567,0,0.379921-0.0949707,0.5698738-0.2849426
		l6.5535583-8.5481262C69.186615,292.9502258,69.186615,292.570282,68.806694,292.2853394z"/>
	<g>
		<path class="st17" d="M77.8297119,299.1238403l-0.5698776,1.7096252c0,0.0950012,0,0.0950012-0.0949783,0.0950012h-0.949791
			c-0.0949783,0-0.0949783,0-0.0949783-0.0950012c0.5698776-1.5196533,1.4246902-3.9891052,1.9945602-5.6987305
			c0-0.0949707,0.0949783-0.1899414,0.0949783-0.5698853c0,0,0-0.0949707,0.0949783-0.0949707h1.3297119
			c0.0949783,0,0.0949783,0,0.0949783,0.0949707c0.7598343,1.9945679,1.5196609,4.1790771,2.2794952,6.2686157
			c0,0.0950012,0,0.0950012-0.0949783,0.0950012h-1.1397476c-0.0949783,0-0.0949783,0-0.0949783-0.0950012l-0.6648483-1.7096252
			H77.8297119z M79.8242645,298.1740723c-0.189949-0.664856-0.6648483-1.9945679-0.8548126-2.6594238l0,0
			c-0.189949,0.664856-0.56987,1.7096252-0.8548126,2.6594238H79.8242645z"/>
		<path class="st17" d="M82.95858,294.5648499L82.95858,294.5648499c0.6648483-0.0949707,1.4246902-0.0949707,1.9945602-0.0949707
			c2.1845245,0,3.3242645,1.2347412,3.3242645,3.1343079c0,2.7543945-2.1845169,3.3242798-3.5142212,3.3242798
			c-0.6648483,0-1.2347336,0-1.7096252,0c-0.0949783,0-0.0949783,0-0.0949783-0.0950012V294.5648499z M84.0983276,299.9786682
			c0.1899567,0,0.3799133,0,0.6648483,0c1.3297119,0,2.2795029-0.7598572,2.2795029-2.2795105
			s-0.7598343-2.1845093-2.0895386-2.1845093c-0.4748993,0-0.7598343,0-0.8548126,0V299.9786682z"/>
		<path class="st17" d="M89.5121384,294.5648499C89.5121384,294.5648499,89.6071167,294.5648499,89.5121384,294.5648499
			c0.6648483-0.0949707,1.4246826-0.0949707,1.9945602-0.0949707c2.1845169,0,3.3242645,1.2347412,3.3242645,3.1343079
			c0,2.7543945-2.1845169,3.3242798-3.5142212,3.3242798c-0.6648483,0-1.2347336,0-1.7096252,0
			c-0.0949783,0-0.0949783,0-0.0949783-0.0950012V294.5648499z M90.7468643,299.9786682c0.1899567,0,0.3799133,0,0.6648483,0
			c1.3297119,0,2.2795029-0.7598572,2.2795029-2.2795105s-0.7598419-2.1845093-2.0895386-2.1845093
			c-0.4748993,0-0.7598343,0-0.8548126,0V299.9786682z"/>
		<path class="st17" d="M99.7698746,295.4196777h-1.9945602c-0.0949783,0-0.0949783,0-0.0949783-0.0950012l0.0949783-0.7598267
			c0-0.0949707,0-0.0949707,0.0949783-0.0949707h4.9389114c0.0949783,0,0.0949783,0,0.0949783,0.0949707l0.0949783,0.7598267
			c0,0.0950012,0,0.0950012-0.0949783,0.0950012h-1.9945602v5.3188171c0,0.0949707,0,0.0949707-0.0949783,0.0949707h-1.0447693
			c-0.0949783,0-0.0949783,0-0.0949783-0.0949707v-5.3188171H99.7698746z"/>
		<path class="st17" d="M109.4577484,297.6991577c0,2.0895386-1.2347336,3.3242798-3.0393295,3.3242798
			c-1.8995819,0-3.0393295-1.3297119-3.0393295-3.3242798c0-1.9945374,1.2347336-3.2292786,3.0393295-3.2292786
			C108.3179932,294.3749084,109.4577484,295.8945618,109.4577484,297.6991577z M106.4184113,299.9786682
			c1.1397476,0,1.8046036-0.8548279,1.8046036-2.2795105c0-1.3297119-0.6648483-2.2795105-1.8046036-2.2795105
			c-1.0447693,0-1.8046036,0.8548279-1.8046036,2.2795105C104.6138153,299.0288696,105.2786636,299.9786682,106.4184113,299.9786682
			z"/>
		<path class="st17" d="M116.2012558,294.3749084c0.5698776,0,1.1397552,0.0949707,1.3297119,0.1899414
			c0,0,0.0949783,0,0.0949783,0.0949707v0.8548279c0,0.0949707,0,0.0949707-0.0949783,0.0949707
			c-0.284935-0.0949707-0.7598343-0.2849426-1.3297119-0.2849426c-1.3297043,0-2.2794952,0.8548279-2.2794952,2.2795105
			c0,1.8045959,1.234726,2.27948,2.2794952,2.27948c0.5698776,0,1.0447693-0.0949707,1.4246902-0.2849121
			c0,0,0.0949783,0,0.0949783,0.0949707v0.8547974c0,0.0950012,0,0.0950012-0.0949783,0.0950012
			c-0.379921,0.1899414-0.949791,0.2849121-1.6146393,0.2849121c-1.6146469,0-3.2292938-0.9497681-3.2292938-3.2292786
			C112.6870346,295.8945618,114.1117249,294.3749084,116.2012558,294.3749084z"/>
		<path class="st17" d="M120.2853546,299.1238403l-0.56987,1.7096252c0,0.0950012,0,0.0950012-0.0949783,0.0950012h-0.949791
			c-0.0949783,0-0.0949783,0-0.0949783-0.0950012c0.5698776-1.5196533,1.4246902-3.9891052,1.9945602-5.6987305
			c0-0.0949707,0.0949783-0.1899414,0.0949783-0.5698853c0,0,0-0.0949707,0.0949783-0.0949707h1.3297043
			c0.0949783,0,0.0949783,0,0.0949783,0.0949707c0.7598343,1.9945679,1.5196686,4.1790771,2.2795029,6.2686157
			c0,0.0950012,0,0.0950012-0.0949783,0.0950012h-1.1397476c-0.0949783,0-0.0949783,0-0.0949783-0.0950012l-0.664856-1.7096252
			H120.2853546z M122.1849365,298.1740723c-0.1899567-0.664856-0.6648483-1.9945679-0.8548126-2.6594238l0,0
			c-0.1899567,0.664856-0.56987,1.7096252-0.8548126,2.6594238H122.1849365z"/>
		<path class="st17" d="M125.4142303,300.9284363C125.4142303,300.9284363,125.319252,300.8334656,125.4142303,300.9284363
			l-0.0949783-6.2686157c0-0.0949707,0-0.0949707,0.0949783-0.0949707c0.4748917,0,1.0447693,0,1.8995819,0
			c1.5196686,0,2.4694519,0.664856,2.4694519,1.8045959c0,0.9497986-0.56987,1.4247131-1.3297119,1.7096252
			c0.2849426,0.2849426,1.7096252,2.2795105,2.0895386,2.7543945c0,0.0950012,0,0.0950012,0,0.0950012h-1.234726
			c-0.0949707,0-0.0949707,0-0.0949707-0.0950012c-0.2849426-0.3799133-1.1397552-1.614624-1.6146469-2.27948
			c-0.0949783-0.0949707-0.0949783-0.1899719-0.284935-0.1899719h-0.664856v2.4694519c0,0.0950012,0,0.0950012-0.0949783,0.0950012
			C126.553978,300.9284668,125.4142303,300.9284668,125.4142303,300.9284363z M127.3138123,297.4142151
			c0.9497833,0,1.3297119-0.3799133,1.3297119-1.0447693c0-0.6648254-0.4748993-0.9497681-1.3297119-0.9497681
			c-0.4748993,0-0.664856,0-0.7598343,0v1.9945374H127.3138123z"/>
		<path class="st17" d="M132.4426727,295.4196777h-1.9945526c-0.0949707,0-0.0949707,0-0.0949707-0.0950012l0.0949707-0.7598267
			c0-0.0949707,0-0.0949707,0.0949707-0.0949707h4.9389191c0.094986,0,0.094986,0,0.094986,0.0949707l0.0949707,0.7598267
			c0,0.0950012,0,0.0950012-0.0949707,0.0950012h-1.9945679v5.3188171c0,0.0949707,0,0.0949707-0.0949707,0.0949707h-1.0447693
			c-0.094986,0-0.094986,0-0.094986-0.0949707v-5.3188171H132.4426727z"/>
	</g>
	<g>
		<g>
			<path class="st18" d="M83.4334793,194.4569092l-3.6092148,0.2849274c0,0.664856,0,1.3297119,0,1.7096252
				c0.0949783,4.4640198,2.6594238,5.4138184,4.7489548,5.4138184c0.2849426,0,0.4748993,0,0.4748993,0s0,0,0.0949783,0
				l5.9836807-0.5698853c0.1899567-0.664856,0.2849426-1.234726,0.2849426-1.234726s-0.7598343-37.7066956-1.0447693-42.4556427
				c0-1.0447693-0.379921-1.8995819-0.7598343-2.5644379c-2.1845245-0.1899567-4.1790848-0.2849426-5.6987457-0.4748993
				c-0.1899567,0-0.4748917,0-0.6648483,0c-1.4246902,0-2.5644379,0.3799133-3.2292938,1.1397552
				c-1.0447693,1.13974-0.949791,2.8493652-0.949791,2.8493652v0.094986c0,0.0949707,0,1.0447693,0.0949783,2.6594086
				c2.9443512,0.1899567,5.0338974,0.2849426,5.0338974,0.2849426s3.3242645,0.7598267,3.5142212,4.1790771
				c0.1899567,3.7041779,0.0949783,24.6945648,0.0949783,24.6945648S88.0874557,193.6970673,83.4334793,194.4569092z"/>
			<path class="st18" d="M71.9410095,195.3117218l-5.9836884,0.474884c0,0-4.9389076,0.664856-5.0338898-4.7489471
				c-0.0949783-3.9891205-0.5698738-26.6891174-0.5698738-26.6891174s-0.3799171-4.1790924,4.748951-3.8941498
				c1.5196686,0.094986,3.7991638,0.2849426,6.2686234,0.3799133c-0.0949783-3.7041779-0.0949783-7.0284424-0.1899567-9.4979095
				c-3.2292938-0.2849274-6.2686234-0.4748993-8.4531403-0.7598267c-6.743515-0.7598267-6.3635979,4.9389038-6.3635979,4.9389038
				s0.8548126,41.6008453,0.949791,46.7297211c0.1899567,6.0786591,6.7435112,5.1288605,6.7435112,5.1288605l8.0732269-0.8548126
				C72.1309662,203.3849335,72.0359879,199.5857697,71.9410095,195.3117218z"/>
			<path class="st18" d="M143.9351501,143.6430969c-0.2849426-7.7882843-7.1234283-9.4029388-7.1234283-9.4029388
				s-23.7447739-3.6091919-34.1924744-4.8439178c-10.4477005-1.3297119-9.7828522,8.7380676-9.7828522,8.7380676
				s2.3744812,73.5138092,2.5644379,82.6318054c0.284935,10.8276062,10.3527222,9.1179962,10.3527222,9.1179962l35.8071136-6.173645
				c6.4585724-1.3297119,6.8384857-9.4029388,6.8384857-9.4029388S144.3150635,152.0962372,143.9351501,143.6430969z
				 M135.9569092,206.0443573l-26.5941391,2.7543793c0,0-7.7882843,1.1397552-7.8832703-8.2631683
				c-0.0949783-6.9334717-1.6146393-46.6347351-1.6146393-46.6347351s-0.5698776-7.313385,7.408371-6.6485291
				c8.1681976,0.56987,27.6389084,2.0895386,27.6389084,2.0895386s5.2238464,1.234726,5.4138031,7.2184143
				c0.2849426,6.4585724,2.4694672,42.360672,2.4694672,42.360672S143.3652802,204.8096161,135.9569092,206.0443573z"/>
			<path class="st18" d="M109.1728058,207.374054l10.2577362-1.0447693
				c-0.4748917-10.4476929-2.2794952-51.0037689-2.5644302-56.8924713v-0.0949707
				c-3.7041855-0.2849426-7.3133926-0.56987-9.7828522-0.7598419c-0.2849426,0-0.56987,0-0.7598343,0
				c-1.7096252,0-3.0393295,0.4748993-3.8941422,1.3297119c-1.4246826,1.5196686-1.234726,3.7991638-1.234726,3.8941498l0,0
				c0,0,0,0.2849274,0,0.664856c4.1790771,0.3799133,7.313385,0.6648407,7.313385,0.6648407
				s4.4640121,1.0447693,4.6539764,5.8887177c0.189949,5.3188171,1.5196609,34.0974884,1.5196609,34.0974884
				s0.4748993,4.8439331-5.8887024,5.8887024l-5.8886871,0.474884c0.3799133,4.8439331,3.2292862,5.9836884,5.6987381,5.9836884
				C108.8878708,207.4690399,109.1728058,207.4690399,109.1728058,207.374054L109.1728058,207.374054
				C109.1728058,207.4690399,109.1728058,207.374054,109.1728058,207.374054z"/>
			<path class="st18" d="M93.5012589,202.4351501l-8.263176,0.7598267c0,0-6.6485367,0.9497986-6.8384933-6.743515
				c-0.0949783-5.6987457-0.7598343-37.8966522-0.7598343-37.8966522s-0.4748993-5.9836884,6.3635941-5.5087891
				c1.9945602,0.094986,4.8439331,0.3799133,7.978241,0.664856c-0.189949-6.173645-0.3799133-11.0175781-0.4748917-13.582016
				c-3.9891205-0.3799133-7.8832703-0.7598267-10.6376572-1.13974c-9.0230103-1.0447693-8.4531403,6.9334717-8.4531403,6.9334717
				s1.0447693,59.0769806,1.3297119,66.2953949c0.2849426,8.6430969,9.0230103,7.2184143,9.0230103,7.2184143l11.3025131-1.4246826
				C93.8811722,214.7824249,93.7861938,209.1786652,93.5012589,202.4351501z"/>
		</g>
		<g>
			<g>
				<g>
					<path class="st19" d="M82.7686234,193.8870239l-3.6092072,0.2849426c0,0.664856,0,1.3297119,0,1.7096252
						c0.0949783,4.4640198,2.6594162,5.4138031,4.7489548,5.4138031c0.2849426,0,0.4748993,0,0.4748993,0s0,0,0.0949707,0
						l5.9836884-0.56987c0.1899567-0.664856,0.2849426-1.234726,0.2849426-1.234726s-0.7598419-37.7066956-1.0447693-42.455658
						c0-1.0447693-0.379921-1.8995819-0.7598343-2.5644379c-2.1845245-0.1899567-4.1790848-0.2849274-5.6987457-0.474884
						c-0.1899567,0-0.4748993,0-0.664856,0c-1.4246826,0-2.5644302,0.3799133-3.2292862,1.13974
						c-1.0447693,1.1397552-0.949791,2.8493805-0.949791,2.8493805v0.0949707c0,0.094986,0,1.0447693,0.0949783,2.6594238
						c2.9443512,0.1899567,5.0338898,0.2849274,5.0338898,0.2849274s3.3242722,0.7598267,3.5142288,4.1790771
						c0.189949,3.7041931,0.0949783,24.6945648,0.0949783,24.6945648S87.5175781,193.1271973,82.7686234,193.8870239z"/>
					<path class="st19" d="M71.3711319,194.6468658l-5.9836807,0.4748993c0,0-4.9389114,0.6648407-5.0338936-4.7489624
						c-0.0949783-3.9891205-0.5698738-26.6891174-0.5698738-26.6891174s-0.3799171-4.1790771,4.7489548-3.8941498
						c1.5196609,0.094986,3.7991638,0.2849426,6.2686157,0.3799133c-0.0949783-3.7041779-0.0949783-7.0284424-0.1899567-9.4978943
						c-3.2292862-0.2849426-6.2686157-0.4748993-8.4531364-0.7598419c-6.743515-0.7598267-6.3635979,4.9389191-6.3635979,4.9389191
						s0.8548164,41.6008301,0.949791,46.7297058c0.1899567,6.0786591,6.743515,5.1288757,6.743515,5.1288757l8.0732193-0.8548126
						C71.4661102,202.8150635,71.4661102,198.9209137,71.3711319,194.6468658z"/>
				</g>
				<path class="st19" d="M143.3652802,143.0732269c-0.2849426-7.7882843-7.1234436-9.4029388-7.1234436-9.4029388
					s-23.7447662-3.6092072-34.1924591-4.8439331c-10.4477005-1.3297043-9.7828522,8.7380829-9.7828522,8.7380829
					s2.3744812,73.5138092,2.5644302,82.6317902c0.2849426,10.8276215,10.3527222,9.1179962,10.3527222,9.1179962
					l35.8071213-6.1736298c6.4585724-1.3297119,6.8384857-9.4029388,6.8384857-9.4029388
					S143.7451935,151.5263672,143.3652802,143.0732269z M135.3870392,205.474472l-26.5941544,2.7543945
					c0,0-7.7882767,1.1397552-7.8832626-8.2631683c-0.0949783-6.9334869-1.6146393-46.6347351-1.6146393-46.6347351
					s-0.5698776-7.313385,7.408371-6.6485291c8.1681976,0.56987,27.6389008,2.0895386,27.6389008,2.0895386
					s5.2238617,1.234726,5.4138184,7.2184143c0.2849274,6.4585724,2.4694519,42.3606567,2.4694519,42.3606567
					S142.7953949,204.2397461,135.3870392,205.474472z"/>
				<g>
					<path class="st19" d="M108.6029282,206.804184l10.2577438-1.0447693
						c-0.4748993-10.4476929-2.2795029-51.0037689-2.5644379-56.8924713v-0.0949707
						c-3.7041855-0.2849426-7.313385-0.5698853-9.7828445-0.7598419c-0.2849426,0-0.5698776,0-0.7598343,0
						c-1.7096329,0-3.0393295,0.4748993-3.8941422,1.3297119c-1.4246902,1.5196686-1.2347336,3.7991638-1.2347336,3.8941345l0,0
						c0,0,0,0.2849426,0,0.664856c4.1790848,0.3799286,7.313385,0.664856,7.313385,0.664856
						s4.4640198,1.0447693,4.6539764,5.8887024c0.1899567,5.3188324,1.5196686,34.0974884,1.5196686,34.0974884
						s0.4748917,4.8439484-5.8887024,5.8887177l-5.9836884,0.56987c0.379921,4.8439331,3.2292938,5.9836884,5.6987457,5.9836884
						C108.3179932,206.8991699,108.5079575,206.804184,108.6029282,206.804184L108.6029282,206.804184L108.6029282,206.804184z"/>
					<path class="st19" d="M92.9313812,201.7702942l-8.263176,0.7598267c0,0-6.6485367,0.9497986-6.8384857-6.743515
						c-0.0949783-5.6987457-0.7598419-37.8966522-0.7598419-37.8966522s-0.4748917-5.9836884,6.3636017-5.5087891
						c1.9945526,0.094986,4.8439255,0.3799133,7.978241,0.664856c-0.1899567-6.173645-0.379921-11.0175781-0.4748993-13.5820007
						c-3.9891129-0.3799286-7.8832626-0.7598419-10.6376495-1.1397552
						c-9.0230103-1.0447693-8.4531403,6.9334717-8.4531403,6.9334717s1.0447693,59.0769958,1.3297119,66.2953949
						c0.284935,8.6430969,9.0230103,7.2184143,9.0230103,7.2184143l11.3025131-1.4246826
						C93.3113022,214.2125549,93.1213379,208.5138092,92.9313812,201.7702942z"/>
				</g>
			</g>
		</g>
	</g>
</g>
</svg>
