<?xml version="1.0" encoding="utf-8"?>
<!-- Generator: Adobe Illustrator 17.1.0, SVG Export Plug-In . SVG Version: 6.00 Build 0)  -->
<!DOCTYPE svg PUBLIC "-//W3C//DTD SVG 1.1//EN" "http://www.w3.org/Graphics/SVG/1.1/DTD/svg11.dtd">
<svg version="1.1" xmlns="http://www.w3.org/2000/svg" xmlns:xlink="http://www.w3.org/1999/xlink" x="0px" y="0px"
	 viewBox="0 0 2376.3 1807.6" style="enable-background:new 0 0 2376.3 1807.6;" xml:space="preserve">
<style type="text/css">
	.st0{display:none;}
	.st1{display:inline;fill:#393939;}
	.st2{fill:#F4B505;}
	.st3{fill:#E0A628;}
	.st4{fill:#283343;}
	.st5{fill:#242C3C;}
	.st6{fill:#2B3A49;}
	.st7{fill:#C2C3C6;}
	.st8{fill:#EFEEEE;}
	.st9{fill:#D8D8DA;}
	.st10{fill:#FFFFFF;}
	.st11{clip-path:url(#SVGID_2_);}
	.st12{fill:#4E5254;}
	.st13{fill:#111111;}
	.st14{fill-rule:evenodd;clip-rule:evenodd;fill:#FFFFFF;}
	.st15{fill-rule:evenodd;clip-rule:evenodd;fill:#515151;}
	.st16{fill-rule:evenodd;clip-rule:evenodd;fill:#494949;}
	.st17{fill-rule:evenodd;clip-rule:evenodd;fill:#AEAEAE;}
	.st18{fill:#686868;}
	.st19{fill-rule:evenodd;clip-rule:evenodd;fill:#686868;}
	.st20{fill:#393939;}
	.st21{fill:#64676A;}
	.st22{fill:#343434;}
</style>
<g id="Layer_2" class="st0">
	
		<image style="display:inline;overflow:visible;opacity:0.54;" width="962" height="715" xlink:href="../../../../Desktop/briefcase.png"  transform="matrix(2.4702 0 0 2.5281 0 0)">
	</image>
</g>
<g id="Layer_6" class="st0">
	<rect x="0" y="7.7" class="st1" width="1826.9" height="1758"/>
</g>
<g id="Layer_7">
</g>
<g id="circle">
	<circle class="st2" cx="1984.9" cy="1097.3" r="192"/>
	<circle class="st2" cx="1984.9" cy="635.2" r="192"/>
</g>
<g id="briefcase">
	<path class="st3" d="M1984.9,1289.3c100.6,0,183.2-77.4,191.4-176h-0.4v-1.1h-1.1v-1.1h-1.1v-1.1h-1.1v-1.1h-1.1v-1.1h-1.1v-1.1
		h-1.1v-1.1h-1.1v-1.1h-1.1v-1.1h-1.1v-1.1h-1.1v-1.1h-1.1v-1.1h-1.1v-1.1h-1.1v-1.1h-1.1v-1.1h-1.1v-1.1h-1.1v-1.1h-1.1v-1.1h-1.1
		v-1.1h-1.1v-1.1h-1.1v-1.1h-1.1v-1.1h-1.1v-1.1h-1.1v-1.1h-1.1v-1.1h-1.1v-1.1h-1.1v-1.1h-1.1v-1.1h-1.1v-1.1h-1.1v-1.1h-1.1v-1.1
		h-1.1v-1.1h-1.1v-1.1h-1.1v-1.1h-1.1v-1.1h-1.1v-1.1h-1.1v-1.1h-1.1v-1.1h-1.1v-1.1h-1.1v-1.1h-1.1v-1.1h-1.1v-1.1h-1.1v-1.1h-1.1
		v-1.1h-1.1v-1.1h-1.1v-1.1h-1.1v-1.1h-1.1v-1.1h-1.1v-1.1h-1.1v-1.1h-1.1v-1.1h-1.1v-1.1h-1.1v-1.1h-1.1v-1.1h-1.1v-1.1h-1.1v-1.1
		h-1.1v-1.1h-1.1v-1.1h-1.1v-1.1h-1.1v-1.1h-1.1v-1.1h-1.1v-1.1h-1.1v-1.1h-1.1v-1.1h-1.1v-1.1h-1.1v-1.1h-1.1v-1.1h-1.1v-1.1h-1.1
		v-1.1h-1.1v-1.1h-1.1v-1.1h-12.6v-0.6h-1.1v-1.1h-1.1v-1.1h-1.1v-1.1h-32v4h-3.4c-0.3-0.3-0.5-0.5-0.8-0.8
		c-0.4-0.4-0.7-0.8-1.1-1.1c-0.4-0.4-0.7-0.8-1.1-1.1c-0.4-0.4-0.7-0.8-1.1-1.1c-0.4-0.4-0.7-0.8-1.1-1.1c-0.4-0.4-0.7-0.8-1.1-1.1
		c-0.4-0.4-0.7-0.8-1.1-1.1c-0.4-0.4-0.7-0.8-1.1-1.1c-0.4-0.4-0.7-0.8-1.1-1.1c-0.4-0.4-0.7-0.8-1.1-1.1c-0.4-0.4-0.7-0.8-1.1-1.1
		c-0.4-0.4-0.7-0.8-1.1-1.1c-0.4-0.4-0.7-0.8-1.1-1.1c-0.4-0.4-0.7-0.8-1.1-1.1c-0.4-0.4-0.7-0.8-1.1-1.1c-0.4-0.4-0.7-0.8-1.1-1.1
		c-0.4-0.4-0.7-0.8-1.1-1.1c-0.4-0.4-0.7-0.8-1.1-1.1c-0.4-0.4-0.7-0.8-1.1-1.1c-0.4-0.4-0.7-0.8-1.1-1.1c-0.4-0.4-0.7-0.8-1.1-1.1
		c-0.4-0.4-0.7-0.8-1.1-1.1c-0.4-0.4-0.7-0.8-1.1-1.1c-0.4-0.4-0.7-0.8-1.1-1.1c-2.9-3.2-7.2-5.3-11.8-5.3h-44c-8.8,0-16,7.2-16,16
		v16h-22.6v-0.6h-1.1v-1.1h-1.1v-1.1h-1.1v-1.1h-32v4h-16v40v37v3v4v76h1.1v1.1h1.1v1.1h1.1v1.1h1.1v1.1h1.1v1.1h1.1v1.1h1.1v1.1
		h1.1v1.1h1.1v1.1h1.1v1.1h1.1v1.1h1.1v1.1h1.1v1.1h1.1v1.1h1.1v1.1h1.1v1.1h1.1v1.1h1.1v1.1h1.1v1.1h1.1v1.1h1.1v1.1h1.1v1.1h1.1
		v1.1h1.1v1.1h1.1v1.1h1.1v1.1h1.1v1.1h1.1v1.1h1.1v1.1h1.1v1.1h1.1v1.1h1.1v1.1h1.1v1.1h1.1v1.1h1.1v1.1h1.1v1.1h1.1v1.1h1.1v1.1
		h1.1v1.1h1.1v1.1h1.1v1.1h1.1v1.1h1.1v1.1h1.1v1.1h1.1v1.1h1.1v1.1h1.1v1.1h1.1v1.1h1.1v1.1h1.1v1.1h1.1v1.1h1.1v1.1h1.1v1.1h1.1
		v1.1h1.1v1.1h1.1v1.1h1.1v1.1h1.1v1.1h1.1v1.1h1.1v1.1h1.1v1.1h1.1v1.1h1.1v1.1h1.1v1.1h1.1v1.1h1.1v1.1h1.1v1.1h1.1v1.1h1.1v1.1
		h1.1v1.1h1.1v1.1h1.1v1.1h1.1v1.1h1.1v1.1h1.1v1.1h1.1v1.1h1.1v1.1h1.1v1.1h1.1v1.1h1.1v1.1h1.1v1.1h1.1v1.1h1.1v1.1h1.1v1.1h1.1
		v0.6C1974.1,1289.1,1979.5,1289.3,1984.9,1289.3z"/>
	<g>
		<g>
			<g>
				<polygon class="st4" points="1872.9,1033.3 1872.9,1073.3 1872.9,1110.3 1872.9,1113.3 1872.9,1193.3 2096.9,1193.3 
					2096.9,1113.3 2096.9,1110.3 2096.9,1073.3 2096.9,1033.3 				"/>
			</g>
		</g>
		<g>
			<g>
				<path class="st5" d="M2006.9,1013.3c2.2,0,4,1.8,4,4v32c0,2.2-1.8,4-4,4h-44c-2.2,0-4-1.8-4-4v-32c0-2.2,1.8-4,4-4H2006.9
					L2006.9,1013.3z M2006.9,1001.3h-44c-8.8,0-16,7.2-16,16v32c0,8.8,7.2,16,16,16h44c8.8,0,16-7.2,16-16v-32
					C2022.9,1008.5,2015.7,1001.3,2006.9,1001.3L2006.9,1001.3z"/>
			</g>
		</g>
		<g>
			<g>
				<rect x="1888.9" y="1029.3" class="st5" width="32" height="8"/>
			</g>
		</g>
		<g>
			<g>
				<rect x="2048.9" y="1029.3" class="st5" width="32" height="8"/>
			</g>
		</g>
		<g>
			<g>
				<g>
					<polygon class="st6" points="2096.9,1110.3 2096.9,1073.3 2096.9,1033.3 1872.9,1033.3 1872.9,1073.3 1872.9,1110.3 
						1872.9,1113.3 2096.9,1113.3 					"/>
				</g>
			</g>
			<g>
				<g>
					<rect x="1872.9" y="1113.3" class="st4" width="224" height="80"/>
				</g>
			</g>
		</g>
		<g>
			<g>
				<rect x="1872.9" y="1113.3" class="st5" width="224" height="4"/>
			</g>
		</g>
		<g>
			<g>
				<g>
					<rect x="1968.9" y="1105.3" class="st7" width="32" height="8"/>
				</g>
			</g>
			<g>
				<g>
					<rect x="1968.9" y="1113.3" class="st8" width="32" height="8"/>
				</g>
			</g>
		</g>
	</g>
	<path class="st3" d="M2175.7,656.9h-0.2l-0.4-0.9h-0.4l-0.4-0.9h-0.4l-0.4-0.9h-0.4l-0.4-0.9h-0.5l-0.4-0.9h-0.4l-0.4-0.9h-0.4
		l-0.4-0.9h-0.4l-0.5-0.9h-0.4l-0.4-0.9h-0.4l-0.4-0.9h-0.4l-0.4-0.9h-0.4l-0.4-0.9h-0.4l-0.4-0.9h-0.5l-0.4-0.9h-0.4l-0.4-0.9h-0.4
		l-0.4-0.9h-0.4l-0.5-0.9h-0.4l-0.5-0.9h-0.4l-0.4-0.9h-0.4l-0.4-0.9h-0.4l-0.4-0.9h-0.4l-0.4-0.9h-0.5l-0.4-0.9h-0.4l-0.4-0.9h-0.4
		l-0.4-0.9h-0.4l-0.5-0.9h-0.4l-0.5-0.9h-0.4l-0.4-0.9h-0.4l-0.4-0.9h-0.4l-0.4-0.9h-0.4l-0.4-0.9h-0.5l-0.4-0.9h-0.4l-0.4-0.9h-0.4
		l-0.4-0.9h-0.4l-0.5-0.9h-0.4l-0.5-0.9h-0.4l-0.4-0.9h-0.4l-0.4-0.9h-0.4l-0.4-0.9h-0.4l-0.4-0.9h-0.5l-0.4-0.9h-0.4l-0.4-0.9h-0.4
		l-0.4-0.9h-0.4l-0.5-0.9h-0.4l-0.5-0.9h-0.4l-0.4-0.9h-0.4l-0.4-0.9h-0.4l-0.4-0.9h-0.4l-0.4-0.9h-0.5l-0.4-0.9h-0.4l-0.4-0.9h-0.4
		l-0.4-0.9h-0.4l-0.5-0.9h-0.4l-0.5-0.9h-0.4l-0.4-0.9h-0.4l-0.4-0.9h-0.4l-0.4-0.9h-0.4l-0.4-0.9h-0.5l-0.4-0.9h-0.4l-0.4-0.9h-0.4
		l-0.4-0.9h-0.4l-0.5-0.9h-0.4l-0.5-0.9h-0.4l-0.5-0.9h-0.4l-0.4-0.9h-0.4l-0.4-0.9h-0.4l-0.4-0.9h-0.5l-0.4-0.9h-0.4l-0.4-0.9h-0.4
		l-0.4-0.9h-0.4l-0.5-0.9h-0.4l-0.5-0.9h-0.4l-0.5-0.9h-0.4l-0.4-0.9h-0.4l-0.4-0.9h-0.4l-0.4-0.9h-0.5l-0.4-0.9h-0.4l-0.4-0.9h-0.4
		l-0.4-0.9h-0.4l-0.5-0.9h-0.4l-0.5-0.9h-0.4l-0.5-0.9h-0.4l-0.4-0.9h-0.4l-0.4-0.9h-0.4l-0.4-0.9h-0.5l-0.4-0.9h-0.4l-0.4-0.9h-0.4
		l-0.4-0.9h-0.4l-0.5-0.9h-0.4l-0.5-0.9h-0.4l-0.5-0.9h-0.4l-0.4-0.9h-0.4l-0.4-0.9h-0.5l-0.4-0.9h-0.5l-0.4-0.9h-0.4l-0.4-0.9h-0.4
		l-0.4-0.9h-0.4l-0.5-0.9h-0.4l-0.5-0.9h-0.4l-0.5-0.9h-0.4l-0.4-0.9h-0.4l-0.4-0.9h-0.5l-0.4-0.9h-0.5l-0.4-0.9h-0.4l-0.4-0.9h-0.4
		l-0.4-0.9h-0.4l-0.4-0.9h-0.4l-0.5-0.9h-0.4l-0.5-0.9h-0.4l-0.4-0.9h-0.4l-0.4-0.9h-0.5l-0.4-0.9h-0.5l-0.4-0.9h-0.4l-0.4-0.9h-0.4
		l-0.4-0.9h-0.4l-0.4-0.9h-0.4l-0.5-0.9h-0.4l-0.5-0.9h-0.4l-0.4-0.9h-0.4l-0.4-0.9h-0.4l-0.4-0.9h-0.5l-0.4-0.9h-0.4l-0.4-0.9h-0.4
		l-0.4-0.9h-0.4l-0.4-0.9h-0.4l-0.5-0.9h-0.4l-0.5-0.9h-0.4l-0.4-0.9h-0.4l-0.4-0.9h-0.4l-0.4-0.9h-0.5l-0.4-0.9h-0.4l-0.4-0.9h-0.4
		l-0.4-0.9h-0.4l-0.4-0.9h-0.4l-0.5-0.9h-0.4l-0.5-0.9h-0.4l-0.4-0.9h-0.4l-0.4-0.9h-0.4l-0.4-0.9h-0.5l-0.4-0.9h-0.4l-0.4-0.9h-0.4
		l-0.4-0.9h-0.4l-0.4-0.9h-0.4l-0.5-0.9h-0.4l-0.5-0.9h-0.4l-0.4-0.9h-0.4l-0.4-0.9h-0.4l-0.4-0.9h-0.5l-0.4-0.9h-0.4l-0.4-0.9h-0.4
		l-0.4-0.9h-0.4l-0.4-0.9h-0.4l-0.5-0.9h-0.4l-0.5-0.9h-0.4l-0.4-0.9h-0.4l-0.4-0.9h-0.4l-0.4-0.9h-0.5l-0.4-0.9h-0.4l-0.4-0.9h-96
		l-8,16l16,80l0.6-0.6l0.3,1.5l0.6-0.6l0.3,1.5l0.6-0.6l0.3,1.5l0.6-0.6l0.3,1.5l0.6-0.6l0.3,1.5l0.6-0.6l0.3,1.5l0.6-0.6l0.3,1.5
		l0.6-0.6l0.3,1.5l0.6-0.6l0.3,1.5l0.6-0.6l0.3,1.5l0.6-0.6l0.3,1.5l0.6-0.6l0.3,1.5l0.6-0.6l0.3,1.5l0.6-0.6l0.3,1.5l0.6-0.6
		l0.3,1.5l0.6-0.6l0.3,1.5l0.6-0.6l0.3,1.5l0.6-0.6l0.3,1.5l0.6-0.6l0.3,1.5l0.6-0.6l0.3,1.5l0.6-0.6l0.3,1.5l0.6-0.6l0.3,1.5
		l0.6-0.6l0.3,1.5l0.6-0.6l0.3,1.5l0.6-0.6l0.3,1.5l0.6-0.6l0.3,1.5l0.6-0.6l0.3,1.5l0.6-0.6l0.3,1.5l0.6-0.6l0.3,1.5l0.6-0.6
		l0.3,1.5l0.6-0.6l0.3,1.5l0.6-0.6l0.3,1.5l0.4-0.4l-9.3,95.9l7.2,7.2l6.9,6.9l1.2,1.2l2.8,2.8l2.8,2.8l1.2,1.2l1.2,1.2l2.8,2.8
		l2.8,2.8l0.8,0.8l0.8,0.8l2.8,2.8l2.8,2.8l1.2,1.2l1.2,1.2l2.8,2.8l2.8,2.8l0.8,0.8l0.8,0.8l2.8,2.8l2.8,2.8l1.2,1.2l1.2,1.2
		l2.8,2.8l2.8,2.8l1.2,1.2l6.9,6.9l1.5,1.5l2.8,2.8l2.8,2.8l1.2,1.2l1.2,1.2l2.8,2.8l2.5,2.5
		C2116.3,793.1,2167.4,731.4,2175.7,656.9z"/>
	<g>
		<g>
			<polygon class="st9" points="2040.9,529.8 1928.9,529.8 1936.9,513.8 2032.9,513.8 			"/>
		</g>
		<g>
			<polygon class="st6" points="1992.9,609.8 1976.9,609.8 1968.9,577.8 2000.9,577.8 			"/>
		</g>
		<g>
			<polygon class="st10" points="1944.9,609.8 1976.9,577.8 1936.9,513.8 1928.9,529.8 			"/>
		</g>
		<g>
			<polygon class="st10" points="2024.9,609.8 1992.9,577.8 2032.9,513.8 2040.9,529.8 			"/>
		</g>
		<g>
			<defs>
				<polygon id="SVGID_1_" points="1964.8,734 1976.9,609.8 1992.9,609.8 2005,734 1984.9,754.1 				"/>
			</defs>
			<use xlink:href="#SVGID_1_"  style="overflow:visible;fill:#242C3C;"/>
			<clipPath id="SVGID_2_">
				<use xlink:href="#SVGID_1_"  style="overflow:visible;"/>
			</clipPath>
			<g class="st11">
				<g>
					<g>
						<g>
							
								<rect x="1981.9" y="541" transform="matrix(0.375 0.927 -0.927 0.375 1782.1047 -1474.9794)" class="st6" width="6" height="86.3"/>
						</g>
					</g>
				</g>
				<g>
					<g>
						<g>
							
								<rect x="1981.9" y="557" transform="matrix(0.375 0.927 -0.927 0.375 1796.9373 -1464.979)" class="st6" width="6" height="86.3"/>
						</g>
					</g>
				</g>
				<g>
					<g>
						<g>
							
								<rect x="1981.9" y="573" transform="matrix(0.375 0.927 -0.927 0.375 1811.7698 -1454.9786)" class="st6" width="6" height="86.3"/>
						</g>
					</g>
				</g>
				<g>
					<g>
						<g>
							
								<rect x="1981.9" y="589" transform="matrix(0.375 0.927 -0.927 0.375 1826.6023 -1444.9784)" class="st6" width="6" height="86.3"/>
						</g>
					</g>
				</g>
				<g>
					<g>
						<g>
							
								<rect x="1981.9" y="605" transform="matrix(0.375 0.927 -0.927 0.375 1841.4348 -1434.978)" class="st6" width="6" height="86.3"/>
						</g>
					</g>
				</g>
				<g>
					<g>
						<g>
							
								<rect x="1981.9" y="621" transform="matrix(0.375 0.927 -0.927 0.375 1856.2675 -1424.9777)" class="st6" width="6" height="86.3"/>
						</g>
					</g>
				</g>
				<g>
					<g>
						<g>
							
								<rect x="1981.9" y="637" transform="matrix(0.375 0.927 -0.927 0.375 1871.1 -1414.9774)" class="st6" width="6" height="86.3"/>
						</g>
					</g>
				</g>
				<g>
					<g>
						<g>
							
								<rect x="1981.9" y="653" transform="matrix(0.375 0.927 -0.927 0.375 1885.9325 -1404.9771)" class="st6" width="6" height="86.3"/>
						</g>
					</g>
				</g>
				<g>
					<g>
						<g>
							
								<rect x="1981.9" y="669" transform="matrix(0.375 0.927 -0.927 0.375 1900.765 -1394.9767)" class="st6" width="6" height="86.3"/>
						</g>
					</g>
				</g>
				<g>
					<g>
						<g>
							
								<rect x="1981.9" y="685" transform="matrix(0.375 0.927 -0.927 0.375 1915.5975 -1384.9764)" class="st6" width="6" height="86.3"/>
						</g>
					</g>
				</g>
				<g>
					<g>
						<g>
							
								<rect x="1981.9" y="701" transform="matrix(0.375 0.927 -0.927 0.375 1930.4301 -1374.9761)" class="st6" width="6" height="86.3"/>
						</g>
					</g>
				</g>
			</g>
		</g>
	</g>
</g>
<g id="plus">
	<g>
		<g>
			<path class="st12" d="M1567.3,736.8c2.5,0,3.5,0.5,3.5,3.5v102.5h98.5c2.5,0,3,1,3,4v35.5c0,3-0.5,3.5-3.5,3.5h-98v104.5
				c0,2-0.5,2.5-3.5,2.5h-38.5c-2.5,0-3-1-3-3v-104h-98c-3,0-4-0.5-4-3.5v-36c0-2.5,1.5-3.5,3.5-3.5h98.5v-103c0.5-2,1-3,3-3H1567.3
				z"/>
		</g>
		<g>
			<g>
				<path class="st13" d="M1564.3,733.8c2.5,0,3.5,0.5,3.5,3.5v102.5h98.5c2.5,0,3,1,3,4v35.5c0,3-0.5,3.5-3.5,3.5h-98v104.5
					c0,2-0.5,2.5-3.5,2.5h-38.5c-2.5,0-3-1-3-3v-104h-98c-3,0-4-0.5-4-3.5v-36c0-2.5,1.5-3.5,3.5-3.5h98.5v-103c0.5-2,1-3,3-3
					H1564.3z"/>
			</g>
		</g>
	</g>
</g>
<g id="phone">
	<path class="st14" d="M1272.1,1806.6c6.2-8.4,9.9-18.8,9.9-30V121.6c0-27.8-22.6-50.4-50.4-50.4c0,0-213-22.7-422.2-22.7
		c-206.5,0-409.1,22.7-409.1,22.7c-27.8,0-50.4,22.6-50.4,50.4v1654.9c0,11.3,3.7,21.6,9.9,30H1272.1z"/>
	<path class="st15" d="M408.3,257.5h815.3c2.8,0,5,2.3,5,5v1320c0,2.8-2.3,5-5,5H408.3c-2.8,0-5-2.3-5-5v-1320
		C403.3,259.7,405.5,257.5,408.3,257.5z"/>
	<path class="st16" d="M516.2,1426.4h597c26.4,0,47.9,21.4,47.9,47.9s-21.4,47.9-47.9,47.9h-597c-26.4,0-47.9-21.4-47.9-47.9
		S489.8,1426.4,516.2,1426.4z"/>
	<path class="st16" d="M833.6,1212.3h327.5v176.3H833.6V1212.3z"/>
	<path class="st16" d="M481,1212.3h327.5v176.3H481V1212.3z"/>
	<path class="st16" d="M481,439h672.6v80.6H481V439z"/>
	<path class="st16" d="M408.3,257.5h815.3c2.8,0,5,2.3,5,5v98.3c0,2.8-2.3,5-5,5H408.3c-2.8,0-5-2.3-5-5v-98.3
		C403.3,259.7,405.5,257.5,408.3,257.5z"/>
	<path class="st17" d="M735.4,156.8h161.2c7,0,12.6,5.6,12.6,12.6v1.4c0,7-5.6,12.6-12.6,12.6H735.4c-7,0-12.6-5.6-12.6-12.6v-1.4
		C722.8,162.5,728.4,156.8,735.4,156.8z"/>
	<path class="st15" d="M812.2,1632.3c13.2,0,23.9,10.7,23.9,23.9c0,13.2-10.7,23.9-23.9,23.9s-23.9-10.7-23.9-23.9
		C788.3,1643,799,1632.3,812.2,1632.3z"/>
	<path class="st18" d="M1191.3,301.1c-0.9,0-1.6-0.7-1.6-1.6c0-0.7-0.2-16.1-12.3-16.1c-12.1,0-12.3,15.4-12.3,16.1
		c0,0.9-0.7,1.6-1.6,1.6h0c-0.9,0-1.6-0.7-1.6-1.6c0-0.2,0-4.8,1.8-9.4c2.5-6.4,7.2-9.8,13.6-9.8c12.2,0,15.4,12.6,15.4,19.2
		C1192.9,300.4,1192.2,301.1,1191.3,301.1L1191.3,301.1z"/>
	<path class="st18" d="M1198.9,300.4c0-1.4-1.1-2.5-2.5-2.5H1151c-1.4,0-2.5,1.1-2.5,2.5l-2.5,37.8c0,1.4,1.1,2.5,2.5,2.5h50.4
		c1.4,0,2.5-1.1,2.5-2.5L1198.9,300.4z M1162.4,310.5c-2.1,0-3.8-1.7-3.8-3.8c0-2.1,1.7-3.8,3.8-3.8c2.1,0,3.8,1.7,3.8,3.8
		C1166.1,308.8,1164.4,310.5,1162.4,310.5z M1185,310.5c-2.1,0-3.8-1.7-3.8-3.8c0-2.1,1.7-3.8,3.8-3.8c2.1,0,3.8,1.7,3.8,3.8
		C1188.8,308.8,1187.1,310.5,1185,310.5z"/>
	<path class="st18" d="M1166,284.1c1.4-1.6,3.1-2.9,4.9-3.7c-0.4,0-0.7-0.1-1.1-0.1c-6.4,0-11.1,3.4-13.6,9.8
		c-1.8,4.6-1.8,9.2-1.8,9.4c0,0.9,0.7,1.6,1.6,1.6h0c0.9,0,1.6-0.7,1.6-1.6C1157.6,298.9,1157.8,287,1166,284.1z"/>
	<path class="st18" d="M1177.5,284.7c-0.7,0-1.3,0.1-1.9,0.2c6.5,3.8,6.7,14.1,6.7,14.6c0,0.9,0.7,1.6,1.6,1.6h0
		c0.9,0,1.6-0.7,1.6-1.6c0-4-1.2-10-4.7-14.3C1179.7,284.9,1178.6,284.7,1177.5,284.7z"/>
	<path class="st19" d="M435.6,290.4h57.9v7.6h-57.9V290.4z"/>
	<path class="st19" d="M435.6,308h57.9v7.6h-57.9V308z"/>
	<path class="st19" d="M435.6,325.6h57.9v7.6h-57.9V325.6z"/>
	<path class="st20" d="M638.1,1446.8c-1.6-1.2-3.9-0.9-5.1,0.7l-31,40.6l-11.6-13.7c-1.3-1.5-3.6-1.7-5.1-0.4
		c-1.5,1.3-1.7,3.6-0.4,5.1l14.5,17.1c0.7,0.8,1.7,1.3,2.8,1.3c0,0,0.1,0,0.1,0c1.1,0,2.1-0.5,2.8-1.4l33.8-44.2
		C640,1450.2,639.7,1448,638.1,1446.8z"/>
	<g>
		<path class="st20" d="M684.4,1481.9l-3.1,8.8c-0.1,0.3-0.2,0.4-0.5,0.4h-5.1c-0.4,0-0.5-0.2-0.4-0.5c2.7-7.7,7.3-20.6,10.5-29.3
			c0.2-0.5,0.3-1,0.4-2.8c0-0.2,0.2-0.3,0.3-0.3h7c0.3,0,0.3,0.1,0.4,0.3c3.7,10.3,7.8,21.7,11.6,32.1c0.1,0.3,0,0.5-0.3,0.5h-5.6
			c-0.3,0-0.4-0.1-0.5-0.3l-3.2-8.9H684.4z M694.5,1477c-1-3.4-3.5-10.2-4.5-13.7H690c-0.8,3.3-2.8,9-4.3,13.7H694.5z"/>
		<path class="st20" d="M710.8,1458.6c0-0.2,0.1-0.3,0.4-0.4c3-0.1,6.8-0.2,10.1-0.2c11.4,0,17.1,6.5,17.1,16.2
			c0,14.4-11.3,16.9-18.1,16.9c-3.6,0-6.2-0.1-9.1-0.1c-0.3,0-0.4-0.1-0.4-0.5V1458.6z M716.8,1486.4c0.9,0.1,2.1,0.1,3.5,0.1
			c7.1,0,11.7-3.7,11.7-12c0-7.6-4-11.5-10.9-11.5c-2.3,0-3.9,0.1-4.3,0.1V1486.4z"/>
		<path class="st20" d="M745,1458.6c0-0.2,0.1-0.3,0.4-0.4c3-0.1,6.8-0.2,10.1-0.2c11.4,0,17.1,6.5,17.1,16.2
			c0,14.4-11.3,16.9-18.1,16.9c-3.6,0-6.2-0.1-9.1-0.1c-0.3,0-0.4-0.1-0.4-0.5V1458.6z M751.1,1486.4c0.9,0.1,2.1,0.1,3.5,0.1
			c7.1,0,11.7-3.7,11.7-12c0-7.6-4-11.5-10.9-11.5c-2.3,0-3.9,0.1-4.3,0.1V1486.4z"/>
		<path class="st20" d="M797.7,1463.1h-10.1c-0.3,0-0.4-0.2-0.3-0.5l0.7-4.1c0.1-0.3,0.2-0.4,0.5-0.4h25.4c0.3,0,0.4,0.1,0.5,0.4
			l0.5,4c0.1,0.4-0.1,0.5-0.4,0.5h-10.5v27.5c0,0.3-0.1,0.5-0.4,0.5h-5.2c-0.4,0.1-0.5-0.1-0.5-0.5V1463.1z"/>
		<path class="st20" d="M847.6,1474.5c0,10.8-6.4,17.1-15.6,17.1c-9.7,0-15.6-6.7-15.6-17c0-10.1,6.4-16.9,15.7-16.9
			C841.6,1457.7,847.5,1465.1,847.6,1474.5z M832.2,1486.5c5.7,0,9.1-4.5,9.1-11.9c0-7.1-3.6-11.9-9.4-11.9c-5.3,0-9.3,4.2-9.3,11.9
			C822.7,1481.6,826.2,1486.5,832.2,1486.5z"/>
		<path class="st20" d="M882.3,1457.7c3.2,0,5.7,0.5,7,1.1c0.2,0.1,0.3,0.2,0.3,0.5v4.6c0,0.4-0.2,0.4-0.4,0.3
			c-1.7-0.7-3.8-1.3-6.8-1.3c-6.9,0-11.7,4.4-11.7,11.6c0,9.1,6.6,11.6,11.5,11.6c2.9,0,5.4-0.6,7.3-1.4c0.2-0.1,0.4,0,0.4,0.3v4.4
			c0,0.3-0.1,0.5-0.4,0.6c-1.8,0.9-4.8,1.5-8.3,1.5c-8.6,0-16.7-4.8-16.7-16.9C864.6,1465.2,871.5,1457.7,882.3,1457.7z"/>
		<path class="st20" d="M903.4,1481.9l-3.1,8.8c-0.1,0.3-0.2,0.4-0.5,0.4h-5.1c-0.4,0-0.5-0.2-0.4-0.5c2.7-7.7,7.3-20.6,10.5-29.3
			c0.2-0.5,0.3-1,0.4-2.8c0-0.2,0.2-0.3,0.3-0.3h7c0.3,0,0.3,0.1,0.4,0.3c3.7,10.3,7.8,21.7,11.6,32.1c0.1,0.3,0,0.5-0.3,0.5h-5.6
			c-0.3,0-0.4-0.1-0.5-0.3l-3.2-8.9H903.4z M913.6,1477c-1-3.4-3.5-10.2-4.5-13.7H909c-0.8,3.3-2.8,9-4.3,13.7H913.6z"/>
		<path class="st20" d="M930.2,1491.1c-0.3,0-0.4-0.1-0.4-0.4v-32c0-0.3,0.1-0.4,0.3-0.4c2.7-0.1,5.4-0.2,9.9-0.2
			c7.9,0,12.6,3.2,12.6,9.5c0,4.7-2.8,7.6-6.9,8.9c1.3,1.6,9.1,11.8,10.6,14.1c0.2,0.3,0.2,0.6-0.2,0.6h-6.3c-0.4,0-0.6-0.1-0.7-0.3
			c-1.5-2-6-8.6-8.2-11.8c-0.4-0.7-0.7-0.9-1.6-0.9h-3.6v12.6c0,0.3-0.1,0.4-0.4,0.4H930.2z M939.8,1473.3c4.8,0,6.9-2.2,6.9-5.3
			c0-3.3-2.6-5-6.9-5c-2.3,0-3.6,0.1-4,0.1v10.3H939.8z"/>
		<path class="st20" d="M966.6,1463.1h-10.1c-0.3,0-0.4-0.2-0.3-0.5l0.7-4.1c0.1-0.3,0.2-0.4,0.5-0.4h25.4c0.3,0,0.4,0.1,0.5,0.4
			l0.5,4c0.1,0.4-0.1,0.5-0.4,0.5h-10.5v27.5c0,0.3-0.1,0.5-0.4,0.5h-5.2c-0.4,0.1-0.5-0.1-0.5-0.5V1463.1z"/>
	</g>
	<g>
		<g>
			<path class="st21" d="M713.2,941.6l-18.6,1.4c0.1,3.6,0.1,6.7,0.1,8.9c0.4,23,13.5,27.9,24.4,27.9c1.6,0,2.6-0.1,2.6-0.1
				c0.1,0,0.2,0,0.3,0l31-3c1.2-3.6,1.3-6.4,1.3-6.4s-4.1-194.7-5.2-219.2c-0.2-5.5-1.8-9.9-3.9-13.4c-11.3-0.9-21.5-1.7-29.2-2.3
				c-1.2-0.1-2.3-0.1-3.4-0.1c-7.6,0-13.2,1.9-16.8,5.8c-5.5,5.9-5,14.8-5,14.8c0,0.1,0,0.3,0,0.4c0,0.3,0.1,5.5,0.3,13.9
				c15,0.8,26,1.4,26,1.4s17.3,3.7,18,21.4c0.8,19.3,0.7,127.2,0.7,127.2S737.6,937.8,713.2,941.6z"/>
			<path class="st21" d="M654,945.9l-31.1,2.3c0,0-25.6,3.5-26.2-24.5c-0.4-20.7-3-137.8-3-137.8s-1.8-21.7,24.6-19.9
				c7.9,0.5,19.6,1.2,32.3,2c-0.4-19.3-0.7-36.3-0.9-49.2c-16.6-1.2-32.5-2.6-43.5-3.7c-34.8-3.8-32.6,25.4-32.6,25.4
				s4.2,214.9,5,241.2c1,31.4,34.8,26.3,34.8,26.3l41.8-4.5C654.8,987.8,654.4,968,654,945.9z"/>
			<path class="st21" d="M1025.8,679.3c-1.5-40.2-36.9-48.7-36.9-48.7s-122.6-18.5-176.3-25.2c-53.7-6.7-50.4,45.3-50.4,45.3
				s12.2,379.5,13.5,426.5c1.4,56,53.7,47,53.7,47l184.7-31.9c33.6-6.7,35.3-48.7,35.3-48.7S1027.5,723.2,1025.8,679.3z
				 M984.5,1001.6l-137.4,14.2c0,0-40,6-40.9-42.5c-0.7-35.8-8.6-240.9-8.6-240.9s-2.8-37.6,38.4-34.5c42,3.1,142.7,10.8,142.7,10.8
				s26.9,6.4,28.1,37.1c1.3,33.4,12.9,218.8,12.9,218.8S1022.8,995,984.5,1001.6z"/>
			<path class="st21" d="M846.4,1008.6l52.9-5.5c-2.4-53.9-11.9-263.4-13.2-293.8c0-0.2,0-0.3,0-0.4c-19.3-1.5-37.7-2.8-50.6-3.8
				c-1.4-0.1-2.8-0.2-4.1-0.2c-8.8,0-15.5,2.4-19.9,7c-7.3,7.7-6.6,19.8-6.6,19.9c0,0.1,0,0.2,0,0.2c0,0.1,0.1,1.3,0.1,3.2
				c21.5,1.9,37.8,3.3,37.8,3.3s23.2,5.2,24.3,30.4c1.1,27.4,7.7,175.8,7.7,175.8s2.6,25-30.4,30.4l-30.7,2.9
				c2.1,25.2,16.8,30.7,29.2,30.7c1.9,0,3.1-0.1,3.1-0.1l0,0C846.2,1008.7,846.3,1008.6,846.4,1008.6z"/>
			<path class="st21" d="M765.5,982.7l-42.7,4.1c0,0-34.5,5-35.3-34.8c-0.6-29.3-4-195.6-4-195.6s-2.4-30.8,33-28.3
				c10.4,0.7,25.2,1.9,41,3.2c-1-31.6-1.8-56.8-2.3-69.9c-20.7-2-40.7-4.1-55-5.7c-46.8-5.3-43.9,36-43.9,36s5.6,305,6.7,342.4
				c1.3,44.5,46.8,37.4,46.8,37.4l58.1-7.4C767.5,1046.5,766.6,1017.5,765.5,982.7z"/>
		</g>
		<g>
			<g>
				<g>
					<path class="st22" d="M710.2,938.6l-18.6,1.4c0.1,3.6,0.1,6.7,0.1,8.9c0.4,23,13.5,27.9,24.4,27.9c1.6,0,2.6-0.1,2.6-0.1
						c0.1,0,0.2,0,0.3,0l31-3c1.2-3.6,1.3-6.4,1.3-6.4s-4.1-194.7-5.2-219.2c-0.2-5.5-1.8-9.9-3.9-13.4c-11.3-0.9-21.5-1.7-29.2-2.3
						c-1.2-0.1-2.3-0.1-3.4-0.1c-7.6,0-13.2,1.9-16.8,5.8c-5.5,5.9-5,14.8-5,14.8c0,0.1,0,0.3,0,0.4c0,0.3,0.1,5.5,0.3,13.9
						c15,0.8,26,1.4,26,1.4s17.3,3.7,18,21.4c0.8,19.3,0.7,127.2,0.7,127.2S734.6,934.8,710.2,938.6z"/>
					<path class="st22" d="M651,942.9l-31.1,2.3c0,0-25.6,3.5-26.2-24.5c-0.4-20.7-3-137.8-3-137.8s-1.8-21.7,24.6-19.9
						c7.9,0.5,19.6,1.2,32.3,2c-0.4-19.3-0.7-36.3-0.9-49.2c-16.6-1.2-32.5-2.6-43.5-3.7c-34.8-3.8-32.6,25.4-32.6,25.4
						s4.2,214.9,5,241.2c1,31.4,34.8,26.3,34.8,26.3l41.8-4.5C651.8,984.8,651.4,965,651,942.9z"/>
				</g>
				<path class="st22" d="M1022.8,676.3c-1.5-40.2-36.9-48.7-36.9-48.7s-122.6-18.5-176.3-25.2c-53.7-6.7-50.4,45.3-50.4,45.3
					s12.2,379.5,13.5,426.5c1.4,56,53.7,47,53.7,47l184.7-31.9c33.6-6.7,35.3-48.7,35.3-48.7S1024.5,720.2,1022.8,676.3z
					 M981.5,998.6l-137.4,14.2c0,0-40,6-40.9-42.5c-0.7-35.8-8.6-240.9-8.6-240.9s-2.8-37.6,38.4-34.5c42,3.1,142.7,10.8,142.7,10.8
					s26.9,6.4,28.1,37.1c1.3,33.4,12.9,218.8,12.9,218.8S1019.8,992,981.5,998.6z"/>
				<g>
					<path class="st22" d="M843.4,1005.6l52.9-5.5c-2.4-53.9-11.9-263.4-13.2-293.8c0-0.2,0-0.3,0-0.4c-19.3-1.5-37.7-2.8-50.6-3.8
						c-1.4-0.1-2.8-0.2-4.1-0.2c-8.8,0-15.5,2.4-19.9,7c-7.3,7.7-6.6,19.8-6.6,19.9c0,0.1,0,0.2,0,0.2c0,0.1,0.1,1.3,0.1,3.2
						c21.5,1.9,37.8,3.3,37.8,3.3s23.2,5.2,24.3,30.4c1.1,27.4,7.7,175.8,7.7,175.8s2.6,25-30.4,30.4l-30.7,2.9
						c2.1,25.2,16.8,30.7,29.2,30.7c1.9,0,3.1-0.1,3.1-0.1l0,0C843.2,1005.7,843.3,1005.6,843.4,1005.6z"/>
					<path class="st22" d="M762.5,979.7l-42.7,4.1c0,0-34.5,5-35.3-34.8c-0.6-29.3-4-195.6-4-195.6s-2.4-30.8,33-28.3
						c10.4,0.7,25.2,1.9,41,3.2c-1-31.6-1.8-56.8-2.3-69.9c-20.7-2-40.7-4.1-55-5.7c-46.8-5.3-43.9,36-43.9,36s5.6,305,6.7,342.4
						c1.3,44.5,46.8,37.4,46.8,37.4l58.1-7.4C764.5,1043.5,763.6,1014.5,762.5,979.7z"/>
				</g>
			</g>
		</g>
	</g>
</g>
</svg>
