<?xml version="1.0" encoding="utf-8"?>
<!-- Generator: Adobe Illustrator 17.1.0, SVG Export Plug-In . SVG Version: 6.00 Build 0)  -->
<!DOCTYPE svg PUBLIC "-//W3C//DTD SVG 1.1//EN" "http://www.w3.org/Graphics/SVG/1.1/DTD/svg11.dtd">
<svg version="1.1" xmlns="http://www.w3.org/2000/svg" xmlns:xlink="http://www.w3.org/1999/xlink" x="0px" y="0px"
	 viewBox="0 0 2376.3 1807.6" style="enable-background:new 0 0 2376.3 1807.6;" xml:space="preserve">
<style type="text/css">
	.st0{display:none;}
	.st1{fill:#F4B505;}
	.st2{fill:#E0A628;}
	.st3{fill:#283343;}
	.st4{fill:#242C3C;}
	.st5{fill:#2B3A49;}
	.st6{fill:#C2C3C6;}
	.st7{fill:#EFEEEE;}
	.st8{fill:#D8D8DA;}
	.st9{fill:#FFFFFF;}
	.st10{clip-path:url(#SVGID_2_);}
	.st11{fill:#4E5254;}
	.st12{fill:#111111;}
	.st13{fill-rule:evenodd;clip-rule:evenodd;fill:#FFFFFF;}
	.st14{fill-rule:evenodd;clip-rule:evenodd;fill:#515151;}
	.st15{fill-rule:evenodd;clip-rule:evenodd;fill:#494949;}
	.st16{fill-rule:evenodd;clip-rule:evenodd;fill:#AEAEAE;}
	.st17{fill:#686868;}
	.st18{fill-rule:evenodd;clip-rule:evenodd;fill:#686868;}
	.st19{fill:#393939;}
	.st20{fill:#64676A;}
	.st21{fill:#343434;}
</style>
<g id="Layer_2" class="st0">
	
		<image style="display:inline;overflow:visible;opacity:0.54;" width="962" height="715" xlink:href="../../../../Desktop/briefcase.png"  transform="matrix(2.4702 0 0 2.5281 0 0)">
	</image>
</g>
<g id="circle">
	<circle class="st1" cx="1949.8" cy="1056.5" r="192"/>
	<circle class="st1" cx="1949.8" cy="594.4" r="192"/>
</g>
<g id="enterprise">
	<path class="st2" d="M1949.8,1248.5c100.6,0,183.2-77.4,191.4-176h-0.4v-1.1h-1.1v-1.1h-1.1v-1.1h-1.1v-1.1h-1.1v-1.1h-1.1v-1.1
		h-1.1v-1.1h-1.1v-1.1h-1.1v-1.1h-1.1v-1.1h-1.1v-1.1h-1.1v-1.1h-1.1v-1.1h-1.1v-1.1h-1.1v-1.1h-1.1v-1.1h-1.1v-1.1h-1.1v-1.1h-1.1
		v-1.1h-1.1v-1.1h-1.1v-1.1h-1.1v-1.1h-1.1v-1.1h-1.1v-1.1h-1.1v-1.1h-1.1v-1.1h-1.1v-1.1h-1.1v-1.1h-1.1v-1.1h-1.1v-1.1h-1.1v-1.1
		h-1.1v-1.1h-1.1v-1.1h-1.1v-1.1h-1.1v-1.1h-1.1v-1.1h-1.1v-1.1h-1.1v-1.1h-1.1v-1.1h-1.1v-1.1h-1.1v-1.1h-1.1v-1.1h-1.1v-1.1h-1.1
		v-1.1h-1.1v-1.1h-1.1v-1.1h-1.1v-1.1h-1.1v-1.1h-1.1v-1.1h-1.1v-1.1h-1.1v-1.1h-1.1v-1.1h-1.1v-1.1h-1.1v-1.1h-1.1v-1.1h-1.1v-1.1
		h-1.1v-1.1h-1.1v-1.1h-1.1v-1.1h-1.1v-1.1h-1.1v-1.1h-1.1v-1.1h-1.1v-1.1h-1.1v-1.1h-1.1v-1.1h-1.1v-1.1h-1.1V997h-1.1v-1.1h-1.1
		v-1.1h-1.1v-1.1h-1.1v-1.1h-12.6v-0.6h-1.1v-1.1h-1.1v-1.1h-1.1v-1.1h-32v4h-3.4c-0.3-0.3-0.5-0.5-0.8-0.8
		c-0.4-0.4-0.7-0.8-1.1-1.1c-0.4-0.4-0.7-0.8-1.1-1.1c-0.4-0.4-0.7-0.8-1.1-1.1c-0.4-0.4-0.7-0.8-1.1-1.1c-0.4-0.4-0.7-0.8-1.1-1.1
		c-0.4-0.4-0.7-0.8-1.1-1.1c-0.4-0.4-0.7-0.8-1.1-1.1c-0.4-0.4-0.7-0.8-1.1-1.1c-0.4-0.4-0.7-0.8-1.1-1.1c-0.4-0.4-0.7-0.8-1.1-1.1
		c-0.4-0.4-0.7-0.8-1.1-1.1c-0.4-0.4-0.7-0.8-1.1-1.1c-0.4-0.4-0.7-0.8-1.1-1.1c-0.4-0.4-0.7-0.8-1.1-1.1c-0.4-0.4-0.7-0.8-1.1-1.1
		c-0.4-0.4-0.7-0.8-1.1-1.1c-0.4-0.4-0.7-0.8-1.1-1.1c-0.4-0.4-0.7-0.8-1.1-1.1c-0.4-0.4-0.7-0.8-1.1-1.1c-0.4-0.4-0.7-0.8-1.1-1.1
		c-0.4-0.4-0.7-0.8-1.1-1.1c-0.4-0.4-0.7-0.8-1.1-1.1c-0.4-0.4-0.7-0.8-1.1-1.1c-2.9-3.2-7.2-5.3-11.8-5.3h-44c-8.8,0-16,7.2-16,16
		v16h-22.6v-0.6h-1.1v-1.1h-1.1v-1.1h-1.1v-1.1h-32v4h-16v40v37v3v4v76h1.1v1.1h1.1v1.1h1.1v1.1h1.1v1.1h1.1v1.1h1.1v1.1h1.1v1.1
		h1.1v1.1h1.1v1.1h1.1v1.1h1.1v1.1h1.1v1.1h1.1v1.1h1.1v1.1h1.1v1.1h1.1v1.1h1.1v1.1h1.1v1.1h1.1v1.1h1.1v1.1h1.1v1.1h1.1v1.1h1.1
		v1.1h1.1v1.1h1.1v1.1h1.1v1.1h1.1v1.1h1.1v1.1h1.1v1.1h1.1v1.1h1.1v1.1h1.1v1.1h1.1v1.1h1.1v1.1h1.1v1.1h1.1v1.1h1.1v1.1h1.1v1.1
		h1.1v1.1h1.1v1.1h1.1v1.1h1.1v1.1h1.1v1.1h1.1v1.1h1.1v1.1h1.1v1.1h1.1v1.1h1.1v1.1h1.1v1.1h1.1v1.1h1.1v1.1h1.1v1.1h1.1v1.1h1.1
		v1.1h1.1v1.1h1.1v1.1h1.1v1.1h1.1v1.1h1.1v1.1h1.1v1.1h1.1v1.1h1.1v1.1h1.1v1.1h1.1v1.1h1.1v1.1h1.1v1.1h1.1v1.1h1.1v1.1h1.1v1.1
		h1.1v1.1h1.1v1.1h1.1v1.1h1.1v1.1h1.1v1.1h1.1v1.1h1.1v1.1h1.1v1.1h1.1v1.1h1.1v1.1h1.1v1.1h1.1v1.1h1.1v1.1h1.1v1.1h1.1v1.1h1.1
		v0.6C1938.9,1248.3,1944.3,1248.5,1949.8,1248.5z"/>
	<g>
		<g>
			<g>
				<polygon class="st3" points="1837.8,992.5 1837.8,1032.5 1837.8,1069.5 1837.8,1072.5 1837.8,1152.5 2061.8,1152.5 
					2061.8,1072.5 2061.8,1069.5 2061.8,1032.5 2061.8,992.5 				"/>
			</g>
		</g>
		<g>
			<g>
				<path class="st4" d="M1971.8,972.5c2.2,0,4,1.8,4,4v32c0,2.2-1.8,4-4,4h-44c-2.2,0-4-1.8-4-4v-32c0-2.2,1.8-4,4-4H1971.8
					L1971.8,972.5z M1971.8,960.5h-44c-8.8,0-16,7.2-16,16v32c0,8.8,7.2,16,16,16h44c8.8,0,16-7.2,16-16v-32
					C1987.8,967.7,1980.6,960.5,1971.8,960.5L1971.8,960.5z"/>
			</g>
		</g>
		<g>
			<g>
				<rect x="1853.8" y="988.5" class="st4" width="32" height="8"/>
			</g>
		</g>
		<g>
			<g>
				<rect x="2013.8" y="988.5" class="st4" width="32" height="8"/>
			</g>
		</g>
		<g>
			<g>
				<g>
					<polygon class="st5" points="2061.8,1069.5 2061.8,1032.5 2061.8,992.5 1837.8,992.5 1837.8,1032.5 1837.8,1069.5 
						1837.8,1072.5 2061.8,1072.5 					"/>
				</g>
			</g>
			<g>
				<g>
					<rect x="1837.8" y="1072.5" class="st3" width="224" height="80"/>
				</g>
			</g>
		</g>
		<g>
			<g>
				<rect x="1837.8" y="1072.5" class="st4" width="224" height="4"/>
			</g>
		</g>
		<g>
			<g>
				<g>
					<rect x="1933.8" y="1064.5" class="st6" width="32" height="8"/>
				</g>
			</g>
			<g>
				<g>
					<rect x="1933.8" y="1072.5" class="st7" width="32" height="8"/>
				</g>
			</g>
		</g>
	</g>
	<path class="st2" d="M2140.6,616.1h-0.2l-0.4-0.9h-0.4l-0.4-0.9h-0.4l-0.4-0.9h-0.4l-0.4-0.9h-0.5l-0.4-0.9h-0.4l-0.4-0.9h-0.4
		l-0.4-0.9h-0.4l-0.5-0.9h-0.4l-0.4-0.9h-0.4l-0.4-0.9h-0.4l-0.4-0.9h-0.4l-0.4-0.9h-0.4l-0.4-0.9h-0.5l-0.4-0.9h-0.4l-0.4-0.9h-0.4
		l-0.4-0.9h-0.4l-0.5-0.9h-0.4l-0.5-0.9h-0.4l-0.4-0.9h-0.4l-0.4-0.9h-0.4l-0.4-0.9h-0.4l-0.4-0.9h-0.5l-0.4-0.9h-0.4l-0.4-0.9h-0.4
		l-0.4-0.9h-0.4l-0.5-0.9h-0.4l-0.5-0.9h-0.4l-0.4-0.9h-0.4l-0.4-0.9h-0.4l-0.4-0.9h-0.4l-0.4-0.9h-0.5l-0.4-0.9h-0.4l-0.4-0.9h-0.4
		l-0.4-0.9h-0.4l-0.5-0.9h-0.4l-0.5-0.9h-0.4l-0.4-0.9h-0.4l-0.4-0.9h-0.4l-0.4-0.9h-0.4l-0.4-0.9h-0.5l-0.4-0.9h-0.4l-0.4-0.9h-0.4
		l-0.4-0.9h-0.4l-0.5-0.9h-0.4l-0.5-0.9h-0.4l-0.4-0.9h-0.4l-0.4-0.9h-0.4l-0.4-0.9h-0.4l-0.4-0.9h-0.5l-0.4-0.9h-0.4l-0.4-0.9h-0.4
		l-0.4-0.9h-0.4l-0.5-0.9h-0.4l-0.5-0.9h-0.4l-0.4-0.9h-0.4l-0.4-0.9h-0.4l-0.4-0.9h-0.4l-0.4-0.9h-0.5l-0.4-0.9h-0.4l-0.4-0.9h-0.4
		l-0.4-0.9h-0.4l-0.5-0.9h-0.4l-0.5-0.9h-0.4l-0.5-0.9h-0.4l-0.4-0.9h-0.4l-0.4-0.9h-0.4l-0.4-0.9h-0.5l-0.4-0.9h-0.4l-0.4-0.9h-0.4
		l-0.4-0.9h-0.4l-0.5-0.9h-0.4l-0.5-0.9h-0.4l-0.5-0.9h-0.4l-0.4-0.9h-0.4l-0.4-0.9h-0.4l-0.4-0.9h-0.5l-0.4-0.9h-0.4l-0.4-0.9h-0.4
		l-0.4-0.9h-0.4l-0.5-0.9h-0.4l-0.5-0.9h-0.4l-0.5-0.9h-0.4l-0.4-0.9h-0.4l-0.4-0.9h-0.4l-0.4-0.9h-0.5l-0.4-0.9h-0.4l-0.4-0.9h-0.4
		l-0.4-0.9h-0.4l-0.5-0.9h-0.4l-0.5-0.9h-0.4l-0.5-0.9h-0.4l-0.4-0.9h-0.4l-0.4-0.9h-0.5l-0.4-0.9h-0.5l-0.4-0.9h-0.4l-0.4-0.9h-0.4
		l-0.4-0.9h-0.4l-0.5-0.9h-0.4l-0.5-0.9h-0.4l-0.5-0.9h-0.4l-0.4-0.9h-0.4l-0.4-0.9h-0.5l-0.4-0.9h-0.5l-0.4-0.9h-0.4l-0.4-0.9h-0.4
		l-0.4-0.9h-0.4l-0.4-0.9h-0.4l-0.5-0.9h-0.4l-0.5-0.9h-0.4l-0.4-0.9h-0.4l-0.4-0.9h-0.5l-0.4-0.9h-0.5l-0.4-0.9h-0.4l-0.4-0.9h-0.4
		l-0.4-0.9h-0.4l-0.4-0.9h-0.4l-0.5-0.9h-0.4l-0.5-0.9h-0.4l-0.4-0.9h-0.4l-0.4-0.9h-0.4l-0.4-0.9h-0.5l-0.4-0.9h-0.4l-0.4-0.9h-0.4
		l-0.4-0.9h-0.4l-0.4-0.9h-0.4l-0.5-0.9h-0.4l-0.5-0.9h-0.4l-0.4-0.9h-0.4l-0.4-0.9h-0.4l-0.4-0.9h-0.5l-0.4-0.9h-0.4l-0.4-0.9h-0.4
		l-0.4-0.9h-0.4l-0.4-0.9h-0.4l-0.5-0.9h-0.4l-0.5-0.9h-0.4l-0.4-0.9h-0.4l-0.4-0.9h-0.4l-0.4-0.9h-0.5l-0.4-0.9h-0.4l-0.4-0.9h-0.4
		l-0.4-0.9h-0.4l-0.4-0.9h-0.4l-0.5-0.9h-0.4l-0.5-0.9h-0.4l-0.4-0.9h-0.4l-0.4-0.9h-0.4l-0.4-0.9h-0.5l-0.4-0.9h-0.4l-0.4-0.9h-0.4
		l-0.4-0.9h-0.4l-0.4-0.9h-0.4l-0.5-0.9h-0.4l-0.5-0.9h-0.4l-0.4-0.9h-0.4l-0.4-0.9h-0.4l-0.4-0.9h-0.5l-0.4-0.9h-0.4l-0.4-0.9h-96
		l-8,16l16,80l0.6-0.6l0.3,1.5l0.6-0.6l0.3,1.5l0.6-0.6l0.3,1.5l0.6-0.6l0.3,1.5l0.6-0.6l0.3,1.5l0.6-0.6l0.3,1.5l0.6-0.6l0.3,1.5
		l0.6-0.6l0.3,1.5l0.6-0.6l0.3,1.5l0.6-0.6l0.3,1.5l0.6-0.6l0.3,1.5l0.6-0.6l0.3,1.5l0.6-0.6l0.3,1.5l0.6-0.6l0.3,1.5l0.6-0.6
		l0.3,1.5l0.6-0.6l0.3,1.5l0.6-0.6l0.3,1.5l0.6-0.6l0.3,1.5l0.6-0.6l0.3,1.5l0.6-0.6l0.3,1.5l0.6-0.6l0.3,1.5l0.6-0.6l0.3,1.5
		l0.6-0.6l0.3,1.5l0.6-0.6l0.3,1.5l0.6-0.6l0.3,1.5l0.6-0.6l0.3,1.5l0.6-0.6l0.3,1.5l0.6-0.6l0.3,1.5l0.6-0.6l0.3,1.5l0.6-0.6
		l0.3,1.5l0.6-0.6l0.3,1.5l0.6-0.6l0.3,1.5l0.4-0.4l-9.3,95.9l7.2,7.2l6.9,6.9l1.2,1.2l2.8,2.8l2.8,2.8l1.2,1.2l1.2,1.2l2.8,2.8
		l2.8,2.8l0.8,0.8l0.8,0.8l2.8,2.8l2.8,2.8l1.2,1.2l1.2,1.2l2.8,2.8l2.8,2.8l0.8,0.8l0.8,0.8l2.8,2.8l2.8,2.8l1.2,1.2l1.2,1.2
		l2.8,2.8l2.8,2.8l1.2,1.2l6.9,6.9l1.5,1.5l2.8,2.8l2.8,2.8l1.2,1.2l1.2,1.2l2.8,2.8l2.5,2.5
		C2081.2,752.3,2132.2,690.6,2140.6,616.1z"/>
	<g>
		<g>
			<polygon class="st8" points="2005.8,489 1893.8,489 1901.8,473 1997.8,473 			"/>
		</g>
		<g>
			<polygon class="st5" points="1957.8,569 1941.8,569 1933.8,537 1965.8,537 			"/>
		</g>
		<g>
			<polygon class="st9" points="1909.8,569 1941.8,537 1901.8,473 1893.8,489 			"/>
		</g>
		<g>
			<polygon class="st9" points="1989.8,569 1957.8,537 1997.8,473 2005.8,489 			"/>
		</g>
		<g>
			<defs>
				<polygon id="SVGID_1_" points="1929.7,693.2 1941.8,569 1957.8,569 1969.9,693.2 1949.8,713.3 				"/>
			</defs>
			<use xlink:href="#SVGID_1_"  style="overflow:visible;fill:#242C3C;"/>
			<clipPath id="SVGID_2_">
				<use xlink:href="#SVGID_1_"  style="overflow:visible;"/>
			</clipPath>
			<g class="st10">
				<g>
					<g>
						<g>
							
								<rect x="1946.8" y="500.2" transform="matrix(0.375 0.927 -0.927 0.375 1722.3102 -1467.9163)" class="st5" width="6" height="86.3"/>
						</g>
					</g>
				</g>
				<g>
					<g>
						<g>
							
								<rect x="1946.8" y="516.2" transform="matrix(0.375 0.927 -0.927 0.375 1737.1427 -1457.916)" class="st5" width="6" height="86.3"/>
						</g>
					</g>
				</g>
				<g>
					<g>
						<g>
							
								<rect x="1946.8" y="532.2" transform="matrix(0.375 0.927 -0.927 0.375 1751.9752 -1447.9156)" class="st5" width="6" height="86.3"/>
						</g>
					</g>
				</g>
				<g>
					<g>
						<g>
							
								<rect x="1946.8" y="548.2" transform="matrix(0.375 0.927 -0.927 0.375 1766.8077 -1437.9153)" class="st5" width="6" height="86.3"/>
						</g>
					</g>
				</g>
				<g>
					<g>
						<g>
							
								<rect x="1946.8" y="564.2" transform="matrix(0.375 0.927 -0.927 0.375 1781.6403 -1427.915)" class="st5" width="6" height="86.3"/>
						</g>
					</g>
				</g>
				<g>
					<g>
						<g>
							
								<rect x="1946.8" y="580.2" transform="matrix(0.375 0.927 -0.927 0.375 1796.4728 -1417.9147)" class="st5" width="6" height="86.3"/>
						</g>
					</g>
				</g>
				<g>
					<g>
						<g>
							
								<rect x="1946.8" y="596.2" transform="matrix(0.375 0.927 -0.927 0.375 1811.3054 -1407.9143)" class="st5" width="6" height="86.3"/>
						</g>
					</g>
				</g>
				<g>
					<g>
						<g>
							
								<rect x="1946.8" y="612.2" transform="matrix(0.375 0.927 -0.927 0.375 1826.1379 -1397.9141)" class="st5" width="6" height="86.3"/>
						</g>
					</g>
				</g>
				<g>
					<g>
						<g>
							
								<rect x="1946.8" y="628.2" transform="matrix(0.375 0.927 -0.927 0.375 1840.9705 -1387.9137)" class="st5" width="6" height="86.3"/>
						</g>
					</g>
				</g>
				<g>
					<g>
						<g>
							
								<rect x="1946.8" y="644.2" transform="matrix(0.375 0.927 -0.927 0.375 1855.803 -1377.9133)" class="st5" width="6" height="86.3"/>
						</g>
					</g>
				</g>
				<g>
					<g>
						<g>
							
								<rect x="1946.8" y="660.2" transform="matrix(0.375 0.927 -0.927 0.375 1870.6355 -1367.9131)" class="st5" width="6" height="86.3"/>
						</g>
					</g>
				</g>
			</g>
		</g>
	</g>
</g>
<g id="plus">
	<g>
		<g>
			<path class="st11" d="M1532.1,696c2.5,0,3.5,0.5,3.5,3.5V802h98.5c2.5,0,3,1,3,4v35.5c0,3-0.5,3.5-3.5,3.5h-98v104.5
				c0,2-0.5,2.5-3.5,2.5h-38.5c-2.5,0-3-1-3-3V845h-98c-3,0-4-0.5-4-3.5v-36c0-2.5,1.5-3.5,3.5-3.5h98.5V699c0.5-2,1-3,3-3H1532.1z"
				/>
		</g>
		<g>
			<g>
				<path class="st12" d="M1529.1,693c2.5,0,3.5,0.5,3.5,3.5V799h98.5c2.5,0,3,1,3,4v35.5c0,3-0.5,3.5-3.5,3.5h-98v104.5
					c0,2-0.5,2.5-3.5,2.5h-38.5c-2.5,0-3-1-3-3V842h-98c-3,0-4-0.5-4-3.5v-36c0-2.5,1.5-3.5,3.5-3.5h98.5V696c0.5-2,1-3,3-3H1529.1z
					"/>
			</g>
		</g>
	</g>
</g>
<g id="phone">
	<path class="st13" d="M1236.9,1765.8c6.2-8.4,9.9-18.8,9.9-30V80.8c0-27.8-22.6-50.4-50.4-50.4c0,0-213-22.7-422.2-22.7
		c-206.5,0-409.1,22.7-409.1,22.7c-27.8,0-50.4,22.6-50.4,50.4v1654.9c0,11.3,3.7,21.6,9.9,30H1236.9z"/>
	<path class="st14" d="M373.2,216.7h815.3c2.8,0,5,2.3,5,5v1320c0,2.8-2.3,5-5,5H373.2c-2.8,0-5-2.3-5-5v-1320
		C368.2,218.9,370.4,216.7,373.2,216.7z"/>
	<path class="st15" d="M481.1,1385.6h597c26.4,0,47.9,21.4,47.9,47.9s-21.4,47.9-47.9,47.9h-597c-26.4,0-47.9-21.4-47.9-47.9
		S454.7,1385.6,481.1,1385.6z"/>
	<path class="st15" d="M798.5,1171.5H1126v176.3H798.5V1171.5z"/>
	<path class="st15" d="M445.8,1171.5h327.5v176.3H445.8V1171.5z"/>
	<path class="st15" d="M445.8,398.2h672.6v80.6H445.8V398.2z"/>
	<path class="st15" d="M373.2,216.7h815.3c2.8,0,5,2.3,5,5V320c0,2.8-2.3,5-5,5H373.2c-2.8,0-5-2.3-5-5v-98.3
		C368.2,218.9,370.4,216.7,373.2,216.7z"/>
	<path class="st16" d="M700.3,136.8h161.2c7,0,12.6,5.6,12.6,12.6v1.4c0,7-5.6,12.6-12.6,12.6H700.3c-7,0-12.6-5.6-12.6-12.6v-1.4
		C687.7,142.5,693.3,136.8,700.3,136.8z"/>
	<path class="st14" d="M777.1,1612.3c13.2,0,23.9,10.7,23.9,23.9c0,13.2-10.7,23.9-23.9,23.9s-23.9-10.7-23.9-23.9
		C753.2,1623,763.9,1612.3,777.1,1612.3z"/>
	<path class="st17" d="M1156.2,260.3c-0.9,0-1.6-0.7-1.6-1.6c0-0.7-0.2-16.1-12.3-16.1c-12.1,0-12.3,15.4-12.3,16.1
		c0,0.9-0.7,1.6-1.6,1.6h0c-0.9,0-1.6-0.7-1.6-1.6c0-0.2,0-4.8,1.8-9.4c2.5-6.4,7.2-9.8,13.6-9.8c12.2,0,15.4,12.6,15.4,19.2
		C1157.8,259.6,1157.1,260.3,1156.2,260.3L1156.2,260.3z"/>
	<path class="st17" d="M1163.7,259.6c0-1.4-1.1-2.5-2.5-2.5h-45.3c-1.4,0-2.5,1.1-2.5,2.5l-2.5,37.8c0,1.4,1.1,2.5,2.5,2.5h50.4
		c1.4,0,2.5-1.1,2.5-2.5L1163.7,259.6z M1127.2,269.7c-2.1,0-3.8-1.7-3.8-3.8c0-2.1,1.7-3.8,3.8-3.8c2.1,0,3.8,1.7,3.8,3.8
		C1131,268,1129.3,269.7,1127.2,269.7z M1149.9,269.7c-2.1,0-3.8-1.7-3.8-3.8c0-2.1,1.7-3.8,3.8-3.8c2.1,0,3.8,1.7,3.8,3.8
		C1153.7,268,1152,269.7,1149.9,269.7z"/>
	<path class="st17" d="M1130.9,243.3c1.4-1.6,3.1-2.9,4.9-3.7c-0.4,0-0.7-0.1-1.1-0.1c-6.4,0-11.1,3.4-13.6,9.8
		c-1.8,4.6-1.8,9.2-1.8,9.4c0,0.9,0.7,1.6,1.6,1.6h0c0.9,0,1.6-0.7,1.6-1.6C1122.5,258.1,1122.6,246.1,1130.9,243.3z"/>
	<path class="st17" d="M1142.3,243.9c-0.7,0-1.3,0.1-1.9,0.2c6.5,3.8,6.7,14.1,6.7,14.6c0,0.9,0.7,1.6,1.6,1.6h0
		c0.9,0,1.6-0.7,1.6-1.6c0-4-1.2-10-4.7-14.3C1144.5,244.1,1143.5,243.9,1142.3,243.9z"/>
	<path class="st18" d="M400.5,249.6h57.9v7.6h-57.9V249.6z"/>
	<path class="st18" d="M400.5,267.2h57.9v7.6h-57.9V267.2z"/>
	<path class="st18" d="M400.5,284.8h57.9v7.6h-57.9V284.8z"/>
	<path class="st19" d="M603,1405.9c-1.6-1.2-3.9-0.9-5.1,0.7l-31,40.6l-11.6-13.7c-1.3-1.5-3.6-1.7-5.1-0.4
		c-1.5,1.3-1.7,3.6-0.4,5.1l14.5,17.1c0.7,0.8,1.7,1.3,2.8,1.3c0,0,0.1,0,0.1,0c1.1,0,2.1-0.5,2.8-1.4l33.8-44.2
		C604.8,1409.4,604.5,1407.2,603,1405.9z"/>
	<g>
		<path class="st19" d="M649.2,1441.1l-3.1,8.8c-0.1,0.3-0.2,0.4-0.5,0.4h-5.1c-0.4,0-0.5-0.2-0.4-0.5c2.7-7.7,7.3-20.6,10.5-29.3
			c0.2-0.5,0.3-1,0.4-2.8c0-0.2,0.2-0.3,0.3-0.3h7c0.3,0,0.3,0.1,0.4,0.3c3.7,10.3,7.8,21.7,11.6,32.1c0.1,0.3,0,0.5-0.3,0.5h-5.6
			c-0.3,0-0.4-0.1-0.5-0.3l-3.2-8.9H649.2z M659.4,1436.2c-1-3.4-3.5-10.2-4.5-13.7h-0.1c-0.8,3.3-2.8,9-4.3,13.7H659.4z"/>
		<path class="st19" d="M675.6,1417.8c0-0.2,0.1-0.3,0.4-0.4c3-0.1,6.8-0.2,10.1-0.2c11.4,0,17.1,6.5,17.1,16.2
			c0,14.4-11.3,16.9-18.1,16.9c-3.6,0-6.2-0.1-9.1-0.1c-0.3,0-0.4-0.1-0.4-0.5V1417.8z M681.7,1445.5c0.9,0.1,2.1,0.1,3.5,0.1
			c7.1,0,11.7-3.7,11.7-12c0-7.6-4-11.5-10.9-11.5c-2.3,0-3.9,0.1-4.3,0.1V1445.5z"/>
		<path class="st19" d="M709.9,1417.8c0-0.2,0.1-0.3,0.4-0.4c3-0.1,6.8-0.2,10.1-0.2c11.4,0,17.1,6.5,17.1,16.2
			c0,14.4-11.3,16.9-18.1,16.9c-3.6,0-6.2-0.1-9.1-0.1c-0.3,0-0.4-0.1-0.4-0.5V1417.8z M716,1445.5c0.9,0.1,2.1,0.1,3.5,0.1
			c7.1,0,11.7-3.7,11.7-12c0-7.6-4-11.5-10.9-11.5c-2.3,0-3.9,0.1-4.3,0.1V1445.5z"/>
		<path class="st19" d="M762.5,1422.3h-10.1c-0.3,0-0.4-0.2-0.3-0.5l0.7-4.1c0.1-0.3,0.2-0.4,0.5-0.4h25.4c0.3,0,0.4,0.1,0.5,0.4
			l0.5,4c0.1,0.4-0.1,0.5-0.4,0.5h-10.5v27.5c0,0.3-0.1,0.5-0.4,0.5H763c-0.4,0.1-0.5-0.1-0.5-0.5V1422.3z"/>
		<path class="st19" d="M812.4,1433.6c0,10.8-6.4,17.1-15.6,17.1c-9.7,0-15.6-6.7-15.6-17c0-10.1,6.4-16.9,15.7-16.9
			C806.5,1416.9,812.4,1424.3,812.4,1433.6z M797.1,1445.7c5.7,0,9.1-4.5,9.1-11.9c0-7.1-3.6-11.9-9.4-11.9c-5.3,0-9.3,4.2-9.3,11.9
			C787.6,1440.8,791,1445.7,797.1,1445.7z"/>
		<path class="st19" d="M847.2,1416.9c3.2,0,5.7,0.5,7,1.1c0.2,0.1,0.3,0.2,0.3,0.5v4.6c0,0.4-0.2,0.4-0.4,0.3
			c-1.7-0.7-3.8-1.3-6.8-1.3c-6.9,0-11.7,4.4-11.7,11.6c0,9.1,6.6,11.6,11.5,11.6c2.9,0,5.4-0.6,7.3-1.4c0.2-0.1,0.4,0,0.4,0.3v4.4
			c0,0.3-0.1,0.5-0.4,0.6c-1.8,0.9-4.8,1.5-8.3,1.5c-8.6,0-16.7-4.8-16.7-16.9C829.4,1424.4,836.4,1416.9,847.2,1416.9z"/>
		<path class="st19" d="M868.3,1441.1l-3.1,8.8c-0.1,0.3-0.2,0.4-0.5,0.4h-5.1c-0.4,0-0.5-0.2-0.4-0.5c2.7-7.7,7.3-20.6,10.5-29.3
			c0.2-0.5,0.3-1,0.4-2.8c0-0.2,0.2-0.3,0.3-0.3h7c0.3,0,0.3,0.1,0.4,0.3c3.7,10.3,7.8,21.7,11.6,32.1c0.1,0.3,0,0.5-0.3,0.5h-5.6
			c-0.3,0-0.4-0.1-0.5-0.3l-3.2-8.9H868.3z M878.4,1436.2c-1-3.4-3.5-10.2-4.5-13.7h-0.1c-0.8,3.3-2.8,9-4.3,13.7H878.4z"/>
		<path class="st19" d="M895.1,1450.3c-0.3,0-0.4-0.1-0.4-0.4v-32c0-0.3,0.1-0.4,0.3-0.4c2.7-0.1,5.4-0.2,9.9-0.2
			c7.9,0,12.6,3.2,12.6,9.5c0,4.7-2.8,7.6-6.9,8.9c1.3,1.6,9.1,11.8,10.6,14.1c0.2,0.3,0.2,0.6-0.2,0.6h-6.3c-0.4,0-0.6-0.1-0.7-0.3
			c-1.5-2-6-8.6-8.2-11.8c-0.4-0.7-0.7-0.9-1.6-0.9h-3.6v12.6c0,0.3-0.1,0.4-0.4,0.4H895.1z M904.6,1432.4c4.8,0,6.9-2.2,6.9-5.3
			c0-3.3-2.6-5-6.9-5c-2.3,0-3.6,0.1-4,0.1v10.3H904.6z"/>
		<path class="st19" d="M931.4,1422.3h-10.1c-0.3,0-0.4-0.2-0.3-0.5l0.7-4.1c0.1-0.3,0.2-0.4,0.5-0.4h25.4c0.3,0,0.4,0.1,0.5,0.4
			l0.5,4c0.1,0.4-0.1,0.5-0.4,0.5h-10.5v27.5c0,0.3-0.1,0.5-0.4,0.5h-5.2c-0.4,0.1-0.5-0.1-0.5-0.5V1422.3z"/>
	</g>
	<g>
		<g>
			<path class="st20" d="M678,900.8l-18.6,1.4c0.1,3.6,0.1,6.7,0.1,8.9c0.4,23,13.5,27.9,24.4,27.9c1.6,0,2.6-0.1,2.6-0.1
				c0.1,0,0.2,0,0.3,0l31-3c1.2-3.6,1.3-6.4,1.3-6.4s-4.1-194.7-5.2-219.2c-0.2-5.5-1.8-9.9-3.9-13.4c-11.3-0.9-21.5-1.7-29.2-2.3
				c-1.2-0.1-2.3-0.1-3.4-0.1c-7.6,0-13.2,1.9-16.8,5.8c-5.5,5.9-5,14.8-5,14.8c0,0.1,0,0.3,0,0.4c0,0.3,0.1,5.5,0.3,13.9
				c15,0.8,26,1.4,26,1.4s17.3,3.7,18,21.4c0.8,19.3,0.7,127.2,0.7,127.2S702.5,897,678,900.8z"/>
			<path class="st20" d="M618.8,905.1l-31.1,2.3c0,0-25.6,3.5-26.2-24.5c-0.4-20.7-3-137.8-3-137.8s-1.8-21.7,24.6-19.9
				c7.9,0.5,19.6,1.2,32.3,2c-0.4-19.3-0.7-36.3-0.9-49.2c-16.6-1.2-32.5-2.6-43.5-3.7c-34.8-3.8-32.6,25.4-32.6,25.4
				s4.2,214.9,5,241.2c1,31.4,34.8,26.3,34.8,26.3l41.8-4.5C619.7,946.9,619.3,927.2,618.8,905.1z"/>
			<path class="st20" d="M990.7,638.5c-1.5-40.2-36.9-48.7-36.9-48.7s-122.6-18.5-176.3-25.2c-53.7-6.7-50.4,45.3-50.4,45.3
				s12.2,379.5,13.5,426.5c1.4,56,53.7,47,53.7,47l184.7-31.9c33.6-6.7,35.3-48.7,35.3-48.7S992.4,682.4,990.7,638.5z M949.4,960.8
				L812,975c0,0-40,6-40.9-42.5c-0.7-35.8-8.6-240.9-8.6-240.9s-2.8-37.6,38.4-34.5c42,3.1,142.7,10.8,142.7,10.8
				s26.9,6.4,28.1,37.1c1.3,33.4,12.9,218.8,12.9,218.8S987.6,954.2,949.4,960.8z"/>
			<path class="st20" d="M811.3,967.8l52.9-5.5c-2.4-53.9-11.9-263.4-13.2-293.8c0-0.2,0-0.3,0-0.4c-19.3-1.5-37.7-2.8-50.6-3.8
				c-1.4-0.1-2.8-0.2-4.1-0.2c-8.8,0-15.5,2.4-19.9,7c-7.3,7.7-6.6,19.8-6.6,19.9c0,0.1,0,0.2,0,0.2c0,0.1,0.1,1.3,0.1,3.2
				c21.5,1.9,37.8,3.3,37.8,3.3s23.2,5.2,24.3,30.4c1.1,27.4,7.7,175.8,7.7,175.8s2.6,25-30.4,30.4l-30.7,2.9
				c2.1,25.2,16.8,30.7,29.2,30.7c1.9,0,3.1-0.1,3.1-0.1l0,0C811,967.8,811.1,967.8,811.3,967.8z"/>
			<path class="st20" d="M730.4,941.9l-42.7,4.1c0,0-34.5,5-35.3-34.8c-0.6-29.3-4-195.6-4-195.6s-2.4-30.8,33-28.3
				c10.4,0.7,25.2,1.9,41,3.2c-1-31.6-1.8-56.8-2.3-69.9c-20.7-2-40.7-4.1-55-5.7c-46.8-5.3-43.9,36-43.9,36s5.6,305,6.7,342.4
				c1.3,44.5,46.8,37.4,46.8,37.4l58.1-7.4C732.4,1005.7,731.5,976.7,730.4,941.9z"/>
		</g>
		<g>
			<g>
				<g>
					<path class="st21" d="M675,897.8l-18.6,1.4c0.1,3.6,0.1,6.7,0.1,8.9c0.4,23,13.5,27.9,24.4,27.9c1.6,0,2.6-0.1,2.6-0.1
						c0.1,0,0.2,0,0.3,0l31-3c1.2-3.6,1.3-6.4,1.3-6.4s-4.1-194.7-5.2-219.2c-0.2-5.5-1.8-9.9-3.9-13.4c-11.3-0.9-21.5-1.7-29.2-2.3
						c-1.2-0.1-2.3-0.1-3.4-0.1c-7.6,0-13.2,1.9-16.8,5.8c-5.5,5.9-5,14.8-5,14.8c0,0.1,0,0.3,0,0.4c0,0.3,0.1,5.5,0.3,13.9
						c15,0.8,26,1.4,26,1.4s17.3,3.7,18,21.4c0.8,19.3,0.7,127.2,0.7,127.2S699.5,894,675,897.8z"/>
					<path class="st21" d="M615.8,902.1l-31.1,2.3c0,0-25.6,3.5-26.2-24.5c-0.4-20.7-3-137.8-3-137.8s-1.8-21.7,24.6-19.9
						c7.9,0.5,19.6,1.2,32.3,2c-0.4-19.3-0.7-36.3-0.9-49.2c-16.6-1.2-32.5-2.6-43.5-3.7c-34.8-3.8-32.6,25.4-32.6,25.4
						s4.2,214.9,5,241.2c1,31.4,34.8,26.3,34.8,26.3l41.8-4.5C616.7,943.9,616.3,924.2,615.8,902.1z"/>
				</g>
				<path class="st21" d="M987.7,635.5c-1.5-40.2-36.9-48.7-36.9-48.7s-122.6-18.5-176.3-25.2c-53.7-6.7-50.4,45.3-50.4,45.3
					s12.2,379.5,13.5,426.5c1.4,56,53.7,47,53.7,47l184.7-31.9c33.6-6.7,35.3-48.7,35.3-48.7S989.4,679.4,987.7,635.5z M946.4,957.8
					L809,972c0,0-40,6-40.9-42.5c-0.7-35.8-8.6-240.9-8.6-240.9s-2.8-37.6,38.4-34.5c42,3.1,142.7,10.8,142.7,10.8
					s26.9,6.4,28.1,37.1c1.3,33.4,12.9,218.8,12.9,218.8S984.6,951.2,946.4,957.8z"/>
				<g>
					<path class="st21" d="M808.3,964.8l52.9-5.5c-2.4-53.9-11.9-263.4-13.2-293.8c0-0.2,0-0.3,0-0.4c-19.3-1.5-37.7-2.8-50.6-3.8
						c-1.4-0.1-2.8-0.2-4.1-0.2c-8.8,0-15.5,2.4-19.9,7c-7.3,7.7-6.6,19.8-6.6,19.9c0,0.1,0,0.2,0,0.2c0,0.1,0.1,1.3,0.1,3.2
						c21.5,1.9,37.8,3.3,37.8,3.3s23.2,5.2,24.3,30.4c1.1,27.4,7.7,175.8,7.7,175.8s2.6,25-30.4,30.4l-30.7,2.9
						c2.1,25.2,16.8,30.7,29.2,30.7c1.9,0,3.1-0.1,3.1-0.1l0,0C808,964.8,808.1,964.8,808.3,964.8z"/>
					<path class="st21" d="M727.4,938.9l-42.7,4.1c0,0-34.5,5-35.3-34.8c-0.6-29.3-4-195.6-4-195.6s-2.4-30.8,33-28.3
						c10.4,0.7,25.2,1.9,41,3.2c-1-31.6-1.8-56.8-2.3-69.9c-20.7-2-40.7-4.1-55-5.7c-46.8-5.3-43.9,36-43.9,36s5.6,305,6.7,342.4
						c1.3,44.5,46.8,37.4,46.8,37.4l58.1-7.4C729.4,1002.7,728.5,973.7,727.4,938.9z"/>
				</g>
			</g>
		</g>
	</g>
</g>
</svg>
